<?xml version="1.0" encoding="utf-8"?>
<!-- Generator: Adobe Illustrator 15.0.0, SVG Export Plug-In  -->
<!DOCTYPE svg PUBLIC "-//W3C//DTD SVG 1.1//EN" "http://www.w3.org/Graphics/SVG/1.1/DTD/svg11.dtd" [
	<!ENTITY ns_flows "http://ns.adobe.com/Flows/1.0/">
]>
<svg version="1.1"
	 xmlns="http://www.w3.org/2000/svg" xmlns:xlink="http://www.w3.org/1999/xlink" xmlns:a="http://ns.adobe.com/AdobeSVGViewerExtensions/3.0/"
	 x="0px" y="0px" width="72px" height="73px" viewBox="0 0 72 73" overflow="visible" enable-background="new 0 0 72 73"
	 xml:space="preserve">
<defs>
</defs>
<path d="M36.996,36.709c0,0.383-0.311,0.694-0.693,0.694s-0.693-0.311-0.693-0.694s0.311-0.694,0.693-0.694
	S36.996,36.327,36.996,36.709"/>
<path d="M35.46,38.117c0,0.383-0.311,0.694-0.693,0.694s-0.694-0.311-0.694-0.694c0-0.383,0.312-0.694,0.694-0.694
	S35.46,37.734,35.46,38.117"/>
<path d="M38.087,33.774c0,0.844-0.686,1.527-1.527,1.527c-0.844,0-1.527-0.683-1.527-1.527c0-0.841,0.684-1.527,1.527-1.527
	C37.402,32.248,38.087,32.934,38.087,33.774"/>
<path d="M40.022,39.573c0,0.844-0.684,1.527-1.527,1.527c-0.842,0-1.527-0.683-1.527-1.527c0-0.844,0.686-1.527,1.527-1.527
	C39.339,38.045,40.022,38.729,40.022,39.573"/>
<path d="M33.728,35.985c0,0.841-0.684,1.527-1.527,1.527s-1.527-0.686-1.527-1.527c0-0.844,0.684-1.527,1.527-1.527
	S33.728,35.141,33.728,35.985"/>
<path d="M41.759,34.21c0,0.844-0.684,1.527-1.527,1.527s-1.528-0.683-1.528-1.527c0-0.844,0.684-1.527,1.528-1.527
	S41.759,33.366,41.759,34.21"/>
<path d="M35.671,41.636c0,0.383-0.311,0.694-0.693,0.694s-0.694-0.311-0.694-0.694c0-0.383,0.312-0.694,0.694-0.694
	S35.671,41.252,35.671,41.636"/>
<path d="M34.456,31.819c0,0.383-0.312,0.694-0.694,0.694s-0.693-0.311-0.693-0.694c0-0.383,0.311-0.694,0.693-0.694
	S34.456,31.437,34.456,31.819"/>
<path d="M43.362,38.731c0,0.841-0.686,1.527-1.525,1.527c-0.844,0-1.529-0.686-1.529-1.527c0-0.844,0.686-1.527,1.529-1.527
	C42.677,37.204,43.362,37.887,43.362,38.731"/>
<path d="M32.053,39.092c0,0.844-0.683,1.527-1.526,1.527c-0.845,0-1.528-0.683-1.528-1.527c0-0.841,0.684-1.527,1.528-1.527
	C31.371,37.565,32.053,38.251,32.053,39.092"/>
<path d="M40.62,30.745c0,0.844-0.684,1.527-1.527,1.527c-0.843,0-1.528-0.683-1.528-1.527c0-0.844,0.685-1.527,1.528-1.527
	C39.937,29.218,40.62,29.901,40.62,30.745"/>
<path d="M39.896,43.299c0,0.844-0.684,1.527-1.527,1.527c-0.842,0-1.528-0.683-1.528-1.527c0-0.841,0.687-1.527,1.528-1.527
	C39.212,41.772,39.896,42.458,39.896,43.299"/>
<path d="M30.753,33.091c0,0.383-0.311,0.694-0.693,0.694s-0.694-0.311-0.694-0.694s0.312-0.694,0.694-0.694
	S30.753,32.708,30.753,33.091"/>
<path d="M44.329,35.096c0,0.383-0.311,0.694-0.693,0.694s-0.693-0.311-0.693-0.694s0.311-0.694,0.693-0.694
	S44.329,34.713,44.329,35.096"/>
<path d="M33.347,43.085c0,0.841-0.683,1.527-1.527,1.527c-0.844,0-1.527-0.686-1.527-1.527c0-0.844,0.684-1.527,1.527-1.527
	C32.665,41.558,33.347,42.241,33.347,43.085"/>
<path d="M36.793,28.709c0,0.844-0.687,1.527-1.526,1.527c-0.845,0-1.529-0.683-1.529-1.527c0-0.841,0.685-1.527,1.529-1.527
	C36.107,27.183,36.793,27.869,36.793,28.709"/>
<path d="M44.198,42.077c0,0.844-0.682,1.527-1.525,1.527c-0.846,0-1.529-0.683-1.529-1.527c0-0.841,0.684-1.527,1.529-1.527
	C43.517,40.55,44.198,41.236,44.198,42.077"/>
<path d="M29.249,37.065c0,0.844-0.683,1.527-1.527,1.527c-0.842,0-1.528-0.683-1.528-1.527c0-0.844,0.686-1.527,1.528-1.527
	C28.566,35.538,29.249,36.221,29.249,37.065"/>
<path d="M43.257,30.478c0,0.383-0.307,0.694-0.693,0.694c-0.383,0-0.693-0.311-0.693-0.694c0-0.386,0.311-0.694,0.693-0.694
	C42.95,29.784,43.257,30.092,43.257,30.478"/>
<path d="M36.577,45.779c0,0.383-0.312,0.694-0.694,0.694s-0.693-0.311-0.693-0.694c0-0.383,0.311-0.694,0.693-0.694
	S36.577,45.396,36.577,45.779"/>
<path d="M31.862,29.559c0,0.844-0.683,1.527-1.526,1.527c-0.845,0-1.529-0.683-1.529-1.527c0-0.844,0.685-1.527,1.529-1.527
	C31.179,28.032,31.862,28.715,31.862,29.559"/>
<path d="M47.286,37.981c0,0.844-0.682,1.527-1.525,1.527c-0.846,0-1.529-0.683-1.529-1.527c0-0.841,0.684-1.527,1.529-1.527
	C46.604,36.455,47.286,37.14,47.286,37.981"/>
<path d="M29.81,42.288c0,0.844-0.684,1.527-1.527,1.527c-0.842,0-1.528-0.683-1.528-1.527c0-0.844,0.686-1.527,1.528-1.527
	C29.126,40.761,29.81,41.444,29.81,42.288"/>
<path d="M40.021,26.965c0,0.844-0.684,1.527-1.527,1.527c-0.842,0-1.528-0.683-1.528-1.527c0-0.844,0.687-1.527,1.528-1.527
	C39.337,25.438,40.021,26.122,40.021,26.965"/>
<path d="M42.069,45.562c0,0.383-0.311,0.694-0.693,0.694s-0.695-0.311-0.695-0.694c0-0.383,0.312-0.694,0.695-0.694
	S42.069,45.179,42.069,45.562"/>
<path d="M27.074,33.544c0,0.383-0.311,0.694-0.694,0.694c-0.383,0-0.694-0.311-0.694-0.694c0-0.383,0.311-0.694,0.694-0.694
	C26.764,32.85,27.074,33.161,27.074,33.544"/>
<path d="M47.47,32.255c0,0.844-0.686,1.527-1.527,1.527c-0.844,0-1.527-0.683-1.527-1.527c0-0.844,0.684-1.527,1.527-1.527
	C46.784,30.729,47.47,31.412,47.47,32.255"/>
<path d="M33.65,46.692c0,0.844-0.684,1.527-1.527,1.527c-0.842,0-1.527-0.683-1.527-1.527s0.686-1.527,1.527-1.527
	C32.966,45.166,33.65,45.848,33.65,46.692"/>
<path d="M34.1,26.341c0,0.841-0.683,1.527-1.527,1.527c-0.844,0-1.528-0.686-1.528-1.527c0-0.844,0.685-1.527,1.528-1.527
	C33.417,24.814,34.1,25.497,34.1,26.341"/>
<path d="M47.757,41.927c0,0.844-0.684,1.527-1.527,1.527s-1.527-0.683-1.527-1.527c0-0.844,0.684-1.527,1.527-1.527
	S47.757,41.083,47.757,41.927"/>
<path d="M25.967,39.617c0,0.383-0.311,0.694-0.694,0.694c-0.383,0-0.694-0.311-0.694-0.694c0-0.383,0.311-0.694,0.694-0.694
	C25.656,38.923,25.967,39.234,25.967,39.617"/>
<path d="M43.267,26.958c0,0.383-0.309,0.694-0.695,0.694c-0.383,0-0.693-0.311-0.693-0.694c0-0.383,0.311-0.694,0.693-0.694
	C42.958,26.263,43.267,26.574,43.267,26.958"/>
<path d="M39.825,48.32c0,0.844-0.686,1.527-1.527,1.527c-0.844,0-1.527-0.683-1.527-1.527c0-0.841,0.684-1.527,1.527-1.527
	C39.14,46.792,39.825,47.479,39.825,48.32"/>
<path d="M28.371,29.384c0,0.844-0.686,1.527-1.526,1.527c-0.844,0-1.528-0.683-1.528-1.527c0-0.844,0.684-1.527,1.528-1.527
	C27.685,27.857,28.371,28.54,28.371,29.384"/>
<path d="M49.931,35.707c0,0.844-0.684,1.527-1.527,1.527c-0.842,0-1.527-0.683-1.527-1.527c0-0.844,0.686-1.527,1.527-1.527
	C49.247,34.18,49.931,34.863,49.931,35.707"/>
<path d="M29.462,45.754c0,0.844-0.684,1.527-1.527,1.527c-0.843,0-1.527-0.683-1.527-1.527c0-0.844,0.684-1.527,1.527-1.527
	C28.779,44.227,29.462,44.91,29.462,45.754"/>
<path d="M37.057,24.214c0,0.383-0.312,0.694-0.694,0.694s-0.693-0.311-0.693-0.694c0-0.383,0.311-0.694,0.693-0.694
	S37.057,23.831,37.057,24.214"/>
<path d="M45.507,46.092c0,0.383-0.311,0.694-0.693,0.694s-0.695-0.311-0.695-0.694c0-0.383,0.312-0.694,0.695-0.694
	S45.507,45.709,45.507,46.092"/>
<path d="M25.044,35.524c0,0.844-0.683,1.527-1.527,1.527c-0.842,0-1.528-0.683-1.528-1.527c0-0.841,0.686-1.527,1.528-1.527
	C24.362,33.997,25.044,34.683,25.044,35.524"/>
<path d="M48.188,28.846c0,0.844-0.682,1.527-1.525,1.527s-1.529-0.683-1.529-1.527c0-0.841,0.686-1.527,1.529-1.527
	S48.188,28.004,48.188,28.846"/>
<path d="M35.472,49.669c0,0.844-0.684,1.527-1.527,1.527s-1.528-0.683-1.528-1.527c0-0.844,0.685-1.527,1.528-1.527
	S35.472,48.825,35.472,49.669"/>
<path d="M30.726,25.422c0,0.844-0.684,1.527-1.527,1.527c-0.842,0-1.528-0.683-1.528-1.527c0-0.841,0.686-1.527,1.528-1.527
	C30.042,23.895,30.726,24.581,30.726,25.422"/>
<path d="M50.015,40.278c0,0.383-0.312,0.694-0.695,0.694s-0.693-0.311-0.693-0.694s0.311-0.694,0.693-0.694
	S50.015,39.895,50.015,40.278"/>
<path d="M24.845,42.944c0,0.386-0.308,0.694-0.694,0.694c-0.383,0-0.694-0.308-0.694-0.694c0-0.383,0.311-0.694,0.694-0.694
	C24.537,42.25,24.845,42.561,24.845,42.944"/>
<path d="M42.63,23.755c0,0.844-0.684,1.527-1.527,1.527c-0.842,0-1.527-0.683-1.527-1.527c0-0.841,0.686-1.527,1.527-1.527
	C41.946,22.229,42.63,22.915,42.63,23.755"/>
<path d="M43.097,49.65c0,0.844-0.684,1.527-1.527,1.527s-1.527-0.683-1.527-1.527c0-0.844,0.684-1.527,1.527-1.527
	S43.097,48.806,43.097,49.65"/>
<path d="M25.064,30.662c0,0.841-0.683,1.527-1.527,1.527c-0.842,0-1.528-0.686-1.528-1.527c0-0.844,0.686-1.527,1.528-1.527
	C24.381,29.135,25.064,29.818,25.064,30.662"/>
<path d="M51.474,32.502c0,0.844-0.686,1.527-1.525,1.527c-0.846,0-1.529-0.683-1.529-1.527c0-0.844,0.684-1.527,1.529-1.527
	C50.788,30.976,51.474,31.659,51.474,32.502"/>
<path d="M29.701,49.158c0,0.383-0.311,0.694-0.693,0.694s-0.693-0.311-0.693-0.694c0-0.383,0.311-0.694,0.693-0.694
	S29.701,48.775,29.701,49.158"/>
<path d="M33.936,22.456c0,0.383-0.312,0.694-0.694,0.694s-0.693-0.311-0.693-0.694c0-0.383,0.311-0.694,0.693-0.694
	S33.936,22.073,33.936,22.456"/>
<path d="M49.833,45.237c0,0.844-0.684,1.527-1.527,1.527c-0.842,0-1.527-0.683-1.527-1.527c0-0.844,0.686-1.527,1.527-1.527
	C49.149,43.71,49.833,44.393,49.833,45.237"/>
<path d="M23.07,38.548c0,0.844-0.683,1.527-1.527,1.527c-0.844,0-1.528-0.683-1.528-1.527c0-0.841,0.684-1.527,1.528-1.527
	C22.387,37.021,23.07,37.707,23.07,38.548"/>
<path d="M47.565,25.274c0,0.841-0.688,1.527-1.527,1.527c-0.844,0-1.529-0.686-1.529-1.527c0-0.844,0.686-1.527,1.529-1.527
	C46.878,23.748,47.565,24.431,47.565,25.274"/>
<path d="M38.382,51.86c0,0.844-0.684,1.527-1.527,1.527s-1.528-0.683-1.528-1.527c0-0.841,0.685-1.527,1.528-1.527
	S38.382,51.019,38.382,51.86"/>
<path d="M26.255,25.808c0,0.386-0.311,0.694-0.694,0.694c-0.386,0-0.694-0.308-0.694-0.694c0-0.383,0.308-0.694,0.694-0.694
	C25.944,25.114,26.255,25.425,26.255,25.808"/>
<path d="M52.421,37.498c0,0.383-0.311,0.694-0.693,0.694s-0.693-0.311-0.693-0.694c0-0.383,0.311-0.694,0.693-0.694
	S52.421,37.115,52.421,37.498"/>
<path d="M25.814,46.637c0,0.844-0.683,1.527-1.527,1.527c-0.842,0-1.528-0.683-1.528-1.527c0-0.844,0.686-1.527,1.528-1.527
	C25.131,45.11,25.814,45.793,25.814,46.637"/>
<path d="M40.001,21.137c0,0.844-0.684,1.527-1.527,1.527c-0.842,0-1.528-0.683-1.528-1.527c0-0.844,0.687-1.527,1.528-1.527
	C39.317,19.61,40.001,20.293,40.001,21.137"/>
<path d="M46.823,49.772c0,0.844-0.684,1.527-1.527,1.527s-1.527-0.683-1.527-1.527c0-0.841,0.684-1.527,1.527-1.527
	S46.823,48.931,46.823,49.772"/>
<path d="M22.24,33.122c0,0.844-0.683,1.527-1.527,1.527c-0.844,0-1.528-0.683-1.528-1.527c0-0.844,0.684-1.527,1.528-1.527
	C21.557,31.595,22.24,32.278,22.24,33.122"/>
<path d="M51.032,28.757c0,0.383-0.311,0.694-0.693,0.694s-0.693-0.311-0.693-0.694c0-0.383,0.311-0.694,0.693-0.694
	S51.032,28.374,51.032,28.757"/>
<path d="M31.976,52.182c0,0.383-0.312,0.694-0.694,0.694c-0.384,0-0.694-0.311-0.694-0.694c0-0.383,0.311-0.694,0.694-0.694
	C31.665,51.488,31.976,51.799,31.976,52.182"/>
<path d="M31.023,21.79c0,0.844-0.683,1.527-1.527,1.527c-0.842,0-1.527-0.683-1.527-1.527c0-0.844,0.686-1.527,1.527-1.527
	C30.34,20.263,31.023,20.946,31.023,21.79"/>
<path d="M53.046,43.166c0,0.844-0.684,1.527-1.527,1.527s-1.527-0.683-1.527-1.527c0-0.844,0.684-1.527,1.527-1.527
	S53.046,42.322,53.046,43.166"/>
<path d="M22.124,42.271c0,0.844-0.683,1.527-1.527,1.527c-0.844,0-1.528-0.683-1.528-1.527c0-0.844,0.684-1.527,1.528-1.527
	C21.44,40.745,22.124,41.428,22.124,42.271"/>
<path d="M45.712,21.884c0,0.844-0.682,1.527-1.527,1.527c-0.844,0-1.527-0.683-1.527-1.527c0-0.841,0.684-1.527,1.527-1.527
	C45.03,20.357,45.712,21.043,45.712,21.884"/>
<path d="M41.228,53.09c0,0.383-0.311,0.694-0.693,0.694s-0.695-0.311-0.695-0.694c0-0.383,0.312-0.694,0.695-0.694
	S41.228,52.707,41.228,53.09"/>
<path d="M22.704,27.421c0,0.383-0.311,0.694-0.694,0.694s-0.694-0.311-0.694-0.694c0-0.383,0.311-0.694,0.694-0.694
	S22.704,27.038,22.704,27.421"/>
<path d="M54.769,33.883c0,0.844-0.684,1.527-1.527,1.527c-0.842,0-1.529-0.683-1.529-1.527c0-0.841,0.688-1.527,1.529-1.527
	C54.085,32.356,54.769,33.042,54.769,33.883"/>
<path d="M27.169,50.335c0,0.844-0.683,1.527-1.527,1.527c-0.842,0-1.528-0.683-1.528-1.527c0-0.844,0.686-1.527,1.528-1.527
	C26.486,48.809,27.169,49.492,27.169,50.335"/>
<path d="M36.474,19.337c0,0.844-0.684,1.527-1.527,1.527c-0.842,0-1.527-0.683-1.527-1.527c0-0.844,0.686-1.527,1.527-1.527
	C35.791,17.811,36.474,18.494,36.474,19.337"/>
<path d="M50.653,48.689c0,0.844-0.684,1.527-1.527,1.527s-1.529-0.683-1.529-1.527c0-0.844,0.686-1.527,1.529-1.527
	S50.653,47.845,50.653,48.689"/>
<path d="M19.324,36.538c0,0.383-0.311,0.694-0.694,0.694c-0.383,0-0.694-0.311-0.694-0.694c0-0.383,0.311-0.694,0.694-0.694
	C19.013,35.843,19.324,36.154,19.324,36.538"/>
<path d="M50.233,24.819c0,0.383-0.311,0.694-0.693,0.694c-0.385,0-0.695-0.311-0.695-0.694c0-0.383,0.311-0.694,0.695-0.694
	C49.923,24.125,50.233,24.436,50.233,24.819"/>
<path d="M36.088,54.54c0,0.844-0.683,1.527-1.527,1.527c-0.844,0-1.528-0.683-1.528-1.527c0-0.844,0.685-1.527,1.528-1.527
	C35.406,53.013,36.088,53.696,36.088,54.54"/>
<path d="M26.997,22.29c0,0.844-0.686,1.527-1.527,1.527c-0.844,0-1.528-0.683-1.528-1.527c0-0.844,0.684-1.527,1.528-1.527
	C26.311,20.762,26.997,21.445,26.997,22.29"/>
<path d="M55.677,40.047c0,0.841-0.684,1.527-1.527,1.527s-1.529-0.687-1.529-1.527c0-0.844,0.686-1.527,1.529-1.527
	S55.677,39.204,55.677,40.047"/>
<path d="M22.315,46.367c0,0.844-0.683,1.527-1.527,1.527c-0.844,0-1.528-0.683-1.528-1.527c0-0.844,0.684-1.527,1.528-1.527
	C21.632,44.84,22.315,45.523,22.315,46.367"/>
<path d="M41.944,18.993c0,0.383-0.311,0.694-0.693,0.694s-0.695-0.311-0.695-0.694c0-0.383,0.312-0.694,0.695-0.694
	S41.944,18.61,41.944,18.993"/>
<path d="M45.368,53.221c0,0.383-0.311,0.694-0.693,0.694c-0.387,0-0.695-0.311-0.695-0.694c0-0.383,0.309-0.694,0.695-0.694
	C45.058,52.527,45.368,52.838,45.368,53.221"/>
<path d="M20.396,30.148c0,0.844-0.686,1.527-1.527,1.527c-0.844,0-1.528-0.683-1.528-1.527c0-0.841,0.684-1.527,1.528-1.527
	C19.71,28.621,20.396,29.307,20.396,30.148"/>
<path d="M55.224,29.729c0,0.841-0.684,1.527-1.527,1.527s-1.527-0.686-1.527-1.527c0-0.844,0.684-1.527,1.527-1.527
	S55.224,28.885,55.224,29.729"/>
<path d="M29.667,53.712c0,0.844-0.683,1.527-1.526,1.527c-0.842,0-1.528-0.683-1.528-1.527c0-0.844,0.686-1.527,1.528-1.527
	C28.985,52.185,29.667,52.868,29.667,53.712"/>
<path d="M32.328,18.552c0,0.841-0.683,1.527-1.526,1.527c-0.845,0-1.528-0.686-1.528-1.527c0-0.844,0.684-1.527,1.528-1.527
	C31.645,17.025,32.328,17.708,32.328,18.552"/>
<path d="M53.415,46.442c0,0.383-0.311,0.694-0.693,0.694s-0.693-0.311-0.693-0.694c0-0.386,0.311-0.694,0.693-0.694
	S53.415,46.056,53.415,46.442"/>
<path d="M18.203,40.65c0,0.383-0.308,0.694-0.694,0.694c-0.383,0-0.694-0.311-0.694-0.694s0.311-0.694,0.694-0.694
	C17.895,39.956,18.203,40.267,18.203,40.65"/>
<path d="M49.093,21.021c0,0.841-0.688,1.527-1.527,1.527c-0.844,0-1.529-0.686-1.529-1.527c0-0.844,0.686-1.527,1.529-1.527
	C48.405,19.494,49.093,20.176,49.093,21.021"/>
<path d="M40.136,55.998c0,0.844-0.682,1.527-1.526,1.527c-0.845,0-1.528-0.683-1.528-1.527c0-0.844,0.684-1.527,1.528-1.527
	C39.454,54.471,40.136,55.154,40.136,55.998"/>
<path d="M23.015,23.975c0,0.841-0.683,1.527-1.527,1.527c-0.844,0-1.528-0.686-1.528-1.527c0-0.844,0.684-1.527,1.528-1.527
	C22.332,22.448,23.015,23.131,23.015,23.975"/>
<path d="M57.468,36.09c0,0.841-0.684,1.527-1.527,1.527s-1.529-0.686-1.529-1.527c0-0.844,0.686-1.527,1.529-1.527
	S57.468,35.246,57.468,36.09"/>
<path d="M22.856,50.508c0,0.383-0.311,0.694-0.694,0.694c-0.383,0-0.694-0.311-0.694-0.694c0-0.383,0.311-0.694,0.694-0.694
	C22.545,49.814,22.856,50.125,22.856,50.508"/>
<path d="M38.107,16.875c0,0.383-0.311,0.694-0.693,0.694c-0.384,0-0.695-0.311-0.695-0.694s0.312-0.694,0.695-0.694
	C37.796,16.181,38.107,16.492,38.107,16.875"/>
<path d="M50.478,52.171c0,0.844-0.684,1.527-1.527,1.527s-1.527-0.683-1.527-1.527c0-0.844,0.684-1.527,1.527-1.527
	S50.478,51.327,50.478,52.171"/>
<path d="M17.953,33.838c0,0.841-0.686,1.527-1.527,1.527c-0.844,0-1.528-0.686-1.528-1.527c0-0.844,0.684-1.527,1.528-1.527
	C17.267,32.312,17.953,32.994,17.953,33.838"/>
<path d="M54.515,25.341c0,0.841-0.682,1.527-1.527,1.527c-0.844,0-1.527-0.686-1.527-1.527c0-0.844,0.684-1.527,1.527-1.527
	C53.833,23.814,54.515,24.497,54.515,25.341"/>
<path d="M33.181,56.47c0,0.844-0.684,1.527-1.527,1.527s-1.527-0.683-1.527-1.527c0-0.844,0.684-1.527,1.527-1.527
	S33.181,55.625,33.181,56.47"/>
<path d="M27.024,18.907c0,0.383-0.311,0.694-0.694,0.694c-0.383,0-0.694-0.311-0.694-0.694c0-0.383,0.311-0.694,0.694-0.694
	C26.713,18.213,27.024,18.524,27.024,18.907"/>
<path d="M56.476,43.135c0,0.383-0.311,0.694-0.693,0.694s-0.695-0.311-0.695-0.694s0.312-0.694,0.695-0.694
	S56.476,42.752,56.476,43.135"/>
<path d="M19.03,45.173c0,0.844-0.683,1.527-1.527,1.527c-0.844,0-1.528-0.683-1.528-1.527c0-0.844,0.684-1.527,1.528-1.527
	C18.347,43.646,19.03,44.33,19.03,45.173"/>
<path d="M46.015,17.674c0,0.841-0.682,1.527-1.527,1.527c-0.844,0-1.527-0.686-1.527-1.527c0-0.844,0.684-1.527,1.527-1.527
	C45.333,16.147,46.015,16.831,46.015,17.674"/>
<path d="M44.685,56.375c0,0.844-0.682,1.527-1.527,1.527c-0.842,0-1.527-0.683-1.527-1.527c0-0.844,0.686-1.527,1.527-1.527
	C44.003,54.848,44.685,55.531,44.685,56.375"/>
<path d="M19.399,26.791c0,0.844-0.686,1.527-1.527,1.527c-0.844,0-1.528-0.683-1.528-1.527c0-0.841,0.684-1.527,1.528-1.527
	C18.713,25.264,19.399,25.95,19.399,26.791"/>
<path d="M57.386,31.547c0,0.383-0.311,0.694-0.693,0.694s-0.693-0.311-0.693-0.694c0-0.383,0.311-0.694,0.693-0.694
	S57.386,31.165,57.386,31.547"/>
<path d="M25.392,54.376c0,0.383-0.311,0.694-0.694,0.694s-0.694-0.311-0.694-0.694c0-0.383,0.311-0.694,0.694-0.694
	S25.392,53.993,25.392,54.376"/>
<path d="M34.436,15.744c0,0.841-0.683,1.527-1.526,1.527c-0.845,0-1.529-0.686-1.529-1.527c0-0.844,0.685-1.527,1.529-1.527
	C33.753,14.217,34.436,14.9,34.436,15.744"/>
<path d="M54.573,49.941c0,0.844-0.684,1.527-1.527,1.527s-1.527-0.683-1.527-1.527c0-0.844,0.684-1.527,1.527-1.527
	S54.573,49.097,54.573,49.941"/>
<path d="M16.445,38.27c0,0.844-0.683,1.527-1.527,1.527c-0.844,0-1.528-0.683-1.528-1.527c0-0.841,0.684-1.527,1.528-1.527
	C15.762,36.743,16.445,37.429,16.445,38.27"/>
<path d="M52.612,21.04c0,0.844-0.686,1.527-1.527,1.527c-0.844,0-1.527-0.683-1.527-1.527c0-0.844,0.684-1.527,1.527-1.527
	C51.927,19.513,52.612,20.196,52.612,21.04"/>
<path d="M36.679,58.35c0,0.383-0.311,0.694-0.693,0.694s-0.694-0.311-0.694-0.694c0-0.383,0.312-0.694,0.694-0.694
	S36.679,57.966,36.679,58.35"/>
<path d="M22.545,20.462c0,0.383-0.311,0.694-0.694,0.694c-0.383,0-0.694-0.311-0.694-0.694c0-0.383,0.311-0.694,0.694-0.694
	C22.234,19.768,22.545,20.079,22.545,20.462"/>
<path d="M59.558,38.937c0,0.844-0.684,1.527-1.527,1.527s-1.527-0.683-1.527-1.527c0-0.841,0.684-1.527,1.527-1.527
	S59.558,38.096,59.558,38.937"/>
<path d="M20.221,49.802c0,0.844-0.683,1.527-1.527,1.527c-0.842,0-1.528-0.683-1.528-1.527c0-0.841,0.686-1.527,1.528-1.527
	C19.538,48.275,20.221,48.961,20.221,49.802"/>
<path d="M41.985,15.064c0,0.844-0.682,1.527-1.527,1.527c-0.844,0-1.527-0.683-1.527-1.527c0-0.844,0.683-1.527,1.527-1.527
	C41.304,13.537,41.985,14.22,41.985,15.064"/>
<path d="M49.437,55.562c0,0.844-0.684,1.527-1.527,1.527s-1.527-0.683-1.527-1.527c0-0.844,0.684-1.527,1.527-1.527
	S49.437,54.718,49.437,55.562"/>
<path d="M15.609,30.623c0,0.383-0.311,0.694-0.694,0.694c-0.383,0-0.694-0.311-0.694-0.694c0-0.383,0.311-0.694,0.694-0.694
	C15.298,29.929,15.609,30.24,15.609,30.623"/>
<path d="M56.964,26.708c0,0.383-0.311,0.694-0.693,0.694s-0.693-0.311-0.693-0.694c0-0.383,0.311-0.694,0.693-0.694
	S56.964,26.324,56.964,26.708"/>
<path d="M29.826,57.664c0,0.844-0.682,1.527-1.526,1.527c-0.844,0-1.528-0.683-1.528-1.527c0-0.844,0.684-1.527,1.528-1.527
	C29.144,56.137,29.826,56.82,29.826,57.664"/>
<path d="M29.541,15.764c0,0.841-0.684,1.527-1.527,1.527s-1.528-0.686-1.528-1.527c0-0.844,0.684-1.527,1.528-1.527
	S29.541,14.92,29.541,15.764"/>
<path d="M58.177,46.598c0,0.844-0.686,1.527-1.525,1.527c-0.844,0-1.529-0.683-1.529-1.527c0-0.844,0.686-1.527,1.529-1.527
	C57.491,45.071,58.177,45.754,58.177,46.598"/>
<path d="M16.053,43.191c0,0.844-0.683,1.527-1.527,1.527c-0.842,0-1.528-0.683-1.528-1.527c0-0.844,0.686-1.527,1.528-1.527
	C15.37,41.664,16.053,42.347,16.053,43.191"/>
<path d="M48.722,17.141c0,0.383-0.311,0.694-0.693,0.694s-0.693-0.311-0.693-0.694s0.311-0.694,0.693-0.694
	S48.722,16.758,48.722,17.141"/>
<path d="M41.587,59.155c0,0.383-0.312,0.694-0.695,0.694s-0.693-0.311-0.693-0.694s0.311-0.694,0.693-0.694
	S41.587,58.772,41.587,59.155"/>
<path d="M19.208,23.206c0,0.844-0.686,1.527-1.527,1.527c-0.844,0-1.528-0.683-1.528-1.527c0-0.844,0.684-1.527,1.528-1.527
	C18.521,21.679,19.208,22.362,19.208,23.206"/>
<path d="M60.776,34.077c0,0.844-0.686,1.527-1.527,1.527c-0.844,0-1.527-0.683-1.527-1.527s0.684-1.527,1.527-1.527
	C60.091,32.55,60.776,33.233,60.776,34.077"/>
<path d="M22.626,54.223c0,0.841-0.683,1.527-1.527,1.527c-0.844,0-1.528-0.686-1.528-1.527c0-0.844,0.684-1.527,1.528-1.527
	C21.943,52.696,22.626,53.379,22.626,54.223"/>
<path d="M37.207,13.434c0,0.841-0.682,1.527-1.526,1.527c-0.842,0-1.528-0.686-1.528-1.527c0-0.844,0.687-1.527,1.528-1.527
	C36.525,11.907,37.207,12.59,37.207,13.434"/>
<path d="M53.241,53.521c0,0.383-0.312,0.694-0.695,0.694s-0.693-0.311-0.693-0.694c0-0.383,0.311-0.694,0.693-0.694
	S53.241,53.138,53.241,53.521"/>
<path d="M13.571,35.282c0,0.383-0.311,0.694-0.694,0.694c-0.383,0-0.694-0.311-0.694-0.694c0-0.383,0.311-0.694,0.694-0.694
	C13.26,34.588,13.571,34.899,13.571,35.282"/>
<path d="M56.14,21.878c0,0.844-0.684,1.527-1.527,1.527s-1.527-0.683-1.527-1.527c0-0.841,0.684-1.527,1.527-1.527
	S56.14,21.038,56.14,21.878"/>
<path d="M34.333,60.104c0,0.841-0.687,1.527-1.527,1.527c-0.844,0-1.527-0.686-1.527-1.527c0-0.844,0.684-1.527,1.527-1.527
	C33.647,58.578,34.333,59.26,34.333,60.104"/>
<path d="M24.553,17.022c0,0.844-0.683,1.527-1.527,1.527c-0.842,0-1.528-0.683-1.528-1.527c0-0.844,0.686-1.527,1.528-1.527
	C23.87,15.495,24.553,16.178,24.553,17.022"/>
<path d="M61.005,42.283c0,0.841-0.684,1.527-1.527,1.527c-0.842,0-1.527-0.686-1.527-1.527c0-0.844,0.686-1.527,1.527-1.527
	C60.321,40.756,61.005,41.439,61.005,42.283"/>
<path d="M16.064,48.3c0,0.383-0.311,0.694-0.694,0.694c-0.383,0-0.694-0.311-0.694-0.694c0-0.383,0.311-0.694,0.694-0.694
	C15.753,47.606,16.064,47.917,16.064,48.3"/>
<path d="M44.63,13.937c0,0.383-0.311,0.694-0.695,0.694c-0.383,0-0.693-0.311-0.693-0.694c0-0.383,0.311-0.694,0.693-0.694
	C44.319,13.243,44.63,13.554,44.63,13.937"/>
<path d="M47.618,58.741c0,0.844-0.684,1.527-1.527,1.527c-0.842,0-1.529-0.683-1.529-1.527c0-0.844,0.688-1.527,1.529-1.527
	C46.935,57.214,47.618,57.897,47.618,58.741"/>
<path d="M15.648,27.041c0,0.844-0.686,1.527-1.527,1.527c-0.844,0-1.528-0.683-1.528-1.527c0-0.841,0.684-1.527,1.528-1.527
	C14.962,25.514,15.648,26.2,15.648,27.041"/>
<path d="M60.802,28.826c0,0.841-0.686,1.527-1.527,1.527c-0.844,0-1.527-0.686-1.527-1.527c0-0.844,0.684-1.527,1.527-1.527
	C60.116,27.299,60.802,27.982,60.802,28.826"/>
<path d="M26.175,58.119c0,0.844-0.686,1.527-1.527,1.527c-0.844,0-1.528-0.683-1.528-1.527s0.684-1.527,1.528-1.527
	C25.489,56.592,26.175,57.275,26.175,58.119"/>
<path d="M31.107,12.965c0,0.383-0.312,0.694-0.694,0.694c-0.384,0-0.694-0.311-0.694-0.694c0-0.386,0.311-0.694,0.694-0.694
	C30.795,12.271,31.107,12.579,31.107,12.965"/>
<path d="M57.452,50.291c0,0.383-0.311,0.694-0.693,0.694s-0.693-0.311-0.693-0.694c0-0.383,0.311-0.694,0.693-0.694
	S57.452,49.908,57.452,50.291"/>
<path d="M13.484,40.528c0,0.841-0.683,1.527-1.527,1.527c-0.844,0-1.528-0.686-1.528-1.527c0-0.844,0.684-1.527,1.528-1.527
	C12.802,39,13.484,39.684,13.484,40.528"/>
<path d="M53.257,17.383c0,0.841-0.686,1.527-1.527,1.527c-0.844,0-1.527-0.686-1.527-1.527c0-0.844,0.684-1.527,1.527-1.527
	C52.571,15.856,53.257,16.539,53.257,17.383"/>
<path d="M39.515,61.471c0,0.841-0.683,1.527-1.527,1.527c-0.842,0-1.527-0.686-1.527-1.527c0-0.844,0.686-1.527,1.527-1.527
	C38.832,59.944,39.515,60.626,39.515,61.471"/>
<path d="M19.796,19.532c0,0.841-0.683,1.527-1.527,1.527c-0.842,0-1.528-0.686-1.528-1.527c0-0.844,0.686-1.527,1.528-1.527
	C19.113,18.005,19.796,18.688,19.796,19.532"/>
<path d="M61.981,37.198c0,0.383-0.311,0.694-0.693,0.694s-0.693-0.311-0.693-0.694c0-0.383,0.311-0.694,0.693-0.694
	S61.981,36.815,61.981,37.198"/>
<path d="M18.177,53.285c0,0.383-0.311,0.694-0.694,0.694s-0.694-0.311-0.694-0.694c0-0.383,0.311-0.694,0.694-0.694
	S18.177,52.901,18.177,53.285"/>
<path d="M40.517,11.69c0,0.841-0.682,1.527-1.527,1.527c-0.842,0-1.527-0.686-1.527-1.527c0-0.844,0.686-1.527,1.527-1.527
	C39.835,10.163,40.517,10.846,40.517,11.69"/>
<path d="M52.8,57.044c0,0.844-0.688,1.527-1.527,1.527c-0.844,0-1.529-0.683-1.529-1.527c0-0.844,0.686-1.527,1.529-1.527
	C52.112,55.518,52.8,56.2,52.8,57.044"/>
<path d="M12.971,31.811c0,0.841-0.683,1.527-1.527,1.527s-1.528-0.686-1.528-1.527c0-0.844,0.684-1.527,1.528-1.527
	S12.971,30.967,12.971,31.811"/>
<path d="M59.542,23.486c0,0.844-0.684,1.527-1.527,1.527s-1.529-0.683-1.529-1.527c0-0.844,0.686-1.527,1.529-1.527
	S59.542,22.642,59.542,23.486"/>
<path d="M29.896,61.207c0,0.383-0.311,0.694-0.694,0.694c-0.386,0-0.694-0.311-0.694-0.694c0-0.383,0.309-0.694,0.694-0.694
	C29.585,60.513,29.896,60.824,29.896,61.207"/>
<path d="M25.647,13.773c0,0.383-0.311,0.694-0.694,0.694s-0.694-0.311-0.694-0.694c0-0.383,0.311-0.694,0.694-0.694
	S25.647,13.39,25.647,13.773"/>
<path d="M61.771,45.987c0,0.844-0.682,1.527-1.527,1.527c-0.844,0-1.527-0.683-1.527-1.527c0-0.844,0.684-1.527,1.527-1.527
	C61.089,44.46,61.771,45.143,61.771,45.987"/>
<path d="M13.829,46.073c0,0.841-0.683,1.527-1.527,1.527c-0.842,0-1.528-0.686-1.528-1.527c0-0.844,0.686-1.527,1.528-1.527
	C13.146,44.546,13.829,45.229,13.829,46.073"/>
<path d="M49.239,13.52c0,0.844-0.684,1.527-1.527,1.527s-1.527-0.683-1.527-1.527c0-0.844,0.684-1.527,1.527-1.527
	S49.239,12.676,49.239,13.52"/>
<path d="M45.104,61.596c0,0.844-0.684,1.527-1.527,1.527s-1.527-0.683-1.527-1.527c0-0.841,0.684-1.527,1.527-1.527
	S45.104,60.755,45.104,61.596"/>
<path d="M14.748,23.231c0,0.383-0.308,0.694-0.694,0.694c-0.383,0-0.694-0.311-0.694-0.694c0-0.383,0.311-0.694,0.694-0.694
	C14.44,22.537,14.748,22.848,14.748,23.231"/>
<path d="M62.587,31.606c0,0.383-0.311,0.694-0.693,0.694S61.2,31.989,61.2,31.606c0-0.383,0.311-0.694,0.693-0.694
	S62.587,31.223,62.587,31.606"/>
<path d="M22.356,57.828c0,0.844-0.683,1.527-1.527,1.527c-0.842,0-1.528-0.683-1.528-1.527c0-0.844,0.686-1.527,1.528-1.527
	C21.674,56.3,22.356,56.983,22.356,57.828"/>
<path d="M34.963,10.604c0,0.844-0.683,1.527-1.526,1.527s-1.528-0.683-1.528-1.527c0-0.841,0.685-1.527,1.528-1.527
	S34.963,9.763,34.963,10.604"/>
<path d="M57.636,54.076c0,0.844-0.682,1.527-1.527,1.527c-0.842,0-1.527-0.683-1.527-1.527c0-0.841,0.686-1.527,1.527-1.527
	C56.954,52.549,57.636,53.235,57.636,54.076"/>
<path d="M11.41,37.285c0,0.844-0.683,1.527-1.527,1.527c-0.844,0-1.528-0.683-1.528-1.527c0-0.841,0.684-1.527,1.528-1.527
	C10.727,35.757,11.41,36.443,11.41,37.285"/>
<path d="M56.147,18.382c0,0.383-0.311,0.694-0.693,0.694s-0.693-0.311-0.693-0.694s0.311-0.694,0.693-0.694S56.147,18,56.147,18.382
	"/>
<path d="M35.25,63.242c0,0.383-0.311,0.694-0.693,0.694c-0.384,0-0.695-0.311-0.695-0.694c0-0.383,0.312-0.694,0.695-0.694
	C34.939,62.548,35.25,62.859,35.25,63.242"/>
<path d="M21.143,15.903c0,0.844-0.683,1.527-1.527,1.527c-0.842,0-1.528-0.683-1.528-1.527c0-0.844,0.686-1.527,1.528-1.527
	C20.46,14.375,21.143,15.059,21.143,15.903"/>
<path d="M64.267,40.794c0,0.844-0.682,1.527-1.525,1.527c-0.846,0-1.529-0.683-1.529-1.527c0-0.844,0.684-1.527,1.529-1.527
	C63.585,39.267,64.267,39.95,64.267,40.794"/>
<path d="M15.509,51.602c0,0.844-0.686,1.527-1.527,1.527c-0.844,0-1.528-0.683-1.528-1.527c0-0.844,0.684-1.527,1.528-1.527
	C14.823,50.075,15.509,50.758,15.509,51.602"/>
<path d="M44.249,10.574c0,0.841-0.686,1.527-1.527,1.527c-0.844,0-1.527-0.686-1.527-1.527c0-0.844,0.684-1.527,1.527-1.527
	C43.563,9.047,44.249,9.73,44.249,10.574"/>
<path d="M49.956,60.388c0,0.383-0.309,0.694-0.695,0.694c-0.383,0-0.693-0.311-0.693-0.694c0-0.383,0.311-0.694,0.693-0.694
	C49.647,59.694,49.956,60.005,49.956,60.388"/>
<path d="M11.369,27.979c0,0.383-0.311,0.694-0.694,0.694c-0.383,0-0.694-0.311-0.694-0.694c0-0.383,0.311-0.694,0.694-0.694
	C11.058,27.285,11.369,27.596,11.369,27.979"/>
<path d="M62.698,25.805c0,0.844-0.686,1.527-1.527,1.527c-0.844,0-1.527-0.683-1.527-1.527c0-0.844,0.684-1.527,1.527-1.527
	C62.013,24.278,62.698,24.961,62.698,25.805"/>
<path d="M26.827,61.621c0,0.844-0.686,1.527-1.527,1.527c-0.844,0-1.528-0.683-1.528-1.527c0-0.841,0.684-1.527,1.528-1.527
	C26.142,60.094,26.827,60.78,26.827,61.621"/>
<path d="M29.087,10.832c0,0.844-0.683,1.527-1.527,1.527c-0.842,0-1.528-0.683-1.528-1.527c0-0.844,0.686-1.527,1.528-1.527
	C28.405,9.305,29.087,9.988,29.087,10.832"/>
<path d="M61.823,49.925c0,0.844-0.682,1.527-1.527,1.527c-0.844,0-1.527-0.683-1.527-1.527c0-0.844,0.684-1.527,1.527-1.527
	C61.142,48.397,61.823,49.081,61.823,49.925"/>
<path d="M10.3,43.191c0,0.383-0.311,0.694-0.694,0.694c-0.383,0-0.694-0.311-0.694-0.694c0-0.383,0.311-0.694,0.694-0.694
	C9.989,42.497,10.3,42.808,10.3,43.191"/>
<path d="M52.347,13.831c0,0.383-0.311,0.694-0.693,0.694c-0.385,0-0.695-0.311-0.695-0.694c0-0.383,0.311-0.694,0.695-0.694
	C52.036,13.137,52.347,13.448,52.347,13.831"/>
<path d="M41.976,64.025c0,0.844-0.684,1.527-1.527,1.527c-0.842,0-1.529-0.683-1.529-1.527c0-0.844,0.687-1.527,1.529-1.527
	C41.292,62.499,41.976,63.182,41.976,64.025"/>
<path d="M16.259,19.318c0,0.844-0.683,1.527-1.527,1.527c-0.844,0-1.528-0.683-1.528-1.527c0-0.841,0.684-1.527,1.528-1.527
	C15.576,17.791,16.259,18.477,16.259,19.318"/>
<path d="M65.56,34.958c0,0.844-0.684,1.527-1.527,1.527c-0.842,0-1.529-0.683-1.529-1.527c0-0.844,0.688-1.527,1.529-1.527
	C64.876,33.43,65.56,34.113,65.56,34.958"/>
<path d="M18.511,56.789c0,0.844-0.683,1.527-1.527,1.527c-0.842,0-1.528-0.683-1.528-1.527c0-0.841,0.686-1.527,1.528-1.527
	C17.828,55.262,18.511,55.948,18.511,56.789"/>
<path d="M37.679,8.777c0,0.383-0.311,0.694-0.693,0.694c-0.384,0-0.695-0.311-0.695-0.694c0-0.383,0.312-0.694,0.695-0.694
	C37.369,8.083,37.679,8.394,37.679,8.777"/>
<path d="M55.411,57.825c0,0.383-0.311,0.694-0.693,0.694s-0.693-0.311-0.693-0.694s0.311-0.694,0.693-0.694
	S55.411,57.442,55.411,57.825"/>
<path d="M9.908,33.572c0,0.841-0.683,1.527-1.527,1.527c-0.842,0-1.528-0.686-1.528-1.527c0-0.844,0.686-1.527,1.528-1.527
	C9.225,32.045,9.908,32.728,9.908,33.572"/>
<path d="M60.599,20.118c0,0.844-0.682,1.527-1.527,1.527c-0.844,0-1.527-0.683-1.527-1.527c0-0.841,0.684-1.527,1.527-1.527
	C59.917,18.591,60.599,19.277,60.599,20.118"/>
<path d="M32.231,64.4c0,0.841-0.683,1.527-1.526,1.527c-0.845,0-1.528-0.686-1.528-1.527c0-0.844,0.684-1.527,1.528-1.527
	C31.548,62.874,32.231,63.556,32.231,64.4"/>
<path d="M23.215,12.445c0,0.841-0.686,1.527-1.527,1.527c-0.844,0-1.528-0.686-1.528-1.527c0-0.844,0.684-1.527,1.528-1.527
	C22.529,10.918,23.215,11.602,23.215,12.445"/>
<path d="M64.237,44.751c0,0.383-0.311,0.694-0.695,0.694c-0.383,0-0.693-0.311-0.693-0.694c0-0.383,0.311-0.694,0.693-0.694
	C63.927,44.057,64.237,44.368,64.237,44.751"/>
<path d="M11.41,49.214c0,0.386-0.311,0.694-0.694,0.694c-0.386,0-0.694-0.308-0.694-0.694c0-0.383,0.308-0.694,0.694-0.694
	C11.099,48.52,11.41,48.831,11.41,49.214"/>
<path d="M48.276,10.135c0,0.841-0.684,1.527-1.527,1.527c-0.842,0-1.529-0.686-1.529-1.527c0-0.844,0.688-1.527,1.529-1.527
	C47.593,8.608,48.276,9.291,48.276,10.135"/>
<path d="M48.103,63.434c0,0.844-0.682,1.527-1.525,1.527s-1.529-0.683-1.529-1.527c0-0.844,0.686-1.527,1.529-1.527
	S48.103,62.59,48.103,63.434"/>
<path d="M12.132,23.911c0,0.844-0.683,1.527-1.527,1.527c-0.842,0-1.528-0.683-1.528-1.527s0.686-1.527,1.528-1.527
	C11.449,22.384,12.132,23.067,12.132,23.911"/>
<path d="M65.495,28.768c0,0.844-0.684,1.527-1.527,1.527s-1.527-0.683-1.527-1.527c0-0.841,0.684-1.527,1.527-1.527
	S65.495,27.927,65.495,28.768"/>
<path d="M21.921,61.318c0,0.383-0.311,0.694-0.694,0.694c-0.383,0-0.694-0.311-0.694-0.694c0-0.383,0.311-0.694,0.694-0.694
	C21.61,60.624,21.921,60.935,21.921,61.318"/>
<path d="M31.476,8.308c0,0.383-0.312,0.694-0.694,0.694s-0.694-0.311-0.694-0.694c0-0.383,0.312-0.694,0.694-0.694
	S31.476,7.925,31.476,8.308"/>
<path d="M61.144,53.968c0,0.844-0.684,1.527-1.527,1.527c-0.842,0-1.527-0.683-1.527-1.527s0.686-1.527,1.527-1.527
	C60.46,52.441,61.144,53.124,61.144,53.968"/>
<path d="M8.906,39.742c0,0.844-0.683,1.527-1.527,1.527c-0.844,0-1.528-0.683-1.528-1.527c0-0.844,0.684-1.527,1.528-1.527
	C8.223,38.215,8.906,38.898,8.906,39.742"/>
<path d="M57.159,14.881c0,0.844-0.688,1.527-1.527,1.527c-0.844,0-1.527-0.683-1.527-1.527c0-0.844,0.684-1.527,1.527-1.527
	C56.472,13.354,57.159,14.037,57.159,14.881"/>
<path d="M38.324,65.936c0,0.844-0.684,1.527-1.527,1.527s-1.527-0.683-1.527-1.527c0-0.844,0.684-1.527,1.527-1.527
	S38.324,65.092,38.324,65.936"/>
<path d="M16.839,15.439c0,0.383-0.311,0.694-0.694,0.694s-0.694-0.311-0.694-0.694s0.311-0.694,0.694-0.694
	S16.839,15.056,16.839,15.439"/>
<path d="M66.304,38.784c0,0.383-0.312,0.694-0.695,0.694s-0.693-0.311-0.693-0.694c0-0.383,0.311-0.694,0.693-0.694
	S66.304,38.401,66.304,38.784"/>
<path d="M14.762,55.023c0,0.844-0.683,1.527-1.527,1.527c-0.844,0-1.528-0.683-1.528-1.527c0-0.844,0.684-1.527,1.528-1.527
	C14.079,53.496,14.762,54.179,14.762,55.023"/>
<path d="M42.479,7.553c0,0.841-0.682,1.527-1.525,1.527c-0.846,0-1.529-0.686-1.529-1.527c0-0.844,0.684-1.527,1.529-1.527
	C41.798,6.026,42.479,6.708,42.479,7.553"/>
<path d="M54.134,61.413c0,0.844-0.682,1.527-1.525,1.527s-1.529-0.683-1.529-1.527c0-0.844,0.686-1.527,1.529-1.527
	S54.134,60.568,54.134,61.413"/>
<path d="M9.047,29.493c0,0.844-0.683,1.527-1.527,1.527c-0.844,0-1.528-0.683-1.528-1.527c0-0.844,0.684-1.527,1.528-1.527
	C8.364,27.966,9.047,28.648,9.047,29.493"/>
<path d="M63.159,22.556c0,0.383-0.311,0.694-0.693,0.694s-0.695-0.311-0.695-0.694c0-0.383,0.312-0.694,0.695-0.694
	S63.159,22.173,63.159,22.556"/>
<path d="M27.241,64.889c0,0.383-0.311,0.694-0.694,0.694c-0.383,0-0.694-0.311-0.694-0.694c0-0.383,0.311-0.694,0.694-0.694
	C26.93,64.195,27.241,64.506,27.241,64.889"/>
<path d="M25.958,9.277c0,0.841-0.683,1.527-1.527,1.527s-1.528-0.686-1.528-1.527c0-0.844,0.684-1.527,1.528-1.527
	S25.958,8.433,25.958,9.277"/>
<path d="M65.179,48.95c0,0.841-0.684,1.527-1.527,1.527c-0.842,0-1.527-0.686-1.527-1.527c0-0.844,0.686-1.527,1.527-1.527
	C64.495,47.423,65.179,48.106,65.179,48.95"/>
<path d="M9.325,46.181c0,0.844-0.683,1.527-1.527,1.527c-0.842,0-1.528-0.683-1.528-1.527c0-0.841,0.686-1.527,1.528-1.527
	C8.642,44.654,9.325,45.34,9.325,46.181"/>
<path d="M52.481,10.407c0,0.844-0.682,1.527-1.525,1.527s-1.529-0.683-1.529-1.527c0-0.841,0.686-1.527,1.529-1.527
	S52.481,9.566,52.481,10.407"/>
<path d="M43.974,66.072c0,0.383-0.311,0.694-0.693,0.694s-0.693-0.311-0.693-0.694c0-0.383,0.311-0.694,0.693-0.694
	S43.974,65.689,43.974,66.072"/>
<path d="M11.958,19.732c0,0.383-0.311,0.694-0.694,0.694c-0.383,0-0.694-0.311-0.694-0.694s0.311-0.694,0.694-0.694
	C11.646,19.038,11.958,19.349,11.958,19.732"/>
<path d="M67.831,32.306c0,0.844-0.684,1.527-1.527,1.527c-0.842,0-1.529-0.683-1.529-1.527c0-0.844,0.688-1.527,1.529-1.527
	C67.147,30.778,67.831,31.461,67.831,32.306"/>
<path d="M18.636,60.279c0,0.844-0.683,1.527-1.527,1.527c-0.842,0-1.528-0.683-1.528-1.527c0-0.844,0.686-1.527,1.528-1.527
	C17.953,58.752,18.636,59.436,18.636,60.279"/>
<path d="M36.054,6.294c0,0.844-0.682,1.527-1.526,1.527C33.686,7.822,33,7.139,33,6.294c0-0.844,0.687-1.527,1.528-1.527
	C35.373,4.768,36.054,5.451,36.054,6.294"/>
<path d="M59.733,57.989c0,0.844-0.684,1.527-1.527,1.527s-1.527-0.683-1.527-1.527c0-0.844,0.684-1.527,1.527-1.527
	S59.733,57.145,59.733,57.989"/>
<path d="M6.401,35.812c0,0.383-0.311,0.694-0.694,0.694c-0.383,0-0.694-0.311-0.694-0.694c0-0.383,0.311-0.694,0.694-0.694
	C6.09,35.119,6.401,35.43,6.401,35.812"/>
<path d="M60.216,16.658c0,0.383-0.311,0.694-0.693,0.694s-0.695-0.311-0.695-0.694c0-0.383,0.312-0.694,0.695-0.694
	S60.216,16.275,60.216,16.658"/>
<path d="M34.244,67.25c0,0.844-0.682,1.527-1.526,1.527c-0.844,0-1.528-0.683-1.528-1.527c0-0.844,0.685-1.527,1.528-1.527
	C33.562,65.722,34.244,66.405,34.244,67.25"/>
<path d="M19.802,11.712c0,0.844-0.683,1.527-1.527,1.527c-0.844,0-1.528-0.683-1.528-1.527c0-0.844,0.684-1.527,1.528-1.527
	C19.119,10.185,19.802,10.868,19.802,11.712"/>
<path d="M68.077,42.979c0,0.844-0.684,1.527-1.527,1.527s-1.527-0.683-1.527-1.527c0-0.844,0.684-1.527,1.527-1.527
	S68.077,42.136,68.077,42.979"/>
<path d="M11.23,52.554c0,0.844-0.683,1.527-1.527,1.527c-0.844,0-1.528-0.683-1.528-1.527c0-0.844,0.684-1.527,1.528-1.527
	C10.547,51.027,11.23,51.71,11.23,52.554"/>
<path d="M45.927,6.992c0,0.383-0.311,0.694-0.695,0.694c-0.383,0-0.693-0.311-0.693-0.694s0.311-0.694,0.693-0.694
	C45.616,6.298,45.927,6.609,45.927,6.992"/>
<path d="M50.517,64.717c0,0.383-0.311,0.694-0.693,0.694c-0.385,0-0.695-0.311-0.695-0.694c0-0.383,0.311-0.694,0.695-0.694
	C50.206,64.023,50.517,64.334,50.517,64.717"/>
<path d="M8.875,25.164c0,0.844-0.683,1.527-1.527,1.527c-0.842,0-1.528-0.683-1.528-1.527c0-0.844,0.686-1.527,1.528-1.527
	C8.192,23.636,8.875,24.319,8.875,25.164"/>
<path d="M67.042,25.641c0,0.844-0.684,1.527-1.527,1.527s-1.527-0.683-1.527-1.527c0-0.844,0.684-1.527,1.527-1.527
	S67.042,24.797,67.042,25.641"/>
<path d="M23.734,64.667c0,0.841-0.683,1.527-1.527,1.527c-0.844,0-1.528-0.686-1.528-1.527c0-0.844,0.684-1.527,1.528-1.527
	C23.051,63.14,23.734,63.823,23.734,64.667"/>
<path d="M29.318,6.508c0,0.841-0.683,1.527-1.527,1.527c-0.842,0-1.528-0.686-1.528-1.527c0-0.844,0.686-1.527,1.528-1.527
	C28.635,4.981,29.318,5.665,29.318,6.508"/>
<path d="M63.731,53.268c0,0.383-0.311,0.694-0.693,0.694s-0.695-0.311-0.695-0.694c0-0.383,0.312-0.694,0.695-0.694
	S63.731,52.885,63.731,53.268"/>
<path d="M6.032,42.571c0,0.383-0.311,0.694-0.694,0.694c-0.386,0-0.694-0.311-0.694-0.694c0-0.383,0.308-0.694,0.694-0.694
	C5.721,41.877,6.032,42.188,6.032,42.571"/>
<path d="M56.745,11.415c0,0.844-0.686,1.527-1.527,1.527c-0.844,0-1.527-0.683-1.527-1.527c0-0.844,0.684-1.527,1.527-1.527
	C56.06,9.888,56.745,10.571,56.745,11.415"/>
<path d="M40.976,68.208c0,0.841-0.684,1.527-1.527,1.527c-0.843,0-1.528-0.686-1.528-1.527c0-0.844,0.685-1.527,1.528-1.527
	C40.292,66.68,40.976,67.363,40.976,68.208"/>
<path d="M14.182,15.564c0,0.844-0.683,1.527-1.527,1.527c-0.842,0-1.528-0.683-1.528-1.527c0-0.841,0.686-1.527,1.528-1.527
	C13.499,14.037,14.182,14.723,14.182,15.564"/>
<path d="M69.616,36.327c0,0.844-0.684,1.527-1.527,1.527c-0.842,0-1.527-0.683-1.527-1.527c0-0.841,0.686-1.527,1.527-1.527
	C68.933,34.799,69.616,35.485,69.616,36.327"/>
<path d="M13.765,58.511c0,0.383-0.311,0.694-0.694,0.694c-0.383,0-0.694-0.311-0.694-0.694c0-0.383,0.311-0.694,0.694-0.694
	C13.454,57.817,13.765,58.127,13.765,58.511"/>
<path d="M39.403,4.873c0,0.386-0.311,0.694-0.694,0.694c-0.383,0-0.694-0.308-0.694-0.694c0-0.383,0.312-0.694,0.694-0.694
	C39.093,4.179,39.403,4.49,39.403,4.873"/>
<path d="M57.601,61.865c0,0.841-0.686,1.527-1.527,1.527c-0.844,0-1.527-0.686-1.527-1.527c0-0.844,0.684-1.527,1.527-1.527
	C56.915,60.338,57.601,61.021,57.601,61.865"/>
<path d="M6.192,31.506c0,0.841-0.683,1.527-1.527,1.527c-0.844,0-1.528-0.686-1.528-1.527c0-0.844,0.684-1.527,1.528-1.527
	C5.51,29.979,6.192,30.662,6.192,31.506"/>
<path d="M64.728,19.14c0,0.844-0.682,1.527-1.525,1.527c-0.846,0-1.529-0.683-1.529-1.527c0-0.844,0.684-1.527,1.529-1.527
	C64.046,17.613,64.728,18.296,64.728,19.14"/>
<path d="M29.845,67.902c0,0.841-0.683,1.527-1.526,1.527c-0.844,0-1.528-0.687-1.528-1.527c0-0.844,0.684-1.527,1.528-1.527
	C29.163,66.375,29.845,67.058,29.845,67.902"/>
<path d="M21.782,8.258c0,0.383-0.311,0.694-0.694,0.694s-0.694-0.311-0.694-0.694c0-0.383,0.311-0.694,0.694-0.694
	S21.782,7.875,21.782,8.258"/>
<path d="M67.497,47.434c0,0.383-0.311,0.694-0.693,0.694c-0.385,0-0.695-0.311-0.695-0.694c0-0.383,0.311-0.694,0.695-0.694
	C67.187,46.74,67.497,47.051,67.497,47.434"/>
<path d="M8.034,49.43c0,0.844-0.686,1.527-1.527,1.527c-0.844,0-1.528-0.683-1.528-1.527c0-0.844,0.684-1.527,1.528-1.527
	C7.348,47.903,8.034,48.586,8.034,49.43"/>
<path d="M51.235,7.142c0,0.844-0.686,1.527-1.527,1.527c-0.844,0-1.527-0.683-1.527-1.527c0-0.844,0.684-1.527,1.527-1.527
	C50.55,5.615,51.235,6.298,51.235,7.142"/>
<path d="M47.937,67.63c0,0.844-0.684,1.527-1.527,1.527c-0.842,0-1.527-0.683-1.527-1.527c0-0.841,0.686-1.527,1.527-1.527
	C47.253,66.103,47.937,66.789,47.937,67.63"/>
<path d="M9.43,20.704c0,0.844-0.683,1.527-1.527,1.527c-0.844,0-1.528-0.683-1.528-1.527c0-0.841,0.684-1.527,1.528-1.527
	C8.748,19.177,9.43,19.863,9.43,20.704"/>
<path d="M68.813,29.312c0,0.383-0.311,0.694-0.695,0.694c-0.383,0-0.693-0.311-0.693-0.694s0.311-0.694,0.693-0.694
	C68.503,28.618,68.813,28.929,68.813,29.312"/>
<path d="M18.494,63.709c0,0.386-0.311,0.694-0.694,0.694c-0.383,0-0.694-0.308-0.694-0.694c0-0.383,0.311-0.694,0.694-0.694
	C18.183,63.015,18.494,63.326,18.494,63.709"/>
<path d="M33.222,4.237c0,0.844-0.683,1.527-1.527,1.527c-0.842,0-1.527-0.683-1.527-1.527c0-0.844,0.686-1.527,1.527-1.527
	C32.54,2.71,33.222,3.393,33.222,4.237"/>
<path d="M63.212,57.586c0,0.841-0.686,1.527-1.527,1.527c-0.844,0-1.527-0.686-1.527-1.527c0-0.844,0.684-1.527,1.527-1.527
	C62.526,56.059,63.212,56.742,63.212,57.586"/>
<path d="M4.946,38.464c0,0.844-0.683,1.527-1.527,1.527c-0.842,0-1.528-0.683-1.528-1.527c0-0.841,0.686-1.527,1.528-1.527
	C4.263,36.938,4.946,37.624,4.946,38.464"/>
<path d="M60.935,13.156c0,0.844-0.682,1.527-1.527,1.527c-0.844,0-1.527-0.683-1.527-1.527c0-0.844,0.684-1.527,1.527-1.527
	C60.253,11.629,60.935,12.312,60.935,13.156"/>
<path d="M35.867,69.751c0,0.383-0.312,0.694-0.695,0.694c-0.383,0-0.693-0.311-0.693-0.694c0-0.383,0.311-0.694,0.693-0.694
	C35.555,69.057,35.867,69.368,35.867,69.751"/>
<path d="M15.467,11.532c0,0.383-0.311,0.694-0.694,0.694c-0.383,0-0.694-0.311-0.694-0.694c0-0.383,0.311-0.694,0.694-0.694
	C15.156,10.838,15.467,11.149,15.467,11.532"/>
<path d="M70.776,40.739c0,0.844-0.686,1.527-1.527,1.527c-0.844,0-1.527-0.683-1.527-1.527c0-0.841,0.684-1.527,1.527-1.527
	C70.091,39.212,70.776,39.898,70.776,40.739"/>
<path d="M10.76,56.031c0,0.844-0.683,1.527-1.527,1.527c-0.844,0-1.528-0.683-1.528-1.527c0-0.844,0.684-1.527,1.528-1.527
	C10.078,54.504,10.76,55.187,10.76,56.031"/>
<path d="M44.751,4.115c0,0.844-0.682,1.527-1.525,1.527c-0.846,0-1.529-0.683-1.529-1.527c0-0.844,0.684-1.527,1.529-1.527
	C44.069,2.588,44.751,3.271,44.751,4.115"/>
<path d="M54.776,65.475c0,0.844-0.684,1.527-1.527,1.527s-1.527-0.683-1.527-1.527c0-0.841,0.684-1.527,1.527-1.527
	S54.776,64.634,54.776,65.475"/>
<path d="M5.007,26.927c0,0.383-0.311,0.694-0.694,0.694c-0.383,0-0.694-0.311-0.694-0.694c0-0.383,0.311-0.694,0.694-0.694
	C4.696,26.233,5.007,26.543,5.007,26.927"/>
<path d="M67.249,22.287c0,0.383-0.307,0.694-0.693,0.694c-0.383,0-0.693-0.311-0.693-0.694s0.311-0.694,0.693-0.694
	C66.942,21.593,67.249,21.904,67.249,22.287"/>
<path d="M25.239,67.841c0,0.844-0.686,1.527-1.527,1.527c-0.844,0-1.528-0.683-1.528-1.527s0.684-1.527,1.528-1.527
	C24.553,66.314,25.239,66.997,25.239,67.841"/>
<path d="M26.061,5.189c0,0.841-0.683,1.527-1.527,1.527c-0.842,0-1.528-0.686-1.528-1.527c0-0.844,0.686-1.527,1.528-1.527
	C25.378,3.663,26.061,4.346,26.061,5.189"/>
<path d="M67.854,52.032c0,0.844-0.682,1.527-1.527,1.527c-0.844,0-1.527-0.683-1.527-1.527s0.684-1.527,1.527-1.527
	C67.173,50.505,67.854,51.188,67.854,52.032"/>
<path d="M5.276,45.709c0,0.844-0.683,1.527-1.527,1.527c-0.844,0-1.528-0.683-1.528-1.527c0-0.841,0.684-1.527,1.528-1.527
	C4.593,44.183,5.276,44.869,5.276,45.709"/>
<path d="M54.954,8.027c0,0.386-0.311,0.694-0.693,0.694c-0.385,0-0.695-0.308-0.695-0.694c0-0.383,0.311-0.694,0.695-0.694
	C54.644,7.333,54.954,7.645,54.954,8.027"/>
<path d="M43.138,70.051c0,0.383-0.311,0.694-0.693,0.694s-0.693-0.311-0.693-0.694s0.311-0.694,0.693-0.694
	S43.138,69.668,43.138,70.051"/>
<path d="M10.727,16.236c0,0.844-0.686,1.527-1.527,1.527c-0.844,0-1.528-0.683-1.528-1.527c0-0.844,0.684-1.527,1.528-1.527
	C10.041,14.709,10.727,15.392,10.727,16.236"/>
<path d="M71.706,33.491c0,0.844-0.682,1.527-1.527,1.527c-0.844,0-1.527-0.683-1.527-1.527c0-0.841,0.684-1.527,1.527-1.527
	C71.024,31.964,71.706,32.65,71.706,33.491"/>
<path d="M14.979,62.012c0,0.844-0.683,1.527-1.527,1.527c-0.844,0-1.528-0.683-1.528-1.527c0-0.841,0.684-1.527,1.528-1.527
	C14.295,60.485,14.979,61.171,14.979,62.012"/>
<path d="M37.585,2.551c0,0.844-0.684,1.527-1.527,1.527S34.53,3.396,34.53,2.551c0-0.841,0.685-1.527,1.528-1.527
	S37.585,1.71,37.585,2.551"/>
<path d="M60.29,61.776c0,0.386-0.311,0.694-0.693,0.694s-0.693-0.308-0.693-0.694c0-0.383,0.311-0.694,0.693-0.694
	S60.29,61.393,60.29,61.776"/>
<path d="M2.821,33.955c0,0.386-0.311,0.694-0.694,0.694s-0.694-0.308-0.694-0.694c0-0.383,0.311-0.694,0.694-0.694
	S2.821,33.572,2.821,33.955"/>
<path d="M64.937,15.617c0,0.844-0.684,1.527-1.527,1.527c-0.842,0-1.527-0.683-1.527-1.527c0-0.844,0.686-1.527,1.527-1.527
	C64.253,14.089,64.937,14.772,64.937,15.617"/>
<path d="M32.078,70.637c0,0.841-0.686,1.527-1.526,1.527c-0.844,0-1.528-0.686-1.528-1.527c0-0.844,0.685-1.527,1.528-1.527
	C31.392,69.11,32.078,69.793,32.078,70.637"/>
<path d="M19.119,7.755c0,0.844-0.683,1.527-1.527,1.527c-0.844,0-1.528-0.683-1.528-1.527c0-0.844,0.684-1.527,1.528-1.527
	C18.436,6.229,19.119,6.912,19.119,7.755"/>
<path d="M71.245,45.437c0,0.844-0.686,1.527-1.527,1.527c-0.844,0-1.527-0.683-1.527-1.527c0-0.844,0.684-1.527,1.527-1.527
	C70.56,43.91,71.245,44.593,71.245,45.437"/>
<path d="M6.406,52.876c0,0.383-0.311,0.694-0.694,0.694c-0.383,0-0.694-0.311-0.694-0.694s0.311-0.694,0.694-0.694
	C6.095,52.183,6.406,52.494,6.406,52.876"/>
<path d="M48.653,4.068c0,0.383-0.311,0.694-0.693,0.694c-0.385,0-0.695-0.311-0.695-0.694c0-0.383,0.311-0.694,0.695-0.694
	C48.343,3.374,48.653,3.685,48.653,4.068"/>
<path d="M51.308,68.713c0,0.841-0.684,1.527-1.527,1.527s-1.527-0.686-1.527-1.527c0-0.844,0.684-1.527,1.527-1.527
	S51.308,67.869,51.308,68.713"/>
<path d="M6.218,22.189c0,0.844-0.683,1.527-1.527,1.527c-0.844,0-1.528-0.683-1.528-1.527c0-0.841,0.684-1.527,1.528-1.527
	C5.535,20.663,6.218,21.349,6.218,22.189"/>
<path d="M71.007,26.043c0,0.841-0.686,1.527-1.527,1.527c-0.844,0-1.527-0.686-1.527-1.527c0-0.844,0.684-1.527,1.527-1.527
	C70.321,24.517,71.007,25.2,71.007,26.043"/>
<path d="M20.541,67.038c0,0.844-0.683,1.527-1.527,1.527c-0.844,0-1.528-0.683-1.528-1.527c0-0.841,0.684-1.527,1.528-1.527
	C19.857,65.511,20.541,66.197,20.541,67.038"/>
<path d="M29.244,2.607c0,0.383-0.312,0.694-0.694,0.694c-0.384,0-0.694-0.311-0.694-0.694c0-0.383,0.311-0.694,0.694-0.694
	C28.932,1.913,29.244,2.224,29.244,2.607"/>
<path d="M65.8,56.656c0,0.383-0.311,0.694-0.693,0.694s-0.693-0.311-0.693-0.694c0-0.386,0.311-0.694,0.693-0.694
	S65.8,56.27,65.8,56.656"/>
<path d="M3.055,41.469c0,0.841-0.683,1.527-1.527,1.527C0.686,42.996,0,42.31,0,41.469c0-0.844,0.686-1.527,1.528-1.527
	C2.372,39.942,3.055,40.625,3.055,41.469"/>
<path d="M60.294,9.663c0,0.844-0.684,1.527-1.527,1.527c-0.842,0-1.527-0.683-1.527-1.527c0-0.841,0.686-1.527,1.527-1.527
	C59.61,8.136,60.294,8.822,60.294,9.663"/>
<path d="M39.536,71.89c0,0.844-0.685,1.527-1.527,1.527c-0.844,0-1.527-0.683-1.527-1.527c0-0.844,0.684-1.527,1.527-1.527
	C38.851,70.363,39.536,71.045,39.536,71.89"/>
<path d="M12.765,11.879c0,0.844-0.686,1.527-1.527,1.527c-0.844,0-1.528-0.683-1.528-1.527c0-0.844,0.684-1.527,1.528-1.527
	C12.08,10.352,12.765,11.035,12.765,11.879"/>
<path d="M72.312,38.09c0,0.383-0.311,0.694-0.693,0.694s-0.693-0.311-0.693-0.694c0-0.383,0.311-0.694,0.693-0.694
	S72.312,37.707,72.312,38.09"/>
<path d="M9.975,59.588c0,0.383-0.311,0.694-0.694,0.694c-0.383,0-0.694-0.311-0.694-0.694c0-0.383,0.311-0.694,0.694-0.694
	C9.664,58.894,9.975,59.205,9.975,59.588"/>
<path d="M42.308,1.527c0,0.844-0.686,1.527-1.527,1.527c-0.844,0-1.527-0.683-1.527-1.527C39.253,0.683,39.937,0,40.78,0
	C41.622,0,42.308,0.683,42.308,1.527"/>
<path d="M58.327,65.728c0,0.841-0.682,1.527-1.527,1.527c-0.844,0-1.527-0.686-1.527-1.527c0-0.844,0.684-1.527,1.527-1.527
	C57.646,64.201,58.327,64.884,58.327,65.728"/>
<path d="M3.055,29.146c0,0.844-0.686,1.527-1.527,1.527C0.684,30.672,0,29.989,0,29.146c0-0.841,0.684-1.527,1.528-1.527
	C2.369,27.619,3.055,28.304,3.055,29.146"/>
<path d="M68.632,18.766c0,0.844-0.682,1.527-1.525,1.527c-0.846,0-1.529-0.683-1.529-1.527s0.684-1.527,1.529-1.527
	C67.95,17.239,68.632,17.921,68.632,18.766"/>
<path d="M26.386,70.807c0,0.383-0.311,0.694-0.694,0.694s-0.694-0.311-0.694-0.694c0-0.383,0.311-0.694,0.694-0.694
	S26.386,70.423,26.386,70.807"/>
<path d="M21.762,4.345c0,0.383-0.311,0.694-0.694,0.694s-0.694-0.311-0.694-0.694c0-0.383,0.311-0.694,0.694-0.694
	S21.762,3.962,21.762,4.345"/>
<path d="M70.979,50.305c0,0.844-0.684,1.527-1.527,1.527c-0.842,0-1.527-0.683-1.527-1.527c0-0.841,0.686-1.527,1.527-1.527
	C70.296,48.778,70.979,49.464,70.979,50.305"/>
<path d="M4.143,49.097c0,0.844-0.683,1.527-1.527,1.527c-0.844,0-1.528-0.683-1.528-1.527c0-0.841,0.684-1.527,1.528-1.527
	C3.46,47.57,4.143,48.256,4.143,49.097"/>
<path d="M54.327,4.768c0,0.844-0.684,1.527-1.527,1.527c-0.842,0-1.529-0.683-1.529-1.527s0.688-1.527,1.529-1.527
	C53.644,3.241,54.327,3.923,54.327,4.768"/>
<path d="M47.257,71.464c0,0.844-0.684,1.527-1.527,1.527s-1.527-0.683-1.527-1.527c0-0.841,0.684-1.527,1.527-1.527
	S47.257,70.624,47.257,71.464"/>
</svg>
