<?xml version="1.0" encoding="utf-8"?>
<!-- Generator: Adobe Illustrator 24.1.0, SVG Export Plug-In . SVG Version: 6.00 Build 0)  -->
<svg version="1.1" id="pict_consortium" xmlns="http://www.w3.org/2000/svg" xmlns:xlink="http://www.w3.org/1999/xlink" x="0px"
	 y="0px" viewBox="0 0 16 16" style="enable-background:new 0 0 16 16;" xml:space="preserve">
<path d="M8,1c3.9,0,7,3.1,7,7s-3.1,7-7,7s-7-3.1-7-7S4.1,1,8,1 M8,0C3.6,0,0,3.6,0,8s3.6,8,8,8s8-3.6,8-8l0,0C16,3.6,12.4,0,8,0z"/>
<path d="M10,8.7h1.5c-0.2,1.7-1.7,2.9-3.4,2.9c-1.9,0-3.5-1.6-3.5-3.5c0,0,0-0.1,0-0.1c0-1.9,1.6-3.5,3.5-3.5
	c1.7-0.1,3.2,1.2,3.4,2.9H10C9.8,6.5,9,5.8,8.1,5.9C7,5.8,6.1,6.7,6,7.8C6,7.9,6,7.9,6,8c-0.1,1.2,0.8,2.1,2,2.2c0,0,0.1,0,0.1,0
	C9,10.2,9.8,9.6,10,8.7z"/>
</svg>
