<?xml version="1.0" encoding="utf-8"?>
<!-- Generator: Adobe Illustrator 15.0.0, SVG Export Plug-In  -->
<!DOCTYPE svg PUBLIC "-//W3C//DTD SVG 1.1//EN" "http://www.w3.org/Graphics/SVG/1.1/DTD/svg11.dtd" [
	<!ENTITY ns_flows "http://ns.adobe.com/Flows/1.0/">
]>
<svg version="1.1"
	 xmlns="http://www.w3.org/2000/svg" xmlns:xlink="http://www.w3.org/1999/xlink" xmlns:a="http://ns.adobe.com/AdobeSVGViewerExtensions/3.0/"
	 x="0px" y="0px" width="73px" height="73px" viewBox="0 0 73 73" overflow="visible" enable-background="new 0 0 73 73"
	 xml:space="preserve">
<defs>
</defs>
<path d="M36.996,35.877c0,0.383-0.312,0.693-0.694,0.693s-0.693-0.311-0.693-0.693s0.311-0.694,0.693-0.694
	S36.996,35.494,36.996,35.877"/>
<path d="M35.46,37.284c0,0.384-0.311,0.694-0.693,0.694s-0.694-0.311-0.694-0.694c0-0.383,0.312-0.693,0.694-0.693
	S35.46,36.901,35.46,37.284"/>
<path d="M37.254,32.941c0,0.383-0.311,0.694-0.693,0.694c-0.384,0-0.694-0.312-0.694-0.694s0.311-0.693,0.694-0.693
	C36.943,32.248,37.254,32.559,37.254,32.941"/>
<path d="M39.189,38.739c0,0.384-0.311,0.694-0.693,0.694c-0.384,0-0.694-0.311-0.694-0.694c0-0.383,0.311-0.693,0.694-0.693
	C38.879,38.046,39.189,38.356,39.189,38.739"/>
<path d="M32.895,35.152c0,0.383-0.311,0.693-0.694,0.693c-0.383,0-0.693-0.311-0.693-0.693c0-0.384,0.311-0.694,0.693-0.694
	C32.584,34.458,32.895,34.769,32.895,35.152"/>
<path d="M40.925,33.378c0,0.383-0.311,0.693-0.693,0.693s-0.694-0.311-0.694-0.693c0-0.384,0.312-0.694,0.694-0.694
	S40.925,32.994,40.925,33.378"/>
<path d="M36.505,40.803c0,0.844-0.684,1.527-1.527,1.527s-1.528-0.684-1.528-1.527s0.685-1.527,1.528-1.527
	S36.505,39.959,36.505,40.803"/>
<path d="M35.288,30.986c0,0.845-0.683,1.527-1.527,1.527c-0.842,0-1.527-0.683-1.527-1.527c0-0.844,0.686-1.526,1.527-1.526
	C34.605,29.46,35.288,30.143,35.288,30.986"/>
<path d="M43.363,37.898c0,0.841-0.687,1.526-1.527,1.526c-0.844,0-1.527-0.686-1.527-1.526c0-0.844,0.684-1.527,1.527-1.527
	C42.677,36.371,43.363,37.055,43.363,37.898"/>
<path d="M32.053,38.26c0,0.844-0.683,1.526-1.526,1.526c-0.845,0-1.528-0.683-1.528-1.526c0-0.842,0.684-1.527,1.528-1.527
	C31.37,36.732,32.053,37.418,32.053,38.26"/>
<path d="M39.787,29.912c0,0.383-0.312,0.694-0.694,0.694s-0.694-0.312-0.694-0.694s0.312-0.694,0.694-0.694
	S39.787,29.529,39.787,29.912"/>
<path d="M39.062,42.466c0,0.387-0.308,0.694-0.693,0.694c-0.383,0-0.694-0.308-0.694-0.694c0-0.383,0.312-0.693,0.694-0.693
	C38.754,41.772,39.062,42.083,39.062,42.466"/>
<path d="M31.587,32.259c0,0.844-0.684,1.526-1.527,1.526s-1.528-0.683-1.528-1.526c0-0.841,0.685-1.527,1.528-1.527
	S31.587,31.418,31.587,32.259"/>
<path d="M45.163,34.264c0,0.844-0.684,1.526-1.527,1.526s-1.528-0.683-1.528-1.526c0-0.841,0.685-1.527,1.528-1.527
	S45.163,33.423,45.163,34.264"/>
<path d="M33.347,42.252c0,0.842-0.683,1.527-1.526,1.527s-1.528-0.686-1.528-1.527c0-0.844,0.685-1.526,1.528-1.526
	S33.347,41.408,33.347,42.252"/>
<path d="M36.793,27.877c0,0.844-0.686,1.526-1.526,1.526c-0.845,0-1.528-0.683-1.528-1.526c0-0.842,0.684-1.527,1.528-1.527
	C36.107,26.35,36.793,27.035,36.793,27.877"/>
<path d="M44.199,41.244c0,0.844-0.684,1.527-1.527,1.527s-1.527-0.684-1.527-1.527c0-0.841,0.684-1.526,1.527-1.526
	S44.199,40.403,44.199,41.244"/>
<path d="M29.248,36.232c0,0.844-0.683,1.526-1.526,1.526c-0.842,0-1.528-0.683-1.528-1.526s0.687-1.527,1.528-1.527
	C28.565,34.705,29.248,35.389,29.248,36.232"/>
<path d="M44.091,29.646c0,0.841-0.683,1.527-1.527,1.527c-0.842,0-1.527-0.687-1.527-1.527c0-0.844,0.686-1.527,1.527-1.527
	C43.408,28.118,44.091,28.802,44.091,29.646"/>
<path d="M37.41,44.946c0,0.841-0.684,1.526-1.527,1.526s-1.528-0.686-1.528-1.526c0-0.845,0.685-1.527,1.528-1.527
	S37.41,44.102,37.41,44.946"/>
<path d="M31.028,28.727c0,0.383-0.311,0.693-0.693,0.693c-0.384,0-0.694-0.311-0.694-0.693s0.311-0.694,0.694-0.694
	C30.718,28.032,31.028,28.344,31.028,28.727"/>
<path d="M46.454,37.148c0,0.383-0.312,0.694-0.694,0.694s-0.693-0.312-0.693-0.694s0.311-0.694,0.693-0.694
	S46.454,36.766,46.454,37.148"/>
<path d="M28.977,41.455c0,0.383-0.312,0.694-0.694,0.694s-0.693-0.312-0.693-0.694s0.311-0.693,0.693-0.693
	S28.977,41.072,28.977,41.455"/>
<path d="M39.187,26.133c0,0.383-0.308,0.694-0.693,0.694c-0.384,0-0.694-0.312-0.694-0.694s0.311-0.694,0.694-0.694
	C38.879,25.438,39.187,25.75,39.187,26.133"/>
<path d="M42.902,44.729c0,0.844-0.683,1.526-1.527,1.526c-0.844,0-1.527-0.683-1.527-1.526s0.684-1.527,1.527-1.527
	C42.22,43.202,42.902,43.886,42.902,44.729"/>
<path d="M27.907,32.711c0,0.844-0.683,1.527-1.527,1.527c-0.842,0-1.527-0.684-1.527-1.527s0.686-1.527,1.527-1.527
	C27.225,31.184,27.907,31.867,27.907,32.711"/>
<path d="M47.471,31.423c0,0.844-0.686,1.526-1.527,1.526c-0.844,0-1.528-0.683-1.528-1.526s0.685-1.527,1.528-1.527
	C46.785,29.896,47.471,30.579,47.471,31.423"/>
<path d="M33.649,45.859c0,0.844-0.683,1.527-1.526,1.527c-0.842,0-1.528-0.684-1.528-1.527s0.687-1.527,1.528-1.527
	C32.967,44.332,33.649,45.016,33.649,45.859"/>
<path d="M34.1,25.508c0,0.841-0.683,1.527-1.527,1.527c-0.844,0-1.527-0.687-1.527-1.527c0-0.844,0.684-1.526,1.527-1.526
	C33.417,23.981,34.1,24.664,34.1,25.508"/>
<path d="M47.756,41.095c0,0.844-0.683,1.526-1.526,1.526c-0.845,0-1.528-0.683-1.528-1.526c0-0.845,0.684-1.527,1.528-1.527
	C47.073,39.567,47.756,40.25,47.756,41.095"/>
<path d="M25.967,38.784c0,0.383-0.312,0.694-0.694,0.694s-0.694-0.312-0.694-0.694s0.312-0.694,0.694-0.694
	S25.967,38.401,25.967,38.784"/>
<path d="M43.266,26.124c0,0.384-0.308,0.694-0.693,0.694c-0.383,0-0.694-0.311-0.694-0.694c0-0.383,0.312-0.693,0.694-0.693
	C42.958,25.431,43.266,25.741,43.266,26.124"/>
<path d="M38.992,47.486c0,0.384-0.311,0.694-0.693,0.694c-0.384,0-0.694-0.311-0.694-0.694c0-0.383,0.311-0.693,0.694-0.693
	C38.682,46.793,38.992,47.104,38.992,47.486"/>
<path d="M27.538,28.552c0,0.383-0.312,0.693-0.694,0.693s-0.693-0.311-0.693-0.693c0-0.384,0.311-0.694,0.693-0.694
	S27.538,28.168,27.538,28.552"/>
<path d="M49.098,34.874c0,0.383-0.311,0.694-0.693,0.694c-0.384,0-0.695-0.312-0.695-0.694s0.312-0.693,0.695-0.693
	C48.787,34.181,49.098,34.491,49.098,34.874"/>
<path d="M28.629,44.921c0,0.383-0.311,0.694-0.693,0.694s-0.694-0.312-0.694-0.694s0.312-0.694,0.694-0.694
	S28.629,44.538,28.629,44.921"/>
<path d="M37.89,23.381c0,0.844-0.683,1.527-1.526,1.527s-1.528-0.684-1.528-1.527s0.685-1.527,1.528-1.527
	S37.89,22.537,37.89,23.381"/>
<path d="M46.34,45.26c0,0.844-0.683,1.527-1.526,1.527c-0.845,0-1.528-0.684-1.528-1.527s0.684-1.527,1.528-1.527
	C45.657,43.732,46.34,44.416,46.34,45.26"/>
<path d="M25.044,34.691c0,0.844-0.683,1.526-1.526,1.526c-0.842,0-1.528-0.683-1.528-1.526c0-0.842,0.687-1.527,1.528-1.527
	C24.361,33.164,25.044,33.85,25.044,34.691"/>
<path d="M48.189,28.013c0,0.844-0.683,1.527-1.527,1.527c-0.844,0-1.527-0.684-1.527-1.527c0-0.841,0.684-1.527,1.527-1.527
	C47.507,26.485,48.189,27.172,48.189,28.013"/>
<path d="M34.639,48.836c0,0.384-0.312,0.694-0.694,0.694s-0.694-0.311-0.694-0.694c0-0.383,0.312-0.693,0.694-0.693
	S34.639,48.453,34.639,48.836"/>
<path d="M29.893,24.589c0,0.386-0.311,0.694-0.694,0.694c-0.383,0-0.693-0.309-0.693-0.694c0-0.383,0.311-0.694,0.693-0.694
	C29.582,23.895,29.893,24.206,29.893,24.589"/>
<path d="M50.848,39.445c0,0.841-0.687,1.526-1.527,1.526c-0.844,0-1.528-0.686-1.528-1.526c0-0.845,0.685-1.527,1.528-1.527
	C50.161,37.918,50.848,38.601,50.848,39.445"/>
<path d="M25.678,42.11c0,0.845-0.684,1.527-1.527,1.527c-0.842,0-1.528-0.683-1.528-1.527c0-0.841,0.687-1.526,1.528-1.526
	C24.994,40.584,25.678,41.27,25.678,42.11"/>
<path d="M42.63,22.923c0,0.844-0.683,1.526-1.526,1.526c-0.843,0-1.528-0.683-1.528-1.526c0-0.841,0.686-1.527,1.528-1.527
	C41.947,21.396,42.63,22.082,42.63,22.923"/>
<path d="M43.097,48.816c0,0.845-0.683,1.527-1.527,1.527c-0.844,0-1.527-0.683-1.527-1.527c0-0.844,0.684-1.526,1.527-1.526
	C42.414,47.29,43.097,47.973,43.097,48.816"/>
<path d="M25.063,29.829c0,0.841-0.683,1.526-1.526,1.526c-0.843,0-1.528-0.686-1.528-1.526c0-0.845,0.686-1.527,1.528-1.527
	C24.381,28.302,25.063,28.984,25.063,29.829"/>
<path d="M51.475,31.67c0,0.844-0.686,1.527-1.527,1.527c-0.844,0-1.527-0.684-1.527-1.527s0.684-1.527,1.527-1.527
	C50.789,30.143,51.475,30.826,51.475,31.67"/>
<path d="M30.534,48.325c0,0.844-0.686,1.527-1.527,1.527c-0.844,0-1.527-0.684-1.527-1.527s0.684-1.526,1.527-1.526
	C29.849,46.799,30.534,47.481,30.534,48.325"/>
<path d="M34.769,21.623c0,0.844-0.683,1.527-1.526,1.527c-0.845,0-1.528-0.684-1.528-1.527s0.684-1.527,1.528-1.527
	C34.086,20.096,34.769,20.779,34.769,21.623"/>
<path d="M49,44.404c0,0.383-0.308,0.694-0.693,0.694c-0.383,0-0.694-0.312-0.694-0.694s0.312-0.694,0.694-0.694
	C48.692,43.71,49,44.021,49,44.404"/>
<path d="M22.237,37.715c0,0.383-0.312,0.694-0.694,0.694s-0.694-0.312-0.694-0.694s0.312-0.693,0.694-0.693
	S22.237,37.332,22.237,37.715"/>
<path d="M46.732,24.441c0,0.383-0.312,0.694-0.694,0.694c-0.387,0-0.694-0.312-0.694-0.694s0.308-0.693,0.694-0.693
	C46.421,23.748,46.732,24.059,46.732,24.441"/>
<path d="M37.549,51.027c0,0.386-0.312,0.693-0.694,0.693s-0.694-0.308-0.694-0.693c0-0.383,0.312-0.694,0.694-0.694
	S37.549,50.645,37.549,51.027"/>
<path d="M27.088,24.975c0,0.844-0.686,1.527-1.526,1.527c-0.845,0-1.528-0.684-1.528-1.527c0-0.841,0.684-1.526,1.528-1.526
	C26.402,23.448,27.088,24.134,27.088,24.975"/>
<path d="M53.255,36.665c0,0.845-0.683,1.527-1.527,1.527c-0.844,0-1.528-0.683-1.528-1.527c0-0.844,0.685-1.526,1.528-1.526
	C52.572,35.139,53.255,35.821,53.255,36.665"/>
<path d="M25.813,45.804c0,0.845-0.683,1.527-1.527,1.527c-0.842,0-1.527-0.683-1.527-1.527c0-0.844,0.686-1.526,1.527-1.526
	C25.131,44.277,25.813,44.96,25.813,45.804"/>
<path d="M40.001,20.304c0,0.845-0.684,1.527-1.527,1.527c-0.842,0-1.528-0.683-1.528-1.527c0-0.844,0.687-1.526,1.528-1.526
	C39.317,18.777,40.001,19.46,40.001,20.304"/>
<path d="M46.823,48.939c0,0.844-0.683,1.526-1.527,1.526c-0.844,0-1.527-0.683-1.527-1.526c0-0.842,0.684-1.527,1.527-1.527
	C46.141,47.412,46.823,48.098,46.823,48.939"/>
<path d="M22.239,32.289c0,0.844-0.683,1.527-1.526,1.527s-1.528-0.684-1.528-1.527s0.685-1.527,1.528-1.527
	S22.239,31.445,22.239,32.289"/>
<path d="M51.033,27.924c0,0.383-0.311,0.694-0.693,0.694c-0.384,0-0.695-0.312-0.695-0.694s0.312-0.694,0.695-0.694
	C50.723,27.229,51.033,27.541,51.033,27.924"/>
<path d="M31.976,51.35c0,0.383-0.312,0.693-0.694,0.693s-0.693-0.311-0.693-0.693c0-0.384,0.311-0.694,0.693-0.694
	S31.976,50.966,31.976,51.35"/>
<path d="M30.189,20.957c0,0.383-0.311,0.693-0.693,0.693s-0.694-0.311-0.694-0.693c0-0.384,0.312-0.694,0.694-0.694
	S30.189,20.573,30.189,20.957"/>
<path d="M52.213,42.333c0,0.383-0.311,0.694-0.693,0.694s-0.694-0.312-0.694-0.694s0.312-0.694,0.694-0.694
	S52.213,41.95,52.213,42.333"/>
<path d="M21.29,41.438c0,0.384-0.311,0.694-0.694,0.694c-0.383,0-0.693-0.311-0.693-0.694c0-0.383,0.311-0.693,0.693-0.693
	C20.979,40.745,21.29,41.056,21.29,41.438"/>
<path d="M44.88,21.051c0,0.383-0.312,0.694-0.694,0.694s-0.694-0.312-0.694-0.694s0.312-0.693,0.694-0.693
	S44.88,20.668,44.88,21.051"/>
<path d="M42.061,52.258c0,0.844-0.683,1.526-1.526,1.526c-0.845,0-1.528-0.683-1.528-1.526c0-0.842,0.684-1.527,1.528-1.527
	C41.378,50.73,42.061,51.416,42.061,52.258"/>
<path d="M23.536,26.588c0,0.841-0.686,1.527-1.526,1.527c-0.845,0-1.528-0.687-1.528-1.527c0-0.844,0.684-1.526,1.528-1.526
	C22.851,25.062,23.536,25.744,23.536,26.588"/>
<path d="M54.768,33.05c0,0.844-0.683,1.527-1.526,1.527c-0.843,0-1.528-0.684-1.528-1.527c0-0.841,0.686-1.527,1.528-1.527
	C54.085,31.522,54.768,32.209,54.768,33.05"/>
<path d="M27.169,49.503c0,0.844-0.684,1.526-1.527,1.526c-0.842,0-1.528-0.683-1.528-1.526c0-0.845,0.687-1.527,1.528-1.527
	C26.485,47.976,27.169,48.658,27.169,49.503"/>
<path d="M35.641,18.505c0,0.383-0.308,0.694-0.693,0.694c-0.384,0-0.694-0.312-0.694-0.694s0.311-0.694,0.694-0.694
	C35.333,17.811,35.641,18.122,35.641,18.505"/>
<path d="M49.82,47.856c0,0.383-0.312,0.693-0.695,0.693c-0.383,0-0.693-0.311-0.693-0.693c0-0.384,0.311-0.694,0.693-0.694
	C49.509,47.162,49.82,47.473,49.82,47.856"/>
<path d="M20.157,35.704c0,0.845-0.684,1.527-1.527,1.527c-0.842,0-1.527-0.683-1.527-1.527c0-0.844,0.686-1.526,1.527-1.526
	C19.474,34.178,20.157,34.86,20.157,35.704"/>
<path d="M51.066,23.986c0,0.844-0.684,1.527-1.527,1.527s-1.527-0.684-1.527-1.527s0.684-1.527,1.527-1.527
	S51.066,23.143,51.066,23.986"/>
<path d="M36.088,53.707c0,0.844-0.683,1.527-1.527,1.527c-0.844,0-1.527-0.684-1.527-1.527s0.684-1.527,1.527-1.527
	C35.405,52.18,36.088,52.863,36.088,53.707"/>
<path d="M26.996,21.457c0,0.844-0.686,1.526-1.526,1.526c-0.844,0-1.528-0.683-1.528-1.526c0-0.845,0.685-1.527,1.528-1.527
	C26.311,19.93,26.996,20.612,26.996,21.457"/>
<path d="M55.676,39.215c0,0.841-0.683,1.526-1.527,1.526c-0.844,0-1.527-0.686-1.527-1.526c0-0.845,0.684-1.527,1.527-1.527
	C54.993,37.688,55.676,38.37,55.676,39.215"/>
<path d="M22.314,45.534c0,0.845-0.683,1.527-1.526,1.527c-0.845,0-1.528-0.683-1.528-1.527c0-0.844,0.684-1.526,1.528-1.526
	C21.632,44.008,22.314,44.69,22.314,45.534"/>
<path d="M42.777,18.16c0,0.844-0.683,1.527-1.527,1.527c-0.844,0-1.527-0.684-1.527-1.527c0-0.841,0.684-1.526,1.527-1.526
	C42.095,16.634,42.777,17.319,42.777,18.16"/>
<path d="M46.201,52.388c0,0.841-0.686,1.527-1.527,1.527c-0.844,0-1.527-0.687-1.527-1.527c0-0.844,0.684-1.526,1.527-1.526
	C45.516,50.861,46.201,51.544,46.201,52.388"/>
<path d="M19.562,29.315c0,0.383-0.311,0.693-0.693,0.693c-0.384,0-0.694-0.311-0.694-0.693c0-0.384,0.311-0.694,0.694-0.694
	C19.252,28.621,19.562,28.932,19.562,29.315"/>
<path d="M54.391,28.896c0,0.383-0.312,0.694-0.694,0.694s-0.694-0.312-0.694-0.694c0-0.386,0.312-0.693,0.694-0.693
	S54.391,28.51,54.391,28.896"/>
<path d="M28.835,52.879c0,0.384-0.309,0.694-0.694,0.694c-0.383,0-0.693-0.311-0.693-0.694c0-0.383,0.311-0.693,0.693-0.693
	C28.526,52.186,28.835,52.496,28.835,52.879"/>
<path d="M31.495,17.719c0,0.383-0.312,0.694-0.694,0.694s-0.693-0.312-0.693-0.694s0.311-0.694,0.693-0.694
	S31.495,17.336,31.495,17.719"/>
<path d="M54.248,45.609c0,0.841-0.682,1.527-1.526,1.527c-0.842,0-1.528-0.687-1.528-1.527c0-0.844,0.687-1.526,1.528-1.526
	C53.566,44.083,54.248,44.766,54.248,45.609"/>
<path d="M19.035,39.817c0,0.841-0.683,1.526-1.527,1.526c-0.842,0-1.527-0.686-1.527-1.526c0-0.845,0.686-1.527,1.527-1.527
	C18.353,38.29,19.035,38.973,19.035,39.817"/>
<path d="M49.092,20.188c0,0.841-0.686,1.527-1.527,1.527c-0.844,0-1.527-0.687-1.527-1.527c0-0.844,0.684-1.527,1.527-1.527
	C48.406,18.66,49.092,19.344,49.092,20.188"/>
<path d="M40.137,55.165c0,0.844-0.684,1.526-1.527,1.526s-1.528-0.683-1.528-1.526c0-0.845,0.685-1.527,1.528-1.527
	S40.137,54.32,40.137,55.165"/>
<path d="M23.015,23.142c0,0.842-0.684,1.527-1.527,1.527s-1.527-0.686-1.527-1.527c0-0.844,0.684-1.526,1.527-1.526
	S23.015,22.298,23.015,23.142"/>
<path d="M57.467,35.258c0,0.841-0.683,1.526-1.527,1.526c-0.844,0-1.527-0.686-1.527-1.526c0-0.845,0.684-1.527,1.527-1.527
	C56.784,33.73,57.467,34.413,57.467,35.258"/>
<path d="M22.856,49.675c0,0.383-0.312,0.694-0.694,0.694s-0.694-0.312-0.694-0.694s0.312-0.694,0.694-0.694
	S22.856,49.292,22.856,49.675"/>
<path d="M38.106,16.042c0,0.383-0.311,0.693-0.693,0.693c-0.384,0-0.694-0.311-0.694-0.693c0-0.384,0.311-0.694,0.694-0.694
	C37.796,15.348,38.106,15.658,38.106,16.042"/>
<path d="M49.645,51.338c0,0.383-0.311,0.694-0.693,0.694s-0.694-0.312-0.694-0.694s0.312-0.693,0.694-0.693
	S49.645,50.955,49.645,51.338"/>
<path d="M17.119,33.006c0,0.383-0.311,0.693-0.694,0.693c-0.383,0-0.693-0.311-0.693-0.693c0-0.387,0.311-0.694,0.693-0.694
	C16.809,32.312,17.119,32.619,17.119,33.006"/>
<path d="M53.682,24.508c0,0.384-0.311,0.694-0.693,0.694s-0.693-0.311-0.693-0.694c0-0.386,0.311-0.693,0.693-0.693
	S53.682,24.122,53.682,24.508"/>
<path d="M32.348,55.637c0,0.383-0.312,0.694-0.694,0.694s-0.693-0.312-0.693-0.694s0.311-0.694,0.693-0.694
	S32.348,55.254,32.348,55.637"/>
<path d="M27.857,18.074c0,0.841-0.684,1.527-1.527,1.527s-1.527-0.687-1.527-1.527c0-0.844,0.684-1.526,1.527-1.526
	S27.857,17.23,27.857,18.074"/>
<path d="M57.309,42.303c0,0.841-0.683,1.526-1.527,1.526c-0.844,0-1.527-0.686-1.527-1.526c0-0.845,0.684-1.527,1.527-1.527
	C56.626,40.775,57.309,41.458,57.309,42.303"/>
<path d="M19.029,44.341c0,0.844-0.683,1.526-1.526,1.526s-1.528-0.683-1.528-1.526c0-0.845,0.685-1.527,1.528-1.527
	S19.029,43.496,19.029,44.341"/>
<path d="M46.016,16.842c0,0.841-0.684,1.526-1.527,1.526s-1.528-0.686-1.528-1.526c0-0.845,0.685-1.527,1.528-1.527
	S46.016,15.997,46.016,16.842"/>
<path d="M43.852,55.542c0,0.384-0.311,0.694-0.693,0.694s-0.694-0.311-0.694-0.694c0-0.383,0.312-0.693,0.694-0.693
	S43.852,55.159,43.852,55.542"/>
<path d="M18.566,25.958c0,0.383-0.312,0.693-0.694,0.693c-0.386,0-0.694-0.311-0.694-0.693s0.309-0.694,0.694-0.694
	C18.255,25.264,18.566,25.575,18.566,25.958"/>
<path d="M58.22,30.715c0,0.844-0.683,1.526-1.526,1.526c-0.845,0-1.529-0.683-1.529-1.526c0-0.845,0.685-1.527,1.529-1.527
	C57.537,29.188,58.22,29.87,58.22,30.715"/>
<path d="M26.225,53.543c0,0.844-0.683,1.527-1.527,1.527c-0.844,0-1.527-0.684-1.527-1.527s0.684-1.527,1.527-1.527
	C25.542,52.016,26.225,52.699,26.225,53.543"/>
<path d="M34.436,14.911c0,0.842-0.683,1.527-1.526,1.527c-0.845,0-1.528-0.686-1.528-1.527c0-0.844,0.684-1.526,1.528-1.526
	C33.753,13.385,34.436,14.067,34.436,14.911"/>
<path d="M54.574,49.108c0,0.844-0.684,1.527-1.527,1.527s-1.528-0.684-1.528-1.527s0.685-1.527,1.528-1.527
	S54.574,48.265,54.574,49.108"/>
<path d="M16.444,37.438c0,0.844-0.683,1.526-1.527,1.526c-0.844,0-1.527-0.683-1.527-1.526c0-0.841,0.684-1.527,1.527-1.527
	C15.762,35.91,16.444,36.597,16.444,37.438"/>
<path d="M52.613,20.207c0,0.844-0.686,1.527-1.527,1.527c-0.844,0-1.527-0.684-1.527-1.527s0.684-1.527,1.527-1.527
	C51.928,18.68,52.613,19.363,52.613,20.207"/>
<path d="M37.513,57.517c0,0.844-0.684,1.527-1.527,1.527s-1.528-0.684-1.528-1.527c0-0.841,0.685-1.527,1.528-1.527
	S37.513,56.676,37.513,57.517"/>
<path d="M23.378,19.629c0,0.845-0.683,1.527-1.526,1.527c-0.845,0-1.528-0.683-1.528-1.527c0-0.841,0.684-1.526,1.528-1.526
	C22.695,18.103,23.378,18.788,23.378,19.629"/>
<path d="M58.725,38.104c0,0.383-0.311,0.694-0.693,0.694s-0.694-0.312-0.694-0.694s0.312-0.693,0.694-0.693
	S58.725,37.721,58.725,38.104"/>
<path d="M19.388,48.97c0,0.383-0.311,0.694-0.693,0.694c-0.384,0-0.694-0.312-0.694-0.694s0.311-0.694,0.694-0.694
	C19.077,48.275,19.388,48.587,19.388,48.97"/>
<path d="M41.153,14.231c0,0.383-0.312,0.693-0.694,0.693s-0.694-0.311-0.694-0.693s0.312-0.694,0.694-0.694
	S41.153,13.849,41.153,14.231"/>
<path d="M48.604,54.729c0,0.383-0.311,0.694-0.694,0.694c-0.383,0-0.694-0.312-0.694-0.694s0.312-0.693,0.694-0.693
	C48.293,54.035,48.604,54.346,48.604,54.729"/>
<path d="M16.441,29.79c0,0.844-0.683,1.526-1.526,1.526c-0.845,0-1.528-0.683-1.528-1.526s0.684-1.527,1.528-1.527
	C15.759,28.263,16.441,28.946,16.441,29.79"/>
<path d="M57.797,25.874c0,0.845-0.682,1.527-1.526,1.527c-0.844,0-1.528-0.683-1.528-1.527c0-0.844,0.685-1.526,1.528-1.526
	C57.115,24.348,57.797,25.03,57.797,25.874"/>
<path d="M29.826,56.831c0,0.844-0.683,1.526-1.527,1.526c-0.844,0-1.527-0.683-1.527-1.526s0.684-1.527,1.527-1.527
	C29.144,55.304,29.826,55.987,29.826,56.831"/>
<path d="M29.54,14.931c0,0.841-0.683,1.527-1.527,1.527c-0.844,0-1.527-0.687-1.527-1.527c0-0.844,0.684-1.526,1.527-1.526
	C28.857,13.404,29.54,14.087,29.54,14.931"/>
<path d="M58.178,45.765c0,0.845-0.686,1.527-1.527,1.527c-0.844,0-1.527-0.683-1.527-1.527c0-0.844,0.684-1.526,1.527-1.526
	C57.492,44.238,58.178,44.921,58.178,45.765"/>
<path d="M16.053,42.357c0,0.845-0.683,1.527-1.526,1.527c-0.843,0-1.528-0.683-1.528-1.527c0-0.844,0.686-1.526,1.528-1.526
	C15.37,40.831,16.053,41.514,16.053,42.357"/>
<path d="M48.723,16.309c0,0.383-0.311,0.693-0.693,0.693c-0.384,0-0.694-0.311-0.694-0.693c0-0.384,0.311-0.694,0.694-0.694
	C48.412,15.614,48.723,15.925,48.723,16.309"/>
<path d="M41.586,58.322c0,0.383-0.311,0.693-0.694,0.693c-0.383,0-0.693-0.311-0.693-0.693s0.311-0.694,0.693-0.694
	C41.275,57.628,41.586,57.939,41.586,58.322"/>
<path d="M18.374,22.373c0,0.383-0.311,0.693-0.693,0.693s-0.694-0.311-0.694-0.693s0.312-0.694,0.694-0.694
	S18.374,21.99,18.374,22.373"/>
<path d="M59.943,33.244c0,0.383-0.311,0.694-0.693,0.694s-0.693-0.312-0.693-0.694s0.311-0.693,0.693-0.693
	S59.943,32.861,59.943,33.244"/>
<path d="M21.793,53.391c0,0.383-0.312,0.693-0.694,0.693s-0.694-0.311-0.694-0.693c0-0.387,0.312-0.694,0.694-0.694
	S21.793,53.004,21.793,53.391"/>
<path d="M36.374,12.602c0,0.383-0.312,0.693-0.694,0.693s-0.693-0.311-0.693-0.693c0-0.384,0.311-0.694,0.693-0.694
	S36.374,12.218,36.374,12.602"/>
<path d="M54.074,52.688c0,0.845-0.684,1.527-1.527,1.527c-0.842,0-1.528-0.683-1.528-1.527c0-0.844,0.687-1.526,1.528-1.526
	C53.391,51.161,54.074,51.844,54.074,52.688"/>
<path d="M14.403,34.449c0,0.844-0.686,1.527-1.526,1.527c-0.845,0-1.528-0.684-1.528-1.527s0.684-1.526,1.528-1.526
	C13.718,32.923,14.403,33.605,14.403,34.449"/>
<path d="M56.14,21.046c0,0.844-0.683,1.526-1.526,1.526c-0.845,0-1.528-0.683-1.528-1.526c0-0.841,0.684-1.527,1.528-1.527
	C55.457,19.519,56.14,20.205,56.14,21.046"/>
<path d="M34.333,59.271c0,0.841-0.687,1.527-1.527,1.527c-0.844,0-1.527-0.687-1.527-1.527c0-0.844,0.684-1.526,1.527-1.526
	C33.646,57.745,34.333,58.428,34.333,59.271"/>
<path d="M23.72,16.188c0,0.384-0.308,0.694-0.694,0.694c-0.383,0-0.693-0.311-0.693-0.694c0-0.383,0.311-0.693,0.693-0.693
	C23.412,15.495,23.72,15.806,23.72,16.188"/>
<path d="M60.172,41.45c0,0.383-0.311,0.693-0.694,0.693c-0.383,0-0.694-0.311-0.694-0.693c0-0.384,0.312-0.694,0.694-0.694
	C59.861,40.756,60.172,41.066,60.172,41.45"/>
<path d="M16.897,47.467c0,0.845-0.687,1.527-1.527,1.527c-0.844,0-1.528-0.683-1.528-1.527c0-0.844,0.685-1.526,1.528-1.526
	C16.211,45.94,16.897,46.623,16.897,47.467"/>
<path d="M45.463,13.104c0,0.845-0.684,1.527-1.527,1.527c-0.842,0-1.528-0.683-1.528-1.527c0-0.844,0.687-1.526,1.528-1.526
	C44.779,11.577,45.463,12.26,45.463,13.104"/>
<path d="M47.617,57.908c0,0.844-0.683,1.527-1.526,1.527c-0.843,0-1.528-0.684-1.528-1.527s0.686-1.527,1.528-1.527
	C46.935,56.381,47.617,57.064,47.617,57.908"/>
<path d="M15.647,26.208c0,0.844-0.686,1.526-1.527,1.526c-0.844,0-1.527-0.683-1.527-1.526c0-0.842,0.684-1.527,1.527-1.527
	C14.962,24.681,15.647,25.366,15.647,26.208"/>
<path d="M60.803,27.993c0,0.841-0.687,1.527-1.527,1.527c-0.844,0-1.528-0.687-1.528-1.527c0-0.844,0.685-1.527,1.528-1.527
	C60.116,26.466,60.803,27.149,60.803,27.993"/>
<path d="M26.175,57.286c0,0.844-0.687,1.527-1.527,1.527c-0.844,0-1.528-0.684-1.528-1.527s0.685-1.527,1.528-1.527
	C25.488,55.759,26.175,56.442,26.175,57.286"/>
<path d="M31.939,12.132c0,0.841-0.684,1.527-1.527,1.527c-0.842,0-1.527-0.687-1.527-1.527c0-0.844,0.686-1.527,1.527-1.527
	C31.256,10.604,31.939,11.288,31.939,12.132"/>
<path d="M58.286,49.458c0,0.845-0.687,1.527-1.526,1.527c-0.845,0-1.528-0.683-1.528-1.527c0-0.844,0.684-1.526,1.528-1.526
	C57.6,47.932,58.286,48.614,58.286,49.458"/>
<path d="M12.651,39.695c0,0.383-0.312,0.693-0.694,0.693s-0.693-0.311-0.693-0.693c0-0.384,0.311-0.694,0.693-0.694
	S12.651,39.312,12.651,39.695"/>
<path d="M52.424,16.55c0,0.383-0.311,0.694-0.693,0.694s-0.694-0.312-0.694-0.694s0.312-0.694,0.694-0.694
	S52.424,16.167,52.424,16.55"/>
<path d="M38.682,60.638c0,0.383-0.312,0.694-0.694,0.694s-0.693-0.312-0.693-0.694s0.311-0.693,0.693-0.693
	S38.682,60.255,38.682,60.638"/>
<path d="M18.963,18.699c0,0.383-0.311,0.694-0.693,0.694c-0.384,0-0.694-0.312-0.694-0.694s0.311-0.694,0.694-0.694
	C18.652,18.005,18.963,18.316,18.963,18.699"/>
<path d="M62.815,36.365c0,0.845-0.683,1.527-1.527,1.527c-0.842,0-1.528-0.683-1.528-1.527c0-0.844,0.687-1.526,1.528-1.526
	C62.133,34.839,62.815,35.521,62.815,36.365"/>
<path d="M19.011,52.452c0,0.844-0.684,1.526-1.527,1.526s-1.528-0.683-1.528-1.526c0-0.845,0.685-1.527,1.528-1.527
	S19.011,51.607,19.011,52.452"/>
<path d="M40.517,10.857c0,0.841-0.683,1.527-1.526,1.527c-0.842,0-1.528-0.687-1.528-1.527c0-0.844,0.687-1.527,1.528-1.527
	C39.834,9.33,40.517,10.014,40.517,10.857"/>
<path d="M52.799,56.212c0,0.844-0.686,1.526-1.526,1.526c-0.845,0-1.528-0.683-1.528-1.526c0-0.845,0.684-1.527,1.528-1.527
	C52.113,54.685,52.799,55.367,52.799,56.212"/>
<path d="M12.971,30.979c0,0.841-0.683,1.527-1.527,1.527c-0.844,0-1.527-0.687-1.527-1.527c0-0.844,0.684-1.527,1.527-1.527
	C12.288,29.451,12.971,30.135,12.971,30.979"/>
<path d="M59.541,22.653c0,0.844-0.683,1.527-1.526,1.527c-0.845,0-1.528-0.684-1.528-1.527s0.684-1.527,1.528-1.527
	C58.858,21.126,59.541,21.81,59.541,22.653"/>
<path d="M29.896,60.374c0,0.383-0.311,0.694-0.694,0.694c-0.386,0-0.693-0.312-0.693-0.694s0.308-0.694,0.693-0.694
	C29.585,59.68,29.896,59.991,29.896,60.374"/>
<path d="M25.646,12.94c0,0.383-0.311,0.693-0.693,0.693s-0.694-0.311-0.694-0.693c0-0.384,0.312-0.694,0.694-0.694
	S25.646,12.557,25.646,12.94"/>
<path d="M60.938,45.154c0,0.383-0.311,0.694-0.693,0.694s-0.693-0.312-0.693-0.694s0.311-0.694,0.693-0.694
	S60.938,44.771,60.938,45.154"/>
<path d="M12.996,45.24c0,0.383-0.312,0.694-0.694,0.694s-0.694-0.312-0.694-0.694c0-0.386,0.312-0.694,0.694-0.694
	S12.996,44.854,12.996,45.24"/>
<path d="M48.406,12.688c0,0.383-0.311,0.693-0.693,0.693c-0.384,0-0.695-0.311-0.695-0.693s0.312-0.694,0.695-0.694
	C48.096,11.993,48.406,12.305,48.406,12.688"/>
<path d="M44.271,60.763c0,0.383-0.312,0.694-0.694,0.694s-0.693-0.312-0.693-0.694s0.311-0.693,0.693-0.693
	S44.271,60.38,44.271,60.763"/>
<path d="M15.581,22.397c0,0.842-0.684,1.527-1.527,1.527c-0.842,0-1.527-0.686-1.527-1.527c0-0.844,0.686-1.526,1.527-1.526
	C14.897,20.871,15.581,21.554,15.581,22.397"/>
<path d="M63.421,30.772c0,0.845-0.683,1.527-1.527,1.527c-0.844,0-1.528-0.683-1.528-1.527c0-0.844,0.685-1.526,1.528-1.526
	C62.738,29.246,63.421,29.929,63.421,30.772"/>
<path d="M22.356,56.995c0,0.844-0.683,1.526-1.527,1.526c-0.842,0-1.527-0.683-1.527-1.526c0-0.845,0.686-1.527,1.527-1.527
	C21.674,55.468,22.356,56.15,22.356,56.995"/>
<path d="M34.963,9.771c0,0.844-0.683,1.527-1.526,1.527s-1.528-0.684-1.528-1.527c0-0.841,0.685-1.527,1.528-1.527
	S34.963,8.931,34.963,9.771"/>
<path d="M56.804,53.243c0,0.383-0.312,0.694-0.694,0.694s-0.693-0.312-0.693-0.694s0.311-0.694,0.693-0.694
	S56.804,52.86,56.804,53.243"/>
<path d="M10.577,36.451c0,0.384-0.312,0.694-0.694,0.694s-0.693-0.311-0.693-0.694c0-0.383,0.311-0.693,0.693-0.693
	S10.577,36.068,10.577,36.451"/>
<path d="M56.98,17.55c0,0.844-0.686,1.526-1.526,1.526c-0.844,0-1.528-0.683-1.528-1.526c0-0.845,0.685-1.527,1.528-1.527
	C56.295,16.022,56.98,16.705,56.98,17.55"/>
<path d="M36.082,62.409c0,0.841-0.683,1.527-1.526,1.527c-0.845,0-1.528-0.687-1.528-1.527c0-0.844,0.684-1.526,1.528-1.526
	C35.399,60.883,36.082,61.565,36.082,62.409"/>
<path d="M21.143,15.069c0,0.845-0.683,1.527-1.526,1.527c-0.843,0-1.528-0.683-1.528-1.527c0-0.844,0.686-1.526,1.528-1.526
	C20.46,13.543,21.143,14.226,21.143,15.069"/>
<path d="M64.268,39.962c0,0.844-0.684,1.526-1.527,1.526s-1.527-0.683-1.527-1.526c0-0.845,0.684-1.527,1.527-1.527
	S64.268,39.117,64.268,39.962"/>
<path d="M15.509,50.769c0,0.845-0.687,1.527-1.527,1.527c-0.844,0-1.527-0.683-1.527-1.527c0-0.844,0.684-1.526,1.527-1.526
	C14.822,49.242,15.509,49.925,15.509,50.769"/>
<path d="M44.249,9.741c0,0.841-0.686,1.526-1.527,1.526c-0.844,0-1.527-0.686-1.527-1.526c0-0.844,0.684-1.527,1.527-1.527
	C43.563,8.214,44.249,8.897,44.249,9.741"/>
<path d="M50.789,59.555c0,0.844-0.684,1.527-1.527,1.527c-0.842,0-1.527-0.684-1.527-1.527c0-0.841,0.686-1.526,1.527-1.526
	C50.105,58.028,50.789,58.714,50.789,59.555"/>
<path d="M12.201,27.146c0,0.841-0.683,1.526-1.526,1.526c-0.845,0-1.528-0.686-1.528-1.526c0-0.844,0.684-1.527,1.528-1.527
	C11.519,25.619,12.201,26.303,12.201,27.146"/>
<path d="M61.865,24.972c0,0.384-0.311,0.694-0.693,0.694c-0.387,0-0.694-0.311-0.694-0.694c0-0.383,0.308-0.693,0.694-0.693
	C61.555,24.278,61.865,24.589,61.865,24.972"/>
<path d="M25.994,60.788c0,0.386-0.312,0.693-0.694,0.693s-0.693-0.308-0.693-0.693c0-0.383,0.311-0.694,0.693-0.694
	S25.994,60.405,25.994,60.788"/>
<path d="M28.255,9.999c0,0.383-0.312,0.694-0.694,0.694s-0.694-0.312-0.694-0.694s0.312-0.693,0.694-0.693
	S28.255,9.616,28.255,9.999"/>
<path d="M60.991,49.092c0,0.383-0.312,0.694-0.694,0.694s-0.693-0.312-0.693-0.694s0.311-0.694,0.693-0.694
	S60.991,48.709,60.991,49.092"/>
<path d="M11.133,42.357c0,0.845-0.684,1.527-1.527,1.527s-1.528-0.683-1.528-1.527c0-0.841,0.685-1.526,1.528-1.526
	S11.133,41.517,11.133,42.357"/>
<path d="M53.18,12.998c0,0.844-0.684,1.527-1.527,1.527s-1.527-0.684-1.527-1.527s0.684-1.526,1.527-1.526
	S53.18,12.154,53.18,12.998"/>
<path d="M41.975,63.192c0,0.844-0.683,1.527-1.526,1.527c-0.843,0-1.528-0.684-1.528-1.527s0.686-1.526,1.528-1.526
	C41.292,61.666,41.975,62.349,41.975,63.192"/>
<path d="M16.259,18.485c0,0.844-0.684,1.527-1.527,1.527s-1.528-0.684-1.528-1.527c0-0.841,0.685-1.527,1.528-1.527
	S16.259,17.645,16.259,18.485"/>
<path d="M65.559,34.125c0,0.844-0.683,1.526-1.527,1.526c-0.842,0-1.527-0.683-1.527-1.526c0-0.845,0.686-1.527,1.527-1.527
	C64.876,32.598,65.559,33.28,65.559,34.125"/>
<path d="M18.511,55.956c0,0.844-0.684,1.527-1.527,1.527c-0.842,0-1.528-0.684-1.528-1.527c0-0.841,0.687-1.527,1.528-1.527
	C17.827,54.429,18.511,55.115,18.511,55.956"/>
<path d="M37.679,7.944c0,0.383-0.311,0.694-0.693,0.694c-0.384,0-0.694-0.312-0.694-0.694s0.311-0.694,0.694-0.694
	C37.368,7.25,37.679,7.562,37.679,7.944"/>
<path d="M55.412,56.992c0,0.383-0.311,0.693-0.693,0.693s-0.694-0.311-0.694-0.693s0.312-0.694,0.694-0.694
	S55.412,56.609,55.412,56.992"/>
<path d="M9.075,32.739c0,0.383-0.312,0.693-0.694,0.693s-0.694-0.311-0.694-0.693c0-0.384,0.312-0.694,0.694-0.694
	S9.075,32.355,9.075,32.739"/>
<path d="M59.767,19.285c0,0.383-0.312,0.694-0.694,0.694s-0.693-0.312-0.693-0.694s0.311-0.694,0.693-0.694
	S59.767,18.902,59.767,19.285"/>
<path d="M31.397,63.567c0,0.383-0.311,0.694-0.693,0.694s-0.694-0.312-0.694-0.694s0.312-0.694,0.694-0.694
	S31.397,63.185,31.397,63.567"/>
<path d="M22.382,11.612c0,0.383-0.312,0.694-0.694,0.694s-0.694-0.312-0.694-0.694s0.312-0.693,0.694-0.693
	S22.382,11.229,22.382,11.612"/>
<path d="M65.07,43.919c0,0.844-0.684,1.526-1.527,1.526s-1.527-0.683-1.527-1.526c0-0.845,0.684-1.527,1.527-1.527
	S65.07,43.074,65.07,43.919"/>
<path d="M12.243,48.381c0,0.844-0.687,1.527-1.527,1.527c-0.844,0-1.527-0.684-1.527-1.527c0-0.841,0.684-1.527,1.527-1.527
	C11.557,46.854,12.243,47.54,12.243,48.381"/>
<path d="M48.275,9.303c0,0.841-0.683,1.526-1.527,1.526c-0.842,0-1.527-0.686-1.527-1.526c0-0.845,0.686-1.527,1.527-1.527
	C47.593,7.775,48.275,8.458,48.275,9.303"/>
<path d="M48.104,62.602c0,0.844-0.684,1.526-1.527,1.526c-0.842,0-1.528-0.683-1.528-1.526c0-0.845,0.687-1.527,1.528-1.527
	C47.42,61.074,48.104,61.757,48.104,62.602"/>
<path d="M11.299,23.078c0,0.383-0.311,0.694-0.694,0.694c-0.383,0-0.693-0.312-0.693-0.694s0.311-0.694,0.693-0.694
	C10.988,22.384,11.299,22.695,11.299,23.078"/>
<path d="M64.662,27.935c0,0.384-0.311,0.694-0.694,0.694c-0.383,0-0.694-0.311-0.694-0.694c0-0.383,0.312-0.693,0.694-0.693
	C64.352,27.241,64.662,27.552,64.662,27.935"/>
<path d="M22.754,60.485c0,0.841-0.684,1.526-1.527,1.526s-1.528-0.686-1.528-1.526c0-0.844,0.685-1.527,1.528-1.527
	S22.754,59.642,22.754,60.485"/>
<path d="M32.309,7.475c0,0.845-0.683,1.527-1.527,1.527c-0.844,0-1.527-0.683-1.527-1.527c0-0.844,0.684-1.526,1.527-1.526
	C31.626,5.948,32.309,6.631,32.309,7.475"/>
<path d="M61.144,53.135c0,0.844-0.683,1.527-1.526,1.527c-0.843,0-1.528-0.684-1.528-1.527s0.686-1.527,1.528-1.527
	C60.461,51.607,61.144,52.291,61.144,53.135"/>
<path d="M8.905,38.909c0,0.844-0.683,1.527-1.527,1.527c-0.844,0-1.527-0.684-1.527-1.527s0.684-1.527,1.527-1.527
	C8.223,37.382,8.905,38.065,8.905,38.909"/>
<path d="M57.158,14.048c0,0.844-0.686,1.527-1.526,1.527c-0.844,0-1.528-0.684-1.528-1.527s0.685-1.527,1.528-1.527
	C56.473,12.521,57.158,13.204,57.158,14.048"/>
<path d="M38.323,65.104c0,0.844-0.683,1.526-1.527,1.526c-0.844,0-1.527-0.683-1.527-1.526c0-0.845,0.684-1.527,1.527-1.527
	C37.641,63.576,38.323,64.259,38.323,65.104"/>
<path d="M17.672,14.606c0,0.844-0.687,1.526-1.527,1.526c-0.844,0-1.527-0.683-1.527-1.526c0-0.845,0.684-1.527,1.527-1.527
	C16.985,13.079,17.672,13.762,17.672,14.606"/>
<path d="M67.137,37.951c0,0.841-0.687,1.526-1.527,1.526c-0.844,0-1.528-0.686-1.528-1.526c0-0.844,0.685-1.527,1.528-1.527
	C66.45,36.424,67.137,37.107,67.137,37.951"/>
<path d="M13.929,54.19c0,0.383-0.312,0.693-0.694,0.693s-0.693-0.311-0.693-0.693c0-0.384,0.311-0.694,0.693-0.694
	S13.929,53.807,13.929,54.19"/>
<path d="M41.647,6.72c0,0.383-0.312,0.694-0.694,0.694s-0.694-0.312-0.694-0.694s0.312-0.694,0.694-0.694S41.647,6.337,41.647,6.72"
	/>
<path d="M53.302,60.579c0,0.384-0.308,0.694-0.694,0.694c-0.383,0-0.693-0.311-0.693-0.694c0-0.383,0.311-0.693,0.693-0.693
	C52.994,59.886,53.302,60.196,53.302,60.579"/>
<path d="M8.214,28.66c0,0.383-0.311,0.693-0.694,0.693c-0.383,0-0.693-0.311-0.693-0.693c0-0.384,0.311-0.694,0.693-0.694
	C7.903,27.966,8.214,28.276,8.214,28.66"/>
<path d="M63.992,21.723c0,0.842-0.686,1.527-1.526,1.527c-0.845,0-1.528-0.686-1.528-1.527c0-0.844,0.684-1.526,1.528-1.526
	C63.307,20.196,63.992,20.879,63.992,21.723"/>
<path d="M28.074,64.057c0,0.841-0.684,1.526-1.527,1.526c-0.842,0-1.528-0.686-1.528-1.526c0-0.845,0.687-1.527,1.528-1.527
	C27.391,62.529,28.074,63.212,28.074,64.057"/>
<path d="M25.958,8.444c0,0.841-0.683,1.526-1.527,1.526c-0.844,0-1.527-0.686-1.527-1.526c0-0.844,0.684-1.527,1.527-1.527
	C25.275,6.917,25.958,7.601,25.958,8.444"/>
<path d="M65.179,48.117c0,0.841-0.683,1.527-1.527,1.527c-0.842,0-1.528-0.687-1.528-1.527c0-0.844,0.687-1.527,1.528-1.527
	C64.496,46.59,65.179,47.273,65.179,48.117"/>
<path d="M9.324,45.349c0,0.844-0.683,1.527-1.526,1.527c-0.842,0-1.528-0.684-1.528-1.527c0-0.841,0.687-1.527,1.528-1.527
	C8.642,43.821,9.324,44.508,9.324,45.349"/>
<path d="M52.482,9.574c0,0.844-0.683,1.527-1.527,1.527c-0.844,0-1.527-0.684-1.527-1.527c0-0.841,0.684-1.526,1.527-1.526
	C51.8,8.048,52.482,8.733,52.482,9.574"/>
<path d="M43.975,65.239c0,0.383-0.312,0.693-0.694,0.693s-0.694-0.311-0.694-0.693s0.312-0.694,0.694-0.694
	S43.975,64.856,43.975,65.239"/>
<path d="M11.957,18.899c0,0.383-0.311,0.693-0.694,0.693c-0.383,0-0.693-0.311-0.693-0.693c0-0.384,0.311-0.694,0.693-0.694
	C11.646,18.205,11.957,18.516,11.957,18.899"/>
<path d="M66.997,31.473c0,0.383-0.312,0.694-0.694,0.694s-0.693-0.312-0.693-0.694s0.311-0.694,0.693-0.694
	S66.997,31.09,66.997,31.473"/>
<path d="M17.803,59.446c0,0.383-0.309,0.694-0.694,0.694c-0.383,0-0.694-0.312-0.694-0.694s0.312-0.693,0.694-0.693
	C17.494,58.753,17.803,59.063,17.803,59.446"/>
<path d="M35.222,5.462c0,0.383-0.312,0.694-0.694,0.694s-0.693-0.312-0.693-0.694s0.311-0.694,0.693-0.694
	S35.222,5.079,35.222,5.462"/>
<path d="M58.9,57.155c0,0.384-0.312,0.694-0.694,0.694c-0.384,0-0.694-0.311-0.694-0.694c0-0.383,0.311-0.693,0.694-0.693
	C58.589,56.462,58.9,56.772,58.9,57.155"/>
<path d="M7.233,34.979c0,0.845-0.683,1.527-1.526,1.527c-0.845,0-1.528-0.683-1.528-1.527c0-0.844,0.684-1.526,1.528-1.526
	C6.551,33.453,7.233,34.136,7.233,34.979"/>
<path d="M61.049,15.825c0,0.844-0.686,1.527-1.526,1.527c-0.845,0-1.528-0.684-1.528-1.527s0.684-1.527,1.528-1.527
	C60.363,14.298,61.049,14.981,61.049,15.825"/>
<path d="M34.244,66.416c0,0.845-0.683,1.527-1.527,1.527c-0.844,0-1.527-0.683-1.527-1.527c0-0.844,0.684-1.526,1.527-1.526
	C33.562,64.89,34.244,65.572,34.244,66.416"/>
<path d="M19.802,10.88c0,0.844-0.683,1.526-1.527,1.526c-0.844,0-1.527-0.683-1.527-1.526c0-0.845,0.684-1.527,1.527-1.527
	C19.119,9.353,19.802,10.035,19.802,10.88"/>
<path d="M67.244,42.146c0,0.384-0.311,0.694-0.693,0.694s-0.694-0.311-0.694-0.694c0-0.383,0.312-0.693,0.694-0.693
	S67.244,41.764,67.244,42.146"/>
<path d="M10.396,51.722c0,0.383-0.311,0.693-0.694,0.693c-0.383,0-0.693-0.311-0.693-0.693c0-0.384,0.311-0.694,0.693-0.694
	C10.086,51.027,10.396,51.338,10.396,51.722"/>
<path d="M46.76,6.159c0,0.844-0.684,1.526-1.527,1.526s-1.528-0.683-1.528-1.526c0-0.845,0.685-1.527,1.528-1.527
	S46.76,5.314,46.76,6.159"/>
<path d="M51.35,63.884c0,0.844-0.686,1.527-1.527,1.527c-0.844,0-1.527-0.684-1.527-1.527c0-0.841,0.684-1.526,1.527-1.526
	C50.664,62.357,51.35,63.043,51.35,63.884"/>
<path d="M8.875,24.331c0,0.844-0.684,1.526-1.527,1.526c-0.842,0-1.528-0.683-1.528-1.526c0-0.845,0.687-1.527,1.528-1.527
	C8.191,22.804,8.875,23.486,8.875,24.331"/>
<path d="M67.041,24.809c0,0.844-0.683,1.526-1.526,1.526s-1.528-0.683-1.528-1.526c0-0.845,0.685-1.527,1.528-1.527
	S67.041,23.964,67.041,24.809"/>
<path d="M23.733,63.834c0,0.841-0.683,1.527-1.526,1.527c-0.845,0-1.528-0.687-1.528-1.527c0-0.844,0.684-1.527,1.528-1.527
	C23.051,62.307,23.733,62.99,23.733,63.834"/>
<path d="M29.318,5.676c0,0.841-0.684,1.527-1.527,1.527c-0.842,0-1.528-0.687-1.528-1.527c0-0.844,0.687-1.527,1.528-1.527
	C28.635,4.148,29.318,4.832,29.318,5.676"/>
<path d="M64.564,52.436c0,0.844-0.686,1.526-1.527,1.526c-0.844,0-1.527-0.683-1.527-1.526c0-0.845,0.684-1.527,1.527-1.527
	C63.879,50.908,64.564,51.591,64.564,52.436"/>
<path d="M6.864,41.738c0,0.845-0.686,1.527-1.527,1.527c-0.844,0-1.527-0.683-1.527-1.527c0-0.844,0.684-1.526,1.527-1.526
	C6.179,40.212,6.864,40.895,6.864,41.738"/>
<path d="M55.912,10.582c0,0.384-0.311,0.694-0.693,0.694c-0.387,0-0.695-0.311-0.695-0.694c0-0.383,0.309-0.693,0.695-0.693
	C55.602,9.889,55.912,10.199,55.912,10.582"/>
<path d="M40.143,67.375c0,0.383-0.312,0.693-0.694,0.693s-0.694-0.311-0.694-0.693c0-0.387,0.312-0.694,0.694-0.694
	S40.143,66.988,40.143,67.375"/>
<path d="M13.349,14.731c0,0.383-0.312,0.693-0.694,0.693s-0.694-0.311-0.694-0.693c0-0.384,0.312-0.694,0.694-0.694
	S13.349,14.348,13.349,14.731"/>
<path d="M68.783,35.493c0,0.384-0.312,0.694-0.694,0.694c-0.384,0-0.694-0.311-0.694-0.694c0-0.383,0.311-0.693,0.694-0.693
	C68.472,34.8,68.783,35.11,68.783,35.493"/>
<path d="M14.598,57.678c0,0.844-0.683,1.527-1.526,1.527c-0.845,0-1.528-0.684-1.528-1.527s0.684-1.527,1.528-1.527
	C13.915,56.15,14.598,56.834,14.598,57.678"/>
<path d="M40.236,4.04c0,0.844-0.683,1.527-1.526,1.527c-0.843,0-1.528-0.684-1.528-1.527c0-0.841,0.686-1.526,1.528-1.526
	C39.554,2.514,40.236,3.199,40.236,4.04"/>
<path d="M57.601,61.032c0,0.841-0.687,1.527-1.527,1.527c-0.844,0-1.528-0.687-1.528-1.527c0-0.844,0.685-1.527,1.528-1.527
	C56.914,59.505,57.601,60.188,57.601,61.032"/>
<path d="M6.192,30.673c0,0.841-0.683,1.527-1.527,1.527c-0.844,0-1.527-0.687-1.527-1.527c0-0.844,0.684-1.527,1.527-1.527
	C5.51,29.146,6.192,29.829,6.192,30.673"/>
<path d="M64.729,18.308c0,0.844-0.684,1.527-1.527,1.527s-1.527-0.684-1.527-1.527s0.684-1.527,1.527-1.527
	S64.729,17.464,64.729,18.308"/>
<path d="M29.846,67.069c0,0.841-0.684,1.526-1.527,1.526s-1.528-0.686-1.528-1.526c0-0.845,0.685-1.527,1.528-1.527
	S29.846,66.225,29.846,67.069"/>
<path d="M21.781,7.425c0,0.383-0.311,0.694-0.693,0.694s-0.694-0.312-0.694-0.694s0.312-0.693,0.694-0.693
	S21.781,7.042,21.781,7.425"/>
<path d="M67.497,46.601c0,0.384-0.312,0.694-0.694,0.694s-0.693-0.311-0.693-0.694c0-0.383,0.311-0.693,0.693-0.693
	S67.497,46.218,67.497,46.601"/>
<path d="M7.2,48.598c0,0.383-0.311,0.693-0.694,0.693c-0.383,0-0.693-0.311-0.693-0.693s0.311-0.694,0.693-0.694
	C6.89,47.903,7.2,48.215,7.2,48.598"/>
<path d="M50.402,6.309c0,0.383-0.311,0.694-0.693,0.694s-0.694-0.312-0.694-0.694s0.312-0.693,0.694-0.693
	S50.402,5.926,50.402,6.309"/>
<path d="M47.104,66.797c0,0.383-0.311,0.694-0.693,0.694s-0.694-0.312-0.694-0.694s0.312-0.694,0.694-0.694
	S47.104,66.414,47.104,66.797"/>
<path d="M8.597,19.871c0,0.383-0.311,0.694-0.693,0.694s-0.694-0.312-0.694-0.694s0.312-0.694,0.694-0.694
	S8.597,19.488,8.597,19.871"/>
<path d="M69.646,28.479c0,0.844-0.686,1.526-1.527,1.526c-0.844,0-1.527-0.683-1.527-1.526c0-0.845,0.684-1.527,1.527-1.527
	C68.961,26.952,69.646,27.635,69.646,28.479"/>
<path d="M19.327,62.876c0,0.844-0.684,1.527-1.527,1.527c-0.842,0-1.528-0.684-1.528-1.527c0-0.841,0.687-1.527,1.528-1.527
	C18.644,61.349,19.327,62.035,19.327,62.876"/>
<path d="M33.223,3.404c0,0.844-0.684,1.527-1.527,1.527c-0.842,0-1.528-0.684-1.528-1.527s0.687-1.527,1.528-1.527
	C32.539,1.877,33.223,2.561,33.223,3.404"/>
<path d="M63.213,56.753c0,0.841-0.687,1.527-1.527,1.527c-0.844,0-1.528-0.687-1.528-1.527c0-0.844,0.685-1.526,1.528-1.526
	C62.526,55.227,63.213,55.909,63.213,56.753"/>
<path d="M4.112,37.632c0,0.383-0.311,0.693-0.693,0.693c-0.384,0-0.694-0.311-0.694-0.693s0.311-0.694,0.694-0.694
	C3.802,36.938,4.112,37.249,4.112,37.632"/>
<path d="M60.103,12.323c0,0.383-0.312,0.694-0.694,0.694s-0.693-0.312-0.693-0.694s0.311-0.693,0.693-0.693
	S60.103,11.94,60.103,12.323"/>
<path d="M36.699,68.919c0,0.844-0.684,1.526-1.527,1.526s-1.528-0.683-1.528-1.526c0-0.845,0.685-1.527,1.528-1.527
	S36.699,68.074,36.699,68.919"/>
<path d="M16.3,10.699c0,0.844-0.683,1.526-1.526,1.526c-0.845,0-1.528-0.683-1.528-1.526c0-0.841,0.684-1.527,1.528-1.527
	C15.617,9.172,16.3,9.858,16.3,10.699"/>
<path d="M70.776,39.906c0,0.844-0.687,1.526-1.526,1.526c-0.844,0-1.528-0.683-1.528-1.526c0-0.841,0.685-1.527,1.528-1.527
	C70.09,38.379,70.776,39.065,70.776,39.906"/>
<path d="M10.76,55.198c0,0.844-0.683,1.526-1.526,1.526s-1.528-0.683-1.528-1.526s0.685-1.527,1.528-1.527
	S10.76,54.354,10.76,55.198"/>
<path d="M44.752,3.282c0,0.844-0.684,1.526-1.527,1.526s-1.528-0.683-1.528-1.526s0.685-1.527,1.528-1.527
	S44.752,2.438,44.752,3.282"/>
<path d="M54.776,64.642c0,0.845-0.683,1.527-1.526,1.527c-0.845,0-1.529-0.683-1.529-1.527c0-0.841,0.685-1.526,1.529-1.526
	C54.094,63.115,54.776,63.801,54.776,64.642"/>
<path d="M5.84,26.094c0,0.844-0.684,1.527-1.527,1.527s-1.527-0.684-1.527-1.527s0.684-1.527,1.527-1.527S5.84,25.25,5.84,26.094"/>
<path d="M68.083,21.454c0,0.844-0.683,1.526-1.526,1.526c-0.843,0-1.529-0.683-1.529-1.526c0-0.845,0.687-1.527,1.529-1.527
	C67.4,19.927,68.083,20.609,68.083,21.454"/>
<path d="M24.405,67.008c0,0.383-0.311,0.694-0.693,0.694s-0.694-0.312-0.694-0.694s0.312-0.693,0.694-0.693
	S24.405,66.625,24.405,67.008"/>
<path d="M25.228,4.356c0,0.383-0.311,0.694-0.694,0.694c-0.383,0-0.693-0.312-0.693-0.694s0.311-0.693,0.693-0.693
	C24.917,3.663,25.228,3.974,25.228,4.356"/>
<path d="M67.022,51.199c0,0.383-0.312,0.694-0.694,0.694s-0.693-0.312-0.693-0.694s0.311-0.693,0.693-0.693
	S67.022,50.816,67.022,51.199"/>
<path d="M4.443,44.877c0,0.383-0.312,0.693-0.694,0.693s-0.694-0.311-0.694-0.693c0-0.384,0.312-0.694,0.694-0.694
	S4.443,44.493,4.443,44.877"/>
<path d="M55.787,7.194c0,0.845-0.684,1.527-1.527,1.527s-1.527-0.683-1.527-1.527c0-0.841,0.684-1.526,1.527-1.526
	S55.787,6.354,55.787,7.194"/>
<path d="M43.972,69.219c0,0.844-0.684,1.526-1.527,1.526c-0.842,0-1.528-0.683-1.528-1.526c0-0.845,0.687-1.527,1.528-1.527
	C43.288,67.691,43.972,68.374,43.972,69.219"/>
<path d="M10.727,15.403c0,0.844-0.686,1.526-1.526,1.526c-0.845,0-1.528-0.683-1.528-1.526c0-0.845,0.684-1.527,1.528-1.527
	C10.041,13.876,10.727,14.559,10.727,15.403"/>
<path d="M71.707,32.658c0,0.844-0.684,1.527-1.527,1.527s-1.527-0.684-1.527-1.527c0-0.841,0.684-1.526,1.527-1.526
	S71.707,31.817,71.707,32.658"/>
<path d="M14.979,61.18c0,0.844-0.684,1.526-1.527,1.526s-1.528-0.683-1.528-1.526c0-0.842,0.685-1.527,1.528-1.527
	S14.979,60.338,14.979,61.18"/>
<path d="M37.585,1.719c0,0.844-0.684,1.527-1.527,1.527s-1.528-0.684-1.528-1.527c0-0.841,0.685-1.527,1.528-1.527
	S37.585,0.878,37.585,1.719"/>
<path d="M60.291,60.943c0,0.386-0.311,0.694-0.693,0.694s-0.694-0.309-0.694-0.694c0-0.383,0.312-0.694,0.694-0.694
	S60.291,60.561,60.291,60.943"/>
<path d="M2.821,33.122c0,0.386-0.312,0.694-0.694,0.694s-0.693-0.309-0.693-0.694c0-0.383,0.311-0.694,0.693-0.694
	S2.821,32.739,2.821,33.122"/>
<path d="M64.104,14.784c0,0.383-0.311,0.693-0.693,0.693s-0.694-0.311-0.694-0.693c0-0.384,0.312-0.694,0.694-0.694
	S64.104,14.4,64.104,14.784"/>
<path d="M31.245,69.805c0,0.383-0.311,0.693-0.694,0.693c-0.383,0-0.693-0.311-0.693-0.693c0-0.384,0.311-0.694,0.693-0.694
	C30.935,69.11,31.245,69.421,31.245,69.805"/>
<path d="M18.285,6.923c0,0.383-0.311,0.693-0.693,0.693s-0.694-0.311-0.694-0.693c0-0.384,0.312-0.694,0.694-0.694
	S18.285,6.539,18.285,6.923"/>
<path d="M70.412,44.604c0,0.383-0.311,0.694-0.693,0.694s-0.693-0.312-0.693-0.694s0.311-0.694,0.693-0.694
	S70.412,44.222,70.412,44.604"/>
<path d="M7.239,52.044c0,0.841-0.687,1.526-1.527,1.526c-0.844,0-1.527-0.686-1.527-1.526c0-0.845,0.684-1.527,1.527-1.527
	C6.553,50.517,7.239,51.199,7.239,52.044"/>
<path d="M49.486,3.235c0,0.841-0.684,1.526-1.527,1.526s-1.527-0.686-1.527-1.526c0-0.845,0.684-1.527,1.527-1.527
	S49.486,2.391,49.486,3.235"/>
<path d="M51.309,67.88c0,0.841-0.684,1.527-1.527,1.527s-1.528-0.687-1.528-1.527c0-0.844,0.685-1.527,1.528-1.527
	S51.309,67.036,51.309,67.88"/>
<path d="M6.218,21.356c0,0.844-0.684,1.527-1.527,1.527S3.162,22.2,3.162,21.356c0-0.841,0.685-1.527,1.528-1.527
	S6.218,20.516,6.218,21.356"/>
<path d="M70.174,25.211c0,0.383-0.311,0.694-0.693,0.694c-0.387,0-0.694-0.312-0.694-0.694s0.308-0.694,0.694-0.694
	C69.863,24.517,70.174,24.828,70.174,25.211"/>
<path d="M19.707,66.205c0,0.384-0.311,0.694-0.693,0.694c-0.384,0-0.694-0.311-0.694-0.694c0-0.383,0.311-0.693,0.694-0.693
	C19.396,65.512,19.707,65.822,19.707,66.205"/>
<path d="M30.076,1.774c0,0.841-0.684,1.527-1.527,1.527s-1.527-0.687-1.527-1.527c0-0.844,0.684-1.527,1.527-1.527
	S30.076,0.931,30.076,1.774"/>
<path d="M66.633,55.823c0,0.841-0.683,1.526-1.526,1.526s-1.528-0.686-1.528-1.526c0-0.845,0.685-1.527,1.528-1.527
	S66.633,54.979,66.633,55.823"/>
<path d="M3.055,40.637c0,0.841-0.684,1.526-1.527,1.526C0.686,42.163,0,41.478,0,40.637c0-0.845,0.686-1.527,1.527-1.527
	C2.371,39.109,3.055,39.792,3.055,40.637"/>
<path d="M60.294,8.83c0,0.844-0.683,1.527-1.526,1.527c-0.843,0-1.529-0.684-1.529-1.527c0-0.841,0.687-1.527,1.529-1.527
	C59.611,7.303,60.294,7.989,60.294,8.83"/>
<path d="M39.537,71.057c0,0.844-0.687,1.527-1.527,1.527c-0.844,0-1.528-0.684-1.528-1.527s0.685-1.527,1.528-1.527
	C38.851,69.529,39.537,70.213,39.537,71.057"/>
<path d="M12.765,11.046c0,0.845-0.686,1.527-1.526,1.527c-0.844,0-1.528-0.683-1.528-1.527c0-0.844,0.685-1.526,1.528-1.526
	C12.079,9.52,12.765,10.202,12.765,11.046"/>
<path d="M73.145,37.257c0,0.844-0.683,1.527-1.526,1.527s-1.528-0.684-1.528-1.527s0.685-1.527,1.528-1.527
	S73.145,36.413,73.145,37.257"/>
<path d="M10.808,58.755c0,0.841-0.684,1.527-1.527,1.527c-0.842,0-1.528-0.687-1.528-1.527c0-0.844,0.687-1.526,1.528-1.526
	C10.124,57.229,10.808,57.911,10.808,58.755"/>
<path d="M41.475,0.694c0,0.383-0.311,0.693-0.693,0.693s-0.694-0.311-0.694-0.693S40.398,0,40.781,0S41.475,0.312,41.475,0.694"/>
<path d="M57.495,64.895c0,0.383-0.312,0.694-0.694,0.694s-0.693-0.312-0.693-0.694s0.311-0.693,0.693-0.693
	S57.495,64.512,57.495,64.895"/>
<path d="M2.222,28.312c0,0.386-0.312,0.694-0.694,0.694s-0.694-0.309-0.694-0.694c0-0.383,0.312-0.694,0.694-0.694
	S2.222,27.93,2.222,28.312"/>
<path d="M67.8,17.933c0,0.383-0.312,0.694-0.694,0.694s-0.693-0.312-0.693-0.694s0.311-0.694,0.693-0.694S67.8,17.55,67.8,17.933"/>
<path d="M27.219,69.974c0,0.844-0.684,1.527-1.527,1.527s-1.527-0.684-1.527-1.527s0.684-1.527,1.527-1.527
	S27.219,69.13,27.219,69.974"/>
<path d="M22.596,3.513c0,0.844-0.684,1.527-1.527,1.527S19.54,4.356,19.54,3.513s0.685-1.527,1.528-1.527S22.596,2.669,22.596,3.513
	"/>
<path d="M70.979,49.473c0,0.844-0.683,1.526-1.527,1.526c-0.842,0-1.528-0.683-1.528-1.526c0-0.842,0.687-1.527,1.528-1.527
	C70.297,47.945,70.979,48.631,70.979,49.473"/>
<path d="M4.143,48.265c0,0.844-0.683,1.526-1.526,1.526s-1.528-0.683-1.528-1.526c0-0.842,0.685-1.527,1.528-1.527
	S4.143,47.423,4.143,48.265"/>
<path d="M54.326,3.935c0,0.844-0.683,1.527-1.527,1.527c-0.842,0-1.527-0.684-1.527-1.527s0.686-1.527,1.527-1.527
	C53.644,2.407,54.326,3.091,54.326,3.935"/>
<path d="M47.257,70.632c0,0.844-0.683,1.527-1.527,1.527c-0.844,0-1.528-0.684-1.528-1.527c0-0.841,0.685-1.527,1.528-1.527
	C46.574,69.104,47.257,69.791,47.257,70.632"/>
</svg>
