<?xml version="1.0" encoding="utf-8"?>
<!-- Generator: Adobe Illustrator 15.0.0, SVG Export Plug-In  -->
<!DOCTYPE svg PUBLIC "-//W3C//DTD SVG 1.1//EN" "http://www.w3.org/Graphics/SVG/1.1/DTD/svg11.dtd" [
	<!ENTITY ns_flows "http://ns.adobe.com/Flows/1.0/">
]>
<svg version="1.1"
	 xmlns="http://www.w3.org/2000/svg" xmlns:xlink="http://www.w3.org/1999/xlink" xmlns:a="http://ns.adobe.com/AdobeSVGViewerExtensions/3.0/"
	 x="0px" y="0px" width="72px" height="73px" viewBox="0 0 72 73" overflow="visible" enable-background="new 0 0 72 73"
	 xml:space="preserve">
<defs>
</defs>
<path d="M36.997,36.709c0,0.383-0.311,0.694-0.694,0.694c-0.383,0-0.694-0.312-0.694-0.694s0.311-0.693,0.694-0.693
	C36.686,36.016,36.997,36.326,36.997,36.709"/>
<path d="M36.294,38.117c0,0.841-0.683,1.527-1.527,1.527c-0.844,0-1.528-0.687-1.528-1.527c0-0.844,0.684-1.527,1.528-1.527
	C35.611,36.59,36.294,37.273,36.294,38.117"/>
<path d="M38.088,33.774c0,0.844-0.686,1.526-1.527,1.526c-0.844,0-1.528-0.683-1.528-1.526c0-0.841,0.684-1.527,1.528-1.527
	C37.402,32.247,38.088,32.934,38.088,33.774"/>
<path d="M40.023,39.572c0,0.844-0.683,1.527-1.527,1.527c-0.842,0-1.528-0.684-1.528-1.527s0.686-1.527,1.528-1.527
	C39.34,38.045,40.023,38.729,40.023,39.572"/>
<path d="M33.728,35.984c0,0.842-0.683,1.527-1.527,1.527c-0.844,0-1.528-0.686-1.528-1.527c0-0.844,0.684-1.527,1.528-1.527
	C33.045,34.457,33.728,35.141,33.728,35.984"/>
<path d="M41.759,34.21c0,0.845-0.684,1.527-1.527,1.527s-1.528-0.683-1.528-1.527c0-0.844,0.684-1.526,1.528-1.526
	S41.759,33.366,41.759,34.21"/>
<path d="M36.505,41.636c0,0.844-0.683,1.526-1.527,1.526c-0.844,0-1.528-0.683-1.528-1.526c0-0.845,0.684-1.527,1.528-1.527
	C35.822,40.108,36.505,40.791,36.505,41.636"/>
<path d="M35.289,31.819c0,0.844-0.683,1.526-1.527,1.526c-0.842,0-1.528-0.683-1.528-1.526c0-0.845,0.686-1.526,1.528-1.526
	C34.606,30.293,35.289,30.975,35.289,31.819"/>
<path d="M43.364,38.73c0,0.842-0.687,1.527-1.526,1.527c-0.844,0-1.528-0.686-1.528-1.527c0-0.844,0.685-1.526,1.528-1.526
	C42.677,37.204,43.364,37.887,43.364,38.73"/>
<path d="M31.221,39.092c0,0.386-0.311,0.694-0.694,0.694c-0.383,0-0.694-0.309-0.694-0.694c0-0.383,0.311-0.694,0.694-0.694
	C30.91,38.397,31.221,38.709,31.221,39.092"/>
<path d="M40.621,30.744c0,0.845-0.684,1.527-1.527,1.527s-1.528-0.683-1.528-1.527c0-0.844,0.684-1.526,1.528-1.526
	S40.621,29.9,40.621,30.744"/>
<path d="M39.896,43.299c0,0.844-0.684,1.527-1.527,1.527c-0.842,0-1.528-0.684-1.528-1.527c0-0.841,0.686-1.527,1.528-1.527
	C39.212,41.771,39.896,42.458,39.896,43.299"/>
<path d="M31.587,33.092c0,0.844-0.683,1.526-1.527,1.526c-0.844,0-1.528-0.683-1.528-1.526c0-0.842,0.684-1.527,1.528-1.527
	C30.904,31.564,31.587,32.25,31.587,33.092"/>
<path d="M45.164,35.096c0,0.844-0.684,1.527-1.527,1.527s-1.527-0.684-1.527-1.527c0-0.841,0.684-1.527,1.527-1.527
	S45.164,34.255,45.164,35.096"/>
<path d="M33.348,43.085c0,0.841-0.683,1.527-1.527,1.527c-0.844,0-1.528-0.687-1.528-1.527c0-0.844,0.684-1.527,1.528-1.527
	C32.665,41.558,33.348,42.241,33.348,43.085"/>
<path d="M36.794,28.709c0,0.844-0.686,1.527-1.527,1.527c-0.844,0-1.528-0.684-1.528-1.527c0-0.841,0.684-1.527,1.528-1.527
	C36.108,27.182,36.794,27.868,36.794,28.709"/>
<path d="M44.2,42.077c0,0.844-0.683,1.526-1.526,1.526c-0.845,0-1.529-0.683-1.529-1.526c0-0.841,0.685-1.527,1.529-1.527
	C43.517,40.55,44.2,41.236,44.2,42.077"/>
<path d="M29.249,37.064c0,0.845-0.683,1.527-1.527,1.527c-0.842,0-1.528-0.683-1.528-1.527c0-0.844,0.686-1.527,1.528-1.527
	C28.566,35.537,29.249,36.221,29.249,37.064"/>
<path d="M43.258,30.479c0,0.383-0.308,0.693-0.694,0.693c-0.383,0-0.693-0.311-0.693-0.693c0-0.387,0.311-0.694,0.693-0.694
	C42.951,29.784,43.258,30.092,43.258,30.479"/>
<path d="M37.41,45.778c0,0.841-0.683,1.527-1.527,1.527c-0.844,0-1.528-0.687-1.528-1.527c0-0.844,0.684-1.526,1.528-1.526
	C36.728,44.252,37.41,44.935,37.41,45.778"/>
<path d="M31.862,29.559c0,0.844-0.683,1.527-1.527,1.527c-0.844,0-1.528-0.684-1.528-1.527s0.684-1.526,1.528-1.526
	C31.179,28.032,31.862,28.715,31.862,29.559"/>
<path d="M47.288,37.981c0,0.844-0.684,1.526-1.526,1.526c-0.845,0-1.529-0.683-1.529-1.526c0-0.841,0.685-1.527,1.529-1.527
	C46.604,36.454,47.288,37.141,47.288,37.981"/>
<path d="M29.81,42.288c0,0.844-0.683,1.527-1.527,1.527c-0.842,0-1.528-0.684-1.528-1.527s0.686-1.527,1.528-1.527
	C29.127,40.761,29.81,41.444,29.81,42.288"/>
<path d="M40.021,26.965c0,0.845-0.684,1.527-1.527,1.527c-0.842,0-1.528-0.683-1.528-1.527c0-0.844,0.686-1.526,1.528-1.526
	C39.337,25.438,40.021,26.121,40.021,26.965"/>
<path d="M42.903,45.562c0,0.844-0.683,1.526-1.526,1.526c-0.845,0-1.528-0.683-1.528-1.526c0-0.845,0.684-1.527,1.528-1.527
	C42.22,44.035,42.903,44.718,42.903,45.562"/>
<path d="M27.908,33.544c0,0.844-0.683,1.526-1.527,1.526c-0.842,0-1.528-0.683-1.528-1.526c0-0.845,0.686-1.527,1.528-1.527
	C27.225,32.017,27.908,32.699,27.908,33.544"/>
<path d="M47.471,32.256c0,0.844-0.686,1.526-1.527,1.526c-0.844,0-1.528-0.683-1.528-1.526c0-0.845,0.685-1.527,1.528-1.527
	C46.786,30.729,47.471,31.411,47.471,32.256"/>
<path d="M32.817,46.692c0,0.383-0.308,0.693-0.694,0.693c-0.383,0-0.694-0.311-0.694-0.693s0.311-0.694,0.694-0.694
	C32.509,45.998,32.817,46.31,32.817,46.692"/>
<path d="M34.1,26.341c0,0.841-0.683,1.526-1.527,1.526c-0.844,0-1.528-0.686-1.528-1.526c0-0.845,0.684-1.527,1.528-1.527
	C33.417,24.813,34.1,25.496,34.1,26.341"/>
<path d="M47.756,41.927c0,0.845-0.683,1.527-1.526,1.527s-1.527-0.683-1.527-1.527c0-0.844,0.684-1.526,1.527-1.526
	S47.756,41.083,47.756,41.927"/>
<path d="M26.8,39.617c0,0.844-0.683,1.526-1.527,1.526c-0.844,0-1.528-0.683-1.528-1.526c0-0.845,0.684-1.527,1.528-1.527
	C26.117,38.09,26.8,38.772,26.8,39.617"/>
<path d="M44.099,26.957c0,0.841-0.682,1.527-1.526,1.527c-0.842,0-1.528-0.687-1.528-1.527c0-0.844,0.687-1.527,1.528-1.527
	C43.417,25.43,44.099,26.113,44.099,26.957"/>
<path d="M39.826,48.319c0,0.844-0.686,1.527-1.526,1.527c-0.844,0-1.528-0.684-1.528-1.527c0-0.841,0.684-1.527,1.528-1.527
	C39.14,46.792,39.826,47.479,39.826,48.319"/>
<path d="M28.372,29.384c0,0.845-0.686,1.527-1.527,1.527c-0.844,0-1.528-0.683-1.528-1.527c0-0.844,0.684-1.526,1.528-1.526
	C27.686,27.857,28.372,28.54,28.372,29.384"/>
<path d="M49.931,35.707c0,0.844-0.683,1.527-1.526,1.527c-0.843,0-1.529-0.684-1.529-1.527s0.687-1.527,1.529-1.527
	C49.249,34.18,49.931,34.863,49.931,35.707"/>
<path d="M29.463,45.754c0,0.844-0.683,1.526-1.527,1.526c-0.844,0-1.528-0.683-1.528-1.526c0-0.845,0.684-1.527,1.528-1.527
	C28.78,44.227,29.463,44.909,29.463,45.754"/>
<path d="M37.058,24.213c0,0.384-0.311,0.695-0.694,0.695s-0.694-0.312-0.694-0.695c0-0.383,0.311-0.693,0.694-0.693
	S37.058,23.83,37.058,24.213"/>
<path d="M46.34,46.092c0,0.845-0.683,1.527-1.526,1.527s-1.528-0.683-1.528-1.527c0-0.844,0.685-1.526,1.528-1.526
	S46.34,45.248,46.34,46.092"/>
<path d="M25.045,35.523c0,0.844-0.683,1.527-1.527,1.527c-0.842,0-1.528-0.684-1.528-1.527c0-0.841,0.686-1.527,1.528-1.527
	C24.362,33.996,25.045,34.683,25.045,35.523"/>
<path d="M48.19,28.846c0,0.844-0.683,1.526-1.527,1.526c-0.843,0-1.527-0.683-1.527-1.526c0-0.842,0.685-1.527,1.527-1.527
	C47.507,27.318,48.19,28.004,48.19,28.846"/>
<path d="M35.472,49.669c0,0.844-0.683,1.527-1.527,1.527c-0.844,0-1.528-0.684-1.528-1.527s0.684-1.527,1.528-1.527
	C34.789,48.142,35.472,48.825,35.472,49.669"/>
<path d="M30.727,25.422c0,0.844-0.683,1.527-1.527,1.527c-0.842,0-1.528-0.684-1.528-1.527c0-0.842,0.686-1.527,1.528-1.527
	C30.043,23.895,30.727,24.58,30.727,25.422"/>
<path d="M50.848,40.277c0,0.841-0.687,1.527-1.527,1.527c-0.844,0-1.528-0.687-1.528-1.527c0-0.844,0.685-1.526,1.528-1.526
	C50.162,38.751,50.848,39.434,50.848,40.277"/>
<path d="M25.678,42.943c0,0.844-0.683,1.527-1.527,1.527c-0.842,0-1.528-0.684-1.528-1.527c0-0.841,0.686-1.527,1.528-1.527
	C24.995,41.416,25.678,42.103,25.678,42.943"/>
<path d="M42.63,23.756c0,0.844-0.683,1.526-1.526,1.526c-0.843,0-1.528-0.683-1.528-1.526c0-0.842,0.686-1.527,1.528-1.527
	C41.948,22.229,42.63,22.914,42.63,23.756"/>
<path d="M42.264,49.649c0,0.383-0.312,0.694-0.694,0.694s-0.693-0.312-0.693-0.694s0.311-0.694,0.693-0.694
	S42.264,49.267,42.264,49.649"/>
<path d="M25.064,30.662c0,0.84-0.683,1.526-1.527,1.526c-0.842,0-1.528-0.687-1.528-1.526c0-0.845,0.686-1.527,1.528-1.527
	C24.381,29.135,25.064,29.817,25.064,30.662"/>
<path d="M51.475,32.502c0,0.845-0.686,1.527-1.527,1.527c-0.844,0-1.527-0.683-1.527-1.527c0-0.844,0.684-1.526,1.527-1.526
	C50.79,30.976,51.475,31.658,51.475,32.502"/>
<path d="M30.535,49.158c0,0.844-0.686,1.526-1.527,1.526c-0.844,0-1.528-0.683-1.528-1.526s0.684-1.527,1.528-1.527
	C29.849,47.631,30.535,48.314,30.535,49.158"/>
<path d="M34.77,22.456c0,0.844-0.683,1.526-1.527,1.526c-0.844,0-1.528-0.683-1.528-1.526c0-0.845,0.684-1.527,1.528-1.527
	C34.086,20.929,34.77,21.611,34.77,22.456"/>
<path d="M49.834,45.237c0,0.844-0.684,1.526-1.527,1.526c-0.842,0-1.528-0.683-1.528-1.526s0.687-1.527,1.528-1.527
	C49.151,43.71,49.834,44.394,49.834,45.237"/>
<path d="M23.071,38.548c0,0.844-0.683,1.526-1.527,1.526c-0.844,0-1.528-0.683-1.528-1.526c0-0.841,0.684-1.527,1.528-1.527
	C22.388,37.021,23.071,37.707,23.071,38.548"/>
<path d="M47.565,25.274c0,0.841-0.686,1.526-1.526,1.526c-0.844,0-1.528-0.686-1.528-1.526c0-0.845,0.685-1.527,1.528-1.527
	C46.879,23.747,47.565,24.43,47.565,25.274"/>
<path d="M38.382,51.86c0,0.844-0.683,1.526-1.527,1.526c-0.844,0-1.528-0.683-1.528-1.526c0-0.842,0.684-1.527,1.528-1.527
	C37.699,50.333,38.382,51.019,38.382,51.86"/>
<path d="M26.256,25.808c0,0.386-0.311,0.694-0.694,0.694c-0.386,0-0.694-0.309-0.694-0.694c0-0.384,0.308-0.694,0.694-0.694
	C25.945,25.113,26.256,25.424,26.256,25.808"/>
<path d="M53.254,37.498c0,0.844-0.683,1.527-1.526,1.527c-0.845,0-1.528-0.684-1.528-1.527s0.684-1.527,1.528-1.527
	C52.572,35.971,53.254,36.654,53.254,37.498"/>
<path d="M25.814,46.637c0,0.844-0.683,1.527-1.527,1.527c-0.842,0-1.528-0.684-1.528-1.527s0.686-1.527,1.528-1.527
	C25.131,45.109,25.814,45.793,25.814,46.637"/>
<path d="M40.001,21.137c0,0.844-0.684,1.527-1.527,1.527c-0.842,0-1.528-0.684-1.528-1.527s0.686-1.527,1.528-1.527
	C39.318,19.609,40.001,20.293,40.001,21.137"/>
<path d="M46.824,49.771c0,0.844-0.683,1.527-1.527,1.527c-0.844,0-1.527-0.684-1.527-1.527c0-0.841,0.684-1.526,1.527-1.526
	C46.141,48.245,46.824,48.931,46.824,49.771"/>
<path d="M22.24,33.121c0,0.845-0.683,1.527-1.527,1.527c-0.844,0-1.528-0.683-1.528-1.527c0-0.844,0.684-1.526,1.528-1.526
	C21.558,31.595,22.24,32.277,22.24,33.121"/>
<path d="M51.867,28.756c0,0.845-0.687,1.527-1.526,1.527c-0.845,0-1.529-0.683-1.529-1.527c0-0.84,0.685-1.526,1.529-1.526
	C51.18,27.229,51.867,27.916,51.867,28.756"/>
<path d="M32.809,52.182c0,0.845-0.683,1.527-1.527,1.527c-0.842,0-1.528-0.683-1.528-1.527c0-0.844,0.686-1.526,1.528-1.526
	C32.126,50.655,32.809,51.338,32.809,52.182"/>
<path d="M31.023,21.789c0,0.844-0.683,1.527-1.527,1.527c-0.842,0-1.528-0.684-1.528-1.527s0.686-1.527,1.528-1.527
	C30.341,20.262,31.023,20.945,31.023,21.789"/>
<path d="M52.213,43.166c0,0.383-0.311,0.693-0.693,0.693s-0.694-0.311-0.694-0.693c0-0.384,0.312-0.694,0.694-0.694
	S52.213,42.782,52.213,43.166"/>
<path d="M22.124,42.271c0,0.844-0.683,1.527-1.527,1.527c-0.844,0-1.528-0.684-1.528-1.527s0.684-1.527,1.528-1.527
	C21.441,40.744,22.124,41.428,22.124,42.271"/>
<path d="M45.712,21.884c0,0.845-0.682,1.526-1.526,1.526c-0.844,0-1.528-0.682-1.528-1.526c0-0.841,0.685-1.526,1.528-1.526
	C45.031,20.357,45.712,21.043,45.712,21.884"/>
<path d="M42.062,53.09c0,0.844-0.684,1.527-1.527,1.527s-1.528-0.684-1.528-1.527c0-0.841,0.684-1.526,1.528-1.526
	S42.062,52.249,42.062,53.09"/>
<path d="M23.537,27.421c0,0.841-0.686,1.526-1.527,1.526c-0.844,0-1.528-0.686-1.528-1.526c0-0.845,0.684-1.526,1.528-1.526
	C22.851,25.895,23.537,26.576,23.537,27.421"/>
<path d="M54.768,33.883c0,0.844-0.683,1.527-1.527,1.527c-0.842,0-1.527-0.684-1.527-1.527c0-0.842,0.686-1.527,1.527-1.527
	C54.085,32.355,54.768,33.041,54.768,33.883"/>
<path d="M27.169,50.335c0,0.845-0.683,1.527-1.527,1.527c-0.842,0-1.528-0.683-1.528-1.527c0-0.844,0.686-1.526,1.528-1.526
	C26.486,48.809,27.169,49.491,27.169,50.335"/>
<path d="M36.475,19.338c0,0.844-0.683,1.526-1.527,1.526c-0.842,0-1.528-0.683-1.528-1.526c0-0.845,0.686-1.527,1.528-1.527
	C35.792,17.811,36.475,18.493,36.475,19.338"/>
<path d="M50.653,48.688c0,0.845-0.683,1.527-1.527,1.527c-0.844,0-1.527-0.683-1.527-1.527c0-0.844,0.684-1.526,1.527-1.526
	C49.97,47.162,50.653,47.845,50.653,48.688"/>
<path d="M19.325,36.537c0,0.383-0.311,0.694-0.694,0.694c-0.383,0-0.694-0.312-0.694-0.694s0.311-0.693,0.694-0.693
	C19.014,35.844,19.325,36.154,19.325,36.537"/>
<path d="M51.067,24.818c0,0.845-0.684,1.527-1.527,1.527s-1.527-0.683-1.527-1.527c0-0.844,0.684-1.526,1.527-1.526
	S51.067,23.975,51.067,24.818"/>
<path d="M36.088,54.539c0,0.845-0.683,1.527-1.527,1.527s-1.528-0.683-1.528-1.527c0-0.844,0.684-1.526,1.528-1.526
	S36.088,53.695,36.088,54.539"/>
<path d="M26.997,22.289c0,0.844-0.686,1.527-1.527,1.527c-0.844,0-1.528-0.684-1.528-1.527s0.684-1.527,1.528-1.527
	C26.311,20.762,26.997,21.445,26.997,22.289"/>
<path d="M55.676,40.047c0,0.842-0.683,1.527-1.527,1.527c-0.844,0-1.527-0.686-1.527-1.527c0-0.844,0.684-1.526,1.527-1.526
	C54.994,38.521,55.676,39.203,55.676,40.047"/>
<path d="M22.315,46.367c0,0.844-0.683,1.527-1.527,1.527c-0.844,0-1.528-0.684-1.528-1.527s0.684-1.527,1.528-1.527
	C21.632,44.84,22.315,45.523,22.315,46.367"/>
<path d="M42.778,18.993c0,0.844-0.683,1.526-1.526,1.526s-1.528-0.683-1.528-1.526c0-0.841,0.685-1.526,1.528-1.526
	S42.778,18.152,42.778,18.993"/>
<path d="M46.202,53.221c0,0.841-0.687,1.526-1.526,1.526c-0.844,0-1.528-0.686-1.528-1.526c0-0.844,0.685-1.527,1.528-1.527
	C45.515,51.693,46.202,52.377,46.202,53.221"/>
<path d="M20.396,30.147c0,0.845-0.686,1.527-1.527,1.527c-0.844,0-1.528-0.683-1.528-1.527c0-0.841,0.684-1.526,1.528-1.526
	C19.71,28.621,20.396,29.307,20.396,30.147"/>
<path d="M54.391,29.729c0,0.383-0.312,0.693-0.694,0.693s-0.694-0.311-0.694-0.693c0-0.387,0.312-0.694,0.694-0.694
	S54.391,29.342,54.391,29.729"/>
<path d="M29.668,53.712c0,0.844-0.683,1.527-1.527,1.527c-0.842,0-1.528-0.684-1.528-1.527s0.686-1.527,1.528-1.527
	C28.985,52.185,29.668,52.868,29.668,53.712"/>
<path d="M32.329,18.551c0,0.842-0.683,1.527-1.527,1.527c-0.844,0-1.528-0.686-1.528-1.527c0-0.844,0.684-1.526,1.528-1.526
	C31.646,17.024,32.329,17.707,32.329,18.551"/>
<path d="M54.249,46.442c0,0.841-0.683,1.526-1.526,1.526c-0.842,0-1.528-0.686-1.528-1.526c0-0.844,0.687-1.527,1.528-1.527
	C53.566,44.915,54.249,45.599,54.249,46.442"/>
<path d="M19.036,40.649c0,0.841-0.683,1.527-1.527,1.527c-0.842,0-1.528-0.687-1.528-1.527c0-0.844,0.686-1.526,1.528-1.526
	C18.353,39.123,19.036,39.806,19.036,40.649"/>
<path d="M49.092,21.02c0,0.842-0.686,1.527-1.527,1.527c-0.844,0-1.527-0.686-1.527-1.527c0-0.844,0.684-1.526,1.527-1.526
	C48.407,19.493,49.092,20.176,49.092,21.02"/>
<path d="M40.137,55.997c0,0.845-0.683,1.527-1.527,1.527s-1.528-0.683-1.528-1.527c0-0.844,0.684-1.526,1.528-1.526
	S40.137,55.153,40.137,55.997"/>
<path d="M23.015,23.975c0,0.842-0.683,1.527-1.527,1.527c-0.844,0-1.528-0.686-1.528-1.527c0-0.844,0.684-1.527,1.528-1.527
	C22.332,22.447,23.015,23.131,23.015,23.975"/>
<path d="M57.467,36.09c0,0.842-0.683,1.527-1.527,1.527c-0.844,0-1.527-0.686-1.527-1.527c0-0.844,0.684-1.526,1.527-1.526
	C56.785,34.563,57.467,35.246,57.467,36.09"/>
<path d="M22.857,50.508c0,0.383-0.311,0.693-0.694,0.693c-0.383,0-0.694-0.311-0.694-0.693s0.311-0.694,0.694-0.694
	C22.546,49.813,22.857,50.125,22.857,50.508"/>
<path d="M38.94,16.875c0,0.84-0.683,1.526-1.527,1.526c-0.842,0-1.528-0.687-1.528-1.526c0-0.845,0.686-1.527,1.528-1.527
	C38.257,15.348,38.94,16.03,38.94,16.875"/>
<path d="M50.478,52.171c0,0.844-0.683,1.527-1.526,1.527s-1.528-0.684-1.528-1.527s0.685-1.527,1.528-1.527
	S50.478,51.327,50.478,52.171"/>
<path d="M17.953,33.838c0,0.842-0.686,1.527-1.527,1.527c-0.844,0-1.528-0.686-1.528-1.527c0-0.844,0.684-1.527,1.528-1.527
	C17.267,32.311,17.953,32.994,17.953,33.838"/>
<path d="M54.516,25.341c0,0.841-0.684,1.527-1.527,1.527s-1.527-0.687-1.527-1.527c0-0.844,0.684-1.526,1.527-1.526
	S54.516,24.497,54.516,25.341"/>
<path d="M33.181,56.47c0,0.844-0.683,1.526-1.527,1.526c-0.844,0-1.528-0.683-1.528-1.526c0-0.845,0.684-1.527,1.528-1.527
	C32.498,54.942,33.181,55.625,33.181,56.47"/>
<path d="M27.858,18.907c0,0.841-0.683,1.526-1.527,1.526c-0.844,0-1.528-0.686-1.528-1.526c0-0.845,0.684-1.527,1.528-1.527
	C27.175,17.38,27.858,18.062,27.858,18.907"/>
<path d="M57.309,43.135c0,0.841-0.683,1.527-1.527,1.527c-0.844,0-1.527-0.687-1.527-1.527c0-0.844,0.684-1.526,1.527-1.526
	C56.626,41.608,57.309,42.291,57.309,43.135"/>
<path d="M19.03,45.173c0,0.845-0.683,1.527-1.527,1.527c-0.844,0-1.528-0.683-1.528-1.527c0-0.844,0.684-1.526,1.528-1.526
	C18.348,43.646,19.03,44.329,19.03,45.173"/>
<path d="M45.183,17.674c0,0.383-0.312,0.694-0.694,0.694s-0.694-0.312-0.694-0.694s0.312-0.693,0.694-0.693
	S45.183,17.291,45.183,17.674"/>
<path d="M44.685,56.375c0,0.844-0.682,1.527-1.526,1.527c-0.842,0-1.528-0.684-1.528-1.527s0.687-1.527,1.528-1.527
	C44.003,54.848,44.685,55.531,44.685,56.375"/>
<path d="M19.4,26.791c0,0.844-0.686,1.526-1.527,1.526c-0.844,0-1.528-0.683-1.528-1.526c0-0.842,0.684-1.527,1.528-1.527
	C18.714,25.264,19.4,25.949,19.4,26.791"/>
<path d="M58.22,31.547c0,0.844-0.683,1.527-1.527,1.527c-0.844,0-1.528-0.684-1.528-1.527s0.685-1.527,1.528-1.527
	C57.538,30.02,58.22,30.703,58.22,31.547"/>
<path d="M26.225,54.376c0,0.844-0.683,1.526-1.527,1.526c-0.844,0-1.528-0.683-1.528-1.526c0-0.845,0.684-1.527,1.528-1.527
	C25.542,52.849,26.225,53.531,26.225,54.376"/>
<path d="M34.437,15.744c0,0.841-0.683,1.527-1.527,1.527c-0.844,0-1.528-0.687-1.528-1.527c0-0.844,0.684-1.527,1.528-1.527
	C33.753,14.217,34.437,14.9,34.437,15.744"/>
<path d="M54.575,49.941c0,0.844-0.684,1.526-1.527,1.526s-1.528-0.683-1.528-1.526c0-0.845,0.685-1.527,1.528-1.527
	S54.575,49.097,54.575,49.941"/>
<path d="M16.445,38.27c0,0.845-0.683,1.527-1.527,1.527c-0.844,0-1.528-0.683-1.528-1.527c0-0.84,0.684-1.526,1.528-1.526
	C15.762,36.743,16.445,37.43,16.445,38.27"/>
<path d="M52.614,21.039c0,0.845-0.686,1.527-1.527,1.527c-0.844,0-1.527-0.683-1.527-1.527c0-0.844,0.684-1.526,1.527-1.526
	C51.928,19.513,52.614,20.195,52.614,21.039"/>
<path d="M36.68,58.35c0,0.383-0.311,0.693-0.694,0.693c-0.383,0-0.694-0.311-0.694-0.693s0.311-0.694,0.694-0.694
	C36.369,57.655,36.68,57.967,36.68,58.35"/>
<path d="M23.379,20.462c0,0.845-0.683,1.527-1.527,1.527c-0.844,0-1.528-0.683-1.528-1.527c0-0.841,0.684-1.526,1.528-1.526
	C22.696,18.936,23.379,19.621,23.379,20.462"/>
<path d="M59.559,38.937c0,0.844-0.684,1.527-1.527,1.527s-1.528-0.684-1.528-1.527c0-0.841,0.685-1.527,1.528-1.527
	S59.559,38.096,59.559,38.937"/>
<path d="M20.222,49.802c0,0.845-0.683,1.527-1.527,1.527c-0.842,0-1.528-0.683-1.528-1.527c0-0.841,0.686-1.526,1.528-1.526
	C19.539,48.275,20.222,48.961,20.222,49.802"/>
<path d="M41.987,15.064c0,0.844-0.683,1.526-1.527,1.526c-0.844,0-1.528-0.683-1.528-1.526c0-0.845,0.684-1.527,1.528-1.527
	C41.304,13.537,41.987,14.22,41.987,15.064"/>
<path d="M49.437,55.562c0,0.844-0.683,1.527-1.526,1.527c-0.845,0-1.529-0.684-1.529-1.527s0.685-1.527,1.529-1.527
	C48.754,54.034,49.437,54.718,49.437,55.562"/>
<path d="M16.442,30.623c0,0.844-0.683,1.526-1.527,1.526c-0.844,0-1.528-0.683-1.528-1.526c0-0.845,0.684-1.527,1.528-1.527
	C15.759,29.096,16.442,29.778,16.442,30.623"/>
<path d="M57.797,26.707c0,0.844-0.682,1.527-1.526,1.527c-0.844,0-1.528-0.684-1.528-1.527s0.685-1.527,1.528-1.527
	C57.116,25.18,57.797,25.863,57.797,26.707"/>
<path d="M29.827,57.663c0,0.845-0.683,1.527-1.527,1.527c-0.844,0-1.528-0.683-1.528-1.527c0-0.844,0.684-1.526,1.528-1.526
	C29.144,56.137,29.827,56.819,29.827,57.663"/>
<path d="M28.708,15.764c0,0.383-0.311,0.693-0.694,0.693c-0.383,0-0.694-0.311-0.694-0.693s0.311-0.693,0.694-0.693
	C28.397,15.07,28.708,15.381,28.708,15.764"/>
<path d="M58.178,46.598c0,0.844-0.686,1.527-1.527,1.527c-0.844,0-1.527-0.684-1.527-1.527s0.684-1.526,1.527-1.526
	C57.493,45.071,58.178,45.754,58.178,46.598"/>
<path d="M16.054,43.19c0,0.844-0.683,1.527-1.527,1.527c-0.842,0-1.528-0.684-1.528-1.527s0.686-1.526,1.528-1.526
	C15.371,41.664,16.054,42.347,16.054,43.19"/>
<path d="M49.556,17.141c0,0.842-0.683,1.527-1.526,1.527s-1.528-0.686-1.528-1.527c0-0.844,0.685-1.527,1.528-1.527
	S49.556,16.297,49.556,17.141"/>
<path d="M42.419,59.154c0,0.842-0.683,1.527-1.526,1.527c-0.845,0-1.528-0.686-1.528-1.527c0-0.844,0.684-1.526,1.528-1.526
	C41.737,57.628,42.419,58.311,42.419,59.154"/>
<path d="M19.208,23.205c0,0.845-0.686,1.527-1.527,1.527c-0.844,0-1.528-0.683-1.528-1.527c0-0.844,0.684-1.526,1.528-1.526
	C18.522,21.679,19.208,22.361,19.208,23.205"/>
<path d="M60.778,34.077c0,0.844-0.687,1.526-1.527,1.526c-0.844,0-1.527-0.683-1.527-1.526c0-0.845,0.684-1.527,1.527-1.527
	C60.091,32.55,60.778,33.232,60.778,34.077"/>
<path d="M22.626,54.223c0,0.842-0.683,1.527-1.527,1.527c-0.844,0-1.528-0.686-1.528-1.527c0-0.844,0.684-1.526,1.528-1.526
	C21.943,52.696,22.626,53.379,22.626,54.223"/>
<path d="M37.208,13.434c0,0.842-0.683,1.527-1.527,1.527c-0.842,0-1.528-0.686-1.528-1.527c0-0.844,0.686-1.527,1.528-1.527
	C36.524,11.906,37.208,12.59,37.208,13.434"/>
<path d="M53.241,53.521c0,0.383-0.311,0.694-0.693,0.694s-0.694-0.312-0.694-0.694s0.312-0.694,0.694-0.694
	S53.241,53.138,53.241,53.521"/>
<path d="M14.404,35.282c0,0.844-0.686,1.526-1.527,1.526c-0.844,0-1.528-0.683-1.528-1.526c0-0.845,0.684-1.527,1.528-1.527
	C13.718,33.755,14.404,34.438,14.404,35.282"/>
<path d="M56.14,21.879c0,0.844-0.683,1.526-1.526,1.526c-0.845,0-1.528-0.683-1.528-1.526c0-0.842,0.684-1.527,1.528-1.527
	C55.458,20.352,56.14,21.037,56.14,21.879"/>
<path d="M34.333,60.104c0,0.841-0.686,1.526-1.527,1.526c-0.844,0-1.528-0.686-1.528-1.526c0-0.844,0.684-1.527,1.528-1.527
	C33.647,58.577,34.333,59.261,34.333,60.104"/>
<path d="M24.554,17.021c0,0.844-0.683,1.527-1.527,1.527c-0.842,0-1.528-0.684-1.528-1.527s0.686-1.527,1.528-1.527
	C23.871,15.494,24.554,16.178,24.554,17.021"/>
<path d="M61.005,42.282c0,0.841-0.683,1.527-1.527,1.527c-0.842,0-1.528-0.687-1.528-1.527c0-0.844,0.687-1.526,1.528-1.526
	C60.323,40.756,61.005,41.438,61.005,42.282"/>
<path d="M16.898,48.3c0,0.844-0.686,1.527-1.527,1.527c-0.844,0-1.528-0.684-1.528-1.527s0.684-1.526,1.528-1.526
	C16.212,46.773,16.898,47.456,16.898,48.3"/>
<path d="M45.463,13.937c0,0.844-0.683,1.526-1.527,1.526c-0.842,0-1.528-0.683-1.528-1.526c0-0.845,0.687-1.527,1.528-1.527
	C44.781,12.409,45.463,13.092,45.463,13.937"/>
<path d="M47.618,58.741c0,0.844-0.683,1.526-1.526,1.526c-0.842,0-1.528-0.683-1.528-1.526c0-0.845,0.687-1.527,1.528-1.527
	C46.935,57.214,47.618,57.896,47.618,58.741"/>
<path d="M14.815,27.041c0,0.383-0.311,0.693-0.694,0.693c-0.386,0-0.694-0.311-0.694-0.693c0-0.384,0.308-0.694,0.694-0.694
	C14.504,26.347,14.815,26.657,14.815,27.041"/>
<path d="M60.803,28.826c0,0.841-0.687,1.527-1.527,1.527c-0.844,0-1.528-0.687-1.528-1.527c0-0.844,0.685-1.527,1.528-1.527
	C60.117,27.299,60.803,27.982,60.803,28.826"/>
<path d="M26.175,58.119c0,0.844-0.686,1.526-1.527,1.526c-0.844,0-1.528-0.683-1.528-1.526s0.684-1.527,1.528-1.527
	C25.489,56.592,26.175,57.275,26.175,58.119"/>
<path d="M31.94,12.965c0,0.841-0.683,1.527-1.527,1.527c-0.842,0-1.528-0.687-1.528-1.527c0-0.844,0.686-1.527,1.528-1.527
	C31.257,11.438,31.94,12.121,31.94,12.965"/>
<path d="M58.287,50.291c0,0.844-0.687,1.527-1.526,1.527c-0.845,0-1.528-0.684-1.528-1.527s0.684-1.527,1.528-1.527
	C57.6,48.764,58.287,49.447,58.287,50.291"/>
<path d="M13.485,40.527c0,0.841-0.683,1.527-1.527,1.527c-0.844,0-1.528-0.687-1.528-1.527c0-0.844,0.684-1.526,1.528-1.526
	C12.802,39.001,13.485,39.684,13.485,40.527"/>
<path d="M53.258,17.383c0,0.841-0.687,1.527-1.527,1.527c-0.844,0-1.528-0.687-1.528-1.527c0-0.844,0.685-1.527,1.528-1.527
	C52.572,15.855,53.258,16.539,53.258,17.383"/>
<path d="M39.515,61.471c0,0.841-0.683,1.527-1.527,1.527c-0.842,0-1.528-0.687-1.528-1.527c0-0.844,0.686-1.527,1.528-1.527
	C38.832,59.943,39.515,60.627,39.515,61.471"/>
<path d="M19.797,19.531c0,0.842-0.683,1.527-1.527,1.527c-0.842,0-1.528-0.686-1.528-1.527c0-0.844,0.686-1.526,1.528-1.526
	C19.114,18.005,19.797,18.688,19.797,19.531"/>
<path d="M61.983,37.198c0,0.383-0.311,0.694-0.694,0.694c-0.383,0-0.694-0.312-0.694-0.694c0-0.384,0.312-0.694,0.694-0.694
	C61.672,36.504,61.983,36.814,61.983,37.198"/>
<path d="M19.011,53.284c0,0.845-0.683,1.527-1.527,1.527c-0.844,0-1.528-0.683-1.528-1.527c0-0.844,0.684-1.526,1.528-1.526
	C18.328,51.758,19.011,52.44,19.011,53.284"/>
<path d="M40.517,11.689c0,0.842-0.683,1.527-1.526,1.527c-0.842,0-1.528-0.686-1.528-1.527c0-0.844,0.686-1.526,1.528-1.526
	C39.834,10.163,40.517,10.846,40.517,11.689"/>
<path d="M52.799,57.044c0,0.845-0.686,1.527-1.527,1.527c-0.844,0-1.527-0.683-1.527-1.527c0-0.844,0.684-1.526,1.527-1.526
	C52.114,55.518,52.799,56.2,52.799,57.044"/>
<path d="M12.971,31.811c0,0.842-0.683,1.527-1.527,1.527c-0.844,0-1.528-0.686-1.528-1.527c0-0.844,0.684-1.526,1.528-1.526
	C12.288,30.284,12.971,30.967,12.971,31.811"/>
<path d="M59.542,23.486c0,0.844-0.683,1.527-1.527,1.527c-0.844,0-1.527-0.684-1.527-1.527s0.684-1.527,1.527-1.527
	C58.859,21.959,59.542,22.643,59.542,23.486"/>
<path d="M30.729,61.207c0,0.844-0.686,1.526-1.527,1.526c-0.844,0-1.528-0.683-1.528-1.526c0-0.841,0.684-1.527,1.528-1.527
	C30.043,59.68,30.729,60.366,30.729,61.207"/>
<path d="M26.481,13.772c0,0.841-0.683,1.527-1.527,1.527c-0.844,0-1.528-0.687-1.528-1.527c0-0.844,0.684-1.526,1.528-1.526
	C25.798,12.246,26.481,12.929,26.481,13.772"/>
<path d="M61.772,45.986c0,0.845-0.684,1.527-1.527,1.527s-1.527-0.683-1.527-1.527c0-0.844,0.684-1.526,1.527-1.526
	S61.772,45.143,61.772,45.986"/>
<path d="M12.996,46.073c0,0.383-0.311,0.693-0.694,0.693c-0.383,0-0.694-0.311-0.694-0.693c0-0.387,0.311-0.694,0.694-0.694
	C12.686,45.379,12.996,45.687,12.996,46.073"/>
<path d="M49.24,13.52c0,0.844-0.683,1.527-1.526,1.527c-0.845,0-1.528-0.684-1.528-1.527s0.684-1.526,1.528-1.526
	C48.557,11.993,49.24,12.676,49.24,13.52"/>
<path d="M45.105,61.596c0,0.844-0.684,1.526-1.527,1.526s-1.527-0.683-1.527-1.526c0-0.841,0.684-1.527,1.527-1.527
	S45.105,60.755,45.105,61.596"/>
<path d="M15.582,23.23c0,0.841-0.683,1.527-1.527,1.527c-0.842,0-1.528-0.687-1.528-1.527c0-0.844,0.686-1.527,1.528-1.527
	C14.898,21.703,15.582,22.387,15.582,23.23"/>
<path d="M63.42,31.605c0,0.844-0.682,1.527-1.526,1.527c-0.844,0-1.528-0.684-1.528-1.527s0.685-1.527,1.528-1.527
	C62.739,30.078,63.42,30.762,63.42,31.605"/>
<path d="M22.357,57.827c0,0.844-0.683,1.527-1.527,1.527c-0.842,0-1.528-0.684-1.528-1.527s0.686-1.526,1.528-1.526
	C21.674,56.301,22.357,56.983,22.357,57.827"/>
<path d="M34.964,10.604c0,0.845-0.683,1.527-1.527,1.527c-0.844,0-1.528-0.683-1.528-1.527c0-0.84,0.684-1.526,1.528-1.526
	C34.281,9.077,34.964,9.764,34.964,10.604"/>
<path d="M57.637,54.076c0,0.844-0.684,1.526-1.527,1.526c-0.842,0-1.527-0.683-1.527-1.526c0-0.842,0.686-1.527,1.527-1.527
	C56.954,52.549,57.637,53.234,57.637,54.076"/>
<path d="M11.411,37.284c0,0.844-0.683,1.527-1.527,1.527c-0.844,0-1.528-0.684-1.528-1.527c0-0.841,0.684-1.526,1.528-1.526
	C10.728,35.758,11.411,36.443,11.411,37.284"/>
<path d="M56.149,18.383c0,0.383-0.312,0.693-0.694,0.693c-0.384,0-0.694-0.311-0.694-0.693c0-0.384,0.311-0.694,0.694-0.694
	C55.837,17.688,56.149,17.999,56.149,18.383"/>
<path d="M36.083,63.242c0,0.841-0.683,1.527-1.527,1.527c-0.844,0-1.528-0.687-1.528-1.527c0-0.844,0.684-1.527,1.528-1.527
	C35.4,61.715,36.083,62.398,36.083,63.242"/>
<path d="M21.144,15.902c0,0.844-0.683,1.527-1.527,1.527c-0.842,0-1.528-0.684-1.528-1.527s0.686-1.527,1.528-1.527
	C20.46,14.375,21.144,15.059,21.144,15.902"/>
<path d="M64.268,40.794c0,0.844-0.684,1.527-1.527,1.527s-1.527-0.684-1.527-1.527s0.684-1.526,1.527-1.526
	S64.268,39.95,64.268,40.794"/>
<path d="M15.509,51.602c0,0.844-0.686,1.527-1.527,1.527c-0.844,0-1.528-0.684-1.528-1.527s0.684-1.527,1.528-1.527
	C14.823,50.074,15.509,50.758,15.509,51.602"/>
<path d="M44.25,10.574c0,0.84-0.686,1.526-1.527,1.526c-0.844,0-1.527-0.687-1.527-1.526c0-0.845,0.684-1.527,1.527-1.527
	C43.564,9.047,44.25,9.729,44.25,10.574"/>
<path d="M50.79,60.388c0,0.844-0.684,1.527-1.527,1.527c-0.842,0-1.527-0.684-1.527-1.527c0-0.841,0.686-1.527,1.527-1.527
	C50.106,58.86,50.79,59.547,50.79,60.388"/>
<path d="M12.202,27.979c0,0.842-0.683,1.527-1.527,1.527c-0.844,0-1.528-0.686-1.528-1.527c0-0.844,0.684-1.526,1.528-1.526
	C11.519,26.452,12.202,27.135,12.202,27.979"/>
<path d="M62.7,25.805c0,0.844-0.687,1.527-1.527,1.527c-0.844,0-1.528-0.684-1.528-1.527s0.685-1.527,1.528-1.527
	C62.013,24.277,62.7,24.961,62.7,25.805"/>
<path d="M25.995,61.62c0,0.387-0.311,0.694-0.694,0.694c-0.383,0-0.694-0.308-0.694-0.694c0-0.383,0.311-0.693,0.694-0.693
	C25.684,60.927,25.995,61.237,25.995,61.62"/>
<path d="M29.088,10.832c0,0.844-0.683,1.527-1.527,1.527c-0.842,0-1.528-0.684-1.528-1.527s0.686-1.527,1.528-1.527
	C28.405,9.305,29.088,9.988,29.088,10.832"/>
<path d="M61.825,49.925c0,0.844-0.684,1.526-1.527,1.526s-1.527-0.683-1.527-1.526c0-0.845,0.684-1.527,1.527-1.527
	S61.825,49.08,61.825,49.925"/>
<path d="M11.133,43.19c0,0.844-0.683,1.527-1.527,1.527c-0.844,0-1.528-0.684-1.528-1.527c0-0.841,0.684-1.526,1.528-1.526
	C10.45,41.664,11.133,42.35,11.133,43.19"/>
<path d="M53.18,13.831c0,0.844-0.684,1.526-1.527,1.526s-1.527-0.683-1.527-1.526c0-0.845,0.684-1.527,1.527-1.527
	S53.18,12.986,53.18,13.831"/>
<path d="M41.976,64.025c0,0.844-0.684,1.526-1.527,1.526c-0.842,0-1.528-0.683-1.528-1.526s0.687-1.527,1.528-1.527
	C41.292,62.498,41.976,63.182,41.976,64.025"/>
<path d="M16.259,19.318c0,0.844-0.683,1.527-1.527,1.527c-0.844,0-1.528-0.684-1.528-1.527c0-0.842,0.684-1.527,1.528-1.527
	C15.576,17.791,16.259,18.477,16.259,19.318"/>
<path d="M65.559,34.957c0,0.844-0.683,1.527-1.527,1.527c-0.842,0-1.527-0.684-1.527-1.527s0.686-1.527,1.527-1.527
	C64.876,33.43,65.559,34.113,65.559,34.957"/>
<path d="M18.511,56.789c0,0.844-0.683,1.526-1.527,1.526c-0.842,0-1.528-0.683-1.528-1.526c0-0.841,0.686-1.527,1.528-1.527
	C17.828,55.262,18.511,55.948,18.511,56.789"/>
<path d="M37.68,8.777c0,0.383-0.311,0.693-0.694,0.693c-0.383,0-0.694-0.311-0.694-0.693s0.311-0.694,0.694-0.694
	C37.369,8.083,37.68,8.395,37.68,8.777"/>
<path d="M56.246,57.824c0,0.845-0.683,1.527-1.526,1.527c-0.845,0-1.528-0.683-1.528-1.527c0-0.841,0.684-1.526,1.528-1.526
	C55.563,56.298,56.246,56.983,56.246,57.824"/>
<path d="M9.908,33.571c0,0.841-0.683,1.527-1.527,1.527c-0.842,0-1.528-0.687-1.528-1.527c0-0.844,0.686-1.526,1.528-1.526
	C9.226,32.045,9.908,32.728,9.908,33.571"/>
<path d="M60.6,20.117c0,0.845-0.684,1.527-1.527,1.527s-1.527-0.683-1.527-1.527c0-0.84,0.684-1.526,1.527-1.526
	S60.6,19.277,60.6,20.117"/>
<path d="M32.231,64.4c0,0.841-0.683,1.526-1.527,1.526c-0.844,0-1.528-0.686-1.528-1.526c0-0.845,0.684-1.527,1.528-1.527
	C31.548,62.873,32.231,63.556,32.231,64.4"/>
<path d="M23.215,12.445c0,0.841-0.686,1.527-1.527,1.527c-0.844,0-1.528-0.687-1.528-1.527c0-0.844,0.684-1.527,1.528-1.527
	C22.529,10.918,23.215,11.602,23.215,12.445"/>
<path d="M65.071,44.751c0,0.844-0.684,1.527-1.527,1.527s-1.527-0.684-1.527-1.527s0.684-1.526,1.527-1.526
	S65.071,43.907,65.071,44.751"/>
<path d="M12.244,49.214c0,0.844-0.686,1.526-1.527,1.526c-0.844,0-1.528-0.683-1.528-1.526c0-0.842,0.684-1.527,1.528-1.527
	C11.558,47.687,12.244,48.372,12.244,49.214"/>
<path d="M48.276,10.135c0,0.842-0.683,1.527-1.527,1.527c-0.841,0-1.527-0.686-1.527-1.527c0-0.844,0.687-1.527,1.527-1.527
	C47.593,8.607,48.276,9.291,48.276,10.135"/>
<path d="M47.271,63.434c0,0.383-0.312,0.694-0.694,0.694s-0.694-0.312-0.694-0.694s0.312-0.693,0.694-0.693
	S47.271,63.051,47.271,63.434"/>
<path d="M12.133,23.911c0,0.844-0.683,1.526-1.527,1.526c-0.842,0-1.528-0.683-1.528-1.526c0-0.845,0.686-1.527,1.528-1.527
	C11.45,22.384,12.133,23.066,12.133,23.911"/>
<path d="M65.496,28.768c0,0.844-0.683,1.527-1.527,1.527c-0.844,0-1.528-0.684-1.528-1.527c0-0.841,0.685-1.527,1.528-1.527
	C64.813,27.24,65.496,27.927,65.496,28.768"/>
<path d="M22.754,61.317c0,0.842-0.683,1.527-1.527,1.527c-0.844,0-1.528-0.686-1.528-1.527c0-0.844,0.684-1.526,1.528-1.526
	C22.071,59.791,22.754,60.474,22.754,61.317"/>
<path d="M32.31,8.308c0,0.845-0.683,1.527-1.527,1.527c-0.844,0-1.528-0.683-1.528-1.527c0-0.844,0.684-1.526,1.528-1.526
	C31.626,6.781,32.31,7.464,32.31,8.308"/>
<path d="M61.144,53.968c0,0.844-0.683,1.526-1.526,1.526c-0.843,0-1.528-0.683-1.528-1.526c0-0.845,0.686-1.527,1.528-1.527
	C60.461,52.44,61.144,53.123,61.144,53.968"/>
<path d="M8.906,39.742c0,0.844-0.683,1.526-1.527,1.526c-0.844,0-1.528-0.683-1.528-1.526c0-0.845,0.684-1.527,1.528-1.527
	C8.223,38.215,8.906,38.897,8.906,39.742"/>
<path d="M57.159,14.881c0,0.844-0.686,1.527-1.526,1.527c-0.844,0-1.528-0.684-1.528-1.527s0.685-1.527,1.528-1.527
	C56.473,13.354,57.159,14.037,57.159,14.881"/>
<path d="M38.324,65.936c0,0.844-0.683,1.527-1.527,1.527c-0.844,0-1.528-0.684-1.528-1.527s0.684-1.526,1.528-1.526
	C37.641,64.409,38.324,65.092,38.324,65.936"/>
<path d="M16.839,15.438c0,0.384-0.311,0.694-0.694,0.694c-0.383,0-0.694-0.311-0.694-0.694c0-0.383,0.311-0.694,0.694-0.694
	C16.528,14.744,16.839,15.056,16.839,15.438"/>
<path d="M67.137,38.783c0,0.842-0.687,1.527-1.527,1.527c-0.844,0-1.528-0.686-1.528-1.527c0-0.844,0.685-1.526,1.528-1.526
	C66.451,37.257,67.137,37.939,67.137,38.783"/>
<path d="M14.762,55.022c0,0.845-0.683,1.527-1.527,1.527c-0.844,0-1.528-0.683-1.528-1.527c0-0.844,0.684-1.526,1.528-1.526
	C14.079,53.496,14.762,54.179,14.762,55.022"/>
<path d="M42.481,7.553c0,0.841-0.683,1.527-1.526,1.527c-0.845,0-1.529-0.687-1.529-1.527c0-0.844,0.685-1.527,1.529-1.527
	C41.798,6.025,42.481,6.709,42.481,7.553"/>
<path d="M54.135,61.412c0,0.844-0.684,1.527-1.527,1.527c-0.842,0-1.527-0.684-1.527-1.527s0.686-1.527,1.527-1.527
	C53.452,59.885,54.135,60.568,54.135,61.412"/>
<path d="M9.048,29.492c0,0.844-0.683,1.527-1.527,1.527c-0.844,0-1.528-0.684-1.528-1.527s0.684-1.527,1.528-1.527
	C8.365,27.965,9.048,28.648,9.048,29.492"/>
<path d="M63.993,22.556c0,0.841-0.686,1.527-1.526,1.527c-0.845,0-1.528-0.687-1.528-1.527c0-0.844,0.684-1.526,1.528-1.526
	C63.307,21.029,63.993,21.712,63.993,22.556"/>
<path d="M28.075,64.889c0,0.841-0.683,1.527-1.527,1.527c-0.842,0-1.528-0.687-1.528-1.527c0-0.844,0.686-1.526,1.528-1.526
	C27.392,63.362,28.075,64.045,28.075,64.889"/>
<path d="M25.958,9.277c0,0.84-0.683,1.526-1.527,1.526c-0.844,0-1.528-0.687-1.528-1.526c0-0.844,0.684-1.527,1.528-1.527
	C25.275,7.75,25.958,8.434,25.958,9.277"/>
<path d="M64.346,48.949c0,0.384-0.312,0.694-0.694,0.694s-0.694-0.311-0.694-0.694c0-0.383,0.312-0.693,0.694-0.693
	S64.346,48.566,64.346,48.949"/>
<path d="M9.325,46.182c0,0.844-0.683,1.526-1.527,1.526c-0.842,0-1.528-0.683-1.528-1.526c0-0.842,0.686-1.527,1.528-1.527
	C8.642,44.654,9.325,45.34,9.325,46.182"/>
<path d="M52.483,10.407c0,0.844-0.683,1.526-1.527,1.526c-0.844,0-1.527-0.683-1.527-1.526c0-0.841,0.684-1.527,1.527-1.527
	C51.8,8.88,52.483,9.566,52.483,10.407"/>
<path d="M44.808,66.072c0,0.844-0.684,1.526-1.527,1.526s-1.527-0.683-1.527-1.526c0-0.845,0.684-1.527,1.527-1.527
	S44.808,65.228,44.808,66.072"/>
<path d="M12.791,19.731c0,0.845-0.683,1.527-1.527,1.527c-0.844,0-1.528-0.683-1.528-1.527c0-0.844,0.684-1.526,1.528-1.526
	C12.108,18.205,12.791,18.888,12.791,19.731"/>
<path d="M67.831,32.305c0,0.845-0.683,1.527-1.527,1.527c-0.842,0-1.527-0.683-1.527-1.527c0-0.844,0.686-1.526,1.527-1.526
	C67.148,30.778,67.831,31.461,67.831,32.305"/>
<path d="M18.636,60.279c0,0.844-0.683,1.527-1.527,1.527c-0.842,0-1.528-0.684-1.528-1.527s0.686-1.527,1.528-1.527
	C17.953,58.752,18.636,59.436,18.636,60.279"/>
<path d="M36.055,6.295c0,0.844-0.683,1.527-1.527,1.527C33.686,7.822,33,7.139,33,6.295s0.686-1.527,1.528-1.527
	C35.372,4.768,36.055,5.451,36.055,6.295"/>
<path d="M59.733,57.988c0,0.844-0.683,1.527-1.526,1.527c-0.845,0-1.528-0.684-1.528-1.527s0.684-1.527,1.528-1.527
	C59.05,56.461,59.733,57.145,59.733,57.988"/>
<path d="M6.401,35.812c0,0.383-0.311,0.693-0.694,0.693c-0.383,0-0.694-0.311-0.694-0.693s0.311-0.693,0.694-0.693
	C6.09,35.119,6.401,35.43,6.401,35.812"/>
<path d="M61.049,16.658c0,0.844-0.686,1.526-1.526,1.526c-0.845,0-1.528-0.683-1.528-1.526c0-0.845,0.684-1.527,1.528-1.527
	C60.364,15.131,61.049,15.813,61.049,16.658"/>
<path d="M34.245,67.249c0,0.844-0.683,1.527-1.527,1.527c-0.844,0-1.528-0.684-1.528-1.527s0.684-1.526,1.528-1.526
	C33.562,65.723,34.245,66.405,34.245,67.249"/>
<path d="M19.802,11.713c0,0.844-0.683,1.526-1.527,1.526c-0.844,0-1.528-0.683-1.528-1.526c0-0.845,0.684-1.527,1.528-1.527
	C19.119,10.186,19.802,10.868,19.802,11.713"/>
<path d="M68.079,42.979c0,0.844-0.684,1.527-1.527,1.527s-1.528-0.684-1.528-1.527s0.685-1.527,1.528-1.527
	S68.079,42.136,68.079,42.979"/>
<path d="M11.23,52.554c0,0.845-0.683,1.527-1.527,1.527c-0.844,0-1.528-0.683-1.528-1.527c0-0.844,0.684-1.526,1.528-1.526
	C10.547,51.027,11.23,51.71,11.23,52.554"/>
<path d="M46.76,6.992c0,0.844-0.683,1.526-1.527,1.526c-0.844,0-1.528-0.683-1.528-1.526c0-0.845,0.685-1.527,1.528-1.527
	C46.078,5.465,46.76,6.147,46.76,6.992"/>
<path d="M51.35,64.717c0,0.844-0.686,1.527-1.527,1.527c-0.844,0-1.527-0.684-1.527-1.527c0-0.841,0.684-1.527,1.527-1.527
	C50.665,63.189,51.35,63.876,51.35,64.717"/>
<path d="M8.875,25.163c0,0.845-0.683,1.527-1.527,1.527c-0.842,0-1.528-0.683-1.528-1.527c0-0.844,0.686-1.526,1.528-1.526
	C8.192,23.637,8.875,24.319,8.875,25.163"/>
<path d="M66.209,25.641c0,0.383-0.312,0.694-0.694,0.694c-0.384,0-0.694-0.312-0.694-0.694s0.311-0.693,0.694-0.693
	C65.898,24.947,66.209,25.258,66.209,25.641"/>
<path d="M23.734,64.667c0,0.841-0.683,1.526-1.527,1.526c-0.844,0-1.528-0.686-1.528-1.526c0-0.845,0.684-1.527,1.528-1.527
	C23.051,63.14,23.734,63.822,23.734,64.667"/>
<path d="M29.319,6.508c0,0.842-0.683,1.527-1.527,1.527c-0.842,0-1.528-0.686-1.528-1.527c0-0.844,0.686-1.526,1.528-1.526
	C28.636,4.981,29.319,5.664,29.319,6.508"/>
<path d="M64.565,53.268c0,0.844-0.686,1.527-1.527,1.527c-0.844,0-1.527-0.684-1.527-1.527s0.684-1.527,1.527-1.527
	C63.879,51.74,64.565,52.424,64.565,53.268"/>
<path d="M6.865,42.571c0,0.844-0.686,1.527-1.527,1.527c-0.844,0-1.528-0.684-1.528-1.527s0.684-1.527,1.528-1.527
	C6.179,41.044,6.865,41.728,6.865,42.571"/>
<path d="M56.746,11.415c0,0.844-0.687,1.526-1.526,1.526c-0.845,0-1.529-0.683-1.529-1.526c0-0.845,0.685-1.526,1.529-1.526
	C56.059,9.889,56.746,10.57,56.746,11.415"/>
<path d="M40.976,68.207c0,0.841-0.684,1.527-1.527,1.527s-1.528-0.687-1.528-1.527c0-0.844,0.684-1.526,1.528-1.526
	S40.976,67.363,40.976,68.207"/>
<path d="M14.182,15.563c0,0.845-0.683,1.527-1.527,1.527c-0.842,0-1.528-0.683-1.528-1.527c0-0.841,0.686-1.526,1.528-1.526
	C13.499,14.037,14.182,14.723,14.182,15.563"/>
<path d="M69.616,36.326c0,0.844-0.683,1.527-1.526,1.527c-0.843,0-1.528-0.684-1.528-1.527c0-0.841,0.686-1.527,1.528-1.527
	C68.933,34.799,69.616,35.485,69.616,36.326"/>
<path d="M13.766,58.511c0,0.383-0.311,0.693-0.694,0.693c-0.383,0-0.694-0.311-0.694-0.693c0-0.384,0.311-0.694,0.694-0.694
	C13.455,57.816,13.766,58.127,13.766,58.511"/>
<path d="M40.238,4.873c0,0.844-0.684,1.527-1.527,1.527c-0.842,0-1.528-0.684-1.528-1.527c0-0.842,0.686-1.527,1.528-1.527
	C39.554,3.346,40.238,4.031,40.238,4.873"/>
<path d="M57.601,61.865c0,0.841-0.687,1.526-1.527,1.526c-0.844,0-1.528-0.686-1.528-1.526c0-0.845,0.685-1.527,1.528-1.527
	C56.915,60.338,57.601,61.021,57.601,61.865"/>
<path d="M6.193,31.506c0,0.841-0.683,1.527-1.527,1.527c-0.844,0-1.528-0.687-1.528-1.527c0-0.844,0.684-1.527,1.528-1.527
	C5.51,29.979,6.193,30.662,6.193,31.506"/>
<path d="M64.729,19.141c0,0.844-0.684,1.527-1.527,1.527s-1.527-0.684-1.527-1.527s0.684-1.527,1.527-1.527
	S64.729,18.297,64.729,19.141"/>
<path d="M29.846,67.901c0,0.842-0.683,1.527-1.527,1.527c-0.844,0-1.528-0.686-1.528-1.527c0-0.844,0.684-1.526,1.528-1.526
	C29.163,66.375,29.846,67.058,29.846,67.901"/>
<path d="M22.615,8.258c0,0.844-0.683,1.527-1.527,1.527c-0.844,0-1.528-0.684-1.528-1.527s0.684-1.527,1.528-1.527
	C21.932,6.73,22.615,7.414,22.615,8.258"/>
<path d="M68.331,47.434c0,0.844-0.684,1.527-1.527,1.527s-1.527-0.684-1.527-1.527c0-0.841,0.684-1.527,1.527-1.527
	S68.331,46.593,68.331,47.434"/>
<path d="M8.034,49.43c0,0.845-0.686,1.527-1.527,1.527c-0.844,0-1.528-0.683-1.528-1.527c0-0.844,0.684-1.526,1.528-1.526
	C7.348,47.903,8.034,48.586,8.034,49.43"/>
<path d="M50.403,7.142c0,0.383-0.311,0.694-0.693,0.694s-0.694-0.312-0.694-0.694c0-0.384,0.312-0.694,0.694-0.694
	S50.403,6.758,50.403,7.142"/>
<path d="M47.938,67.63c0,0.844-0.684,1.526-1.527,1.526c-0.843,0-1.528-0.683-1.528-1.526c0-0.841,0.686-1.527,1.528-1.527
	C47.254,66.103,47.938,66.789,47.938,67.63"/>
<path d="M9.431,20.703c0,0.845-0.683,1.527-1.527,1.527c-0.844,0-1.528-0.683-1.528-1.527c0-0.84,0.684-1.526,1.528-1.526
	C8.748,19.177,9.431,19.863,9.431,20.703"/>
<path d="M69.647,29.312c0,0.844-0.686,1.526-1.527,1.526c-0.844,0-1.527-0.683-1.527-1.526c0-0.845,0.684-1.527,1.527-1.527
	C68.961,27.785,69.647,28.468,69.647,29.312"/>
<path d="M19.328,63.709c0,0.844-0.683,1.526-1.527,1.526c-0.842,0-1.528-0.683-1.528-1.526c0-0.841,0.686-1.527,1.528-1.527
	C18.645,62.182,19.328,62.868,19.328,63.709"/>
<path d="M33.223,4.236c0,0.845-0.683,1.527-1.527,1.527c-0.842,0-1.528-0.683-1.528-1.527c0-0.844,0.686-1.526,1.528-1.526
	C32.54,2.71,33.223,3.393,33.223,4.236"/>
<path d="M63.213,57.586c0,0.841-0.687,1.526-1.527,1.526c-0.844,0-1.528-0.686-1.528-1.526c0-0.844,0.685-1.527,1.528-1.527
	C62.527,56.059,63.213,56.742,63.213,57.586"/>
<path d="M4.946,38.465c0,0.844-0.683,1.526-1.527,1.526c-0.842,0-1.528-0.683-1.528-1.526c0-0.842,0.686-1.527,1.528-1.527
	C4.263,36.938,4.946,37.623,4.946,38.465"/>
<path d="M60.936,13.156c0,0.844-0.684,1.527-1.527,1.527S57.881,14,57.881,13.156s0.684-1.527,1.527-1.527
	S60.936,12.312,60.936,13.156"/>
<path d="M35.866,69.751c0,0.383-0.311,0.694-0.694,0.694c-0.383,0-0.694-0.312-0.694-0.694s0.311-0.694,0.694-0.694
	C35.556,69.057,35.866,69.368,35.866,69.751"/>
<path d="M16.301,11.531c0,0.845-0.683,1.527-1.527,1.527c-0.844,0-1.528-0.683-1.528-1.527c0-0.84,0.684-1.526,1.528-1.526
	C15.618,10.005,16.301,10.691,16.301,11.531"/>
<path d="M70.777,40.738c0,0.845-0.687,1.527-1.526,1.527c-0.845,0-1.528-0.683-1.528-1.527c0-0.841,0.684-1.526,1.528-1.526
	C70.09,39.212,70.777,39.897,70.777,40.738"/>
<path d="M10.761,56.03c0,0.845-0.683,1.527-1.527,1.527c-0.844,0-1.528-0.683-1.528-1.527c0-0.844,0.684-1.526,1.528-1.526
	C10.078,54.504,10.761,55.187,10.761,56.03"/>
<path d="M44.752,4.115c0,0.844-0.683,1.526-1.527,1.526c-0.844,0-1.528-0.683-1.528-1.526c0-0.845,0.685-1.527,1.528-1.527
	C44.07,2.588,44.752,3.271,44.752,4.115"/>
<path d="M54.777,65.475c0,0.844-0.683,1.527-1.526,1.527c-0.845,0-1.529-0.684-1.529-1.527c0-0.841,0.685-1.526,1.529-1.526
	C54.094,63.948,54.777,64.634,54.777,65.475"/>
<path d="M5.84,26.926c0,0.845-0.683,1.527-1.527,1.527c-0.844,0-1.528-0.683-1.528-1.527c0-0.844,0.684-1.526,1.528-1.526
	C5.157,25.399,5.84,26.082,5.84,26.926"/>
<path d="M68.083,22.287c0,0.844-0.683,1.526-1.526,1.526c-0.843,0-1.529-0.683-1.529-1.526c0-0.845,0.687-1.527,1.529-1.527
	C67.401,20.76,68.083,21.442,68.083,22.287"/>
<path d="M25.239,67.841c0,0.844-0.686,1.526-1.527,1.526c-0.844,0-1.528-0.683-1.528-1.526s0.684-1.527,1.528-1.527
	C24.553,66.313,25.239,66.997,25.239,67.841"/>
<path d="M25.229,5.189c0,0.383-0.311,0.693-0.694,0.693c-0.383,0-0.694-0.311-0.694-0.693s0.311-0.694,0.694-0.694
	C24.917,4.495,25.229,4.807,25.229,5.189"/>
<path d="M67.856,52.032c0,0.844-0.684,1.526-1.527,1.526s-1.527-0.683-1.527-1.526c0-0.845,0.684-1.527,1.527-1.527
	S67.856,51.188,67.856,52.032"/>
<path d="M5.277,45.709c0,0.844-0.683,1.527-1.527,1.527c-0.844,0-1.528-0.684-1.528-1.527c0-0.841,0.684-1.527,1.528-1.527
	C4.594,44.182,5.277,44.868,5.277,45.709"/>
<path d="M55.788,8.027c0,0.844-0.684,1.527-1.527,1.527s-1.527-0.684-1.527-1.527c0-0.841,0.684-1.527,1.527-1.527
	S55.788,7.187,55.788,8.027"/>
<path d="M43.972,70.051c0,0.844-0.684,1.527-1.527,1.527c-0.842,0-1.527-0.684-1.527-1.527s0.686-1.526,1.527-1.526
	C43.289,68.524,43.972,69.207,43.972,70.051"/>
<path d="M10.728,16.236c0,0.844-0.686,1.526-1.527,1.526c-0.844,0-1.528-0.683-1.528-1.526c0-0.845,0.684-1.527,1.528-1.527
	C10.042,14.709,10.728,15.392,10.728,16.236"/>
<path d="M71.708,33.491c0,0.844-0.684,1.526-1.527,1.526s-1.527-0.683-1.527-1.526c0-0.841,0.684-1.527,1.527-1.527
	S71.708,32.65,71.708,33.491"/>
<path d="M14.979,62.012c0,0.845-0.683,1.527-1.527,1.527c-0.844,0-1.528-0.683-1.528-1.527c0-0.841,0.684-1.526,1.528-1.526
	C14.296,60.485,14.979,61.171,14.979,62.012"/>
<path d="M37.585,2.551c0,0.845-0.683,1.527-1.527,1.527c-0.844,0-1.528-0.683-1.528-1.527c0-0.84,0.684-1.526,1.528-1.526
	C36.902,1.024,37.585,1.711,37.585,2.551"/>
<path d="M60.292,61.776c0,0.386-0.311,0.693-0.693,0.693s-0.694-0.308-0.694-0.693c0-0.384,0.312-0.694,0.694-0.694
	S60.292,61.393,60.292,61.776"/>
<path d="M3.655,33.955c0,0.844-0.683,1.527-1.527,1.527c-0.842,0-1.528-0.684-1.528-1.527c0-0.842,0.686-1.527,1.528-1.527
	C2.972,32.428,3.655,33.113,3.655,33.955"/>
<path d="M64.937,15.616c0,0.845-0.683,1.527-1.526,1.527c-0.842,0-1.528-0.683-1.528-1.527c0-0.844,0.687-1.526,1.528-1.526
	C64.254,14.09,64.937,14.772,64.937,15.616"/>
<path d="M32.079,70.637c0,0.841-0.686,1.527-1.527,1.527c-0.844,0-1.528-0.687-1.528-1.527c0-0.844,0.684-1.526,1.528-1.526
	C31.393,69.11,32.079,69.793,32.079,70.637"/>
<path d="M19.119,7.756c0,0.844-0.683,1.526-1.527,1.526c-0.844,0-1.528-0.683-1.528-1.526c0-0.845,0.684-1.527,1.528-1.527
	C18.436,6.229,19.119,6.911,19.119,7.756"/>
<path d="M71.247,45.438c0,0.844-0.687,1.526-1.527,1.526c-0.844,0-1.527-0.683-1.527-1.526c0-0.845,0.684-1.527,1.527-1.527
	C70.56,43.91,71.247,44.593,71.247,45.438"/>
<path d="M7.24,52.876c0,0.841-0.686,1.527-1.527,1.527c-0.844,0-1.528-0.687-1.528-1.527c0-0.844,0.684-1.526,1.528-1.526
	C6.554,51.35,7.24,52.032,7.24,52.876"/>
<path d="M49.487,4.067c0,0.841-0.684,1.527-1.527,1.527s-1.527-0.687-1.527-1.527c0-0.844,0.684-1.526,1.527-1.526
	S49.487,3.224,49.487,4.067"/>
<path d="M51.309,68.713c0,0.841-0.684,1.526-1.527,1.526s-1.528-0.686-1.528-1.526c0-0.845,0.685-1.527,1.528-1.527
	S51.309,67.868,51.309,68.713"/>
<path d="M5.385,22.189c0,0.386-0.311,0.693-0.694,0.693s-0.694-0.308-0.694-0.693c0-0.383,0.311-0.694,0.694-0.694
	S5.385,21.807,5.385,22.189"/>
<path d="M71.007,26.043c0,0.842-0.687,1.527-1.526,1.527c-0.845,0-1.528-0.686-1.528-1.527c0-0.844,0.684-1.526,1.528-1.526
	C70.321,24.517,71.007,25.199,71.007,26.043"/>
<path d="M20.541,67.038c0,0.844-0.683,1.527-1.527,1.527c-0.844,0-1.528-0.684-1.528-1.527c0-0.841,0.684-1.527,1.528-1.527
	C19.858,65.511,20.541,66.197,20.541,67.038"/>
<path d="M30.077,2.607c0,0.84-0.683,1.526-1.527,1.526c-0.844,0-1.528-0.687-1.528-1.526c0-0.845,0.684-1.527,1.528-1.527
	C29.394,1.08,30.077,1.763,30.077,2.607"/>
<path d="M66.633,56.655c0,0.841-0.683,1.527-1.526,1.527c-0.845,0-1.528-0.687-1.528-1.527c0-0.844,0.684-1.526,1.528-1.526
	C65.951,55.129,66.633,55.812,66.633,56.655"/>
<path d="M3.055,41.469c0,0.841-0.683,1.527-1.527,1.527C0.686,42.996,0,42.31,0,41.469c0-0.844,0.686-1.526,1.528-1.526
	C2.372,39.942,3.055,40.625,3.055,41.469"/>
<path d="M60.294,9.662c0,0.845-0.683,1.527-1.527,1.527c-0.842,0-1.528-0.683-1.528-1.527c0-0.84,0.687-1.526,1.528-1.526
	C59.612,8.136,60.294,8.822,60.294,9.662"/>
<path d="M39.538,71.89c0,0.844-0.686,1.526-1.527,1.526c-0.844,0-1.528-0.683-1.528-1.526c0-0.845,0.684-1.527,1.528-1.527
	C38.852,70.362,39.538,71.045,39.538,71.89"/>
<path d="M12.766,11.879c0,0.844-0.686,1.527-1.527,1.527c-0.844,0-1.528-0.684-1.528-1.527s0.684-1.527,1.528-1.527
	C12.08,10.352,12.766,11.035,12.766,11.879"/>
<path d="M72.313,38.09c0,0.383-0.312,0.693-0.694,0.693c-0.384,0-0.694-0.311-0.694-0.693c0-0.384,0.311-0.694,0.694-0.694
	C72.001,37.396,72.313,37.706,72.313,38.09"/>
<path d="M10.808,59.588c0,0.841-0.683,1.527-1.527,1.527c-0.842,0-1.528-0.687-1.528-1.527c0-0.844,0.686-1.527,1.528-1.527
	C10.125,58.061,10.808,58.744,10.808,59.588"/>
<path d="M42.308,1.527c0,0.844-0.686,1.526-1.526,1.526c-0.845,0-1.528-0.683-1.528-1.526C39.253,0.683,39.937,0,40.782,0
	C41.623,0,42.308,0.683,42.308,1.527"/>
<path d="M58.329,65.728c0,0.841-0.684,1.527-1.527,1.527s-1.527-0.687-1.527-1.527c0-0.844,0.684-1.527,1.527-1.527
	S58.329,64.884,58.329,65.728"/>
<path d="M3.055,29.145c0,0.845-0.686,1.527-1.527,1.527C0.684,30.672,0,29.989,0,29.145c0-0.84,0.684-1.526,1.528-1.526
	C2.369,27.618,3.055,28.305,3.055,29.145"/>
<path d="M68.633,18.766c0,0.844-0.684,1.527-1.527,1.527s-1.527-0.684-1.527-1.527s0.684-1.527,1.527-1.527
	S68.633,17.922,68.633,18.766"/>
<path d="M27.219,70.807c0,0.844-0.683,1.526-1.527,1.526c-0.844,0-1.528-0.683-1.528-1.526c0-0.845,0.684-1.527,1.528-1.527
	C26.536,69.279,27.219,69.962,27.219,70.807"/>
<path d="M22.596,4.346c0,0.844-0.683,1.526-1.527,1.526c-0.844,0-1.528-0.683-1.528-1.526c0-0.845,0.684-1.527,1.528-1.527
	C21.913,2.818,22.596,3.501,22.596,4.346"/>
<path d="M70.979,50.305c0,0.844-0.682,1.527-1.526,1.527c-0.842,0-1.528-0.684-1.528-1.527c0-0.841,0.687-1.527,1.528-1.527
	C70.297,48.777,70.979,49.464,70.979,50.305"/>
<path d="M3.311,49.097c0,0.383-0.311,0.694-0.694,0.694c-0.383,0-0.694-0.312-0.694-0.694s0.311-0.693,0.694-0.693
	C3,48.403,3.311,48.714,3.311,49.097"/>
<path d="M54.327,4.768c0,0.844-0.683,1.527-1.527,1.527c-0.842,0-1.527-0.684-1.527-1.527s0.686-1.527,1.527-1.527
	C53.644,3.24,54.327,3.924,54.327,4.768"/>
<path d="M47.256,71.465c0,0.844-0.682,1.526-1.526,1.526c-0.844,0-1.527-0.683-1.527-1.526c0-0.842,0.684-1.527,1.527-1.527
	C46.575,69.938,47.256,70.623,47.256,71.465"/>
</svg>
