<?xml version="1.0" encoding="utf-8"?>
<!-- Generator: Adobe Illustrator 15.0.0, SVG Export Plug-In  -->
<!DOCTYPE svg PUBLIC "-//W3C//DTD SVG 1.1//EN" "http://www.w3.org/Graphics/SVG/1.1/DTD/svg11.dtd" [
	<!ENTITY ns_flows "http://ns.adobe.com/Flows/1.0/">
]>
<svg version="1.1"
	 xmlns="http://www.w3.org/2000/svg" xmlns:xlink="http://www.w3.org/1999/xlink" xmlns:a="http://ns.adobe.com/AdobeSVGViewerExtensions/3.0/"
	 x="0px" y="0px" width="115px" height="115px" viewBox="-3.096 -3.3 115 115"
	 overflow="visible" enable-background="new -3.096 -3.3 115 115" xml:space="preserve">
<defs>
</defs>
<path fill="none" stroke="#000000" d="M52.107,0.6c-0.9-0.1-1.8-0.1-2.7-0.1c-13.399,0-25.5,5.7-36.1,17
	c-9.4,10-12.7,18.1-12.8,27.9c-0.101,5.5,0.899,11.5,2.399,18.601c2.601,12.898,10.3,25.398,21,34.199
	c8.2,6.801,17.5,10.199,27.2,10.301c5,0,10.101-0.9,15.2-2.602c16.8-5.799,32.898-22.398,39.1-40.398c2-5.801,2.9-11.301,2.9-16.701
	c-0.102-12.8-6-24-17.2-32.1C77.407,6.7,64.306,1.5,52.107,0.6z"/>
<path d="M49.907,97.101L49.907,97.101c0.3,0.1,0.601,0.299,0.601,0.899c0,0.897-0.801,1.3-2.101,1.3c-1.7,0-2-0.601-2-1.199
	c0-0.4,0.2-0.701,0.601-0.9l0,0h-1.7v-0.801h5.2v0.701H49.907z M47.008,98.001c0,0.5,0.399,0.6,1.399,0.6c0.9,0,1.5-0.1,1.5-0.7
	c0-0.5-0.6-0.699-1.399-0.699C47.607,97.101,47.008,97.399,47.008,98.001z"/>
<path d="M44.907,94.3V93.4l1,0.801V94.7L44.907,94.3z M48.607,95.001h0.2c0.5,0,1.2-0.102,1.2-0.701c0-0.599-0.601-0.6-0.9-0.6
	v-0.699c0.9,0,1.4,0.5,1.4,1.398c0,0.602-0.2,1.4-2,1.4c-1,0-2.101-0.199-2.101-1.5c0-1.101,0.7-1.4,1.7-1.4h0.4v2.102H48.607
	L48.607,95.001z M48.008,93.8h-0.2c-0.5,0-0.9,0.201-0.9,0.601c0,0.5,0.5,0.7,1,0.7h0.101L48.008,93.8L48.008,93.8z"/>
<path d="M46.508,92.399v-0.799h0.5l0,0c-0.301-0.201-0.601-0.5-0.601-0.9c0-0.9,0.8-1.301,2.101-1.301c1.6,0,2,0.701,2,1.201
	c0,0.399-0.2,0.699-0.601,0.899l0,0h1.8v0.8h-5.199V92.399z M49.907,91.001c0-0.5-0.3-0.701-1.399-0.701c-0.9,0-1.5,0.101-1.5,0.701
	c0,0.5,0.6,0.699,1.399,0.699C49.407,91.501,49.907,91.501,49.907,91.001z"/>
<path d="M49.607,86.3c0.1,0,0.3-0.1,0.3-0.199c0-0.098,0-0.1,0-0.1h0.5c0,0.1,0.101,0.199,0.101,0.398
	c0,0.301-0.101,0.602-0.5,0.701l0,0c0.399,0.199,0.6,0.5,0.6,1c0,0.6-0.4,1-1.1,1c-0.9,0-1.101-0.4-1.2-0.9l-0.2-0.6
	c-0.1-0.301-0.2-0.5-0.5-0.5c-0.4,0-0.6,0.1-0.6,0.5c0,0.5,0.399,0.6,0.8,0.6v0.699c-0.8,0-1.3-0.299-1.3-1.398
	c0-0.701,0.3-1.201,1-1.201H49.607z M48.307,87.001c0.2,0.199,0.3,0.6,0.399,0.898c0.101,0.201,0.301,0.301,0.601,0.301
	c0.3,0,0.6-0.199,0.6-0.5c0-0.5-0.399-0.699-0.899-0.699H48.307L48.307,87.001z"/>
<path d="M47.607,83.8h-0.1c-0.301,0-0.601,0.101-0.601,0.5c0,0.301,0.101,0.601,0.5,0.601c0.3,0,0.4-0.101,0.601-0.601l0.199-0.5
	c0.2-0.6,0.5-0.899,1.101-0.899c0.8,0,1.2,0.603,1.2,1.399c0,1-0.5,1.301-1.2,1.301h-0.101v-0.7h0.101c0.5,0,0.7-0.199,0.7-0.601
	c0-0.4-0.2-0.6-0.601-0.6c-0.3,0-0.5,0.199-0.6,0.4l-0.2,0.5c-0.2,0.6-0.5,0.799-1.1,0.799c-0.7,0-1.101-0.5-1.101-1.299
	c0-1,0.601-1.201,1.101-1.201h0.199V83.7h-0.1v0.1H47.607z"/>
<path d="M47.607,80.601h-0.1c-0.301,0-0.601,0.1-0.601,0.5c0,0.299,0.101,0.6,0.5,0.6c0.3,0,0.4-0.1,0.601-0.6l0.199-0.5
	c0.2-0.601,0.5-0.9,1.101-0.9c0.8,0,1.2,0.6,1.2,1.4c0,1-0.5,1.299-1.2,1.299h-0.101V81.7h0.101c0.5,0,0.7-0.199,0.7-0.6
	c0-0.401-0.2-0.601-0.601-0.601c-0.3,0-0.5,0.199-0.6,0.397l-0.2,0.603c-0.2,0.601-0.5,0.8-1.1,0.8c-0.7,0-1.101-0.5-1.101-1.3
	c0-1,0.601-1.2,1.101-1.2h0.199v0.801H47.607z"/>
<path d="M48.607,78.501h0.2c0.5,0,1.2-0.102,1.2-0.701c0-0.599-0.601-0.6-0.9-0.6v-0.699c0.9,0,1.4,0.5,1.4,1.398
	c0,0.602-0.2,1.4-2,1.4c-1,0-2.101-0.199-2.101-1.5c0-1.101,0.7-1.4,1.7-1.4h0.4v2.102H48.607L48.607,78.501z M48.008,77.399h-0.2
	c-0.5,0-0.9,0.201-0.9,0.602c0,0.5,0.5,0.699,1,0.699h0.101L48.008,77.399L48.008,77.399z"/>
<path d="M46.508,75.899v-0.799h0.6l0,0c-0.4-0.201-0.7-0.5-0.7-0.9c0-0.1,0-0.1,0-0.199h0.8c0,0.1,0,0.199,0,0.299
	c0,0.4,0.2,0.801,0.9,0.801h2.3v0.8L46.508,75.899L46.508,75.899z"/>
<path d="M45.207,72.001v-0.4h5.2v0.4H45.207z"/>
<path d="M49.107,68.3c0.8,0.101,1.4,0.5,1.4,1.201c0,0.799-0.601,1.299-2,1.299c-1.301,0-2-0.5-2-1.299c0-0.9,0.6-1.201,1.899-1.201
	h0.2V70.4h0.1c1.101,0,1.5-0.397,1.5-0.8c0-0.5-0.3-0.7-1-0.801v-0.5H49.107L49.107,68.3z M48.107,68.8c-1,0-1.3,0.301-1.3,0.801
	s0.3,0.8,1.3,0.8V68.8z"/>
<path d="M48.508,67.001c-0.2,0.5-0.5,0.699-0.9,0.699c-0.8,0-1.1-0.5-1.1-1.199c0-0.701,0.399-1.102,1.1-1.102h0.1v0.4h-0.1
	c-0.5,0-0.7,0.2-0.7,0.6c0,0.5,0.3,0.701,0.7,0.701c0.3,0,0.5-0.101,0.6-0.5l0.2-0.601c0.2-0.5,0.601-0.7,1-0.7
	c0.7,0,1.2,0.399,1.2,1.2c0,0.8-0.3,1.199-1.2,1.199h-0.1V67.3h0.1c0.601,0,0.9-0.3,0.9-0.699c0-0.5-0.3-0.801-0.7-0.801
	c-0.3,0-0.6,0.1-0.7,0.5L48.508,67.001z"/>
<path d="M47.107,63.001v0.5h-0.6v-0.5h-0.4c-0.7,0-1-0.4-1-1c0-0.201,0-0.301,0-0.4h0.6V61.8c0,0.301,0.101,0.4,0.4,0.4h0.3v-0.6
	h0.601v0.6h3.3v0.801H47.107z"/>
<path d="M46.508,61.101V60.3h0.6l0,0c-0.4-0.199-0.7-0.5-0.7-0.899c0-0.101,0-0.101,0-0.199h0.8c0,0.101,0,0.199,0,0.302
	c0,0.397,0.2,0.799,0.9,0.799h2.3v0.799H46.508z"/>
<path d="M46.407,57.501c0-1.102,0.8-1.5,2.101-1.5c1.199,0,2.1,0.398,2.1,1.5c0,1.1-0.8,1.5-2.1,1.5
	C47.207,59.001,46.407,58.601,46.407,57.501z M49.907,57.501c0-0.602-0.5-0.701-1.5-0.701c-0.899,0-1.5,0.101-1.5,0.701
	c0,0.6,0.601,0.699,1.5,0.699C49.508,58.101,49.907,58.001,49.907,57.501z"/>
<path d="M46.508,55.501V54.8h0.5l0,0c-0.4-0.2-0.601-0.6-0.601-1c0-0.601,0.3-1,1.101-1h3v0.8h-2.801c-0.5,0-0.699,0.2-0.699,0.5
	c0,0.3,0.3,0.6,0.8,0.6h2.6v0.801H46.508L46.508,55.501z"/>
<path d="M46.508,52.4v-0.5h-1.101v-0.8h1.101v-0.6h0.6v0.6h2.3c0.3,0,0.4-0.1,0.4-0.4c0-0.1,0-0.199,0-0.3h0.6
	c0,0.2,0.101,0.4,0.101,0.601c0,0.5-0.101,0.8-0.9,0.8h-2.4v0.5H46.51V52.4H46.508z"/>
<path d="M45.207,49.9v-0.8h0.801v0.8H45.207z M46.508,49.9v-0.8h3.899v0.8H46.508z"/>
<path d="M44.907,47.9V47l1-0.4v0.5L44.907,47.9z M48.607,47.6h0.2c0.5,0,1.2-0.1,1.2-0.7c0-0.6-0.601-0.6-0.9-0.6v-0.7
	c0.9,0,1.4,0.5,1.4,1.4c0,0.6-0.2,1.399-2,1.399c-1,0-2.101-0.2-2.101-1.5c0-1.1,0.7-1.399,1.7-1.399h0.4v2.1H48.607z M48.008,46.4
	h-0.2c-0.5,0-0.9,0.2-0.9,0.601c0,0.5,0.5,0.699,1,0.699h0.101L48.008,46.4L48.008,46.4z"/>
<path d="M46.508,45v-0.8h0.6l0,0c-0.4-0.199-0.7-0.5-0.7-0.899c0-0.101,0-0.101,0-0.2h0.8c0,0.1,0,0.2,0,0.3c0,0.4,0.2,0.8,0.9,0.8
	h2.3V45H46.508z"/>
<path d="M48.607,42h0.2c0.5,0,1.2-0.101,1.2-0.7c0-0.6-0.601-0.6-0.9-0.6V40c0.9,0,1.4,0.5,1.4,1.4c0,0.601-0.2,1.4-2,1.4
	c-1,0-2.101-0.2-2.101-1.4c0-1.1,0.7-1.4,1.7-1.4h0.4v2H48.607z M48.008,40.7h-0.2c-0.5,0-0.9,0.2-0.9,0.6c0,0.5,0.5,0.7,1,0.7
	h0.101L48.008,40.7L48.008,40.7z"/>
<path d="M47.607,37.6h-0.1c-0.301,0-0.601,0.1-0.601,0.5c0,0.3,0.101,0.6,0.5,0.6c0.3,0,0.4-0.1,0.601-0.6l0.199-0.5
	c0.2-0.6,0.5-0.9,1.101-0.9c0.8,0,1.2,0.6,1.2,1.4c0,1-0.5,1.3-1.2,1.3h-0.101v-0.7h0.101c0.5,0,0.7-0.2,0.7-0.6s-0.2-0.6-0.601-0.6
	c-0.3,0-0.5,0.2-0.6,0.4l-0.2,0.6c-0.2,0.6-0.5,0.8-1.1,0.8c-0.7,0-1.101-0.5-1.101-1.3c0-1,0.601-1.2,1.101-1.2h0.199v0.8H47.607z"
	/>
<path d="M34.307,51.7h-3.7v0.1c0,0.7-0.5,7-6.1,7c-5,0-7.601-4.5-7.601-13.399c0-8.9,2.601-13.4,7.601-13.4c5.699,0,6.1,6.7,6.1,7
	v0.1h3.7c0.3,0,0.7-0.1,0.899-0.4c0.2-0.2,0.301-0.5,0.301-0.9c-0.101-1.7-1-10.4-11.101-10.4c-8.2,0-12.5,6.2-12.5,17.9
	c0,11.8,4.3,18,12.5,18c9.7,0,10.9-7.899,11.101-10.399c0-0.3-0.101-0.7-0.301-0.899C35.008,52,34.607,51.7,34.307,51.7z"/>
<path d="M87.907,43.4L87.907,43.4l-3.2-1.399c-3.1-1.3-4.1-2.7-4.1-5c0-3.1,2.199-5.1,5.6-5.1c2,0,3.602,0.4,5.602,2.4l0.1,0.1
	l1.7-1.6c1-0.9,0.7-1.7,0.3-2.3c-1.699-2-4.3-3-7.5-3c-6.1,0-10.6,4-10.6,9.5c0,5.4,3.398,7.7,7.1,9.3l3.2,1.5
	c3.3,1.5,4.8,2.7,4.8,5.899c0,4.301-3.898,5.4-6.199,5.4c-2,0-4.199-0.399-6.801-3.5l-0.1-0.1l-1.801,1.6
	c-0.899,0.8-0.899,1.5,0,2.601c2.399,3.101,6,3.802,8.601,3.802c5.5,0,11.2-3.4,11.2-9.902C95.707,47.9,92.607,45.4,87.907,43.4z"/>
<path d="M59.107,37.9c0-5.5-4.5-10.2-10-10.2c-2.6,0-5,1-6.8,2.6v-2h-3.3c-1,0-1.4,0.7-1.4,1.4v32.4c0,0.899,0.6,1.399,1.4,1.399
	h3.3V38c0-3.3,2.7-6.1,6.1-6.1c3.3,0,6.101,2.7,6.101,6.1v25.399h3.199c0.9,0,1.4-0.5,1.4-1.398V37.9z"/>
<path d="M76.306,30c0.201-0.2,0.301-0.5,0.301-0.8c0-0.6-0.4-1-0.9-1.2c-1-0.3-2-0.5-3.1-0.5c-2.6,0-5,1-6.801,2.6v-1.8h-3.299
	c-1,0-1.4,0.7-1.4,1.4v32.4c0,0.899,0.6,1.399,1.4,1.399h3.299V38c0-3.3,2.701-6.1,6.101-6.1c0.899,0,1.7,0.2,2.5,0.5L76.306,30
	L76.306,30z"/>
</svg>
