<?xml version="1.0" encoding="utf-8"?>
<!-- Generator: Adobe Illustrator 15.0.0, SVG Export Plug-In  -->
<!DOCTYPE svg PUBLIC "-//W3C//DTD SVG 1.1//EN" "http://www.w3.org/Graphics/SVG/1.1/DTD/svg11.dtd" [
	<!ENTITY ns_flows "http://ns.adobe.com/Flows/1.0/">
]>
<svg version="1.1"
	 xmlns="http://www.w3.org/2000/svg" xmlns:xlink="http://www.w3.org/1999/xlink" xmlns:a="http://ns.adobe.com/AdobeSVGViewerExtensions/3.0/"
	 x="0px" y="0px" width="136px" height="105px" viewBox="-7.399 -8.499 136 105"
	 overflow="visible" enable-background="new -7.399 -8.499 136 105" xml:space="preserve">
<defs>
</defs>
<path d="M121.2,88.102V56.001h-5.399c-0.602,0.8-0.2,4.2-1.9,4.8c-5.8-1.3-0.5-2-2.5-4.8c-0.3,0-2.6,0-2.9,0
	c0.302,0,1.302,1.2-0.198,2.5c-2,13.4,1.698,18.9-0.2,29.602L121.2,88.102L121.2,88.102z"/>
<path d="M34.4,65.901c2.2-1,2.2-3.3,2.3-4.8c-0.7-0.7-3.3-0.801-4.3-0.601c-1.4,1.2-0.2,3.3-1,4.7
	C32,66.501,33.5,65.602,34.4,65.901z"/>
<path d="M46.9,81.801l0.6,0.2c0.602,0.102,1.4,0.102,2-0.1c-0.199-0.4-0.399-0.8-0.6-1.2C48.2,81.102,47.601,81.401,46.9,81.801z"/>
<path d="M55,73.501c-1.5,0.101-2.899,2.3-4.199,1.3c0.8-2.198,2.5-3.898,3.198-6c1.302-2.899,3.302-9.1,2.401-12.8h-5.8
	c-2,0.5-0.5,5.5-2.5,5.8c-0.5-1.398-0.4-3-1.9-5.8H43c0.2,2.102-0.1,2.2-0.3,2.4c-1.1,0.1-1-1.7-2.398-0.8
	c-1.2-0.2-1.5,1.698-2.802,1.3c-0.398-1-1.6-2.4-3-1.602c1.2,2.5,6.9,3.5,4.2,7.602c-0.6,1.2-0.1,2.898-1.6,3.5
	c-2.602-0.7-5-1.7-7.602-2.3c0.302,1-0.398,2.3-0.198,3.3c2.8,0.398,3.6,3.2,5.898,4.1c0.5,0.4,0.7,0.8,0.602,1.4
	c-1.7,0.7-3.4-0.8-5-1.4c-0.4,0.2-0.2,0.5-0.2,0.8c1.398,1.7,6,1,4.6,4.5c-1.3,2.9-1,7.602-5.3,8c-0.4,0.9,0.7,0.802,1,1.2
	c3.7,0.4,7.6-3.2,10.7-0.2c1,0,2.398-0.698,3.2,0.2H54.2c1.8-3.398,0.4-5.6,0.602-8.7c0.198-0.8-2.2-1.6-4-1.198
	c-0.302-0.2-0.102-0.7-0.2-1c1.2-1.4,6,0.698,4.898-2.7C55.601,74.201,55.601,73.501,55,73.501z M35.101,70.001h-0.8
	c-1.2-0.399-3.7-1-3.801-2.399c1.602,0.398,3,1.198,4.602,1.8L35.101,70.001L35.101,70.001z M45.801,60.001l-0.2,3.3
	c-0.101,0.5-0.5,1.601-1.5,1.2c-1.102,0.3-0.5-1.1-0.7-1.6C44.4,62.001,44.7,60.201,45.801,60.001z M45.9,69.801
	c-0.9,0.602-2.5,0.4-3.6,0.2c0.3-0.399,0.3-0.899,0.399-1.399c0.7-0.5,1.4-1.7,2.602-1.302C45.801,67.901,46,68.801,45.9,69.801z
	 M41.5,60.401c0.101-1.2,1.601-0.8,2.4-1.101l0.2,0.5c-0.8,0.602-1.3,1.9-2.602,1.4L41.5,60.401L41.5,60.401z M41.301,73.901
	c1.5,0.3,3.1-0.8,4.198,0.398c-0.5,1-0.5,2.7-2.198,1.802c-0.801-0.601-2.5-0.301-2.4-1.801L41.301,73.901z M39.5,59.401
	c0.302-0.4,0.7-1.2,1.4-1c-0.1,0.6-0.4,1.8-1.4,1.3V59.401z M38.301,72.301c1-0.6,2.3-0.5,2.1,1.4h-1.5
	C38.601,73.301,38.101,73.001,38.301,72.301z M34.7,71.602c0.3-0.5,0.9-0.2,1.3-0.302c0.2,1.2,2-0.3,1.302,1.302h-0.2
	C36.301,73.001,35,72.602,34.7,71.602z M36.9,85.001c-1.4-2.398,0.2-6.3,0.6-8.6c0.302-0.3,0.7-0.8,1.2-0.602
	c0.4,1.2-1.398,2-0.2,3.102c1.302-0.4,2.9,0.8,4.2-0.2c-0.7-1.1-2-0.5-3-1v-0.6l2.8-0.2c0.4,0.6,2.4,1.2,2,2.3
	C42.601,81.901,39.4,83.501,36.9,85.001z M49.601,81.901c0.5,1.3,0.6,2.898,0,3.898L43.2,86v-0.8c1.102-1.5,2.4-2.5,3.8-3.4
	l-1.399-0.299c-1.8-1.2,2.5-3,3.1-3.5l1.7,2.8C50.4,81.301,50.101,81.701,49.601,81.901z M47.101,67.301
	c-1.3-3.5,3.398-4.898,5.3-7.1l2.5,1.4c-0.3,2.399-4.6,2.8-4.4,5.399c0.5,0.4,0.9,1,1.4,1.2c0.2,0.6-0.3,1-0.7,1.4
	C49.301,70.401,48.301,68.602,47.101,67.301z"/>
<path d="M9.2,59.501c-5.898-0.398-9,0.2-9.1,0.2v4.7h1.1c1.3,0.399,2.2,0.399,3.601,0.399c4.898,0.5,9.1-0.198,14-0.5
	c-0.601-0.199-1.101-0.3-1.601-0.3c-0.8-0.6-1.398-1-1.2-2c1.302-1.398,3.7-0.2,5.2-1.1c1.3,0.5,0.4,2,0.8,2.898
	c-0.1,0.302-0.3,0.201-0.399,0.401c1.5,0,3.1,0,4.8,0.2v-4.9C19,59.102,13.9,59.701,9.2,59.501z"/>
<path d="M64.301,57.801c2.398,0.602,4.898,0.9,7.398,1v-2.8H61.2c0,2.2-1.7,5.3-1.7,5.3c0.9,0,1.802,0.102,2.602,0.4v0.6
	c-0.901-0.199-1.701-0.3-2.602-0.399v9.1h1.101c0.1,0.2,0.3,0.3,0.2,0.602l-0.2,0.499h-1.2v1.1c0.4,0,0.8,0.1,1.2,0
	c0,0.1,0,0.1,0.1,0.1c0.5,0.101,0.9,0.801,1.601,0.4v0.6h-1.2c-0.2,0-0.5-0.1-0.7-0.3c-0.3,0.102-0.6,0.2-0.9,0.102v0.8
	c0.9-0.3,2.102,0,3,0.1c0.101,0.199,0.301,0.299,0.2,0.6l-0.2,0.399c-0.898-0.3-2.1-0.2-3-0.3v7c0.302,0.1,0.7,0.2,0.9,0.2
	c0.1,0.3,0.4,0.398,0.4,0.7c-0.4,0.199-0.801,0.3-1.301,0.199v3.9h12.2v-3.9c-0.5,0.102-1.6,0.102-2-0.1c0-0.3,1.2-2.8,1.602-2.9
	l0.398-5.3c-1,0.102-2.1-0.1-3,0.3l-0.2-0.399c-0.1-0.3,0.101-0.4,0.2-0.601c0.9,0,2.102-0.398,3-0.1v-0.8
	c-0.5,0.1-1-0.102-1.398-0.4c0-0.3,0.198-0.398,0.198-0.6c0.4,0.1,0.802,0,1.2,0v-1.101h-1.2l-0.199-0.399
	c0-0.3,0.198-0.4,0.198-0.602h1.2v-9.1c-0.898,0.1-1.8,0.2-2.6,0.4v-0.6c0.8-0.398,1.699-0.398,2.6-0.398v-1.602
	c-2.2-0.1-4.3-0.3-6.398-0.5c-0.5-0.3-1.302-0.2-1.602-0.8C63.801,57.901,64.101,57.801,64.301,57.801z M70.9,64.602v1.8
	c-0.8-0.102-1.9,0.3-2.6-0.3C68.7,64.801,70.101,64.801,70.9,64.602z M61,63.301h1.601v0.601H61V63.301z M63.601,65.701
	c-0.7,0.5-1.601,0.8-2.3,0.8l-0.5-1.5C61.7,64.901,63.301,64.501,63.601,65.701z M60,79.501v-0.6h2.101v0.6H60z M69.2,86.201
	c-0.7,1.7-2.1,0.5-3,0c-0.8-0.3-1.398,1.9-2.1,0.3c0-0.398,0.2-0.5,0.2-0.8C66,84.501,67.801,85.401,69.2,86.201z M67.4,72.301h-3.1
	v-1.1h3.1V72.301z M66.9,76.701v1.6c-0.5-0.1-1.2,0.302-1.6-0.3C65.301,76.801,66.301,76.801,66.9,76.701z M65.801,63.501
	c0.399,0.3,1.399,0.3,0.899,1.601c-0.5,0.5-1-0.802-1.5-0.9L65.801,63.501z M65.7,61.201l-0.898,1c-0.302,0-1-1.1-1.102-1.5
	C64,60.401,65.601,60.901,65.7,61.201z M67.301,80.602v1.399c-1.9,0.7-3.602,2.7-5.7,1.8v-1.3c0.8-0.398,1.8,0.8,2.5-1
	C65.2,81.602,66.2,80.001,67.301,80.602z M63.801,69.102c-1.102,0.3-2.4,0.5-3.4-0.2c0.5-1.102,1.7-0.4,2.5-0.602
	C63.2,68.801,63.801,68.301,63.801,69.102z"/>
<path d="M10.2,58.001c5.2,0,10.9-0.5,16.2-0.1v-2H0c0,0.8,0,2.1,0,2.1C3.301,57.501,7.4,58.001,10.2,58.001z"/>
<path d="M6.101,67.501c-1.5,0-3.101-1.399-4.5-1.899h-0.8l-0.7,0.199v22.301h26.3V65.501C19.5,64.701,13.5,68.001,6.101,67.501z"/>
<path d="M105,73.102c-1.5-3.7,2-16.102-3.698-17.102c-0.602-0.1-1.102,0.2-1.602,0.602c1,0.698,1.7,1.8,1.9,3
	c-1.3,2.898-4.102-0.602-5.9,0.3v2.399c-0.8,0.602-1.3,1.5-2.398,1.2c-0.7-0.8-1.5-1.3-1.2-2.398c0.7-1.4,2.2-0.9,3.2-1.5
	c0,0,0-0.102-0.102-0.102c-1.899-0.5-1.6-3.399-4.8-3.399h-6.1c-2.802,0.898-6.302,2.5-9.5,0l0.6,4l0.4,1.399v1.2l1.398,1.2
	l-1.5,1.3l0.5,3.1c1.102,0.302,2.3,0.4,2.4,1.4c-0.2,1.7-1.5,3.6-1.5,5.3c-0.102,2.102,1.1,11,1.1,13.2c1.2-0.1,6.7-0.3,7.8-0.9
	l1.5,0.9c2,0.2,4.5,0.7,3.9-2.7l-1.4-9.1c-1.698-4.7,1.4-5.8,2.5-5.9l0.802,0.7c-0.302,0.9-0.4,1.8-0.5,2.7
	c0.198,0.3,0.398,0.7,0.3,1.3c0.1,0.5-0.102,0.9-0.3,1.1c0.3,4.2,2.3,7.9,2.398,11.9h5.3l1.9-1.5l-0.4-3.7l0.2-3.5l-0.1-6.6
	c0.8,0.2,1.6,0.398,2.5,0.8L105,73.102z M78.601,62.701c-1.102-0.9-1.7-1.9-1.4-3.4c0.7-1.6,2.9-1,3.8-0.398c0.7,1,2,2.3,0,2.8
	C81.2,64.301,79.4,63.901,78.601,62.701z M84.601,83.401v-2l-1.5-1.4l-0.601-2.1c-0.699-3.3,0.101-7.101,0.7-8.3c0,0,0,0-0.1,0
	c-0.602-0.2-1.4,0.3-1.8-0.4c0.5-0.8-0.2-2.1,0.6-2.8c0.6-0.102,2.1-0.102,2.5,0.3c0,0.7-0.1,1.6-0.7,2.3c0.602-0.1,1.3,0,1.8,0.5
	c-0.198,6.3,0.4,10.5,1,16.3L84.601,83.401z M88.2,61.801c0.3,1.302-1.5,1.5-2.1,1.602c-0.7-0.4-1.7-1.8-1.2-3.102
	c0.5-0.5,0.9-1.1,1.8-0.898C87.2,60.301,88.7,60.701,88.2,61.801z M91.5,66.301c-0.198,0.9-1.398,2-2.8,1.7
	c-0.7-0.5-0.5-1.6-0.6-2.3c0.2-0.5,1.7-1,2.398-0.8C90.7,65.301,91.7,65.801,91.5,66.301z M93.7,68.001
	c0.3-0.398,1.5-1.1,2.102-0.898c0.698,0.3,1.1,1.5,0.8,2.398c-0.102,0.7-0.8,0.5-1.4,0.5C94.5,69.701,93.5,68.901,93.7,68.001z
	 M97.601,82.401c-0.7,0.7-0.5,4-2.102,2.3c-1.698-4.4,0.602-7.5,1-11.4c1-1.1,2.102-1.5,2.7-1.198c0.2,0,1,2,1.102,2
	c0.198,2.698-1.5,2.8,0.1,7.398C100.101,82.201,98.101,81.801,97.601,82.401z M101.301,70.701c-0.602-0.1-2-0.2-2.102-1
	c-0.1-0.9-0.2-2.2,1.9-1.9C102.7,68.201,103.301,70.301,101.301,70.701z"/>
<path d="M31.7,36.602h-6.3V20.301h6.1c2.802,0,4.802,1.602,4.802,4.4c0,1.7-1,3.1-2.4,3.6c1.6,0.602,2.7,1.9,2.7,3.9
	C36.5,35.102,34.601,36.602,31.7,36.602z M31.301,21.901H27v5.6h4.301c1.8,0,3.198-0.898,3.198-2.8
	C34.5,22.701,33.101,21.901,31.301,21.901z M31.5,29.102h-4.399v6H31.5c2,0,3.302-1.2,3.302-3
	C34.801,30.301,33.5,29.102,31.5,29.102z"/>
<path d="M46.601,27.501c-0.602-0.6-1.102-0.8-2-0.8c-1.602,0-2.7,1.3-2.7,3v6.9h-1.7v-11.2h1.7v1.399c0.6-0.898,1.9-1.5,3.2-1.5
	c1.1,0,1.898,0.302,2.7,1.102L46.601,27.501z"/>
<path d="M51,31.401c0,2.5,1.2,3.898,3.302,3.898c1.3,0,2.1-0.398,3-1.3l1.1,1c-1.1,1.102-2.2,1.7-4.1,1.7c-3,0-4.9-1.8-4.9-5.8
	c0-3.602,1.8-5.8,4.6-5.8c2.9,0,4.602,2.1,4.602,5.5v0.8L51,31.401L51,31.401z M56.601,28.301c-0.4-1-1.4-1.698-2.602-1.698
	c-1.198-0.001-2.198,0.698-2.599,1.698c-0.3,0.602-0.3,1-0.3,1.9h6C56.9,29.301,56.9,28.901,56.601,28.301z"/>
<path d="M65.301,36.602c-1.9,0-2.9-1.4-2.9-3v-6.9H61v-1.3h1.4v-3.5h1.7v3.5H66.5v1.3h-2.399v6.9c0,1,0.5,1.698,1.5,1.698H66.5v1.4
	h-1.199V36.602z"/>
<path d="M76.101,36.602v-1.101c-0.9,0.9-1.7,1.2-3.3,1.2c-1.602,0-2.5-0.3-3.2-1c-0.602-0.6-0.8-1.4-0.8-2.3
	c0-2,1.398-3.3,3.898-3.3h3.4v-1.101c0-1.6-0.801-2.5-2.9-2.5c-1.398,0-2.2,0.3-2.8,1.3l-1.101-1c1-1.3,2.199-1.698,4-1.698
	c3,0,4.5,1.3,4.5,3.8v7.7L76.101,36.602L76.101,36.602z M76.101,31.401h-3.2c-1.7,0-2.5,0.7-2.5,2S71.2,35.3,73,35.3
	c1,0,1.802-0.1,2.5-0.8c0.4-0.398,0.601-0.999,0.601-1.898V31.401z"/>
<path d="M85.4,41.801c-1.7,0-2.6-0.398-3.8-1.5l1.1-1.1c0.8,0.7,1.4,1.1,2.7,1.1c2.2,0,3.1-1.5,3.1-3.5v-1.8
	c-0.899,1.2-2,1.5-3.199,1.5c-1.101,0-2.101-0.399-2.7-1c-1.102-1.1-1.4-2.898-1.4-4.7c0-1.8,0.3-3.6,1.4-4.698
	c0.6-0.602,1.6-1,2.8-1s2.2,0.3,3.2,1.5v-1.302h1.6v11.601C90.101,39.801,88.4,41.801,85.4,41.801z M85.7,26.701
	c-2.5,0-2.8,2.1-2.8,4.2c0,2.1,0.4,4.2,2.8,4.2c2.5,0,2.8-2.102,2.8-4.2C88.5,28.801,88.101,26.701,85.7,26.701z"/>
<path d="M101.5,36.602v-6.9c0-2-1.1-3-2.8-3s-2.8,1-2.8,3v6.9h-1.7v-11.2h1.7v1.2c0.8-0.9,1.9-1.4,3.2-1.4c1.2,0,2.2,0.4,2.898,1.1
	c0.802,0.802,1.2,1.802,1.2,3.102v7.2L101.5,36.602L101.5,36.602z"/>
<path d="M108.2,31.401c0,2.5,1.2,3.898,3.3,3.898c1.302,0,2.102-0.398,3-1.3l1.102,1c-1.102,1.102-2.2,1.7-4.102,1.7
	c-3,0-4.898-1.8-4.898-5.8c0-3.602,1.8-5.8,4.6-5.8c2.9,0,4.602,2.1,4.602,5.5v0.8L108.2,31.401L108.2,31.401z M113.801,28.301
	c-0.4-1-1.4-1.698-2.602-1.698s-2.199,0.698-2.599,1.698c-0.3,0.602-0.3,1-0.3,1.9h6C114.101,29.301,114,28.901,113.801,28.301z"/>
<path d="M18.101,2.401h-4.8v13.6c0,0.602-0.5,1.102-1.102,1.102h-0.5c-0.6,0-1.1-0.5-1.1-1.102v-13.6h-4.7c-0.6,0-1.1-0.4-1.1-1
	v-0.4c0-0.6,0.5-1,1.1-1h12.2c0.6,0,1.1,0.4,1.1,1v0.4C19.101,2.001,18.601,2.401,18.101,2.401z"/>
<path d="M33.5,17.102H22.4c-0.6,0-1-0.4-1-1V1.001c0-0.6,0.5-1,1-1H33c0.601,0,1.101,0.4,1.101,1v0.4c0,0.6-0.5,1-1.102,1h-9v5h8.2
	c0.602,0,1.102,0.398,1.102,1v0.399c0,0.602-0.5,1-1.102,1h-8.2v4.9h9.5c0.602,0,1.102,0.4,1.102,1v0.4
	C34.601,16.701,34.101,17.102,33.5,17.102z"/>
<path d="M48.5,17.102H37.301v-16c0-0.601,0.5-1.101,1.1-1.101h0.5c0.6,0,1.1,0.5,1.1,1.102v13.6h8.601c0.6,0,1.1,0.4,1.1,1v0.4
	C49.601,16.701,49.101,17.102,48.5,17.102z"/>
<path d="M63.5,17.102H52.4c-0.6,0-1-0.4-1-1V1.001c0-0.6,0.5-1,1-1H63c0.601,0,1.101,0.4,1.101,1v0.4c0,0.6-0.5,1-1.102,1h-9v5h8.2
	c0.602,0,1.102,0.398,1.102,1v0.399c0,0.602-0.5,1-1.102,1h-8.2v4.9h9.5c0.602,0,1.102,0.4,1.102,1v0.4
	C64.601,16.701,64.101,17.102,63.5,17.102z"/>
<path d="M78.4,17.102h-7.1c-2.2,0-4-1.9-4-4.102V4c0-2.2,1.898-4,4.1-4h6.5C78.5,0,79,0.4,79,1v0.4c0,0.6-0.5,1-1.1,1h-5.6
	c-1.7,0-2.4,1-2.4,2.3v7.801c0,1.7,1.1,2.2,2.4,2.2h6c0.6,0,1.1,0.4,1.1,1v0.4C79.5,16.701,79,17.102,78.4,17.102z"/>
<path d="M91.9,17.102H86c-2.198,0-4-1.802-4-4V4.001c0-2.2,1.9-4,4.2-4h5.601c2.198,0,4.198,1.8,4.198,4v9.101
	C95.9,15.301,94.101,17.102,91.9,17.102z M93.301,4.401c0-1.102-0.9-2-2-2H86.7c-1.1,0-2,0.898-2,2v8.3c0,1.1,0.9,2,1.9,2h4.6
	c1.102,0,2-0.9,2-2v-8.3H93.301z"/>
<path d="M114.101,17.102h-0.5c-0.602,0-1.102-0.5-1.102-1.102V4.602l-3.6,5.1c-0.3,0.4-0.601,0.8-1.2,0.8h-0.398
	c-0.5,0-0.802-0.398-1.2-0.8l-3.602-5.1v11.399c0,0.602-0.5,1.102-1.1,1.102h-0.5c-0.601,0-1.101-0.5-1.101-1.102v-15
	c0-0.6,0.399-1,1-1h0.601c0.5,0,0.899,0.4,1.1,0.8l4.802,6.801l4.899-6.801c0.3-0.398,0.602-0.8,1.102-0.8H114c0.602,0,1,0.4,1,1v15
	C115.2,16.602,114.7,17.102,114.101,17.102z"/>
</svg>
