<?xml version="1.0" encoding="utf-8"?>
<!-- Generator: Adobe Illustrator 15.0.0, SVG Export Plug-In  -->
<!DOCTYPE svg PUBLIC "-//W3C//DTD SVG 1.1//EN" "http://www.w3.org/Graphics/SVG/1.1/DTD/svg11.dtd" [
	<!ENTITY ns_flows "http://ns.adobe.com/Flows/1.0/">
]>
<svg version="1.1"
	 xmlns="http://www.w3.org/2000/svg" xmlns:xlink="http://www.w3.org/1999/xlink" xmlns:a="http://ns.adobe.com/AdobeSVGViewerExtensions/3.0/"
	 x="0px" y="0px" width="173px" height="96px" viewBox="-6.3 -8.101 173 96"
	 overflow="visible" enable-background="new -6.3 -8.101 173 96" xml:space="preserve">
<defs>
</defs>
<path d="M73.801,59.699c-1,0-1.9,0.9-1.9,2V63.3c0,1.1,0.9,2,1.9,2c0.698,0,1.3-0.3,1.698-0.9c0-0.1,0.102-0.1,0.102-0.2
	c0-0.1-0.102-0.198-0.102-0.3c-0.1-0.1-0.198-0.1-0.198-0.1c-0.102,0-0.2,0-0.302,0.2c-0.198,0.3-0.698,0.6-1.1,0.6
	c-0.7,0-1.2-0.6-1.2-1.3v-0.7l2.8,0.1c0.2,0,0.4-0.198,0.4-0.398v-0.5C75.7,60.6,74.9,59.699,73.801,59.699z M75,61.8h-2.399
	c0,0,0,0,0-0.102c0-0.6,0.398-1,0.398-1C73.2,60.5,73.5,60.3,73.801,60.3c0.3,0,0.6,0.1,0.8,0.398C74.7,60.8,75,61.199,75,61.8
	L75,61.8z M74.7,57.699c0.101-0.1,0.101-0.199,0.101-0.3c0-0.1,0-0.2-0.102-0.3v0.1l0,0c0,0,0,0-0.1,0c0-0.1,0-0.1-0.102-0.1
	c-0.1,0-0.198,0-0.3,0.1L73.9,57.5l-1,1.3L73,59l1.4-1L74.7,57.699z M66.601,64.5h-0.2c-0.2,0-0.4-0.2-0.4-0.4v-3.7l0,0h0.601
	c0.2,0,0.398-0.2,0.398-0.398c0-0.2-0.198-0.4-0.398-0.4h-0.7v-0.1l0.1-1.302h-0.1l0,0l-0.2,0.2l-0.5,0.2v1.2l-0.6-0.101l-0.101,0.7
	h0.7v0.2l-0.1,3.5c0,0.6,0.5,1.2,1.1,1.2h0.2c0.2,0,0.4-0.2,0.4-0.4C66.9,64.699,66.7,64.5,66.601,64.5z M65.801,58.399
	L65.801,58.399v0.4V58.399z M57.801,60.1c0,0.2,0.198,0.4,0.398,0.4H58.7l-0.1,4.699h0.1V65.3h0.601l0.1-5.4l-1.1-0.1
	C58,59.699,57.801,59.899,57.801,60.1z M18.7,60.1c0,0.2,0.2,0.4,0.4,0.4h0.5L19.5,65.1h0.101v0.1h0.6l0.101-5.399L19.2,59.699
	C18.9,59.699,18.7,59.899,18.7,60.1z M20.2,57.399C20.2,57.3,20.2,57.3,20.2,57.399c0-0.2-0.2-0.398-0.398-0.398
	c-0.2,0-0.4,0.198-0.4,0.398s0.2,0.4,0.4,0.4C20.101,57.8,20.301,57.6,20.2,57.399L20.2,57.399L20.2,57.399z M12,59.699
	c-0.3,0-0.699,0.101-0.8,0.301l-0.1,0.1c-0.102,0-0.2-0.1-0.2-0.3h-1.1c-0.2,0-0.4,0.2-0.4,0.398c0,0.2,0.2,0.4,0.4,0.4h0.5
	L10.2,65.3l0.7,0.1l0.1-3.5c0-0.7,0.5-1.3,1.2-1.3s1.2,0.6,1.2,1.3v3c0,0.2,0.1,0.4,0.4,0.4c0.198,0,0.398-0.2,0.398-0.4v-3.2
	c0-0.898-0.398-1.3-0.6-1.398C13,59.899,12.601,59.699,12,59.699z M4.4,64.3c-0.1-0.102-0.2-0.2-0.2-0.4c0-0.1,0-0.398,0-0.7V59.8
	l-0.6-0.101L3.5,63.3c0,0.7-0.6,1.3-1.198,1.3l0,0c-0.7,0-1.2-0.6-1.2-1.3V60c0-0.2-0.2-0.4-0.4-0.4s-0.4,0.2-0.4,0.4v3.3
	c0,1,0.8,2,1.898,2l0,0c0.4,0,1-0.2,1.4-0.7l0.1,0.1l0.4,0.5c0.1,0.102,0.2,0.102,0.3,0.102s0.2,0,0.3-0.102
	c0.102-0.1,0.102-0.199,0.102-0.3c0-0.1,0-0.2-0.102-0.3L4.4,64.3z M29.101,59.8c0-0.102-0.102-0.2-0.2-0.2h-0.1
	c-0.2,0-0.302,0.1-0.302,0.3l-1.3,4.2l-0.6-1.9l-0.6-2.3c0-0.1-0.1-0.1-0.198-0.1l0,0c-0.102,0-0.102-0.101-0.102-0.101h-0.1
	c-0.2,0-0.3,0.2-0.3,0.4v0.1l1.5,4.9c0,0.1,0.198,0.3,0.3,0.3h0.2c0.1,0,0.3-0.1,0.3-0.3l1.5-4.9v-0.1
	C29.2,59.899,29.2,59.899,29.101,59.8L29.101,59.8z M27.301,64.199L27.301,64.199L28,62L27.301,64.199z M51.5,61.6
	c-0.1-0.1-0.198-0.3-0.198-0.5l0,0c0-0.4,0.3-0.7,0.698-0.7h0.101c0.2,0,0.3,0.102,0.398,0.2c0.102,0.1,0.2,0.1,0.302,0.1
	c0.1,0,0.198,0,0.3-0.1c0.1-0.1,0.1-0.2,0.1-0.3c0-0.102,0-0.2-0.1-0.2l0,0c-0.3-0.3-0.7-0.5-1.102-0.5c-0.8,0-1.398,0.7-1.398,1.5
	l0,0c0,0.4,0.1,0.8,0.5,1.1l1.1,1c0.2,0.102,0.3,0.4,0.3,0.602s-0.1,0.398-0.199,0.499c-0.102,0.1-0.302,0.2-0.5,0.2
	c-0.102,0-0.2,0-0.302-0.102l-0.1-0.1c-0.1-0.102-0.1-0.102-0.2-0.2c-0.1-0.1-0.2-0.2-0.3-0.2S50.801,63.899,50.7,64
	c-0.1,0.1-0.2,0.198-0.2,0.3c0,0.1,0,0.1,0.102,0.2c0.299,0.399,0.699,0.699,1.199,0.699l0,0c0.398,0,0.8-0.198,1-0.5
	c0.3-0.3,0.398-0.698,0.398-1.1s-0.2-0.9-0.5-1.2C52.601,62.6,51.7,61.8,51.5,61.6z M45.601,59.699c-0.4,0-1.2,0-1.8,0.802v-0.302
	l0.1-0.398l-1.2-0.102c-0.2,0-0.398,0.2-0.398,0.4s0.198,0.4,0.398,0.4h0.5l-0.1,4.699h0.7l0.1-3.1c0-0.5,0.2-1,0.4-1.2
	c0.3-0.399,0.899-0.399,1.3-0.399c0.2,0,0.398-0.2,0.398-0.4C45.9,59.8,45.7,59.699,45.601,59.699z M43.2,65.1L43.2,65.1v-0.4V65.1z
	 M43.801,60.5L43.801,60.5c0.1-0.102,0.198-0.2,0.3-0.302C44,60.3,43.9,60.399,43.801,60.5z M35.7,59.699c-1.1,0-1.898,0.9-1.898,2
	V63.3c0,1.1,0.898,2,1.898,2c0.7,0,1.3-0.3,1.7-0.9c0-0.1,0.1-0.1,0.1-0.2c0-0.1-0.1-0.198-0.1-0.3c-0.1-0.1-0.2-0.1-0.2-0.1
	c-0.1,0-0.2,0.1-0.3,0.2c-0.2,0.3-0.7,0.6-1.1,0.6c-0.7,0-1.2-0.6-1.2-1.3v-0.7h0.1l2.602,0.1c0.198,0,0.398-0.199,0.398-0.399v-0.5
	C37.7,60.6,36.801,59.699,35.7,59.699z M37,61.8h-2.399c0,0,0,0,0-0.102c0-0.6,0.3-1,0.3-1c0.2-0.198,0.5-0.398,0.9-0.398
	c0.3,0,0.6,0.1,0.8,0.398C36.601,60.8,37,61.199,37,61.8L37,61.8z M37,61.899L37,61.899L37,61.899L37,61.899L37,61.899z M87.2,57.3
	c0,0.2,0.2,0.398,0.3,0.398l0,0H88L87.9,60.5c-0.1-0.101-0.2-0.2-0.2-0.2c-0.3-0.4-0.6-0.5-1-0.5c-1.1,0-1.898,0.898-1.898,2v1.5
	c0,1.1,0.898,2,1.898,2l0,0c0.7,0,1-0.3,1.2-0.602c0-0.1,0.1-0.1,0.2-0.1c0.1,0,0.2,0.1,0.2,0.2v0.2c0,0.1,0.1,0.198,0.198,0.198
	c0.102,0,0.2-0.1,0.2-0.198v-8l-1.099-0.1C87.4,57,87.2,57.1,87.2,57.3z M88,63.3c0,0.7-0.5,1.3-1.198,1.3c-0.7,0-1.2-0.6-1.2-1.3
	v-1.5c0-0.7,0.5-1.3,1.2-1.3C87.5,60.5,88,61.1,88,61.8V63.3z M88.101,60.5C88,60.5,88,60.5,88.101,60.5v-1.2V60.5z M59.301,57.3
	L59.301,57.3c0-0.2-0.2-0.4-0.4-0.4s-0.4,0.2-0.4,0.5c0,0.2,0.2,0.4,0.4,0.4C59.2,57.8,59.4,57.6,59.301,57.3L59.301,57.3
	L59.301,57.3z M144.601,65.699v-1.3l-1.602-0.1l0,0l0.102-0.8c0.7-0.102,1.6-0.802,1.6-1.9c0-0.4-0.1-0.8-0.398-1.2l0.198-0.2
	c0.101-0.1,0.101-0.199,0.101-0.3c0-0.1,0-0.2-0.102-0.3c-0.1-0.1-0.198-0.1-0.3-0.1c-0.1,0-0.2,0-0.2,0.1l-0.299,0.3
	c-0.3-0.3-0.7-0.398-1.1-0.398c-1.102,0-1.9,0.898-1.9,2c0,1,0.7,1.8,1.602,2v1.5h0.1l0,0l1.601,0.1l-0.101,0.601
	c0,0.699-0.5,1.199-1.2,1.199c-0.699,0-1.199-0.6-1.199-1.3c0-0.2-0.199-0.4-0.399-0.4s-0.4,0.2-0.4,0.4l0,0c0,1.1,0.801,2,1.9,2
	C143.601,67.8,144.601,67,144.601,65.699z M141.4,61.6c0-0.8,0.7-1.3,1.2-1.3c0.7,0,1.2,0.6,1.2,1.3s-0.5,1.2-1.2,1.2
	S141.4,62.3,141.4,61.6z M113.601,60.399l-0.102,4.7l0.7,0.1v-3.1c0-0.5,0.2-1,0.4-1.2c0.3-0.398,0.898-0.398,1.3-0.398
	c0.2,0,0.4-0.2,0.4-0.4l0,0c0-0.2-0.102-0.399-0.302-0.399c-0.398,0-1.198,0.101-1.8,0.801v-0.303V59.8l-1.1-0.102
	c-0.2,0-0.4,0.2-0.4,0.4s0.102,0.4,0.4,0.4h0.5v-0.1H113.601z M109,63.199L109,63.199l0.102-1.5c0-1.1-0.9-2-1.9-2
	c-0.398,0-0.699,0.102-1.199,0.7v-1.5L106.101,57L105,56.899c-0.198,0-0.398,0.2-0.398,0.4s0.2,0.398,0.3,0.398l0,0h0.5V65
	c0,0.1,0.101,0.198,0.2,0.198s0.2-0.1,0.2-0.198v-0.101c0-0.1,0.1-0.2,0.198-0.2c0.102,0,0.102,0,0.2,0.102
	c0.2,0.3,0.602,0.6,1.2,0.6c0.5,0,1-0.199,1.4-0.6C108.801,64.3,109,63.8,109,63.199L109,63.199L109,63.199z M105.801,60.5
	L105.801,60.5c0.1-0.102,0.198-0.2,0.3-0.302C106,60.399,105.9,60.399,105.801,60.5z M108.301,63.3c0,0.7-0.5,1.3-1.2,1.3
	s-1.2-0.6-1.2-1.3v-1.5c0-0.7,0.5-1.3,1.2-1.3s1.2,0.6,1.2,1.3V63.3z M123.2,64.399c0-0.1,0.102-0.1,0.102-0.2
	c0-0.1,0-0.198-0.102-0.3c-0.1-0.1-0.2-0.1-0.2-0.1c-0.1,0-0.198,0.1-0.3,0.2c-0.3,0.398-0.7,0.6-1.1,0.6c-0.7,0-1.2-0.6-1.2-1.3
	v-0.7l2.8,0.1c0.2,0,0.4-0.198,0.4-0.398v-0.5c0-1.102-0.9-2-1.9-2c-1.1,0-1.898,0.898-1.898,2v1.6c0,1.102,0.898,2,1.898,2
	C122.2,65.3,122.801,65,123.2,64.399z M120.301,61.8c0-0.602,0.398-1,0.398-1c0.2-0.3,0.5-0.4,0.8-0.4
	c0.302,0,0.602,0.102,0.802,0.4c0,0,0.398,0.398,0.398,1v0.1L120.301,61.8L120.301,61.8z M136.7,65.199c0.102,0,0.2-0.1,0.2-0.198
	v-3.4c0-1.3-1-2-1.9-2h-1.3c-0.2,0-0.398,0.2-0.398,0.4c0,0.198,0.1,0.398,0.398,0.398h1.3c0.602,0,1.2,0.3,1.2,1.4l-1.5-0.101
	c-0.8,0-1.6,0.7-1.6,1.7c0,1.2,0.898,1.7,1.6,1.8h0.8c0.302,0,0.602-0.198,0.802-0.398c0.1,0,0.1-0.102,0.198-0.102v-0.1l0,0
	c0.102,0,0.2,0.2,0.2,0.3l0,0C136.5,65.1,136.601,65.199,136.7,65.199z M136.101,63.5c0,0.3-0.3,0.898-0.9,0.898h-0.5
	c-0.5,0-0.898-0.5-0.898-1s0.398-1,0.898-1c0,0,0.102,0,0.4,0h1.1V63.5H136.101z M136.2,61.8v-0.101
	C136.2,61.699,136.2,61.699,136.2,61.8L136.2,61.8z M158.301,59.6c-1.102,0-1.9,0.9-1.9,2v1.6c0,1.102,0.9,2,1.9,2
	c0.698,0,1.3-0.3,1.698-0.898c0-0.102,0.102-0.102,0.102-0.2s0-0.2-0.102-0.3c-0.099-0.102-0.198-0.102-0.198-0.102
	c-0.102,0-0.2,0.102-0.302,0.2c-0.198,0.3-0.698,0.602-1.1,0.602c-0.7,0-1.2-0.602-1.2-1.302V62.5h0.102l2.6,0.1
	c0.2,0,0.4-0.2,0.4-0.4v-0.5C160.2,60.6,159.4,59.6,158.301,59.6z M159.5,61.8h-2.399c0,0,0,0,0-0.102c0-0.6,0.398-1,0.398-1
	c0.2-0.3,0.5-0.398,0.9-0.398c0.3,0,0.6,0.1,0.8,0.398C159.2,60.8,159.5,61.199,159.5,61.8L159.5,61.8z M94.5,59.6
	c-1.1,0-1.898,0.9-1.898,2v1.6c0,1.102,0.898,2,1.898,2c0.7,0,1.302-0.3,1.7-0.898c0-0.102,0.102-0.102,0.102-0.2s0-0.2-0.102-0.3
	c-0.1,0-0.2-0.102-0.2-0.102c-0.1,0-0.198,0.102-0.3,0.2c-0.2,0.3-0.7,0.602-1.1,0.602c-0.7,0-1.2-0.602-1.2-1.302V62.5h0.1
	l2.602,0.1c0.2,0,0.398-0.2,0.398-0.4v-0.5C96.4,60.6,95.601,59.6,94.5,59.6z M95.7,61.8h-2.399c0,0,0,0,0-0.102
	c0-0.6,0.398-1,0.398-1c0.2-0.3,0.5-0.398,0.8-0.398c0.302,0,0.602,0.1,0.802,0.398C95.4,60.8,95.7,61.199,95.7,61.8L95.7,61.8z
	 M129,65.3c0.2,0,0.4-0.2,0.4-0.4s-0.2-0.398-0.4-0.398h-0.199c-0.2,0-0.4-0.2-0.4-0.4v-3.7l0,0l0.601,0.102
	c0.199,0,0.399-0.2,0.399-0.4s-0.1-0.399-0.399-0.399h-0.7l0.1-1.399h-0.1l0,0l-0.102,0.1l-0.5,0.2v1.2l-0.6-0.101l-0.102,0.699
	L127.7,60.5l-0.1,3.6c0,0.6,0.5,1.2,1.1,1.2H129L129,65.3z M150.9,59.6c-0.3,0-0.7,0.1-0.9,0.3l-0.1,0.102
	c-0.1,0-0.2-0.102-0.2-0.302h-1.1c-0.2,0-0.4,0.2-0.4,0.4s0.2,0.4,0.4,0.4h0.5L149,65.199l0.7,0.101l0.102-3.5
	c0-0.7,0.5-1.3,1.198-1.3c0.7,0,1.2,0.6,1.2,1.3v3.1c0,0.2,0.2,0.4,0.4,0.4s0.398-0.2,0.398-0.4v-3.2c0-0.898-0.398-1.3-0.6-1.398
	C151.801,59.899,151.4,59.6,150.9,59.6z M144.7,74.5h-1.3c-0.2,0-0.4,0.198-0.4,0.398s0.102,0.4,0.4,0.4h1.3
	c0.602,0,1.2,0.398,1.2,1.398l-1.5-0.1c-0.8,0-1.6,0.7-1.6,1.7c0,1.2,0.898,1.7,1.6,1.7h0.7c0.3,0,0.6-0.102,0.8-0.302
	c0,0,0.1-0.1,0.2-0.1v-0.1v0.1c0.1,0,0.2,0.1,0.2,0.2l0,0c0,0.1,0.1,0.2,0.198,0.2c0.102,0,0.2-0.102,0.2-0.2v-3.3
	C146.7,75.199,145.7,74.5,144.7,74.5z M146,78.3c0,0.3-0.3,0.898-0.898,0.898h-0.5c-0.5,0-0.9-0.5-0.9-1s0.4-1,0.9-1
	c0,0,0.1,0,0.398,0h1.102V78.3H146z M132.301,75.1c-0.4-0.4-0.802-0.6-1.4-0.6c-0.3,0-0.7,0.1-0.899,0.3c0,0-0.101,0.1-0.199,0.1
	c-0.102,0-0.2-0.1-0.2-0.2H128.5c-0.198,0-0.398,0.2-0.398,0.4s0.2,0.4,0.398,0.4h0.5l-0.1,4.698l0.7,0.102v-0.2l0.1-3.3
	c0-0.7,0.5-1.3,1.2-1.3s1.2,0.6,1.2,1.3V80c0,0.198,0.1,0.398,0.398,0.398c0.2,0,0.4-0.2,0.4-0.398l0,0v-3.2
	C132.9,75.699,132.4,75.199,132.301,75.1z M138.7,79.399h-0.3c-0.2,0-0.4-0.2-0.4-0.398v-3.7l0,0l0.602,0.1
	c0.2,0,0.398-0.199,0.398-0.398c0-0.2-0.198-0.4-0.398-0.4h-0.7v-0.1l0.101-1.301h-0.101l0,0l-0.1,0.101l-0.5,0.2v1.197l-0.602-0.1
	l-0.1,0.7l0.7,0.1L137.2,79c0,0.6,0.5,1.198,1.102,1.198h0.198c0.2,0,0.4-0.198,0.4-0.398C139,79.5,138.9,79.399,138.7,79.399z
	 M158.301,74.5c-1.102,0-1.9,0.898-1.9,2v1.6c0,1.1,0.9,2,1.9,2c0.698,0,1.3-0.3,1.698-0.9c0.102-0.1,0.102-0.1,0.102-0.198
	c0-0.102,0-0.2-0.102-0.302c-0.1-0.1-0.1-0.1-0.198-0.1c-0.102,0-0.2,0-0.302,0.2c-0.198,0.398-0.698,0.6-1.1,0.6
	c-0.7,0-1.2-0.6-1.2-1.3v-0.7h0.102h2.6c0.2,0,0.4-0.2,0.4-0.398v-0.5C160.2,75.399,159.4,74.5,158.301,74.5z M159.5,76.699h-2.399
	c0,0,0,0,0-0.1c0-0.6,0.398-1,0.398-1c0.2-0.2,0.5-0.4,0.9-0.4c0.3,0,0.6,0.102,0.8,0.4C159.2,75.699,159.5,76,159.5,76.699
	L159.5,76.699z M152.301,79.399c-0.102,0-0.2-0.1-0.302-0.1c-0.1-0.102-0.1-0.2-0.1-0.3v-7l-1.099-0.101c-0.2,0-0.4,0.2-0.4,0.4
	s0.2,0.398,0.3,0.398l0,0h0.5l-0.1,6.4c0,0.3,0.1,0.7,0.3,0.9c0.2,0.198,0.5,0.3,0.8,0.3l0,0c0.2,0,0.301-0.2,0.301-0.4l0,0
	C152.601,79.5,152.5,79.399,152.301,79.399z M107.2,74.899c0,0.2,0.2,0.4,0.4,0.4h0.5l-0.101,4.6h0.102V80h0.6v-5.4l-1.1-0.1
	C107.4,74.5,107.2,74.699,107.2,74.899z M102.9,75.8c0.1,0.1,0.2,0.2,0.3,0.2c0.102,0,0.2,0,0.2-0.102c0.1-0.1,0.1-0.2,0.1-0.3
	s0-0.1,0-0.2c-0.398-0.6-1-0.898-1.6-0.898c-1.1,0-1.9,0.898-1.9,2v1.6c0,1.1,0.9,2,1.9,2c0.6,0,1.2-0.3,1.6-0.9
	c0-0.1,0-0.1,0-0.198c0-0.102,0-0.2-0.1-0.302c-0.1-0.1-0.1-0.1-0.2-0.1c-0.1,0-0.2,0.1-0.3,0.2c-0.2,0.398-0.6,0.6-1,0.6
	c-0.7,0-1.2-0.6-1.2-1.3v-1.6c0-0.7,0.5-1.302,1.2-1.302l0,0l0,0C102.301,75.3,102.7,75.5,102.9,75.8z M95.301,75.8
	c0.1,0.1,0.198,0.2,0.3,0.2c0.1,0,0.1,0,0.2-0.102c0.1-0.1,0.1-0.2,0.1-0.3s0-0.1,0-0.2c-0.4-0.5-1-0.898-1.6-0.898
	c-1.102,0-1.9,0.898-1.9,2v1.6c0,1.1,0.9,2,1.9,2c0.6,0,1.198-0.3,1.6-0.9c0-0.1,0-0.1,0-0.198c0-0.102,0-0.2-0.2-0.302
	c-0.1-0.1-0.1-0.1-0.2-0.1c-0.1,0-0.198,0.1-0.3,0.2c-0.2,0.398-0.6,0.6-1,0.6c-0.7,0-1.2-0.6-1.2-1.3v-1.6
	c0-0.7,0.5-1.302,1.2-1.302l0,0l0,0C94.801,75.3,95.101,75.5,95.301,75.8z M108.601,72.199
	C108.601,72.1,108.601,72.1,108.601,72.199c0-0.198-0.2-0.398-0.4-0.398s-0.399,0.199-0.399,0.398c0,0.2,0.198,0.4,0.5,0.4
	c0.198,0,0.398-0.2,0.398-0.5L108.601,72.199L108.601,72.199z M88.4,78L88.4,78L88.4,78v-1.5c0-1.102-0.9-2-1.9-2
	c-1.1,0-1.898,0.898-1.898,2v1.6c0,1.1,0.898,2,1.898,2c0.5,0,1-0.2,1.4-0.6C88.301,79.199,88.5,78.6,88.4,78L88.4,78L88.4,78z
	 M87.801,78.1c0,0.7-0.5,1.3-1.2,1.3l0,0c-0.7,0-1.2-0.6-1.2-1.3v-1.6c0-0.7,0.5-1.302,1.2-1.302s1.2,0.602,1.2,1.302V78.1z
	 M122.801,74.5c-1.102,0-1.9,0.898-1.9,2v1.6c0,1.1,0.9,2,1.9,2c0.698,0,1.3-0.3,1.698-0.9c0-0.1,0.102-0.1,0.102-0.198
	c0-0.102,0-0.2-0.102-0.302c-0.1-0.1-0.198-0.1-0.198-0.1c-0.102,0-0.2,0.1-0.302,0.2c-0.198,0.398-0.6,0.6-1.1,0.6
	c-0.7,0-1.2-0.6-1.2-1.3v-0.7h0.102h2.6c0.2,0,0.4-0.2,0.4-0.398v-0.5C124.7,75.399,123.801,74.5,122.801,74.5z M124,76.699h-2.399
	c0,0,0,0,0-0.1c0-0.6,0.398-1,0.398-1c0.2-0.2,0.5-0.4,0.9-0.4c0.3,0,0.6,0.102,0.8,0.4C123.7,75.6,124,76,124,76.699L124,76.699z
	 M115.301,72.199c0,0.2,0.1,0.4,0.3,0.4l0,0h0.5l-0.102,2.8c-0.1-0.1-0.198-0.2-0.198-0.2c-0.302-0.398-0.602-0.5-1-0.5
	c-1.102,0-2,0.9-2,2v1.5c0,1.102,0.898,2,2,2c0.698,0,1-0.3,1.198-0.5c0-0.1,0.102-0.1,0.2-0.1c0.102,0,0.2,0.1,0.2,0.2v0.1
	c0,0.102,0.1,0.102,0.2,0.102c0.1,0,0.2-0.102,0.2-0.2v-8l-1.1-0.102C115.5,71.8,115.301,72,115.301,72.199z M116.101,78.1
	c0,0.7-0.602,1.3-1.2,1.3c-0.7,0-1.2-0.6-1.2-1.3v-1.5c0-0.7,0.5-1.2,1.2-1.2s1.2,0.602,1.2,1.3V78.1z M23,27.899
	c2.5,0,4.602-1.5,4.602-4.1V4.6c0-2.5-2-4.6-4.602-4.6c-2.5,0-4.6,2.1-4.6,4.6v19.3C18.4,26.399,20.5,27.899,23,27.899z M141,20
	c-1.398-1.4-3.6-1.302-3.6-1.302s-2.2-0.1-3.6,1.302c-1,0.898-0.9,2.6-0.9,2.6v2.3c0,0-0.1,1.602,0.9,2.5c1.398,1.3,3.6,1.3,3.6,1.3
	s2.2,0.102,3.6-1.3c1-1,0.9-2.5,0.9-2.5v-2.3C142,22.5,142,20.899,141,20z M104.601,33.399c0-7.898-6.602-11-6.602-11
	c3.102-2.1,4.802-6.6,4.7-9.5C102.101,0.8,90.7,0.1,90.7,0.1H61.5c-2.5,0-4.5,2.1-4.5,4.6s2,4.602,4.5,4.602h27.2
	c2.602,0,4.602,2.1,4.602,4.6c-0.001,2.6-2.102,4.6-4.602,4.6H78.4c-2.5,0-4.6,2-4.6,4.6c0,2.5,2,4.6,4.6,4.6h12.4
	c2.5,0,4.6,2,4.6,4.5s-2,4.5-4.6,4.5H78.4c-2.5,0-4.6,2.102-4.6,4.602s2.1,4.6,4.6,4.6h13C98.601,46,104.601,40.899,104.601,33.399z
	 M41.4,0c-2.5,0-4.6,2.1-4.6,4.6v21.5c0,0,0.198,4.4-2.9,7c-4.2,3.8-10.9,3.6-10.9,3.6s-6.699,0.2-10.899-3.6
	c-3.102-2.6-2.9-7-2.9-7V4.6c0-2.5-2.1-4.6-4.6-4.6S0,2.1,0,4.6v24.6c0,4.7,3.301,10.801,8.801,13.5C14,45.199,18.5,46,22.9,46
	c4.5,0,8.9-0.802,14.2-3.302c5.5-2.698,8.8-8.8,8.8-13.5V4.6C46,2.1,43.9,0,41.4,0z M66.101,41.399V23.1c0-2.5-2-4.6-4.602-4.6
	c-2.5,0-4.6,2.1-4.6,4.6v18.3c0,2.5,2,4.602,4.6,4.602C64,46,66.101,43.899,66.101,41.399z"/>
<path d="M151.4,3.899c-5.2-2.6-9.6-3.3-14.1-3.3s-8.9,0.8-14.101,3.3c-5.5,2.7-8.8,8.8-8.8,13.4v12.5c0,4.6,3.3,10.7,8.8,13.398
	c5.2,2.602,9.7,3.302,14.102,3.302c4.5,0,8.898-0.802,14.1-3.302c5.5-2.698,8.8-8.8,8.8-13.398v-12.4
	C160.2,12.699,156.9,6.6,151.4,3.899z M148.2,33.8c-4.2,3.8-10.898,3.6-10.898,3.6s-6.7,0.2-10.9-3.6c-3.1-2.602-2.8-7-2.8-7v-6.4
	c0,0-0.2-4.398,2.8-7.1c4.2-3.8,10.9-3.602,10.9-3.602S144,9.5,148.2,13.3c3.102,2.6,2.9,7.1,2.9,7.1v6.4
	C151.101,26.8,151.301,31.199,148.2,33.8z"/>
</svg>
