<?xml version="1.0" encoding="utf-8"?>
<!-- Generator: Adobe Illustrator 15.0.0, SVG Export Plug-In  -->
<!DOCTYPE svg PUBLIC "-//W3C//DTD SVG 1.1//EN" "http://www.w3.org/Graphics/SVG/1.1/DTD/svg11.dtd" [
	<!ENTITY ns_flows "http://ns.adobe.com/Flows/1.0/">
]>
<svg version="1.1"
	 xmlns="http://www.w3.org/2000/svg" xmlns:xlink="http://www.w3.org/1999/xlink" xmlns:a="http://ns.adobe.com/AdobeSVGViewerExtensions/3.0/"
	 x="0px" y="0px" width="249px" height="147px" viewBox="0 0 249 147" overflow="visible" enable-background="new 0 0 249 147"
	 xml:space="preserve">
<defs>
</defs>
<path fill="#010101" d="M3.942,83.666v17.919H0.005V83.666H3.942z"/>
<path fill="#010101" d="M12.787,83.666l4.189,12.32h0.049l3.964-12.32h5.549v17.919h-3.69V88.886H22.8l-4.387,12.699H15.37
	l-4.387-12.573h-0.049v12.573H7.238V83.666H12.787z"/>
<path fill="#010101" d="M28.272,86.982v-3.289h14.679v3.289h-5.39v14.608h-3.942V86.982H28.272z"/>
<path fill="#010101" d="M60.926,83.666l6.701,17.919h-4.09l-1.354-3.991h-6.701l-1.404,3.991h-3.964l6.777-17.919H60.926z
	 M61.15,94.633l-2.259-6.58h-0.049l-2.336,6.58H61.15z"/>
<path fill="#010101" d="M75.358,88.611v2.385h-2.61v6.428c-0.196,0.637,0.161,1.312,0.798,1.508c0.231,0.07,0.479,0.07,0.71,0
	c0.201,0,0.393,0,0.576,0c0.184-0.016,0.368-0.041,0.548-0.077v2.741c-0.332,0.053-0.667,0.086-1.003,0.1c-0.366,0-0.731,0-1.097,0
	c-0.525,0.001-1.049-0.038-1.568-0.115c-0.458-0.063-0.901-0.213-1.305-0.439c-0.377-0.219-0.685-0.54-0.889-0.926
	c-0.237-0.492-0.348-1.034-0.323-1.58v-7.677h-2.161v-2.385h2.161v-3.888h3.564v3.888L75.358,88.611z"/>
<path fill="#010101" d="M80.787,83.666v17.919h-3.564V83.666H80.787z"/>
<path fill="#010101" d="M83.375,92.604c0.019-0.738,0.234-1.457,0.625-2.084c0.359-0.545,0.84-1.002,1.404-1.332
	c0.595-0.344,1.244-0.585,1.919-0.713c0.706-0.143,1.424-0.213,2.144-0.214c0.664,0.001,1.327,0.046,1.985,0.138
	c0.636,0.084,1.254,0.27,1.832,0.548c0.535,0.249,1,0.626,1.354,1.097c0.383,0.557,0.576,1.223,0.548,1.897v6.75
	c-0.002,0.562,0.031,1.124,0.099,1.683c0.031,0.422,0.151,0.834,0.351,1.207h-3.613c-0.068-0.201-0.123-0.406-0.165-0.614
	c-0.042-0.212-0.072-0.427-0.088-0.642c-0.552,0.575-1.243,0.998-2.007,1.229c-0.764,0.232-1.559,0.352-2.357,0.351
	c-0.585,0.005-1.168-0.071-1.733-0.226c-0.51-0.137-0.987-0.376-1.404-0.701c-0.405-0.322-0.728-0.735-0.943-1.207
	c-0.239-0.545-0.354-1.137-0.34-1.732c-0.023-0.629,0.11-1.255,0.39-1.82c0.24-0.454,0.583-0.845,1.003-1.141
	c0.427-0.293,0.902-0.51,1.403-0.641c0.526-0.143,1.058-0.256,1.596-0.341c0.534-0.084,1.061-0.151,1.58-0.202
	c0.465-0.041,0.927-0.117,1.382-0.226c0.346-0.074,0.672-0.224,0.954-0.438c0.239-0.209,0.36-0.523,0.323-0.839
	c0.016-0.315-0.049-0.631-0.187-0.916c-0.115-0.226-0.289-0.415-0.504-0.548c-0.224-0.131-0.472-0.217-0.729-0.252
	c-0.294-0.043-0.591-0.062-0.889-0.061c-0.582-0.031-1.159,0.126-1.645,0.449c-0.44,0.379-0.696,0.928-0.702,1.508L83.375,92.604z
	 M91.6,95.24c-0.16,0.141-0.347,0.246-0.549,0.313c-0.239,0.077-0.482,0.14-0.729,0.187c-0.26,0.051-0.532,0.093-0.817,0.126
	c-0.285,0.032-0.57,0.075-0.856,0.126c-0.267,0.051-0.531,0.119-0.79,0.203c-0.243,0.075-0.473,0.19-0.68,0.34
	c-0.195,0.145-0.354,0.333-0.466,0.549c-0.126,0.257-0.187,0.541-0.176,0.828c-0.009,0.277,0.052,0.552,0.176,0.8
	c0.11,0.211,0.275,0.389,0.477,0.516c0.215,0.131,0.453,0.22,0.702,0.263c0.273,0.052,0.55,0.078,0.828,0.077
	c0.57,0.034,1.139-0.087,1.645-0.351c0.353-0.201,0.647-0.49,0.855-0.84c0.177-0.305,0.292-0.643,0.34-0.992
	c0.036-0.266,0.056-0.533,0.06-0.801L91.6,95.24z"/>
<path fill="#010101" d="M101.267,88.611v1.81h0.077c0.407-0.712,1.019-1.284,1.755-1.645c0.684-0.334,1.433-0.511,2.193-0.516
	c0.8-0.027,1.598,0.104,2.347,0.39c0.569,0.231,1.066,0.609,1.442,1.096c0.368,0.5,0.622,1.074,0.74,1.684
	c0.148,0.723,0.22,1.457,0.214,2.193v7.979h-3.564V94.26c0.054-0.83-0.121-1.659-0.504-2.396c-0.41-0.562-1.09-0.864-1.783-0.789
	c-0.801-0.072-1.586,0.251-2.105,0.866c-0.435,0.577-0.652,1.526-0.652,2.845v6.8h-3.548V88.611H101.267z"/>
<path fill="#010101" d="M119.724,88.611v2.385h-2.61v6.428c-0.196,0.637,0.161,1.312,0.798,1.508c0.231,0.07,0.479,0.07,0.71,0
	c0.201,0,0.393,0,0.576,0c0.184-0.016,0.367-0.041,0.548-0.077v2.741c-0.333,0.053-0.667,0.086-1.003,0.1c-0.366,0-0.731,0-1.097,0
	c-0.525,0.001-1.049-0.038-1.568-0.115c-0.458-0.063-0.901-0.213-1.305-0.439c-0.377-0.219-0.685-0.54-0.888-0.926
	c-0.237-0.492-0.348-1.034-0.324-1.58v-7.677h-2.16v-2.385h2.16v-3.888h3.564v3.888L119.724,88.611z"/>
<path fill="#010101" d="M121.594,86.604v-2.934h3.564v2.934H121.594z M125.158,88.611v12.974h-3.564V88.611H125.158z"/>
<path fill="#010101" d="M136.98,106.131v-6.174h-0.05c-0.397,0.687-1.016,1.218-1.755,1.508c-0.742,0.299-1.535,0.451-2.335,0.449
	c-0.639-0.006-1.271-0.121-1.87-0.34c-0.667-0.24-1.272-0.625-1.771-1.129c-0.581-0.598-1.034-1.307-1.333-2.084
	c-0.385-1.014-0.57-2.092-0.548-3.176c-0.001-0.872,0.116-1.741,0.352-2.582c0.222-0.803,0.595-1.557,1.097-2.221
	c1.025-1.384,2.664-2.177,4.387-2.122c0.78-0.004,1.554,0.155,2.27,0.466c0.705,0.316,1.283,0.859,1.646,1.541h0.049v-1.645h3.39
	v17.52L136.98,106.131z M131.059,96.634c0.091,0.472,0.266,0.923,0.515,1.333c0.235,0.389,0.563,0.712,0.955,0.942
	c0.448,0.249,0.957,0.37,1.469,0.352c0.512,0.018,1.019-0.1,1.47-0.341c0.387-0.22,0.714-0.529,0.954-0.904
	c0.26-0.398,0.445-0.841,0.549-1.305c0.217-1.005,0.217-2.045,0-3.049c-0.1-0.477-0.273-0.934-0.516-1.355
	c-0.23-0.397-0.555-0.734-0.943-0.98c-0.427-0.262-0.92-0.393-1.42-0.379c-0.516-0.017-1.027,0.104-1.48,0.352
	c-0.398,0.23-0.735,0.554-0.981,0.943c-0.261,0.407-0.446,0.858-0.549,1.332c-0.11,0.506-0.166,1.022-0.165,1.541
	c-0.004,0.508,0.042,1.015,0.138,1.513L131.059,96.634z"/>
<path fill="#010101" d="M151.966,101.585v-1.81h-0.076c-0.403,0.715-1.016,1.289-1.754,1.645c-0.686,0.327-1.436,0.5-2.194,0.506
	c-0.799,0.025-1.596-0.104-2.347-0.379c-0.568-0.221-1.066-0.59-1.442-1.069c-0.368-0.499-0.622-1.074-0.74-1.684
	c-0.148-0.722-0.22-1.456-0.214-2.192v-7.99h3.564v7.326c-0.055,0.83,0.12,1.658,0.505,2.396c0.409,0.562,1.089,0.863,1.782,0.789
	c0.801,0.072,1.586-0.252,2.105-0.866c0.435-0.577,0.652-1.526,0.652-2.847v-6.799h3.564v12.974H151.966z"/>
<path fill="#010101" d="M161.848,98.477c1.202,0.943,2.865,1.037,4.167,0.235c0.438-0.261,0.775-0.663,0.954-1.141h3.137
	c-0.354,1.35-1.172,2.531-2.309,3.34c-1.13,0.694-2.44,1.044-3.767,1.003c-0.938,0.012-1.867-0.153-2.742-0.488
	c-0.789-0.305-1.5-0.78-2.084-1.393c-0.581-0.623-1.028-1.357-1.315-2.16c-0.316-0.879-0.474-1.808-0.466-2.742
	c-0.008-0.924,0.153-1.842,0.477-2.708c0.6-1.631,1.848-2.939,3.449-3.614c0.852-0.367,1.77-0.554,2.697-0.548
	c1-0.022,1.989,0.197,2.885,0.642c0.797,0.409,1.488,0.998,2.018,1.722c0.535,0.739,0.924,1.575,1.141,2.462
	c0.236,0.942,0.321,1.916,0.252,2.885h-9.376C160.929,96.887,161.245,97.784,161.848,98.477z M165.872,91.649
	c-0.518-0.503-1.227-0.759-1.946-0.702c-0.489-0.016-0.977,0.084-1.421,0.291c-0.349,0.17-0.657,0.413-0.904,0.713
	c-0.217,0.268-0.379,0.574-0.477,0.904c-0.086,0.279-0.141,0.565-0.165,0.855h5.796C166.657,92.955,166.352,92.242,165.872,91.649z"
	/>
<path fill="#010101" d="M0.017,110.304h5.949c1.623,0,2.776,0.48,3.46,1.442c0.405,0.576,0.616,1.265,0.604,1.969
	c0.032,0.78-0.233,1.545-0.74,2.139c-0.312,0.335-0.684,0.608-1.097,0.806c0.583,0.196,1.122,0.505,1.585,0.91
	c0.638,0.662,0.97,1.561,0.916,2.479c0.002,0.874-0.293,1.724-0.839,2.407c-0.837,1.074-2.166,1.612-3.986,1.612H0.017V110.304z
	 M5.27,116.133c0.635,0.029,1.268-0.083,1.854-0.329c0.701-0.345,1.118-1.086,1.047-1.864c0.074-0.781-0.371-1.521-1.097-1.82
	c-0.596-0.203-1.225-0.293-1.854-0.264H1.843v4.277H5.27z M5.9,122.488c1.155,0,1.978-0.332,2.467-0.993
	c0.317-0.441,0.481-0.976,0.466-1.519c0.062-0.909-0.493-1.748-1.354-2.045c-0.61-0.216-1.256-0.314-1.903-0.291H1.843v4.848H5.9z"
	/>
<path fill="#010101" d="M12.562,114.032h1.601v1.733c0.233-0.474,0.562-0.894,0.965-1.234c0.471-0.467,1.108-0.727,1.771-0.724
	h0.159l0.384,0.038v1.783l-0.274-0.039h-0.274c-0.745-0.044-1.468,0.26-1.958,0.822c-0.449,0.525-0.692,1.195-0.685,1.887v5.773
	h-1.689V114.032z"/>
<path fill="#010101" d="M24.818,114.307c0.613,0.29,1.137,0.738,1.519,1.3c0.346,0.536,0.574,1.14,0.669,1.771
	c0.118,0.726,0.167,1.46,0.148,2.193h-7.298c-0.013,0.873,0.237,1.729,0.718,2.457c0.49,0.639,1.27,0.987,2.073,0.927
	c0.794,0.034,1.562-0.287,2.094-0.878c0.293-0.341,0.505-0.744,0.62-1.178h1.645c-0.055,0.443-0.194,0.874-0.411,1.266
	c-0.218,0.406-0.497,0.777-0.828,1.098c-0.521,0.508-1.175,0.858-1.886,1.014c-0.448,0.104-0.906,0.154-1.366,0.148
	c-1.2,0.018-2.35-0.479-3.158-1.365c-0.92-1.06-1.385-2.439-1.294-3.839c-0.063-1.425,0.401-2.823,1.305-3.926
	c0.848-0.997,2.104-1.552,3.411-1.508C23.489,113.797,24.188,113.976,24.818,114.307z M25.421,118.25
	c-0.033-0.612-0.193-1.21-0.472-1.756c-0.465-0.816-1.36-1.291-2.297-1.217c-0.734-0.014-1.438,0.293-1.93,0.839
	c-0.531,0.584-0.826,1.344-0.828,2.134H25.421z"/>
<path fill="#010101" d="M29.336,111.23h1.706v2.802h1.584v1.376h-1.601v6.553c-0.034,0.285,0.106,0.562,0.356,0.702
	c0.209,0.083,0.434,0.119,0.658,0.104h0.263l0.329-0.033v1.338c-0.197,0.057-0.399,0.098-0.603,0.121
	c-0.226,0.025-0.453,0.039-0.68,0.038c-0.601,0.076-1.2-0.149-1.602-0.603c-0.299-0.467-0.446-1.015-0.422-1.568v-6.652h-1.36
	v-1.376h1.371V111.23z"/>
<path fill="#010101" d="M39.541,117.997c0.328-0.011,0.625-0.197,0.778-0.487c0.084-0.205,0.121-0.427,0.11-0.647
	c0.039-0.499-0.197-0.98-0.614-1.256c-0.538-0.29-1.145-0.425-1.755-0.39c-0.703-0.075-1.398,0.191-1.87,0.719
	c-0.236,0.35-0.375,0.757-0.4,1.179h-1.574c0.029-1.239,0.43-2.103,1.201-2.588c0.806-0.495,1.736-0.749,2.682-0.729
	c1.001-0.044,1.996,0.189,2.873,0.674c0.728,0.442,1.149,1.251,1.097,2.101v5.779c-0.006,0.148,0.032,0.296,0.11,0.423
	c0.119,0.12,0.287,0.179,0.455,0.158h0.252l0.301-0.043v1.244c-0.196,0.061-0.396,0.108-0.598,0.143
	c-0.182,0.021-0.365,0.029-0.548,0.027c-0.503,0.039-0.989-0.197-1.267-0.619c-0.159-0.286-0.258-0.602-0.291-0.927
	c-0.4,0.496-0.906,0.897-1.48,1.173c-0.659,0.336-1.389,0.507-2.127,0.5c-0.843,0.033-1.664-0.271-2.281-0.845
	c-0.585-0.549-0.908-1.321-0.888-2.122c-0.045-0.814,0.274-1.605,0.872-2.161c0.648-0.539,1.446-0.868,2.287-0.942L39.541,117.997z
	 M35.987,122.554c0.361,0.282,0.809,0.433,1.267,0.422c0.599-0.001,1.188-0.142,1.722-0.411c0.888-0.381,1.447-1.271,1.404-2.237
	v-1.354c-0.247,0.148-0.516,0.26-0.795,0.329c-0.313,0.086-0.632,0.147-0.954,0.187l-1.02,0.132
	c-0.479,0.044-0.945,0.173-1.376,0.384c-0.513,0.275-0.819,0.822-0.784,1.404c-0.015,0.447,0.188,0.873,0.542,1.146H35.987z"/>
<path fill="#010101" d="M50.135,114.438c0.369,0.269,0.696,0.59,0.97,0.954v-1.267h1.557v9.136c0.051,1.033-0.137,2.065-0.548,3.016
	c-0.698,1.363-2.015,2.045-3.948,2.045c-0.966,0.037-1.921-0.218-2.742-0.729c-0.752-0.515-1.211-1.358-1.234-2.271h1.716
	c0.05,0.389,0.219,0.753,0.482,1.043c0.501,0.41,1.143,0.607,1.788,0.548c1.287,0,2.129-0.457,2.528-1.371
	c0.288-0.931,0.397-1.907,0.323-2.879c-0.299,0.479-0.716,0.875-1.212,1.146c-1.588,0.709-3.447,0.4-4.721-0.784
	c-0.811-0.771-1.217-2.051-1.217-3.839c-0.085-1.418,0.352-2.818,1.229-3.937c0.722-0.898,1.813-1.419,2.966-1.415
	C48.805,113.824,49.524,114.034,50.135,114.438z M50.343,116.248c-0.476-0.584-1.193-0.916-1.947-0.899
	c-1.086-0.063-2.081,0.612-2.423,1.646c-0.255,0.751-0.372,1.542-0.345,2.336c-0.062,0.912,0.179,1.82,0.686,2.582
	c0.43,0.582,1.119,0.914,1.842,0.889c1.114,0.059,2.141-0.605,2.544-1.646c0.287-0.685,0.427-1.423,0.411-2.165
	c0.073-0.979-0.199-1.949-0.768-2.748V116.248z"/>
<path fill="#010101" d="M54.96,114.032h1.601v1.427c0.403-0.529,0.918-0.962,1.508-1.268c0.553-0.261,1.16-0.393,1.771-0.384
	c1.426,0,2.388,0.497,2.885,1.491c0.312,0.738,0.452,1.537,0.411,2.336v6.438h-1.716v-6.328c0.019-0.508-0.074-1.013-0.274-1.48
	c-0.295-0.628-0.954-1.003-1.645-0.938c-0.331-0.009-0.662,0.032-0.981,0.121c-0.478,0.148-0.901,0.435-1.217,0.822
	c-0.262,0.294-0.449,0.646-0.549,1.025c-0.098,0.498-0.14,1.006-0.126,1.514v5.259h-1.689L54.96,114.032z"/>
<path fill="#010101" d="M71.613,114.307c0.613,0.29,1.138,0.738,1.519,1.3c0.346,0.536,0.574,1.14,0.669,1.771
	c0.118,0.726,0.168,1.46,0.148,2.193h-7.326c-0.013,0.873,0.237,1.729,0.718,2.457c0.49,0.639,1.27,0.987,2.073,0.927
	c0.794,0.034,1.562-0.287,2.095-0.878c0.292-0.341,0.504-0.744,0.62-1.178h1.645c-0.065,0.434-0.212,0.853-0.434,1.233
	c-0.217,0.406-0.496,0.776-0.827,1.097c-0.522,0.508-1.176,0.859-1.887,1.014c-0.448,0.104-0.906,0.154-1.365,0.148
	c-1.2,0.018-2.35-0.479-3.158-1.365c-0.921-1.059-1.386-2.438-1.294-3.839c-0.063-1.425,0.401-2.822,1.305-3.926
	c0.848-0.997,2.103-1.552,3.41-1.508C70.254,113.766,70.971,113.956,71.613,114.307z M72.216,118.25
	c-0.033-0.612-0.193-1.21-0.471-1.756c-0.465-0.816-1.361-1.291-2.298-1.217c-0.734-0.014-1.438,0.293-1.93,0.839
	c-0.531,0.584-0.826,1.344-0.828,2.134H72.216z"/>
<path fill="#010101" d="M76.981,117.854h4.705v1.732h-4.705V117.854z"/>
<path fill="#010101" d="M85.546,110.304h6.158c1.08-0.049,2.138,0.323,2.95,1.036c0.769,0.768,1.168,1.828,1.096,2.912
	c0.017,1.026-0.339,2.024-1.003,2.808c-0.668,0.797-1.69,1.195-3.065,1.195h-4.299v5.817h-1.864L85.546,110.304z M92.779,112.195
	c-0.534-0.217-1.108-0.315-1.684-0.29h-3.685v4.776h3.685c0.715,0.027,1.421-0.164,2.023-0.549c0.565-0.455,0.858-1.166,0.779-1.887
	C93.982,113.398,93.538,112.584,92.779,112.195z"/>
<path fill="#010101" d="M102.019,117.997c0.328-0.011,0.625-0.197,0.778-0.487c0.084-0.205,0.122-0.427,0.11-0.647
	c0.039-0.499-0.196-0.98-0.614-1.256c-0.538-0.29-1.145-0.425-1.755-0.39c-0.703-0.075-1.398,0.191-1.87,0.719
	c-0.236,0.35-0.375,0.757-0.4,1.179h-1.573c0.029-1.239,0.429-2.103,1.201-2.588c0.805-0.495,1.736-0.749,2.681-0.729
	c1.001-0.044,1.996,0.189,2.873,0.674c0.728,0.442,1.15,1.251,1.097,2.101v5.779c-0.006,0.148,0.032,0.296,0.11,0.423
	c0.119,0.12,0.287,0.179,0.455,0.158h0.252l0.302-0.043v1.244c-0.196,0.061-0.396,0.108-0.598,0.143
	c-0.182,0.021-0.365,0.029-0.548,0.027c-0.504,0.039-0.989-0.197-1.267-0.619c-0.159-0.286-0.258-0.602-0.291-0.927
	c-0.4,0.496-0.906,0.897-1.48,1.173c-0.659,0.336-1.389,0.507-2.127,0.5c-0.843,0.033-1.664-0.271-2.281-0.845
	c-0.585-0.549-0.908-1.321-0.888-2.122c-0.045-0.814,0.274-1.605,0.872-2.161c0.648-0.539,1.446-0.868,2.287-0.942L102.019,117.997z
	 M98.465,122.554c0.36,0.282,0.808,0.433,1.266,0.422c0.599-0.001,1.188-0.142,1.722-0.411c0.888-0.381,1.447-1.271,1.403-2.237
	v-1.354c-0.247,0.148-0.515,0.26-0.794,0.329c-0.313,0.086-0.632,0.147-0.955,0.187l-1.02,0.132
	c-0.479,0.044-0.945,0.173-1.376,0.384c-0.513,0.275-0.819,0.822-0.784,1.404C97.912,121.854,98.112,122.28,98.465,122.554z"/>
<path fill="#010101" d="M112.963,114.032h1.864c-0.237,0.644-0.766,2.106-1.584,4.388c-0.614,1.725-1.126,3.131-1.536,4.216
	c-0.972,2.56-1.66,4.12-2.062,4.683c-0.502,0.61-1.276,0.928-2.062,0.845c-0.183,0.003-0.366-0.006-0.549-0.027
	c-0.159-0.026-0.316-0.061-0.471-0.104v-1.535c0.209,0.061,0.421,0.11,0.636,0.148c0.114,0.017,0.229,0.025,0.345,0.027
	c0.239,0.018,0.477-0.036,0.686-0.154c0.145-0.102,0.27-0.229,0.368-0.377c0.029-0.052,0.141-0.308,0.334-0.769
	c0.194-0.46,0.348-0.799,0.461-1.015l-3.712-10.33h1.914l2.692,8.176L112.963,114.032z"/>
<path fill="#010101" d="M116.928,120.92c0.016,0.463,0.164,0.912,0.428,1.294c0.435,0.544,1.188,0.817,2.259,0.817
	c0.587,0.013,1.167-0.127,1.684-0.406c0.469-0.242,0.754-0.734,0.729-1.262c0.005-0.41-0.219-0.788-0.581-0.98
	c-0.469-0.213-0.96-0.373-1.464-0.478l-1.36-0.34c-0.674-0.138-1.324-0.378-1.925-0.713c-0.688-0.38-1.109-1.106-1.097-1.892
	c-0.027-0.888,0.357-1.738,1.042-2.304c0.795-0.622,1.788-0.935,2.796-0.882c1.532,0,2.628,0.443,3.29,1.332
	c0.41,0.518,0.629,1.16,0.62,1.82h-1.596c-0.031-0.379-0.174-0.739-0.411-1.037c-0.395-0.441-1.082-0.663-2.062-0.663
	c-0.519-0.034-1.036,0.091-1.48,0.362c-0.32,0.213-0.511,0.574-0.504,0.959c0.005,0.447,0.262,0.853,0.664,1.048
	c0.352,0.192,0.731,0.331,1.124,0.411l1.135,0.274c0.866,0.161,1.703,0.448,2.484,0.855c0.667,0.454,1.041,1.229,0.981,2.034
	c0.004,0.884-0.372,1.727-1.031,2.314c-0.688,0.65-1.733,0.976-3.137,0.976c-1.513,0-2.584-0.339-3.213-1.015
	c-0.631-0.688-0.99-1.583-1.008-2.517L116.928,120.92z"/>
<path fill="#010101" d="M136.366,114.34c0.389,0.271,0.733,0.603,1.02,0.98v-5.071h1.646v13.812h-1.519v-1.398
	c-0.336,0.563-0.816,1.026-1.393,1.339c-0.571,0.281-1.201,0.423-1.838,0.41c-1.129-0.006-2.193-0.523-2.895-1.408
	c-0.855-1.058-1.291-2.393-1.223-3.751c-0.039-1.351,0.345-2.679,1.096-3.8c0.71-1.055,1.917-1.663,3.186-1.607
	C135.12,113.825,135.786,113.996,136.366,114.34z M132.599,121.863c0.473,0.742,1.316,1.164,2.193,1.097
	c0.768,0.005,1.484-0.374,1.914-1.009c0.553-0.859,0.816-1.871,0.752-2.891c0.079-1-0.194-1.998-0.773-2.818
	c-0.462-0.585-1.169-0.923-1.914-0.916c-0.802-0.021-1.565,0.342-2.057,0.977c-0.582,0.838-0.86,1.85-0.789,2.867
	c-0.035,0.945,0.199,1.881,0.674,2.698V121.863z"/>
<path fill="#010101" d="M147.53,114.307c0.613,0.29,1.138,0.738,1.52,1.3c0.346,0.536,0.574,1.14,0.668,1.771
	c0.119,0.726,0.168,1.46,0.148,2.193h-7.299c-0.013,0.873,0.238,1.729,0.719,2.457c0.49,0.639,1.27,0.987,2.072,0.927
	c0.795,0.034,1.562-0.287,2.096-0.878c0.292-0.341,0.504-0.744,0.619-1.178h1.645c-0.064,0.434-0.212,0.853-0.433,1.233
	c-0.218,0.406-0.497,0.776-0.828,1.097c-0.521,0.508-1.175,0.859-1.886,1.014c-0.448,0.104-0.906,0.154-1.365,0.148
	c-1.2,0.018-2.351-0.479-3.159-1.365c-0.92-1.059-1.386-2.438-1.294-3.839c-0.063-1.425,0.401-2.822,1.305-3.926
	c0.848-0.996,2.104-1.551,3.411-1.508C146.19,113.771,146.897,113.961,147.53,114.307z M148.134,118.25
	c-0.033-0.612-0.193-1.21-0.472-1.756c-0.466-0.816-1.36-1.291-2.298-1.217c-0.736-0.016-1.443,0.291-1.936,0.839
	c-0.53,0.584-0.826,1.344-0.828,2.134H148.134z"/>
<path fill="#010101" d="M157.384,110.304h1.689v13.764h-1.689V110.304z"/>
<path fill="#010101" d="M166.7,117.997c0.328-0.011,0.625-0.197,0.779-0.487c0.086-0.205,0.125-0.426,0.114-0.647
	c0.045-0.509-0.195-1.001-0.625-1.278c-0.537-0.289-1.145-0.425-1.755-0.389c-0.702-0.076-1.398,0.191-1.869,0.718
	c-0.236,0.351-0.375,0.757-0.4,1.179h-1.574c0.029-1.238,0.43-2.102,1.201-2.588c0.806-0.494,1.736-0.748,2.682-0.729
	c1.002-0.045,1.996,0.189,2.873,0.674c0.727,0.442,1.149,1.251,1.097,2.1v5.78c-0.007,0.148,0.031,0.296,0.109,0.422
	c0.119,0.12,0.287,0.179,0.456,0.159h0.252l0.301-0.044v1.245c-0.195,0.061-0.395,0.107-0.598,0.143
	c-0.182,0.021-0.365,0.029-0.548,0.027c-0.503,0.039-0.989-0.198-1.267-0.619c-0.16-0.286-0.259-0.602-0.291-0.928
	c-0.4,0.496-0.906,0.897-1.48,1.174c-0.658,0.336-1.389,0.507-2.127,0.499c-0.843,0.034-1.664-0.271-2.281-0.845
	c-0.585-0.549-0.908-1.32-0.889-2.122c-0.045-0.813,0.274-1.605,0.872-2.16c0.649-0.539,1.446-0.868,2.286-0.943L166.7,117.997z
	 M163.131,122.554c0.36,0.282,0.808,0.433,1.267,0.422c0.598-0.001,1.188-0.142,1.721-0.411c0.889-0.381,1.448-1.271,1.404-2.237
	v-1.354c-0.247,0.149-0.515,0.26-0.795,0.329c-0.312,0.086-0.632,0.147-0.953,0.187l-1.021,0.132
	c-0.478,0.043-0.944,0.173-1.375,0.384c-0.514,0.275-0.819,0.822-0.785,1.404C162.577,121.854,162.777,122.28,163.131,122.554z"/>
<path fill="#010101" d="M177.552,110.304h1.865v12.124h6.908v1.645h-8.773V110.304z"/>
<path fill="#010101" d="M194.66,115.036c0.888,0.862,1.333,2.13,1.333,3.8c0.057,1.428-0.355,2.836-1.174,4.008
	c-0.783,1.057-1.994,1.586-3.636,1.586c-1.253,0.062-2.466-0.453-3.29-1.398c-0.852-1.062-1.283-2.402-1.212-3.762
	c-0.073-1.452,0.381-2.881,1.278-4.025c0.851-1,2.114-1.552,3.426-1.496C192.607,113.715,193.789,114.18,194.66,115.036z
	 M193.612,121.704c0.419-0.882,0.629-1.849,0.615-2.824c0.029-0.784-0.122-1.565-0.445-2.281c-0.449-0.915-1.412-1.465-2.429-1.388
	c-0.905-0.062-1.769,0.395-2.226,1.18c-0.486,0.867-0.727,1.852-0.697,2.846c-0.034,0.939,0.208,1.867,0.697,2.67
	c0.486,0.723,1.323,1.131,2.193,1.069C192.275,123.072,193.188,122.564,193.612,121.704z"/>
<path fill="#010101" d="M197.846,110.304h1.716v1.914h-1.716V110.304z M197.846,114.082h1.716v9.99h-1.716V114.082z"/>
<path fill="#010101" d="M201.876,114.032h1.602v1.733c0.233-0.474,0.562-0.894,0.965-1.234c0.472-0.466,1.108-0.727,1.771-0.724
	h0.158l0.385,0.038v1.783l-0.274-0.039h-0.274c-0.744-0.044-1.468,0.26-1.957,0.822c-0.449,0.525-0.693,1.195-0.686,1.887v5.773
	h-1.689V114.032z"/>
<path fill="#010101" d="M214.126,114.307c0.613,0.29,1.138,0.738,1.52,1.3c0.346,0.536,0.574,1.14,0.668,1.771
	c0.119,0.726,0.168,1.46,0.148,2.193h-7.271c-0.014,0.873,0.237,1.729,0.718,2.457c0.49,0.639,1.27,0.987,2.072,0.927
	c0.795,0.034,1.562-0.287,2.096-0.878c0.293-0.341,0.504-0.744,0.619-1.178h1.645c-0.064,0.434-0.212,0.853-0.433,1.233
	c-0.218,0.406-0.497,0.776-0.828,1.097c-0.521,0.508-1.175,0.859-1.886,1.014c-0.448,0.104-0.906,0.154-1.365,0.148
	c-1.2,0.018-2.351-0.479-3.159-1.365c-0.92-1.059-1.386-2.438-1.294-3.839c-0.063-1.425,0.401-2.822,1.305-3.926
	c0.848-0.996,2.104-1.551,3.411-1.508C212.804,113.775,213.501,113.965,214.126,114.307z M214.729,118.25
	c-0.033-0.612-0.193-1.21-0.472-1.756c-0.465-0.816-1.36-1.291-2.298-1.217c-0.736-0.016-1.443,0.291-1.936,0.839
	c-0.531,0.584-0.826,1.344-0.828,2.134H214.729z"/>
<path fill="#010101" d="M0.022,132.785h9.991v1.689H1.837v4.178h7.556v1.607H1.837v4.666h8.307v1.646H0.022V132.785z M7.222,128.991
	l-2.5,2.708H3.422l1.716-2.708H7.222z"/>
<path fill="#010101" d="M18.506,137.046c0.709,0.549,1.135,1.495,1.278,2.841h-1.645c-0.078-0.568-0.316-1.103-0.686-1.541
	c-0.454-0.447-1.082-0.672-1.716-0.614c-1.028-0.03-1.958,0.605-2.303,1.574c-0.322,0.799-0.475,1.655-0.45,2.517
	c-0.031,0.889,0.189,1.77,0.636,2.539c0.797,1.109,2.343,1.361,3.452,0.564c0.076-0.055,0.148-0.113,0.217-0.176
	c0.446-0.49,0.745-1.096,0.861-1.749h1.645c-0.062,2.188-1.887,3.913-4.076,3.851c-0.069-0.003-0.137-0.006-0.207-0.012
	c-1.215,0.046-2.381-0.487-3.142-1.437c-0.804-1.021-1.22-2.294-1.173-3.592c0-1.763,0.427-3.134,1.283-4.112
	c0.815-0.965,2.027-1.506,3.29-1.47C16.748,136.189,17.711,136.477,18.506,137.046z"/>
<path fill="#010101" d="M28.788,137.518c0.889,0.863,1.333,2.13,1.333,3.801c0.055,1.428-0.357,2.834-1.173,4.008
	c-0.782,1.057-1.996,1.584-3.641,1.584c-1.253,0.062-2.465-0.452-3.29-1.397c-0.852-1.063-1.283-2.401-1.212-3.762
	c-0.074-1.451,0.377-2.88,1.272-4.024c0.851-1,2.115-1.553,3.427-1.497C26.728,136.193,27.914,136.658,28.788,137.518z
	 M27.74,144.186c0.417-0.884,0.626-1.852,0.609-2.829c0.031-0.786-0.121-1.569-0.444-2.286c-0.451-0.915-1.413-1.464-2.429-1.388
	c-0.905-0.062-1.768,0.396-2.226,1.179c-0.486,0.868-0.727,1.852-0.696,2.846c-0.035,0.939,0.208,1.868,0.696,2.67
	c0.488,0.723,1.324,1.131,2.193,1.07c0.952,0.098,1.866-0.404,2.292-1.262H27.74z"/>
<path fill="#010101" d="M31.996,132.785h1.689v13.77h-1.689V132.785z"/>
<path fill="#010101" d="M42.228,136.789c0.613,0.289,1.138,0.738,1.519,1.299c0.346,0.536,0.574,1.141,0.668,1.771
	c0.119,0.725,0.168,1.459,0.148,2.193h-7.298c-0.013,0.873,0.237,1.729,0.718,2.457c0.49,0.639,1.27,0.986,2.073,0.926
	c0.794,0.035,1.562-0.287,2.095-0.877c0.292-0.342,0.504-0.744,0.62-1.179h1.645c-0.065,0.435-0.212,0.854-0.433,1.233
	c-0.217,0.406-0.497,0.776-0.828,1.097c-0.522,0.508-1.175,0.859-1.886,1.015c-0.448,0.104-0.906,0.154-1.366,0.148
	c-1.2,0.018-2.35-0.479-3.158-1.366c-0.92-1.059-1.385-2.438-1.294-3.838c-0.063-1.425,0.401-2.823,1.305-3.927
	c0.848-0.996,2.104-1.551,3.411-1.508C40.887,136.252,41.594,136.442,42.228,136.789z M42.831,140.731
	c-0.033-0.612-0.194-1.21-0.471-1.755c-0.465-0.817-1.36-1.292-2.298-1.217c-0.745-0.016-1.458,0.297-1.952,0.854
	c-0.531,0.584-0.826,1.345-0.828,2.134L42.831,140.731z"/>
<path fill="#010101" d="M52.208,132.785h2.67l3.959,11.643l3.948-11.643h2.654v13.77h-1.782v-8.127c0-0.281,0-0.747,0-1.398
	c0-0.65,0-1.347,0-2.088l-3.932,11.607h-1.848l-3.97-11.607v0.422c0,0.336,0.009,0.85,0.027,1.541
	c0.019,0.69,0.027,1.198,0.027,1.523v8.127H52.18L52.208,132.785z"/>
<path fill="#010101" d="M67.862,132.785h1.716v1.914h-1.716V132.785z M67.862,136.563h1.716v9.991h-1.716V136.563z"/>
<path fill="#010101" d="M71.865,136.515h1.601v1.425c0.403-0.527,0.918-0.961,1.508-1.266c0.554-0.262,1.16-0.393,1.771-0.385
	c1.426,0,2.387,0.498,2.885,1.492c0.312,0.737,0.452,1.536,0.411,2.336v6.438h-1.717v-6.328c0.02-0.508-0.074-1.014-0.274-1.48
	c-0.295-0.629-0.954-1.004-1.645-0.938c-0.331-0.01-0.662,0.031-0.981,0.121c-0.478,0.147-0.902,0.434-1.217,0.822
	c-0.261,0.293-0.449,0.645-0.548,1.025c-0.097,0.498-0.14,1.006-0.126,1.514v5.258h-1.689L71.865,136.515z"/>
<path fill="#010101" d="M88.523,136.789c0.609,0.284,1.131,0.725,1.514,1.277c0.346,0.535,0.574,1.14,0.669,1.771
	c0.119,0.725,0.168,1.459,0.148,2.193h-7.293c-0.013,0.872,0.237,1.729,0.718,2.456c0.49,0.639,1.27,0.987,2.073,0.927
	c0.794,0.034,1.562-0.287,2.095-0.877c0.292-0.342,0.504-0.745,0.62-1.18h1.645c-0.065,0.436-0.212,0.854-0.433,1.234
	c-0.217,0.406-0.497,0.776-0.828,1.096c-0.522,0.508-1.175,0.859-1.887,1.016c-0.447,0.104-0.906,0.153-1.365,0.147
	c-1.2,0.019-2.35-0.479-3.158-1.365c-0.92-1.06-1.385-2.438-1.294-3.839c-0.063-1.424,0.401-2.822,1.306-3.926
	c0.847-0.996,2.103-1.552,3.41-1.508C87.186,136.237,87.893,136.435,88.523,136.789z M89.127,140.731
	c-0.033-0.612-0.193-1.21-0.472-1.755c-0.465-0.817-1.36-1.292-2.297-1.217c-0.735-0.014-1.439,0.292-1.93,0.838
	c-0.531,0.584-0.826,1.344-0.828,2.134H89.127z"/>
<path fill="#010101" d="M93.716,143.401c0.016,0.464,0.164,0.913,0.428,1.294c0.435,0.545,1.188,0.817,2.259,0.817
	c0.587,0.013,1.167-0.127,1.684-0.405c0.468-0.242,0.753-0.734,0.729-1.262c0.005-0.41-0.219-0.789-0.581-0.981
	c-0.469-0.212-0.96-0.372-1.464-0.478l-1.36-0.34c-0.671-0.131-1.318-0.363-1.919-0.69c-0.688-0.38-1.109-1.107-1.097-1.892
	c-0.027-0.89,0.357-1.742,1.042-2.309c0.795-0.622,1.789-0.936,2.797-0.883c1.532,0,2.628,0.443,3.29,1.332
	c0.41,0.518,0.629,1.16,0.62,1.82h-1.596c-0.031-0.379-0.174-0.739-0.411-1.036c-0.395-0.442-1.082-0.663-2.062-0.663
	c-0.519-0.035-1.036,0.091-1.48,0.361c-0.321,0.213-0.511,0.575-0.504,0.96c0.005,0.446,0.262,0.853,0.664,1.048
	c0.352,0.191,0.731,0.33,1.124,0.41l1.135,0.274c0.866,0.161,1.703,0.448,2.484,0.855c0.667,0.454,1.041,1.229,0.981,2.034
	c0.004,0.884-0.372,1.727-1.031,2.314c-0.688,0.65-1.733,0.977-3.137,0.977c-1.513,0-2.584-0.339-3.213-1.016
	c-0.631-0.688-0.99-1.583-1.009-2.517L93.716,143.401z"/>
<path fill="#010101" d="M102.616,140.336h4.705v1.732h-4.705V140.336z"/>
<path fill="#010101" d="M117.399,132.785v1.646h-4.639v12.124h-1.886v-12.129h-4.639v-1.646L117.399,132.785z"/>
<path fill="#010101" d="M122.438,136.789c0.613,0.289,1.138,0.738,1.519,1.299c0.346,0.536,0.574,1.141,0.668,1.771
	c0.119,0.725,0.168,1.459,0.148,2.193h-7.299c-0.013,0.873,0.237,1.729,0.719,2.457c0.49,0.639,1.27,0.986,2.073,0.926
	c0.794,0.035,1.562-0.287,2.095-0.877c0.292-0.342,0.504-0.744,0.62-1.179h1.645c-0.06,0.446-0.205,0.876-0.428,1.267
	c-0.217,0.406-0.497,0.776-0.828,1.097c-0.521,0.507-1.175,0.858-1.886,1.015c-0.448,0.104-0.906,0.153-1.365,0.147
	c-1.2,0.019-2.35-0.479-3.159-1.365c-0.92-1.06-1.385-2.438-1.294-3.839c-0.063-1.424,0.401-2.822,1.305-3.926
	c0.847-0.996,2.103-1.552,3.411-1.508C121.099,136.276,121.804,136.455,122.438,136.789z M123.042,140.731
	c-0.033-0.612-0.194-1.21-0.472-1.755c-0.465-0.817-1.361-1.292-2.298-1.217c-0.734-0.014-1.439,0.292-1.93,0.838
	c-0.532,0.584-0.827,1.344-0.828,2.134H123.042z"/>
<path fill="#010101" d="M126.666,132.785h1.688v13.77h-1.688V132.785z"/>
<path fill="#010101" d="M136.893,136.789c0.613,0.289,1.138,0.738,1.519,1.299c0.347,0.536,0.574,1.141,0.67,1.771
	c0.117,0.725,0.168,1.459,0.147,2.193h-7.298c-0.014,0.873,0.236,1.729,0.718,2.457c0.49,0.639,1.271,0.986,2.073,0.926
	c0.793,0.035,1.562-0.287,2.094-0.877c0.293-0.342,0.505-0.744,0.62-1.179h1.646c-0.066,0.435-0.213,0.854-0.434,1.233
	c-0.217,0.406-0.497,0.776-0.828,1.097c-0.521,0.508-1.175,0.859-1.887,1.015c-0.447,0.104-0.905,0.154-1.365,0.148
	c-1.199,0.018-2.35-0.479-3.158-1.366c-0.92-1.059-1.385-2.438-1.294-3.838c-0.062-1.425,0.401-2.823,1.305-3.927
	c0.848-0.996,2.104-1.551,3.411-1.508C135.553,136.252,136.259,136.442,136.893,136.789z M137.495,140.731
	c-0.032-0.612-0.193-1.21-0.471-1.755c-0.465-0.817-1.36-1.292-2.298-1.217c-0.736-0.016-1.442,0.291-1.936,0.838
	c-0.53,0.584-0.825,1.345-0.828,2.134H137.495z"/>
<path fill="#010101" d="M147.832,137.046c0.709,0.549,1.135,1.495,1.277,2.841h-1.645c-0.078-0.568-0.315-1.103-0.686-1.541
	c-0.454-0.447-1.081-0.672-1.717-0.614c-1.029-0.033-1.963,0.604-2.308,1.574c-0.322,0.799-0.476,1.655-0.45,2.517
	c-0.03,0.889,0.189,1.77,0.636,2.539c0.797,1.109,2.343,1.361,3.451,0.564c0.076-0.055,0.148-0.113,0.218-0.176
	c0.442-0.49,0.737-1.098,0.85-1.749h1.646c-0.062,2.188-1.888,3.913-4.076,3.851c-0.068-0.003-0.139-0.006-0.207-0.012
	c-1.214,0.044-2.377-0.488-3.137-1.437c-0.804-1.021-1.22-2.294-1.173-3.592c0-1.763,0.428-3.134,1.283-4.112
	c0.815-0.965,2.026-1.506,3.29-1.47C146.065,136.187,147.033,136.475,147.832,137.046z"/>
<path fill="#010101" d="M158.103,137.518c0.889,0.863,1.332,2.13,1.332,3.801c0.057,1.428-0.355,2.836-1.174,4.008
	c-0.781,1.057-1.994,1.584-3.635,1.584c-1.253,0.062-2.465-0.452-3.29-1.397c-0.853-1.063-1.283-2.401-1.212-3.762
	c-0.072-1.452,0.381-2.881,1.277-4.024c0.852-1,2.115-1.553,3.428-1.497C156.05,136.196,157.231,136.662,158.103,137.518z
	 M157.056,144.186c0.411-0.885,0.613-1.854,0.592-2.829c0.031-0.786-0.121-1.569-0.444-2.286c-0.451-0.915-1.412-1.464-2.429-1.388
	c-0.906-0.062-1.769,0.396-2.227,1.179c-0.486,0.868-0.727,1.852-0.696,2.846c-0.035,0.939,0.207,1.868,0.696,2.67
	c0.487,0.723,1.324,1.131,2.193,1.07C155.7,145.555,156.626,145.051,157.056,144.186z"/>
<path fill="#010101" d="M161.271,136.515h1.646v1.425c0.312-0.414,0.682-0.783,1.097-1.096c0.56-0.372,1.22-0.563,1.892-0.549
	c0.693-0.033,1.375,0.176,1.93,0.592c0.315,0.277,0.571,0.615,0.752,0.993c0.334-0.502,0.789-0.912,1.321-1.195
	c0.528-0.265,1.114-0.398,1.705-0.39c1.349,0,2.263,0.488,2.741,1.465c0.291,0.666,0.427,1.39,0.396,2.116v6.685h-1.749v-6.98
	c0.058-0.512-0.127-1.021-0.499-1.377c-0.355-0.256-0.786-0.387-1.224-0.373c-0.635-0.011-1.248,0.228-1.71,0.664
	c-0.538,0.608-0.798,1.412-0.719,2.221v5.84h-1.716v-6.553c0.031-0.509-0.051-1.019-0.242-1.491c-0.3-0.492-0.857-0.766-1.431-0.702
	c-0.654,0.008-1.279,0.273-1.737,0.74c-0.523,0.493-0.785,1.387-0.785,2.682v5.324h-1.688L161.271,136.515z"/>
<path fill="#010101" d="M122.367,132.479l-2.5,2.709h-1.294l1.716-2.709H122.367z"/>
<path fill="#010101" d="M136.811,132.479l-2.501,2.709h-1.283l1.717-2.709H136.811z"/>
<polygon fill="#010101" points="71.054,0 0,71.059 0,0 "/>
<polygon fill="#010101" points="142.112,0 142.112,71.059 71.054,71.059 71.054,0 106.586,35.532 "/>
<polygon fill="#010101" points="177.646,71.059 177.646,35.532 142.112,35.532 177.646,0 248.698,0 "/>
</svg>
