<?xml version="1.0" encoding="utf-8"?>
<!-- Generator: Adobe Illustrator 15.0.0, SVG Export Plug-In  -->
<!DOCTYPE svg PUBLIC "-//W3C//DTD SVG 1.1//EN" "http://www.w3.org/Graphics/SVG/1.1/DTD/svg11.dtd" [
	<!ENTITY ns_flows "http://ns.adobe.com/Flows/1.0/">
]>
<svg version="1.1"
	 xmlns="http://www.w3.org/2000/svg" xmlns:xlink="http://www.w3.org/1999/xlink" xmlns:a="http://ns.adobe.com/AdobeSVGViewerExtensions/3.0/"
	 x="0px" y="0px" width="200px" height="107px" viewBox="0 0 200 107" overflow="visible" enable-background="new 0 0 200 107"
	 xml:space="preserve">
<defs>
</defs>
<path d="M88.8,22.466c0.2-0.4,0.3-0.8,0.3-1.3v-0.4c0-0.399-0.1-0.7-0.199-1c-0.2-0.399-0.301-0.7-0.601-0.899
	c-0.2-0.301-0.6-0.5-1-0.601c-0.399-0.1-0.899-0.2-1.5-0.2H83c-0.3,0-0.5,0.101-0.7,0.301c-0.2,0.199-0.3,0.399-0.3,0.699v8.601
	c0,0.3,0.1,0.5,0.3,0.7c0.2,0.199,0.4,0.3,0.7,0.3h3.1c0.601,0,1.101-0.101,1.5-0.2c0.4-0.2,0.7-0.3,1-0.6
	c0.301-0.301,0.5-0.601,0.601-0.9c0.2-0.3,0.2-0.7,0.3-1v-0.4c0-0.5-0.1-1-0.4-1.399c-0.3-0.4-0.699-0.7-1.3-0.9
	C88.3,23.065,88.6,22.866,88.8,22.466z M84.1,19.866h1.7c0.4,0,0.7,0.1,0.9,0.3s0.3,0.5,0.3,0.8v0.4c0,0.199,0,0.399-0.1,0.5
	c0,0.1-0.2,0.199-0.301,0.3c-0.1,0.1-0.3,0.1-0.5,0.2c-0.199,0.1-0.399,0.1-0.6,0.1h-1.4V19.866z M87.4,25.766
	c0,0.3-0.101,0.601-0.301,0.8c-0.199,0.2-0.5,0.301-1,0.301H84v-2.601h2c0.4,0,0.8,0.101,1,0.3c0.3,0.2,0.4,0.5,0.4,0.801V25.766z"
	/>
<path d="M91.1,21.266H91c-0.3,0-0.5,0.101-0.7,0.2s-0.3,0.3-0.3,0.6c0,0.101,0.1,0.2,0.1,0.301c0.101,0.1,0.101,0.1,0.2,0.199
	c0.101,0.101,0.2,0.2,0.3,0.301c0.101,0.1,0.101,0.199,0.101,0.5v4.5c0,0.3,0.1,0.5,0.3,0.699c0.2,0.2,0.4,0.301,0.7,0.301
	s0.5-0.101,0.7-0.301c0.199-0.199,0.3-0.399,0.3-0.699v-4.101c0.1-0.399,0.3-0.6,0.5-0.7c0.2-0.1,0.5-0.199,0.8-0.199
	c0.2,0,0.3,0,0.4,0c0,0,0.1,0,0.199,0c0.301,0.1,0.5,0,0.7-0.101c0.2-0.1,0.4-0.3,0.4-0.2c0.1-0.199,0.1-0.399,0-0.6
	c-0.101-0.2-0.2-0.4-0.4-0.5c-0.1-0.1-0.3-0.2-0.399-0.2c-0.101-0.1-0.301-0.1-0.5-0.1c-0.101,0-0.2,0-0.4,0c-0.1,0-0.3,0-0.5,0.1
	c-0.2,0.101-0.4,0.2-0.6,0.3c-0.2,0.101-0.301,0.301-0.5,0.5c-0.101-0.199-0.2-0.399-0.4-0.5c-0.2-0.1-0.4-0.199-0.7-0.3
	C91.2,21.266,91.2,21.266,91.1,21.266z"/>
<path d="M101.4,25.466c0.199,0,0.399-0.1,0.5-0.2c0.1-0.2,0.199-0.3,0.199-0.5v-0.6c0-0.4-0.1-0.8-0.199-1.2
	c-0.101-0.4-0.301-0.7-0.5-1c-0.2-0.3-0.5-0.5-0.9-0.7s-0.8-0.3-1.4-0.3c-0.6,0-1,0.1-1.399,0.3c-0.4,0.2-0.7,0.4-1,0.7
	s-0.5,0.6-0.601,1c-0.1,0.4-0.199,0.8-0.199,1.2v1.5c0,0.399,0.1,0.8,0.199,1.2c0.101,0.399,0.301,0.699,0.5,1
	c0.301,0.3,0.601,0.5,1,0.699c0.4,0.2,0.801,0.301,1.4,0.301c0.3,0,0.7,0,1.1-0.101c0.4-0.1,0.801-0.2,1.2-0.399
	c0.2-0.101,0.3-0.2,0.4-0.4c0.1-0.2,0.1-0.4,0-0.6c-0.101-0.2-0.2-0.4-0.4-0.5c-0.2-0.101-0.399-0.101-0.6,0
	c-0.2,0.1-0.5,0.1-0.7,0.199c-0.2,0.101-0.5,0.101-0.9,0.101c-0.399,0-0.699-0.2-0.899-0.4s-0.3-0.6-0.3-1v-0.3H101.4z M97.9,23.866
	c0-0.5,0.1-0.801,0.3-1c0.2-0.2,0.6-0.301,0.899-0.301c0.301,0,0.601,0.101,0.801,0.301c0.199,0.199,0.3,0.5,0.3,1v0.199h-2.3
	V23.866z"/>
<path d="M103,22.666h0.2v2.6c0,0.5,0.1,1,0.2,1.4c0.1,0.399,0.3,0.8,0.5,1.1c0.199,0.3,0.5,0.5,0.899,0.7c0.3,0.1,0.8,0.2,1.3,0.2
	h0.601c0.2,0,0.399-0.101,0.6-0.3c0.2-0.2,0.3-0.4,0.101-0.601c0-0.2,0-0.399-0.2-0.6c-0.2-0.101-0.4-0.2-0.601-0.2h-0.3
	c-0.399,0-0.7-0.1-0.899-0.4c-0.101-0.3-0.2-0.699-0.2-1.3v-2.6h1.1c0.3,0,0.4,0,0.601-0.2c0.1-0.2,0.199-0.4,0.199-0.6
	c0-0.301,0-0.5-0.199-0.601c-0.2-0.1-0.4-0.2-0.601-0.2h-1.1v-1c0-0.3-0.101-0.5-0.3-0.699c-0.2-0.2-0.4-0.301-0.7-0.301
	s-0.5,0.101-0.7,0.301c-0.2,0.199-0.3,0.399-0.3,0.699v1H103c-0.3,0-0.4,0-0.6,0.2c-0.101,0.2-0.2,0.4-0.2,0.601
	c0,0.199,0,0.399,0.2,0.6C102.6,22.565,102.8,22.666,103,22.666z"/>
<path d="M110.2,28.766c0.3,0,0.6,0,1-0.1c0.399-0.101,0.7-0.3,1-0.5c0.1,0.1,0.2,0.2,0.3,0.3s0.2,0.1,0.4,0.2
	c0.1,0.1,0.3,0.1,0.5,0.1c0.3,0,0.5-0.1,0.699-0.2c0.2-0.199,0.301-0.399,0.301-0.6c0-0.1,0-0.2-0.101-0.3
	c-0.1-0.101-0.1-0.101-0.2-0.2c-0.1-0.1-0.199-0.2-0.3-0.3c-0.1-0.101-0.1-0.2-0.1-0.5v-2.4c0-0.5-0.101-1-0.2-1.399
	c-0.1-0.4-0.3-0.7-0.5-1c-0.2-0.301-0.5-0.5-0.9-0.601c-0.3-0.1-0.8-0.2-1.3-0.2c-0.399,0-0.8,0-1.2,0.101
	c-0.399,0.1-0.8,0.2-1.1,0.399c-0.2,0.101-0.4,0.301-0.4,0.5c0,0.2,0,0.301,0.101,0.5c0.2,0.2,0.3,0.301,0.5,0.4s0.5,0,0.7-0.1
	c0.1-0.101,0.3-0.101,0.5-0.2c0.199-0.101,0.5-0.101,0.8-0.101c0.5,0,0.8,0.101,0.899,0.301c0.101,0.199,0.2,0.6,0.2,1v0.3h-1.3
	c-1,0-1.7,0.2-2.2,0.6c-0.5,0.4-0.7,0.9-0.7,1.601v0.1c0,0.7,0.2,1.3,0.601,1.7C108.7,28.565,109.3,28.766,110.2,28.766z
	 M109.5,26.366c0-0.2,0.1-0.4,0.3-0.601c0.2-0.1,0.5-0.2,0.9-0.2h1v0.5c0,0.4-0.101,0.7-0.3,0.9c-0.2,0.2-0.5,0.3-0.801,0.3
	c-0.3,0-0.6-0.1-0.8-0.2c-0.2-0.1-0.3-0.3-0.3-0.6V26.366z"/>
<path d="M115.5,21.666c-0.3,0.3-0.4,0.7-0.5,1.1c-0.1,0.4-0.1,0.9-0.1,1.4v0.6c0,0.5,0,1,0.1,1.4c0.1,0.399,0.2,0.7,0.4,1
	c0.199,0.2,0.5,0.5,0.8,0.6c0.399,0.101,0.8,0.2,1.3,0.2c0.2,0,0.5,0,0.8-0.1c0.3-0.101,0.601-0.2,0.8-0.301v0.4
	c0,1.1-0.5,1.6-1.399,1.6c-0.2,0-0.4,0-0.601,0c-0.1,0-0.3-0.1-0.399-0.1c-0.101,0-0.2-0.1-0.3-0.1
	c-0.101-0.101-0.2-0.101-0.301-0.101c-0.199,0-0.399,0-0.6,0.2c-0.1,0.2-0.2,0.4-0.2,0.6c0,0.2,0.101,0.4,0.2,0.5
	c0.1,0.101,0.2,0.2,0.4,0.301c0.3,0.199,0.6,0.3,1,0.3c0.399,0.1,0.8,0.1,1.1,0.1c1.1,0,1.9-0.3,2.4-0.899
	c0.5-0.601,0.8-1.4,0.8-2.4v-6.1c0-0.301-0.101-0.5-0.3-0.7c-0.101-0.2-0.4-0.3-0.7-0.3s-0.4,0.1-0.601,0.199
	c-0.199,0.101-0.3,0.2-0.399,0.4c-0.3-0.2-0.5-0.4-0.8-0.5c-0.301-0.1-0.601-0.2-0.9-0.2c-0.5,0-0.9,0-1.2,0.2
	S115.7,21.366,115.5,21.666z M116.9,24.065c0-0.899,0.3-1.399,1.1-1.399c0.2,0,0.4,0,0.6,0.1c0.2,0.101,0.4,0.2,0.601,0.3v3
	c-0.2,0.101-0.4,0.2-0.601,0.301c-0.3,0.1-0.399,0.1-0.6,0.1c-0.4,0-0.7-0.1-0.9-0.3c-0.1-0.2-0.199-0.601-0.199-1V24.065z"/>
<path d="M124.2,21.866c-0.101-0.2-0.2-0.301-0.301-0.4c-0.1-0.1-0.199-0.2-0.399-0.2c-0.2-0.1-0.3-0.1-0.5-0.1
	c-0.3,0-0.5,0.1-0.7,0.2c-0.2,0.1-0.3,0.3-0.3,0.6c0,0.1,0,0.2,0.1,0.3c0.101,0.101,0.101,0.101,0.2,0.2c0.101,0.1,0.2,0.2,0.3,0.3
	c0.101,0.101,0.101,0.2,0.101,0.5v4.5c0,0.3,0.1,0.5,0.3,0.7s0.4,0.3,0.7,0.3s0.5-0.1,0.7-0.3c0.199-0.2,0.3-0.4,0.3-0.7v-4.3
	c0.1-0.1,0.3-0.3,0.5-0.4c0.2-0.1,0.399-0.199,0.7-0.199c0.199,0,0.399,0,0.5,0.1c0.1,0,0.199,0.1,0.3,0.2
	c0.1,0.1,0.2,0.3,0.2,0.399c0,0.101,0,0.301,0,0.4v3.8c0,0.3,0.1,0.5,0.3,0.7s0.399,0.3,0.7,0.3c0.3,0,0.5-0.1,0.699-0.3
	c0.2-0.2,0.301-0.4,0.3-0.6v-4c0-0.4,0-0.801-0.1-1.101c-0.1-0.399-0.2-0.7-0.4-0.899c-0.199-0.301-0.5-0.5-0.8-0.601
	c-0.3-0.1-0.7-0.2-1.2-0.2s-0.899,0.101-1.3,0.2C124.8,21.466,124.5,21.666,124.2,21.866z"/>
<path d="M135.4,25.466c0.199,0,0.399-0.1,0.5-0.2c0.1-0.2,0.199-0.3,0.199-0.5v-0.6c0-0.4-0.1-0.8-0.2-1.2c-0.1-0.4-0.3-0.7-0.5-1
	c-0.199-0.3-0.5-0.5-0.899-0.7c-0.4-0.2-0.8-0.3-1.4-0.3c-0.6,0-1,0.1-1.399,0.3c-0.4,0.2-0.7,0.4-1,0.7s-0.5,0.6-0.601,1
	c-0.1,0.4-0.199,0.8-0.199,1.2v1.5c0,0.399,0.1,0.8,0.199,1.2c0.101,0.399,0.301,0.699,0.5,1c0.301,0.3,0.601,0.5,1,0.699
	c0.4,0.2,0.8,0.301,1.4,0.301c0.3,0,0.7,0,1.1-0.101c0.4-0.1,0.801-0.2,1.2-0.399c0.2-0.101,0.3-0.2,0.4-0.4c0.1-0.2,0.1-0.4,0-0.6
	c-0.101-0.2-0.2-0.4-0.4-0.5c-0.2-0.101-0.4-0.101-0.6,0c-0.2,0.1-0.5,0.1-0.7,0.199c-0.2,0.101-0.5,0.101-0.9,0.101
	c-0.399,0-0.699-0.2-0.899-0.4s-0.3-0.6-0.3-1v-0.3H135.4z M131.9,23.866c0-0.5,0.1-0.801,0.3-1c0.2-0.2,0.5-0.301,0.899-0.301
	c0.301,0,0.601,0.101,0.801,0.301c0.199,0.199,0.3,0.5,0.3,1v0.199h-2.3V23.866z"/>
<path d="M141,19.666c-0.2,0.399-0.3,0.899-0.3,1.399c0,0.7,0.2,1.101,0.399,1.5c0.2,0.4,0.5,0.7,0.9,0.9c0.2,0,0.4,0.1,0.6,0.2
	c0.2,0.1,0.5,0.1,0.7,0.2c0.2,0.1,0.5,0.1,0.7,0.199c0.2,0.101,0.4,0.2,0.6,0.2c0.5,0.2,0.9,0.3,1.101,0.5
	c0.2,0.101,0.3,0.4,0.3,0.7c0,0.4-0.2,0.7-0.5,1s-0.9,0.4-1.6,0.4c-0.301,0-0.5,0-0.7,0s-0.3-0.101-0.5-0.101
	c-0.3-0.1-0.5-0.1-0.7-0.2c-0.2-0.1-0.3-0.1-0.5-0.1s-0.5,0.1-0.6,0.3c-0.101,0.2-0.2,0.4-0.2,0.7c0,0.2,0.1,0.3,0.2,0.5
	c0.1,0.2,0.3,0.3,0.5,0.4c0.399,0.1,0.899,0.199,1.3,0.3c0.399,0.1,0.899,0.1,1.399,0.1c0.601,0,1.101-0.1,1.601-0.2
	c0.399-0.1,0.899-0.3,1.2-0.6c0.3-0.3,0.6-0.7,0.8-1.1c0.2-0.5,0.3-1,0.399-1.601c0-0.5-0.1-0.899-0.3-1.3s-0.5-0.7-0.899-1
	c-0.2-0.1-0.4-0.2-0.601-0.3c-0.2-0.101-0.5-0.101-0.7-0.2c-0.199-0.1-0.5-0.1-0.699-0.2c-0.2-0.1-0.5-0.1-0.7-0.2
	c-0.5-0.1-0.9-0.199-1.101-0.399c-0.199-0.2-0.3-0.4-0.3-0.8c0-0.4,0.2-0.7,0.5-0.9s0.7-0.3,1.3-0.3c0.2,0,0.4,0,0.601,0
	c0.1,0,0.3,0.1,0.399,0.1c0.2,0.101,0.4,0.101,0.5,0.2c0.101,0.1,0.301,0.1,0.4,0.1c0.3,0,0.5-0.1,0.7-0.3c0.1-0.2,0.2-0.5,0.2-0.7
	c0-0.199-0.101-0.3-0.2-0.5c-0.101-0.199-0.3-0.3-0.5-0.399c-0.3-0.2-0.7-0.3-1.101-0.3c-0.399-0.101-0.8-0.101-1.199-0.101
	c-0.5,0-1,0.101-1.4,0.2c-0.5,0.1-0.9,0.3-1.2,0.6C141.5,18.866,141.2,19.266,141,19.666z"/>
<path d="M151,21.966c0-0.206-0.064-0.36-0.158-0.504c-0.049-0.144-0.12-0.275-0.242-0.396c-0.199-0.199-0.399-0.3-0.699-0.3
	c-0.301,0-0.5,0.101-0.7,0.3c-0.2,0.2-0.3,0.4-0.3,0.7v4v0.3c0,0.279,0.062,0.521,0.156,0.749c0.014,0.084,0.019,0.178,0.043,0.251
	c0.101,0.4,0.2,0.7,0.4,0.9c0.2,0.3,0.5,0.5,0.8,0.6c0.3,0.101,0.7,0.2,1.101,0.2c0.399,0,0.8-0.1,1.199-0.2
	c0.18-0.06,0.359-0.159,0.538-0.269c0.134-0.059,0.267-0.119,0.393-0.195c0.105,0.171,0.277,0.272,0.37,0.364
	c0.1,0.1,0.199,0.1,0.399,0.2c0.2,0.1,0.3,0.1,0.5,0.1c0.3,0,0.5-0.1,0.7-0.2c0.2-0.199,0.3-0.399,0.4-0.6c0-0.1,0-0.2-0.101-0.3
	c-0.1-0.101-0.1-0.101-0.2-0.2c-0.1-0.1-0.199-0.2-0.3-0.3c-0.1-0.101-0.1-0.2-0.1-0.5v-4.601c0-0.3-0.101-0.5-0.3-0.699
	c-0.108-0.108-0.221-0.182-0.344-0.231c-0.187-0.173-0.377-0.269-0.656-0.269c-0.301,0-0.5,0.1-0.7,0.3s-0.3,0.399-0.3,0.7v3.8
	c0,0.106,0,0.209,0,0.3c0,0.2-0.101,0.4-0.301,0.6c-0.199,0.2-0.399,0.301-0.699,0.301c-0.301,0-0.5-0.101-0.7-0.301
	c-0.081-0.081-0.134-0.162-0.183-0.243C151.014,26.305,151,26.28,151,26.266c0-0.2,0-0.3,0-0.5V21.966z"/>
<path d="M162.5,27.065c-0.1-0.1-0.1-0.199-0.1-0.5v-7.5c0-0.3-0.101-0.5-0.301-0.699c-0.199-0.2-0.399-0.301-0.699-0.301
	c-0.301,0-0.5,0.101-0.7,0.301c-0.2,0.199-0.3,0.399-0.3,0.699v2.4c-0.2-0.1-0.4-0.2-0.7-0.3c-0.2-0.101-0.5-0.101-0.8-0.101
	c-0.5,0-1,0-1.301,0.2c-0.3,0.2-0.6,0.4-0.8,0.7c-0.3,0.3-0.399,0.7-0.5,1.1c-0.1,0.4-0.1,0.9-0.1,1.4v1.2c0,1,0.3,1.8,0.7,2.3
	c0.399,0.5,1.1,0.8,2.1,0.8c0.3,0,0.7-0.1,1-0.2c0.4-0.1,0.7-0.199,0.9-0.399c0.1,0.1,0.199,0.2,0.3,0.3c0.1,0.1,0.2,0.1,0.399,0.2
	c0.2,0.1,0.301,0.1,0.5,0.1c0.301,0,0.5-0.1,0.7-0.2c0.2-0.199,0.3-0.399,0.3-0.699c0-0.101,0-0.2-0.1-0.301
	c-0.1-0.1-0.1-0.1-0.2-0.199C162.7,27.266,162.6,27.166,162.5,27.065z M160.5,26.766c-0.4,0.3-0.7,0.4-1.1,0.4
	c-0.4,0-0.7-0.101-0.9-0.3c-0.2-0.2-0.3-0.601-0.3-1v-1.7c0-0.5,0.1-0.9,0.3-1.101c0.2-0.3,0.5-0.399,0.9-0.399
	c0.199,0,0.399,0,0.6,0.1c0.2,0.101,0.3,0.2,0.5,0.3V26.766z"/>
<path d="M140.4,106.966l0.27,0.001c12.032,0.001,21.438-6.613,23.617-16.519c-6.009-1.214-11.647-2.562-17.188-4.102
	c0,0.007,0.001,0.013,0.001,0.02c0,2.127-1.576,4.399-6,4.399c-4.614,0-8.019-1.688-11.022-3.177
	c-1.759-0.872-3.431-1.689-5.183-2.115c-2.691,3.764-5.789,7.441-9.441,11.228C118.026,103.371,130.084,106.966,140.4,106.966z"/>
<path d="M122.4,85.266h-1.126l0.259-0.678c0.683-1.793,1.191-3.808,1.515-5.994c-5.924-2.21-11.938-4.753-17.896-7.565
	c0.099,0.728,0.147,1.467,0.147,2.237c0,4.109-1.422,7.529-4.347,10.454c-2.884,2.884-6.4,4.346-10.453,4.346h-0.773
	c-2.497,5.715-4.488,11.636-5.921,17.614c1.999,0.395,4.195,0.586,6.694,0.586c9.086,0,16.941-3.248,23.347-9.653l0.494-0.491
	l0.101-0.104c3.165-3.258,6.135-6.767,9.063-10.671C123.155,85.281,122.795,85.266,122.4,85.266z"/>
<path d="M164.8,85.766c0-13.024-11.357-17.137-20.482-20.441c-2.626-0.951-4.927-1.784-6.671-2.74
	c-2.059,4.984-4.362,9.623-7.026,14.147c0.096,0.042,0.191,0.086,0.287,0.129c0.268,0.122,0.535,0.244,0.778,0.342
	c2.66,1.117,4.966,1.995,6.817,2.701c5.026,1.914,7.685,2.933,8.381,5.248c5.892,1.629,11.82,3.049,17.639,4.225
	C164.709,88.302,164.8,87.139,164.8,85.766z"/>
<path d="M82.5,14.266c0.4,0.4,1,0.7,1.6,1c0.7,0.3,1.4,0.4,2.301,0.4c0.899,0,1.699-0.101,2.3-0.4c0.7-0.2,1.2-0.6,1.6-1
	c0.4-0.399,0.7-0.899,0.9-1.5c0.2-0.6,0.3-1.2,0.5-1.899v-8.4c0-0.4-0.101-0.7-0.4-1s-0.6-0.4-1-0.4c-0.399,0-0.7,0.101-1,0.4
	s-0.399,0.6-0.399,1v8.4c0,0.3,0,0.6-0.101,0.899c-0.1,0.3-0.2,0.601-0.399,0.8c-0.101,0.2-0.4,0.4-0.7,0.601
	c-0.3,0.1-0.7,0.2-1.2,0.2s-0.9,0-1.2-0.2s-0.5-0.4-0.7-0.601c-0.199-0.199-0.3-0.5-0.399-0.8c-0.101-0.3-0.101-0.6-0.101-0.899
	V2.565c0-0.399-0.1-0.699-0.399-1c-0.2-0.3-0.5-0.399-0.9-0.399c-0.399,0-0.7,0.1-1.1,0.3c-0.3,0.3-0.4,0.6-0.4,1v8.4
	c0,0.699,0.101,1.3,0.3,1.899C81.8,13.366,82.1,13.866,82.5,14.266z"/>
<path d="M93.2,7.366c0.1,0.1,0.3,0.3,0.399,0.399c0.101,0.101,0.2,0.4,0.2,0.7v6c0,0.3,0.101,0.6,0.4,0.9
	c0.2,0.3,0.5,0.399,0.899,0.399c0.301,0,0.601-0.1,0.9-0.399c0.3-0.2,0.4-0.5,0.4-0.9v-5.8c0.199-0.3,0.399-0.5,0.699-0.601
	c0.2-0.1,0.601-0.199,0.9-0.199s0.5,0,0.7,0.1s0.3,0.2,0.399,0.3c0.101,0.2,0.2,0.3,0.2,0.5c0.101,0.2,0.101,0.4,0.101,0.601v5
	c0,0.3,0.1,0.6,0.399,0.899c0.2,0.3,0.5,0.4,0.9,0.4c0.3,0,0.6-0.101,0.899-0.4c0.301-0.3,0.4-0.6,0.4-0.899v-5.4
	c0-0.5-0.1-1-0.2-1.5c-0.2-0.5-0.3-0.9-0.6-1.2c-0.2-0.3-0.601-0.5-1-0.7c-0.5-0.199-1-0.3-1.601-0.3
	c-0.699,0-1.199,0.101-1.699,0.3c-0.4,0.2-0.9,0.5-1.2,0.801c-0.101-0.2-0.2-0.4-0.4-0.5c-0.2-0.101-0.399-0.2-0.6-0.301
	c-0.2-0.1-0.4-0.1-0.601-0.1c-0.3,0-0.699,0.1-0.899,0.3c-0.3,0.2-0.4,0.4-0.4,0.8c0,0.2,0,0.4,0.101,0.5
	C93,7.166,93.1,7.266,93.2,7.366z"/>
<path d="M105.4,5.366c-0.301,0-0.601,0.1-0.9,0.399c-0.3,0.2-0.4,0.5-0.4,0.9v7.7c0,0.3,0.101,0.6,0.4,0.899
	c0.2,0.3,0.5,0.4,0.9,0.4c0.3,0,0.6-0.101,0.899-0.4c0.2-0.3,0.4-0.6,0.4-0.899v-7.7c0-0.3-0.101-0.601-0.4-0.9
	C106.1,5.466,105.8,5.366,105.4,5.366z"/>
<path d="M105.4,3.966c0.399,0,0.699-0.1,1-0.4c0.3-0.3,0.399-0.6,0.399-1c0-0.399-0.1-0.699-0.399-1c-0.301-0.3-0.601-0.399-1-0.399
	c-0.4,0-0.7,0.1-1,0.399c-0.301,0.2-0.4,0.601-0.4,1c0,0.4,0.1,0.7,0.4,1C104.6,3.866,105,3.966,105.4,3.966z"/>
<path d="M109.1,10.565c0.5,1.301,0.9,2.601,1.4,3.7c0.2,0.601,0.4,0.9,0.7,1.101c0.3,0.1,0.6,0.199,1,0.199c0.3,0,0.6,0,0.899-0.199
	c0.301-0.2,0.601-0.5,0.801-1.101c0.399-1.1,0.899-2.3,1.399-3.6s0.9-2.5,1.3-3.9c0.101-0.2,0.101-0.399,0.101-0.6
	c-0.101-0.2-0.2-0.4-0.3-0.5c-0.101-0.101-0.2-0.2-0.4-0.3c-0.2-0.101-0.4-0.101-0.6-0.101c-0.301,0-0.5,0.101-0.7,0.2
	s-0.4,0.3-0.5,0.6c-0.3,1-0.601,2-1,3.101c-0.4,1.1-0.7,2.1-1.101,3.1c-0.1-0.5-0.3-1-0.5-1.5c-0.1-0.5-0.3-1.1-0.5-1.6
	c-0.199-0.5-0.3-1.101-0.5-1.601c-0.199-0.5-0.3-1-0.5-1.5c-0.1-0.199-0.3-0.5-0.5-0.6c-0.199-0.1-0.399-0.2-0.6-0.2
	c-0.1,0-0.3,0-0.5,0.101c-0.1,0.1-0.3,0.199-0.4,0.3c-0.199,0.2-0.3,0.3-0.3,0.5s0,0.399,0.101,0.6
	C108.2,7.966,108.6,9.266,109.1,10.565z"/>
<path d="M118.5,14.466c0.399,0.4,0.8,0.7,1.3,0.9c0.5,0.199,1.1,0.3,1.9,0.3c0.5,0,1,0,1.5-0.101c0.5-0.1,1.1-0.3,1.6-0.5
	c0.2-0.1,0.4-0.3,0.5-0.5c0.101-0.199,0.101-0.5,0-0.8c-0.1-0.3-0.2-0.5-0.5-0.6c-0.3-0.101-0.5-0.101-0.8,0c-0.4,0.1-0.7,0.2-1,0.3
	s-0.7,0.1-1.2,0.1s-0.899-0.199-1.2-0.5c-0.3-0.399-0.399-0.8-0.399-1.399v-0.4h4.6c0.2,0,0.4-0.1,0.601-0.3
	c0.1-0.2,0.199-0.4,0.3-0.5v-0.8c0-0.601-0.101-1.101-0.2-1.601s-0.3-0.899-0.7-1.3c-0.4-0.399-0.8-0.7-1.3-0.899
	c-0.5-0.2-1.2-0.301-1.9-0.301s-1.3,0.101-1.8,0.301c-0.5,0.199-1,0.5-1.3,0.899c-0.3,0.4-0.5,0.9-0.7,1.4c-0.1,0.5-0.2,1-0.2,1.6
	v1.8c0,0.5,0.101,1.101,0.2,1.601S118.2,14.065,118.5,14.466z M120.1,9.065c0-0.6,0.101-1,0.4-1.3s0.7-0.399,1.2-0.399
	s0.899,0.1,1.1,0.399s0.3,0.7,0.3,1.3v0.301h-3V9.065z"/>
<path d="M127.1,7.266c0.101,0.101,0.301,0.3,0.4,0.4c0.1,0.1,0.2,0.399,0.2,0.7v6c0,0.3,0.1,0.6,0.399,0.899
	c0.2,0.3,0.5,0.4,0.9,0.4c0.3,0,0.6-0.101,0.9-0.4c0.3-0.2,0.399-0.5,0.399-0.899v-5.4c0.101-0.4,0.3-0.7,0.601-0.9
	c0.3-0.199,0.6-0.3,1-0.3c0.199,0,0.399,0,0.5,0c0.1,0.101,0.199,0.101,0.3,0.101c0.3,0,0.7,0,0.899-0.2
	c0.2-0.101,0.4-0.4,0.601-0.8c0.1-0.301,0.1-0.5,0-0.801c-0.101-0.199-0.3-0.399-0.5-0.6c-0.101-0.1-0.3-0.1-0.5-0.2
	c-0.2-0.1-0.4-0.1-0.7-0.1c-0.2,0-0.4,0-0.6,0c-0.2,0.1-0.5,0.1-0.7,0.2c-0.2,0.1-0.4,0.199-0.7,0.399c-0.2,0.101-0.5,0.3-0.7,0.601
	c-0.1-0.2-0.3-0.4-0.5-0.601s-0.5-0.3-0.899-0.399c-0.101,0-0.101,0-0.2,0H128c-0.4,0-0.8,0.1-1,0.3s-0.3,0.399-0.3,0.8
	c0,0.2,0,0.4,0.1,0.5C126.9,7.065,127,7.166,127.1,7.266z"/>
<path d="M139,13.266c-0.3,0.2-0.7,0.3-1.2,0.3s-0.899,0-1.2-0.1c-0.3-0.1-0.6-0.2-0.899-0.3c-0.2-0.101-0.5-0.101-0.8,0
	c-0.301,0.2-0.5,0.399-0.601,0.7c0,0.199,0,0.5,0.101,0.8c0.1,0.3,0.3,0.5,0.6,0.6c0.3,0.101,0.7,0.2,1.1,0.3
	c0.5,0.101,1,0.101,1.7,0.101c0.5,0,1-0.101,1.5-0.2c0.5-0.2,0.9-0.3,1.3-0.6c0.4-0.301,0.7-0.601,0.9-1c0.3-0.4,0.4-0.9,0.6-1.601
	c0-0.5,0-1-0.199-1.3c-0.101-0.3-0.301-0.6-0.601-0.8s-0.6-0.4-0.899-0.5c-0.4-0.101-0.7-0.2-1-0.3
	c-0.301-0.101-0.601-0.101-0.9-0.2c-0.3-0.101-0.6-0.101-0.8-0.2s-0.4-0.2-0.5-0.3c-0.101-0.101-0.2-0.3-0.2-0.5s0.1-0.4,0.3-0.601
	c0.2-0.1,0.5-0.199,1-0.199c0.3,0,0.601,0,0.9,0.1s0.6,0.2,1,0.3c0.3,0.101,0.5,0,0.8-0.1c0.2-0.101,0.4-0.3,0.5-0.601
	c0.1-0.3,0-0.5-0.1-0.8c-0.101-0.3-0.301-0.5-0.601-0.6c-0.399-0.101-0.8-0.2-1.2-0.3c-0.399-0.101-0.899-0.101-1.5-0.101
	c-0.5,0-1,0.101-1.399,0.2c-0.5,0.1-0.9,0.3-1.2,0.6c-0.3,0.301-0.6,0.601-0.8,1c-0.2,0.4-0.3,0.9-0.3,1.4s0.1,0.9,0.199,1.2
	c0.101,0.3,0.301,0.6,0.5,0.8c0.2,0.2,0.4,0.4,0.7,0.5s0.6,0.2,0.9,0.3c0.3,0.101,0.699,0.101,1,0.2c0.399,0.1,0.6,0.1,0.899,0.2
	c0.2,0.1,0.4,0.2,0.601,0.3c0.1,0.2,0.199,0.4,0.199,0.6C139.399,12.866,139.3,13.065,139,13.266z"/>
<path d="M144.7,5.366c-0.3,0-0.601,0.1-0.9,0.399c-0.3,0.2-0.399,0.5-0.399,0.9v7.7c0,0.3,0.1,0.6,0.399,0.899
	c0.2,0.3,0.5,0.4,0.9,0.4c0.3,0,0.6-0.101,0.899-0.4c0.301-0.3,0.4-0.6,0.4-0.899v-7.7c0-0.3-0.1-0.601-0.4-0.9
	C145.4,5.466,145.1,5.366,144.7,5.366z"/>
<path d="M144.7,3.966c0.399,0,0.7-0.1,1-0.4c0.3-0.3,0.399-0.6,0.399-1c0-0.399-0.1-0.699-0.399-1c-0.3-0.3-0.601-0.399-1-0.399
	c-0.4,0-0.7,0.1-1,0.399c-0.3,0.2-0.4,0.601-0.4,1c0,0.4,0.101,0.7,0.4,1C143.9,3.866,144.3,3.966,144.7,3.966z"/>
<path d="M148.1,7.666h0.301v3.399c0,0.601,0.1,1.2,0.199,1.801c0.101,0.5,0.301,1,0.601,1.399c0.3,0.4,0.7,0.7,1.2,0.9
	s1.1,0.3,1.8,0.3h0.7c0.3,0,0.6-0.1,0.8-0.3s0.3-0.5,0.3-0.9c0-0.3-0.101-0.6-0.3-0.8c-0.2-0.2-0.5-0.3-0.801-0.3H152.5
	c-0.601,0-1-0.2-1.2-0.5s-0.3-0.9-0.3-1.7v-3.4h1.5c0.3,0,0.6-0.1,0.8-0.3s0.3-0.5,0.3-0.8s-0.1-0.6-0.3-0.8
	c-0.3-0.2-0.5-0.3-0.8-0.3H151V4.065c0-0.3-0.101-0.6-0.4-0.899c-0.2-0.3-0.5-0.4-0.899-0.4c-0.3,0-0.601,0.101-0.9,0.4
	c-0.3,0.2-0.399,0.5-0.399,0.899v1.4H148.1c-0.3,0-0.6,0.1-0.8,0.3c-0.2,0.3-0.3,0.5-0.3,0.8c0,0.301,0.1,0.601,0.3,0.801
	C147.6,7.565,147.8,7.666,148.1,7.666z"/>
<path d="M155.6,14.466c0.4,0.4,0.8,0.7,1.3,0.9c0.5,0.199,1.101,0.3,1.9,0.3c0.5,0,1,0,1.5-0.101c0.5-0.1,1.1-0.3,1.6-0.5
	c0.2-0.1,0.4-0.3,0.5-0.5c0.101-0.199,0.101-0.5,0-0.8c-0.1-0.3-0.199-0.5-0.5-0.6c-0.3-0.101-0.5-0.101-0.8,0
	c-0.399,0.1-0.7,0.2-1,0.3s-0.7,0.1-1.2,0.1s-0.899-0.199-1.199-0.5c-0.3-0.399-0.4-0.8-0.4-1.399v-0.4h4.601
	c0.199,0,0.399-0.1,0.6-0.3c0.1-0.2,0.2-0.4,0.3-0.5v-0.8c0-0.601-0.1-1.101-0.2-1.601c-0.1-0.5-0.3-0.899-0.7-1.3
	c-0.399-0.399-0.8-0.7-1.3-0.899c-0.5-0.2-1.2-0.301-1.899-0.301c-0.7,0-1.301,0.101-1.801,0.301c-0.5,0.199-1,0.5-1.3,0.899
	c-0.3,0.4-0.5,0.9-0.7,1.4c-0.1,0.5-0.199,1-0.199,1.6v1.8c0,0.5,0.1,1.101,0.199,1.601C155,13.666,155.3,14.065,155.6,14.466z
	 M157.2,9.065c0-0.6,0.1-1,0.399-1.3c0.301-0.3,0.7-0.399,1.2-0.399s0.9,0.1,1.101,0.399c0.199,0.3,0.3,0.7,0.3,1.3v0.301h-3V9.065z
	"/>
<path d="M157.6,3.966c0.301,0.1,0.5,0.1,0.7,0c0.3-0.1,0.4-0.2,0.601-0.5l1.3-2c0.1-0.2,0.2-0.4,0.1-0.7c0-0.2-0.2-0.399-0.5-0.6
	s-0.6-0.2-0.899-0.101c-0.301,0.101-0.5,0.301-0.601,0.5l-1.1,2.2c-0.2,0.2-0.2,0.5-0.101,0.7C157.2,3.666,157.4,3.866,157.6,3.966z
	"/>
<path d="M63.963,93.062c0.021-0.079,0.047-0.156,0.067-0.235L57.5,41.496v7.67h-1c0-2.517-0.893-4.686-2.653-6.446
	c-0.395-0.394-0.788-0.695-1.191-0.977c-3.559,8.7-8.382,16.838-14.355,24.194v11.929c0,2.792-0.991,5.198-2.946,7.153
	c-1.983,1.982-4.323,2.946-7.153,2.946c-2.831,0-5.171-0.964-7.153-2.946c-0.394-0.394-0.775-0.839-1.113-1.286
	c-1.616,1.28-3.553,2.744-5.949,4.243c-0.001,0.001-0.002,0.001-0.003,0.002c-0.014,0.01-0.026,0.018-0.04,0.026
	c-2.838,2.042-5.947,3.969-9.213,5.729c1,1.408,2.154,2.815,3.437,4.19c5.465,5.464,12.176,8.241,19.935,8.241
	s14.471-2.777,19.947-8.254S56.3,85.725,56.3,77.966v-4.8h1C57.3,80.627,59.541,87.314,63.963,93.062z"/>
<path d="M0,77.866C0,83.52,1.363,88.44,4.165,92.896c2.704-1.527,5.87-3.385,9.241-5.735c0.001,0,0.002-0.001,0.002-0.001
	s0.001-0.001,0.002-0.001c0.001-0.001,0.002-0.002,0.004-0.003c2.409-1.643,4.322-3.036,6.011-4.375
	c-0.811-1.51-1.225-3.159-1.225-4.914v-28.7c0-2.517-0.893-4.686-2.653-6.446c-1.811-1.811-3.859-2.654-6.447-2.654
	c-2.587,0-4.636,0.843-6.446,2.654C0.843,44.53,0,46.578,0,49.166V77.866z"/>
<path d="M57.5,37.257c3.491,3.437,7.198,6.719,11.084,9.841c1.614,1.292,3.271,2.565,4.965,3.822
	c2.865,2.116,5.812,4.153,8.846,6.086c1.231-1.495,2.533-2.963,3.898-4.414c0.085-0.095,0.169-0.196,0.253-0.281l0.451-0.452
	c0.394-0.409,0.786-0.818,1.19-1.224c0.122-0.128,0.247-0.252,0.376-0.369c0.468-0.464,0.933-0.928,1.415-1.388l0.37-0.37
	c0.157-0.158,0.345-0.319,0.531-0.479c0.158-0.136,0.316-0.271,0.454-0.407c1.286-1.184,2.628-2.358,4.024-3.525l0.033-0.034h0.007
	c1.197-1,2.422-1.996,3.704-2.987c-2.591-0.673-5.479-1.013-8.603-1.013c-5.063,0-9.801,1.06-14.08,3.149l-0.72,0.352V27.266
	c0-2.516-0.893-4.685-2.653-6.446c-1.811-1.81-3.859-2.653-6.447-2.653s-4.636,0.843-6.446,2.653
	c-1.811,1.811-2.653,3.859-2.653,6.446V37.257z"/>
<path d="M38.3,64.219c5.632-7.121,10.155-14.842,13.446-22.986c-1.234-0.773-2.692-1.167-4.346-1.167
	c-2.588,0-4.637,0.843-6.447,2.654c-1.811,1.81-2.653,3.858-2.653,6.446V64.219z"/>
<path d="M100.301,41.516c-0.008,0.005-0.016,0.01-0.023,0.016c-0.046,0.031-0.094,0.059-0.126,0.09l-0.298,0.297
	c-0.363,0.254-0.635,0.436-0.901,0.701l-0.301,0.301c-0.168,0.132-0.275,0.22-0.381,0.305c-0.236,0.192-0.48,0.391-0.773,0.549
	c-0.107,0.104-0.244,0.223-0.473,0.337c-0.083,0.06-0.218,0.174-0.354,0.287c-0.163,0.137-0.328,0.272-0.492,0.382
	c-0.045,0.054-0.158,0.169-0.325,0.234c-0.135,0.128-0.284,0.256-0.433,0.384c-0.163,0.14-0.327,0.28-0.468,0.419
	c-0.104,0.105-0.23,0.231-0.455,0.354c-0.142,0.137-0.283,0.255-0.426,0.374c-0.139,0.116-0.278,0.231-0.418,0.371l-0.298,0.299
	c-0.163,0.163-0.324,0.298-0.485,0.432c-0.14,0.116-0.278,0.23-0.417,0.369c-0.104,0.104-0.229,0.23-0.453,0.353
	c-0.512,0.471-1.021,0.943-1.518,1.418l-0.829,0.829c-0.103,0.102-0.215,0.205-0.332,0.311c-0.021,0.02-0.042,0.04-0.064,0.06
	c-0.114,0.114-0.234,0.227-0.348,0.341c-0.073,0.077-0.147,0.153-0.21,0.236l-0.873,0.878c-0.287,0.296-0.575,0.592-0.855,0.89
	c-0.047,0.054-0.095,0.102-0.142,0.157c-0.158,0.185-0.317,0.37-0.476,0.528c-0.086,0.085-0.142,0.14-0.206,0.27l-0.094,0.13
	c-0.139,0.139-0.253,0.277-0.368,0.415c-0.135,0.162-0.271,0.324-0.434,0.486l-0.301,0.301c-0.14,0.14-0.28,0.305-0.422,0.47
	c-0.158,0.186-0.317,0.37-0.476,0.528c-0.029,0.031-0.058,0.079-0.088,0.124c-0.07,0.104-0.143,0.206-0.213,0.276
	c-0.142,0.142-0.282,0.307-0.424,0.472c-0.018,0.021-0.036,0.043-0.055,0.064c0.333,0.209,0.665,0.425,0.998,0.641
	c0.427,0.277,0.854,0.556,1.281,0.817c1.614-0.578,3.193-0.848,4.946-0.848c4.11,0,7.529,1.422,10.453,4.347
	c0.474,0.473,0.93,0.987,1.34,1.512c3.474-4.761,7.394-9.497,11.664-14.095c-0.033-0.034-0.068-0.068-0.104-0.104
	C109.81,45.784,105.254,42.991,100.301,41.516z"/>
<path d="M82.827,105.273c1.39-5.803,3.304-11.528,5.839-17.465c-3.321-0.343-6.18-1.75-8.72-4.289
	c-2.884-2.884-4.347-6.401-4.347-10.454c0-4.072,1.42-7.521,4.341-10.547c1.304-1.304,2.768-2.324,4.365-3.045
	c-0.226-0.145-0.452-0.292-0.678-0.438c-0.332-0.216-0.663-0.429-0.994-0.638c-6.352,7.752-11.296,16.335-14.771,25.617
	c-1.188,3.231-2.198,6.542-3.02,9.928c0.744,0.904,1.573,1.733,2.31,2.47C71.778,101.037,76.91,103.939,82.827,105.273z"/>
<path d="M57.5,41.343l6.605,51.219c0.752-2.848,1.625-5.642,2.628-8.373c0.026-0.072,0.052-0.145,0.079-0.218
	c0.128-0.347,0.26-0.692,0.393-1.038c3.416-9.043,8.249-17.459,14.445-25.127c-3.03-1.99-5.954-4.042-8.779-6.14
	c-1.713-1.267-3.395-2.566-5.043-3.894c-3.651-2.929-7.107-5.94-10.328-9.027V41.343z"/>
<path d="M107.723,71.048c4.635,2.172,9.506,4.229,15.192,6.419c0.091,0.034,0.182,0.07,0.271,0.104
	c0.144-1.183,0.214-2.368,0.214-3.605v-0.919l0.771,0.499c1.563,1.012,3.439,1.876,5.431,2.781c2.648-4.4,5.026-9.19,7.073-14.25
	c-1.577-0.985-2.376-2.165-2.376-3.512c0.109-3.066,2.524-4.357,4.882-4.573c1.155-6.027,1.486-10.943,0.992-14.659
	c-0.005-0.036-0.011-0.071-0.016-0.107c-0.059-0.427-0.133-0.833-0.215-1.228c-0.015-0.073-0.029-0.147-0.046-0.22
	c-10.396,0.405-18.994,6.216-22.096,14.915l0.082,0.103l-0.131,0.281C114.929,59.13,112.236,63.76,107.723,71.048z"/>
<path d="M103.105,65.077c1.037,1.612,1.674,3.099,2.034,4.748c0.316,0.155,0.619,0.296,0.922,0.438
	c0.185,0.086,0.371,0.174,0.558,0.263c5.015-7.685,7.501-12.063,10.033-17.663c-0.588-0.719-1.182-1.4-1.765-2.058
	C110.595,55.332,106.634,60.13,103.105,65.077z"/>
<path d="M149.646,56.755c2.223,1.034,4.323,2.011,5.953,2.011c4.404,0,7.601-3.238,7.601-7.7c0-9.951-15.108-13.3-22-13.3h-0.274
	c1.155,5.55,0.021,12.636-0.689,16.103C143.584,53.937,146.801,55.433,149.646,56.755z"/>
<path d="M189.5,45.065c-5.638,0-10.4,4.763-10.4,10.4s4.763,10.4,10.4,10.4s10.4-4.763,10.4-10.4S195.138,45.065,189.5,45.065z"/>
<path d="M189.5,76.966c-5.638,0-10.4,4.763-10.4,10.4c0,5.637,4.763,10.399,10.4,10.399s10.4-4.763,10.4-10.399
	C199.9,81.729,195.138,76.966,189.5,76.966z"/>
<path d="M189.5,45.065c-5.638,0-10.4,4.763-10.4,10.4s4.763,10.4,10.4,10.4s10.4-4.763,10.4-10.4S195.138,45.065,189.5,45.065z"/>
<path d="M189.5,76.966c-5.638,0-10.4,4.763-10.4,10.4c0,5.637,4.763,10.399,10.4,10.399s10.4-4.763,10.4-10.399
	C199.9,81.729,195.138,76.966,189.5,76.966z"/>
</svg>
