<?xml version="1.0" encoding="utf-8"?>
<!-- Generator: Adobe Illustrator 15.0.0, SVG Export Plug-In  -->
<!DOCTYPE svg PUBLIC "-//W3C//DTD SVG 1.1//EN" "http://www.w3.org/Graphics/SVG/1.1/DTD/svg11.dtd" [
	<!ENTITY ns_flows "http://ns.adobe.com/Flows/1.0/">
]>
<svg version="1.1"
	 xmlns="http://www.w3.org/2000/svg" xmlns:xlink="http://www.w3.org/1999/xlink" xmlns:a="http://ns.adobe.com/AdobeSVGViewerExtensions/3.0/"
	 x="0px" y="0px" width="306px" height="128px" viewBox="-5.898 -10.037 306 128"
	 overflow="visible" enable-background="new -5.898 -10.037 306 128" xml:space="preserve">
<defs>
</defs>
<path d="M0.001,40.163h2.301v11.5c0,3.898,1.198,5,3.398,5s3.4-1,3.4-5v-11.5h2.3v11.399c0,5-1.9,7-5.7,7s-5.7-2-5.7-7L0.001,40.163
	L0.001,40.163z"/>
<polygon points="30.901,40.163 30.901,58.163 27.701,58.163 20.602,42.562 20.501,42.562 20.501,58.163 18.501,58.163 
	18.501,40.163 21.701,40.163 28.802,55.562 28.802,55.562 28.802,40.163 "/>
<rect x="38.302" y="40.163" width="2.3" height="18.1"/>
<polygon points="54.201,58.163 51.501,58.163 46.302,40.163 48.802,40.163 52.901,55.962 53.001,55.962 57.201,40.163 
	59.501,40.163 "/>
<polygon points="64.901,58.163 64.901,40.163 74.201,40.163 74.201,42.163 67.201,42.163 67.201,47.962 73.701,47.962 
	73.701,49.962 67.201,49.962 67.201,56.163 74.302,56.163 74.302,58.163 "/>
<path d="M82.602,49.862v8.301h-2.3v-18h6.199c3.2,0,4.302,2.3,4.302,4.5c0,2.1-1.2,3.698-3.302,4.1l0,0c2.102,0.3,2.802,1,2.9,4.7
	c0,0.8,0.3,3.6,0.6,4.7h-2.399c-0.601-1.2-0.5-3.601-0.7-6c-0.2-2.2-2-2.302-2.7-2.302L82.602,49.862L82.602,49.862z M82.602,47.862
	h3.5c1.7,0,2.398-1.398,2.398-3c0-1.3-0.6-2.698-2.398-2.698h-3.5V47.862L82.602,47.862z"/>
<path d="M99.001,52.762v0.5c0,2.5,1.602,3.2,3,3.2c1.802,0,3.2-0.8,3.2-2.9c0-4-8.1-3.5-8.1-9c0-3.2,2.3-4.898,5.3-4.898
	c3.3,0,5.1,1.6,5,5.3h-2.3c0-2-0.602-3.3-2.8-3.3c-1.4,0-2.802,0.698-2.802,2.6c0,4,8.102,3.4,8.102,9.1c0,3.802-2.602,5-5.602,5
	c-5.3,0.102-5.3-4-5.3-5.698H99L99.001,52.762L99.001,52.762z"/>
<rect x="114.501" y="40.163" width="2.302" height="18.1"/>
<polygon points="134.201,40.163 134.201,42.163 129.501,42.163 129.501,58.163 127.201,58.163 127.201,42.163 122.501,42.163 
	122.501,40.163 "/>
<path d="M139.602,58.163V40.062h9.3v2h-7v5.8h6.5v2h-6.5v6.2h7.2v2L139.602,58.163L139.602,58.163z M146.802,34.663l-3.302,3.5
	h-1.698l2.198-3.5H146.802z"/>
<path d="M163.701,40.163h5.5c2.3,0,4,0.8,4.9,2.698c0.7,1.5,0.8,5.102,0.8,5.7c0,3.8-0.3,6.102-1.1,7.3
	c-1,1.602-2.802,2.302-5.9,2.302h-4.2V40.163L163.701,40.163z M166.001,56.163h2.2c3.2,0,4.4-1.2,4.4-5.4v-3.6
	c0-3.602-1.102-5-3.5-5h-3v14H166.001z"/>
<polygon points="181.901,58.163 181.901,40.163 191.201,40.163 191.201,42.163 184.201,42.163 184.201,47.962 190.701,47.962 
	190.701,49.962 184.201,49.962 184.201,56.163 191.401,56.163 191.401,58.163 "/>
<path d="M48.302,65.562c8.398,0,13.6,4.5,13.6,11.602c0,4.8-2.5,8.398-7,10.198c3.8,2.5,6.1,6.302,9.2,11.5
	c1.8,2.9,2.8,4.302,5.7,8.2h-7.101l-5.5-8.5c-5.5-8.5-8-9.5-11-9.5h-2.5v18h-6v-41.5H48.302L48.302,65.562z M43.901,83.663h3.8
	c6.4,0,8.2-3.302,8.2-6.802c-0.1-3.898-2.4-6.3-8.2-6.3h-3.8V83.663z"/>
<polygon points="98.102,70.862 80.501,70.862 80.501,83.462 97.501,83.462 97.501,88.762 80.501,88.762 80.501,101.663 
	98.602,101.663 98.602,107.062 74.501,107.062 74.501,65.562 98.102,65.562 "/>
<polygon points="143.401,107.062 138.302,107.062 110.501,75.062 110.501,107.062 104.901,107.062 104.901,65.562 109.701,65.562 
	137.802,97.663 137.802,65.562 143.401,65.562 "/>
<polygon points="191.001,107.062 185.802,107.062 158.102,75.062 158.102,107.062 152.501,107.062 152.501,65.562 157.201,65.562 
	185.401,97.663 185.401,65.562 191.001,65.562 "/>
<polygon points="223.602,70.862 206.001,70.862 206.001,83.462 223.001,83.462 223.001,88.762 206.001,88.762 206.001,101.663 
	224.201,101.663 224.201,107.062 200.102,107.062 200.102,65.562 223.602,65.562 "/>
<path d="M250.302,74.663c-3.5-3.302-7-4.302-9.802-4.302c-3.8,0-6.6,2-6.6,4.9c0,8,18,7.899,18,21.1c0,6.5-4.9,11.302-11.601,11.302
	c-4.5,0-8.199-1.2-11.601-3.802v-7.6c3,3.899,6.9,6,11,6c4.601,0,6.8-2.9,6.8-5.2c0-8.6-18-9.5-18-21c0-6.7,5-11.1,12.602-11.1
	c3.199,0,6.3,1,9.199,2.898v6.803H250.302z"/>
<path d="M294.302,60.262L294.302,60.262v-1.6h-2.601l-0.3,0.8c-2,2.6-8.5,10.3-19.2,14.2l0.9,2.6c3.3-1.3,6.1-2.8,8.6-4.3v34.1
	h12.601V60.262L294.302,60.262"/>
<path d="M240.201,51.762L240.201,51.762l-0.1-0.2l0,0L240.201,51.762z M240.501,51.262c-0.1,0-0.3-0.1-0.3-0.1
	c0.3-0.5,0-0.802-0.3-1l-0.2,0.3c0.102,0.2,0.3,0.1,0.3-0.102c-0.198,0.5-0.1,0.9,0.102,1.302
	C240.201,51.462,240.401,51.362,240.501,51.262 M236.802,48.163c-0.102,0,0.5-0.302,0.3-0.4c-0.3-0.2-0.7-0.3-0.9-0.6
	c-0.2,0,0.3-0.602,0.102-0.7c-0.302-0.2-1.5-0.4-1.2,0c0.5,0.6,0.898,0.898,1.3,1.5c0.5,0.3,1,0.7,1.5,1.1
	c0.1,0.102,0.1,0.3,0.1,0.4v-0.7C238.001,48.462,237.102,48.462,236.802,48.163 M239.302,47.962c0,0.1,0.1,0.1,0.3,0.1l-0.2-0.398
	L239.302,47.962z M238.701,46.663l0.2,0.3C238.901,46.862,238.802,46.762,238.701,46.663 M238.802,47.262c0.1-0.1,0.1-0.2,0.198-0.1
	l0,0l-0.198-0.2V47.262z M239.102,47.163l0.1,0.1L239.102,47.163L239.102,47.163z M236.901,46.362c-0.3-0.3-0.4-0.698-0.3-1.198
	c0,0.198-0.2,0.3-0.3,0.198l0.198-0.3c0.4,0.2,0.7,0.4,0.5,0.9c0,0,0.2,0.1,0.302,0.1C237.201,46.163,237.102,46.262,236.901,46.362
	l0.2,0.2c0.2-0.3,0.3-1,0.3-1c-0.5-0.8-1.1-1.6-1.6-2.398c-0.102,0-0.302,0.1-0.302,0v-0.302l-0.198-0.3l-0.102-0.1l0,0
	c-0.1,0-0.2,0.1-0.2,0.2v-0.301l-0.1-0.1l0,0l0,0l0.2,0.1l0,0l0,0h0.1l-0.5-0.8l-0.2-0.1c-0.198-0.101-0.398-0.2-0.299-0.5
	l-0.1-0.101v0.101v-0.101l-0.4-0.6c-0.3-0.4-0.6-0.8-0.898-1.1c-2.102-2.4-4.5-4.102-7.7-5.5c-1.8-0.7-3.602-1.4-6-1.102
	c-4.9,1.2-6.7,5.4-7.102,10.8c0,1.9,1.602,4.102,2.802,5.302c-0.102,0.398-0.2,0.8-0.302,1.1c-0.3,0.7,0.102,2.3,1.102,3.4
	c2.3,1,1.7-1.302,1.8-1.2c0.5-1.102,0-0.8,0.4-1.9c-0.302,0.602-0.9-0.3-0.102-0.898c1.3-1,0.3-1.7,0.9-1.802
	c0.2,0,0.2-0.1,0.3-0.198c1.1-0.102,2.2-1,3.8-0.802c0.4,0,0.8-0.3,1.2-0.5c0.3,0,0.5,0.2,0.7,0.2c0.3,0.102,0.6,0,1-0.1
	c-0.3,0-0.602,0.1-0.9,0.1c-0.2,0,0.2-0.398,0.4-0.5c0.1-0.1,0.1,0.3,0.2,0.3c0.1,0,0.3-0.1,0.5-0.198c0.1-0.102,0,0.3,0,0.198
	c0.198-0.1,0.5-0.398,0.6-0.3l0.2,0.2l0.2,0.1h0.1l1.1-0.198l0,0c-0.198,0-0.398-0.102-0.5-0.4c0.102,0.1,0,0.2-0.1,0.2v-0.2
	c0.2,0,0.4-0.1,0.5,0.2c0,0,0.1,0,0.1-0.102c0,0.102,0,0.2,0,0.2h0.101c0-0.2-0.2-0.5-0.2-0.5l-1.3-0.5
	c-0.101,0.101-0.101,0.101-0.101,0.101l-0.1-0.2l-0.2-0.102h-0.1l0,0v0.102l-0.101-0.101h0.101l0,0l0,0l0,0l-0.4-0.1h-0.1
	c-0.102,0-0.2,0.1-0.3-0.1h-0.101l0,0l0,0l-0.3-0.102l-0.7-0.2c-1.5-0.398-2.898-0.3-4.6-0.198c-0.5,0-0.9,0.1-1.4,0.198
	c-0.2-0.3-0.3-0.8-0.2-1.5c-0.1,1.5-2-0.198-0.398-1.398c2.1-0.8,0.8-2,2.2-2.7c0.198,0,0.3-0.1,0.5-0.2
	c1.1,0.4,4.198,0.3,6.698,2.4c0.7,0.5,1.7,0.5,2.4,0.7c0.5,0.3,0.7,0.898,1,1.198c0.5,0.5,1.1,0.802,1.7,1
	c-0.5-0.398-1-0.6-1.602-1.1c-0.398-0.299,0.802-0.299,1.201-0.199c0.2,0-0.2,0.602,0,0.602c0.2,0.198,0.602,0.3,0.9,0.398
	c0.198,0-0.302,0.4-0.2,0.4c0.398,0.2,1.3,0,1.3,0.3l0.102,0.7l0.198,0.3l0.302,0.1c0.698,0.301,1.299,0.7,1.898,1.101
	L236.901,46.362z M224.802,44.262c-0.102,0-0.2,0-0.302-0.2C224.602,43.862,224.701,44.062,224.802,44.262 M232.701,39.762
	c-0.2-0.1-0.398-0.3-0.3-0.7C232.802,39.062,232.802,39.362,232.701,39.762 M229.501,45.163L229.501,45.163L229.501,45.163
	L229.501,45.163z M229.401,45.163L229.401,45.163h-0.1l0.1,0.1V45.163z M228.802,46.362c0,0,0.1-0.3,0-0.3
	c-0.2,0-0.4,0.102-0.5,0.102c-0.102,0-0.102-0.302-0.2-0.302c-0.2,0-0.7,0.302-0.5,0.4c0.398,0.1,0.6,0,0.898,0.1h0.9l0.2,0.102
	l-0.2-0.3C229.302,46.163,229.001,46.462,228.802,46.362 M229.701,45.462c0,0.1,0.102,0,0.102,0l-0.2-0.102L229.701,45.462z
	 M231.001,46.462c0-0.3-0.198-0.3-0.398-0.3v0.199c0.1,0,0.2,0,0.1-0.198c0.102,0.3,0.2,0.398,0.4,0.5c0-0.102,0.1-0.2,0.1-0.2
	L231.001,46.462L231.001,46.462z M231.102,46.663h0.1l0,0H231.102L231.102,46.663z"/>
<path d="M226.602,5.862L226.602,5.862C226.602,5.862,226.501,5.962,226.602,5.862 M227.901,5.562L227.901,5.562
	C227.802,5.562,227.802,5.562,227.901,5.562 M228.001,5.562c-0.1,0-0.198,0.102-0.5,0.102
	C227.602,5.663,227.802,5.663,228.001,5.562L228.001,5.562z M227.901,5.562L227.901,5.562
	C228.201,5.562,228.102,5.562,227.901,5.562 M227.802,5.462l-0.4-0.4L227.802,5.462l0.1,0.1l0,0L227.802,5.462z M216.501,4.262
	l1,0.2c1.2,0.3,2.302,0.6,3.4,1.2l0.8,0.5l-1.1-0.802c-0.5-0.3-1.301-0.5-2.301-0.698c-0.101,0-0.101-0.2-0.399-0.2
	c-0.601-0.602-1.601,0.7-1.7-1.3c0.3-0.102,0.9,0,1.2-0.102c0.7-0.3,2.7-0.7,1.5-0.6c-0.9,0.199-1.601,0.3-2.3,0.5l-0.5,0.1
	C216.102,5.362,216.401,3.762,216.501,4.262 M219.001,4.163L219.001,4.163l-0.5-0.102L219.001,4.163
	C218.901,4.163,218.901,4.163,219.001,4.163 M217.102,3.262c0.8-0.1,1.7-0.4,2.5-0.3c-0.4,0-0.3-0.102,0.1-0.102l0.4,0.102
	c-0.8,0-1.5,0.2-2.2,0.2c0,0-0.3,0.1-0.5,0.198C217.201,3.362,217.201,3.362,217.102,3.262l-0.5,0.1c0.398,0,1.5-0.1,1.5-0.1
	c2.1-0.4,4.2-0.3,5.898,0.4c0.102,0,0.302,0,0.4,0.1l0.399,0.2l0.701,0.399l0.301,0.101l0,0c0.1,0.1,0.1,0,0.1-0.102l0.3,0.302
	c0.102,0.1,0.102,0.1,0.2,0.198c0,0-0.1-0.1-0.2-0.1c0,0,0,0-0.1-0.101l-0.101-0.099l-0.198-0.2l0.1,0.102l-0.2-0.102l-0.1-0.1
	c0.3,0.2,0.6,0.4,0.8,0.7c0,0.1,0,0.2,0,0.398v0.2l0,0c0.1,0,0.2-0.1,0,0v-0.2c0,0.102,0.1,0.102,0.4,0.102c0,0,0,0,0.1,0.1
	c-0.2,0-0.3,0.102-0.4,0.102l0,0c0.2,0,0.302-0.102,0.4-0.102l0.1,0.102c0.102,0.198,0.5,0,0.302-0.102v-0.1l0,0
	c0.1,0,0.198,0,0.398-0.102c-0.1-0.1-0.3-0.3-0.398-0.398c0-0.3,0-0.5,0-0.602l-0.102-0.3v0.102V4.062c-0.1-0.5-0.398-0.898-0.7-1.3
	c-0.5-0.7-1.198-1.3-2-1.8c0.2,0.2,0.5,0.5,0.5,0.5c-0.198,0-0.698-0.602-0.898-0.7c0.1-0.1,0.2,0,0.3,0.1
	c-0.1-0.1-0.1-0.1-0.2-0.198c2,0.6,5.602,1.898,7.3,4.3c0.4,0.5,0.802,1,1.102,1.5c0,0.1,0,0.3-0.102,0.398v0.101
	c0.7-0.102-1,0.1,0.4,0l0.2,0.3c0.3,0-0.5,0.3,0.7,0.1l0.1-0.3c0-0.1,0-0.1,0-0.2c0.2,0,0.3,0,0.5,0l0,0l0,0l0,0l0,0v-0.1l-0.2-0.3
	l-0.102-0.101c0-0.1,0-0.3,0-0.398c0.1-0.7-0.102-1.5-0.4-2.2c1.102,0.9,2,2,2.8,3.1c0.5,0.2,0.5,0.7,0.602,1.102
	c-0.102,0-0.102,0,0,0c0.2,0.398,0.5,0.6,1.7,0.5c0.1-0.2,0.1-0.4,0.198-0.5c0.102,0,0.102,0,0.2,0l0,0l0,0l-0.1-0.103l0,0
	c0.2-0.698,0.2-1.398,0.2-2c0-0.3,0-0.6-0.102-0.898c0.3,0.1,0.5,0.2,0.602,0.5c1.198,1,2.398,2.1,3.3,3.398
	c1.898,2.4,3.398,5.302,4.2,8.5c0.698,2.4,1.5,7.102,1.398,9.5c0.2,3.2,1,1.7,1.102,1.5c0.698-2,0.5-3.6,0.1-7.6
	c0.1,1.8-0.8-2.7-1.4-5.3c-0.698-4.102-4.5-9-8.5-12l-0.699-0.601l-0.4-0.3l0,0l0,0l0,0c1.5-1-2,1.3-1.6,1.102l0,0l0,0l0,0v0.1
	v0.199c0.1,0.5,0.198,1.1,0.198,1.7l0,0c-1.198-1.5-2.5-3-4.5-4l-0.198-0.101h-0.101l0,0l0,0c1-1.7-1.398,2.3-1.1,1.9l0,0l0.1,0.1
	l0.3,0.4v0.1c-0.5-0.5-1-1-1.6-1.6c-1.8-1.3-3.8-2.2-5.7-2.2l-0.5-0.1h-0.3h-0.1h-0.101l0,0l0,0c-0.2,0.6,0.4-1.5-0.398,1.5l0,0l0,0
	l0,0l0,0l0.698,0.5c0.5,0.399,0.801,0.699,1.101,1.1c0.3,0.3,0.5,0.6,0.7,0.9c-0.7-0.4-1.4-0.602-1.9-0.802
	c-0.5-0.198-0.9-0.398-1.3-0.5l-0.9-0.198l-0.6-0.101C220.102,2.663,218.501,2.862,217.102,3.262L217.102,3.262z M226.701,5.462
	c0,0.1-0.1,0.2-0.1,0.2l0,0c0-0.102,0-0.2,0-0.302C226.701,5.362,226.701,5.462,226.701,5.462 M225.602,3.163
	c-0.7-0.7,0.7,0.3,0.898,1c0,0.1,0,0.1,0,0.198c-0.1-0.1-0.198-0.1-0.398-0.198C226.102,3.862,225.901,3.462,225.602,3.163
	 M219.201,4.163h-0.1l0.3,0.1L219.201,4.163z M218.602,4.062c-0.2-0.1-0.5-0.2-0.8-0.2L218.602,4.062z M219.001,4.262l0.302,0.2
	C219.201,4.362,219.102,4.262,219.001,4.262 M221.001,5.062c-0.3-0.2-0.6-0.3-0.8-0.398l0.4,0.198L221.001,5.062z M280.102,9.262
	c-0.4-0.1-1.7-0.3-1.102,0.1c0.801,0.5,1.4,0.7,2.2,1.2c0.7,0.3,1.3,0.5,2,0.9l0.4,0.398l-0.499-0.698c-0.2-0.302-0.9-0.2-1.4-0.5
	c-0.1,0,0.2-0.302,0-0.4c-0.398-0.2-0.8-0.2-1.1-0.5C280.302,9.862,280.302,9.362,280.102,9.262 M283.802,10.362l-0.4-0.399l0.1,0.3
	C283.602,10.362,283.701,10.362,283.802,10.362 M262.302,1.462c-0.602,0-1.302,0.1-2,0.2c0.398,0.1,0.698,0.198,1.1,0.398
	C261.901,2.262,262.001,1.862,262.302,1.462 M258.602,3.362l0.398,0.2C258.901,3.462,258.802,3.462,258.602,3.362 M283.001,9.562
	h-0.1H283.001L283.001,9.562z M282.901,9.562L282.901,9.562l-0.3-0.1l0.1,0.3C282.802,9.562,282.802,9.562,282.901,9.562
	 M282.201,9.163l0.4,0.3C282.501,9.362,282.401,9.262,282.201,9.163 M286.602,13.262c-0.102,0-0.3-0.1-0.3-0.1
	c-0.102-0.5-0.5-0.7-0.9-1v0.3c0.2,0.2,0.3,0.1,0.2-0.102c0.2,0.5,0.5,0.9,0.898,1.2C286.501,13.462,286.701,13.362,286.602,13.262
	 M286.501,13.562L286.501,13.562l0.2,0.2l0,0L286.501,13.562z M276.901,30.862c-1.9-1.898-3.101-4.6-4.7-6.1
	c-2.2-2.2-5.6-3.9-7.1-4.4c1.5,1,4.3,2.4,6.699,4.5c1.699,1.5-2.699,0.5-4-0.1c-0.699-0.1-0.199-2.2-1-2.3
	c-1.199-0.9-2.199-0.8-3.301-1.102c-0.6,0,0.602-1.198,0.301-1.198c-0.699-0.4-1.899-0.302-2.699-0.4c0-0.2,0-0.4,0-0.6
	c0.3-2.2-1.301-4.102-1.5-6.102c0.398,0.2,0.8,0.2,0.699-0.2c-0.199-1.398-0.301-2.198,0.101-3.1c0-0.101,0-0.3,0-0.4
	c0.7-1,1.5-1.898,2.6-2.6c0.5,0,0.9,0.1,1.302,0.2c-0.302-0.102-0.602-0.301-0.9-0.5c1.2-0.7,2.6-1,4.2-0.801
	c1,0.101,2-0.199,3-0.101c0.398,0.101,0.7,0.2,1,0.4c0.7,0.699,1.398,1.3,2.3,1.699c0.1-0.199,0.2-0.5,0.3-0.699
	c0.2,0,0.4,0.1,0.602,0.1c-0.2-0.1-0.4-0.1-0.5-0.2c0-0.1,0-0.199,0-0.199c0.3,0.101,0.6,0.101,1,0.101c0.198,0,0,0.399,0.1,0.399
	c0.5,0.199,1.2-0.101,1.5,0.199l0.598,0.603l0.4,0.3l0.3,0.1c0.8,0.2,1.7,0.5,2.4,0.802l0,0c-0.4-0.2-0.801-0.5-1.102-1
	c0.102,0.198,0,0.3-0.2,0.198v-0.3c0.4,0.102,0.9,0.3,1,0.8c0,0,0.2,0,0.302,0c0.1,0.102,0,0.2,0,0.302l0.3,0.1
	c0-0.3-0.4-0.9-0.4-0.9c-1-0.698-2-1.3-3-1.898c-0.1,0-0.2,0.1-0.3,0l-0.2-0.3l-0.399-0.303l-0.2-0.1l0,0
	c-0.102,0-0.102,0.1-0.102,0.2l-0.198-0.2h-0.101l0,0l0,0l0.2,0.1l0,0h0.101h0.101l-1-0.6l-0.2-0.1c-0.3-0.102-0.5-0.102-0.6-0.4
	l-0.2-0.1v0.1l-0.102-0.1l-0.8-0.4c-0.5-0.2-1-0.5-1.6-0.7c-3.5-1.398-7.602-1.7-11.3,0.5c-1.9,1.2-3.602,2.9-4.602,5.102
	c0,0.1,0,0.1,0,0.198c-1,0.302-2.2,1.602-2.1,1.602c-0.602,3.898,0.6,7.5,2.398,10.5c0.4,0,0.802,0,0.802,0.398
	c-0.102,0.4,0,0.7,0,1l0.898,1.2l0.4,0.3l0,0c0.3,0.102,0.398-0.1,0.5-0.3c0,0,0,0.102,0.1,0.102c0,0.198,0.102,0.5,0.2,0.698
	c0.2,0.102,0.4,0.2,0.5,0.302c-0.1-0.102-0.3-0.2-0.5-0.2l-0.098-0.102l-0.802-0.398l-0.3-0.102c0.7,0.9,1.602,1.7,2.4,2.602
	c0.2,0.1,0.5,0.3,0.6,0.398c0.8,0.301,1.602,0.601,1.401,1.601l0.398,0.398v-0.198l0.102,0.3l1.7,1.8c1.1,1.2,2.1,2.5,3,3.8
	c2.898,4.4,5.1,9,5.3,13.4c0.3,4.5-2.602,7.1-5.8,5.7c-4-1.7-7.7-6.7-10.302-11.4c-2.198-3.9-4.6-7.5-6.8-11.2h0.102
	c0,0-6.9-20-19.5-21.398c-2.302-0.302-4.302-0.4-6.2-0.4c0.1-0.7-0.4-1.4-0.8-2l0.1,0.3c0.2,0.4,0.3,0.4,0.101,0
	c0.301,0.5,0.399,1,0.5,1.602c-5,0-8.801,0.698-11.601,2.1c-0.3-0.1-0.7-0.3-1-0.4c-5-1.5-3.2-5.6-3.2-5.6
	c-14.399,12.798-15.5,21.698-14.6,26.298c0.2,1.3,0.6,2.5,1.398,3.5c0,0.102,0.102,0.102,0.102,0.102l0,0c0.3,0.398,0.7,0.8,1.1,1.1
	c4,2.8,10.9-0.2,15.602-6.7c5.5,2.102,6.398-2.2,12.8-0.6c-4.8-1,3.1-5.4,5-0.102c0.5,3.602,0.5,4,2.399,6.2
	c2.301,3,5.899,7.102,7.801,11.102c1,2.1,2.699,3.898,4.398,6.198c4.4,6,8.2,12.602,21.2,15.602c7.101,1.398,16.101-3.4,18.7-10.4
	c2.898-6.8,1.7-12.398,0.5-17.2C283.401,35.962,279.802,33.262,276.901,30.862 M273.501,6.062c0.102,0,0.2,0.2,0.302,0.3
	c-0.302,0-0.7,0-0.7,0c-0.001-0.1-0.102-0.199-0.102-0.399C273.201,6.062,273.401,6.062,273.501,6.062 M272.401,4.062
	c-0.3,0-0.601-0.2-0.8-0.5C272.001,3.562,272.302,3.762,272.401,4.062 M255.501,13.362c0,0.2,0,0.4,0.102,0.602l-0.602,0.5
	c-0.6-1.102-1.1-2.7,0.4-3.5c0,0-0.3-0.602-0.4-0.9c0.302-0.2,0.602-0.2,0.9-0.1c-0.2,0.898-0.4,1.898-0.3,2.7
	c-0.2,0.398-0.4,0.698-0.602,1.1C255.001,13.362,255.302,13.262,255.501,13.362 M268.901,35.362c-1.2-0.3-1.101-1.398-1.101-2.5
	C268.701,33.163,269.102,34.163,268.901,35.362 M258.201,3.262c-0.3-0.1-0.5-0.3-0.3-0.7l0,0l-0.9,0.7
	C257.501,3.163,257.901,3.163,258.201,3.262 M258.201,2.262l-0.2,0.3l0.601-0.399L258.201,2.262z M255.701,4.362
	c0.5-0.3,0.9-0.8,1.4-1.198C256.602,3.362,256.102,3.762,255.701,4.362 M274.802,8.062L274.802,8.062l-0.801-0.399l-0.1,0.1
	L274.802,8.062z"/>
</svg>
