<?xml version="1.0" encoding="utf-8"?>
<!-- Generator: Adobe Illustrator 15.0.0, SVG Export Plug-In  -->
<!DOCTYPE svg PUBLIC "-//W3C//DTD SVG 1.1//EN" "http://www.w3.org/Graphics/SVG/1.1/DTD/svg11.dtd" [
	<!ENTITY ns_flows "http://ns.adobe.com/Flows/1.0/">
]>
<svg version="1.1"
	 xmlns="http://www.w3.org/2000/svg" xmlns:xlink="http://www.w3.org/1999/xlink" xmlns:a="http://ns.adobe.com/AdobeSVGViewerExtensions/3.0/"
	 x="0px" y="0px" width="186px" height="189px" viewBox="-3.7 -2.601 186 189"
	 overflow="visible" enable-background="new -3.7 -2.601 186 189" xml:space="preserve">
<defs>
</defs>
<g>
	<defs>
		<rect id="SVGID_57_" x="0.1" width="176.999" height="154.399"/>
	</defs>
	<clipPath id="SVGID_58_">
		<use xlink:href="#SVGID_57_"  overflow="visible"/>
	</clipPath>
	<path clip-path="url(#SVGID_58_)" fill="#231F20" stroke="#000000" stroke-miterlimit="10" d="M119.599,179.099
		c-1,0-2-0.2-2.799-0.399c-0.9-0.199-1.701-0.601-2.4-1.101c-0.699-0.399-1.199-0.899-1.6-1.601c-0.301-0.5-0.5-1.199-0.5-1.899
		c0-0.3,0.1-0.7,0.199-1.101c0.201-0.399,0.301-0.699,0.701-1c0.199-0.199,0.5-0.399,0.897-0.5c0.399-0.199,0.802-0.3,1.201-0.3
		c0.299,0,0.698,0.199,1.101,0.3c0.399,0.101,0.801,0.399,1.198,0.7c0.302,0.199,0.701,0.399,0.899,0.601
		c0.201,0.1,0.302,0.3,0.5,0.399c0.201,0.101,0.302,0.101,0.302,0.101c0.198,0.1,0.198,0.1,0.299,0.1c0.201,0,0.5-0.199,0.603-0.3
		c0.1-0.101,0.299-0.3,0.299-0.5c0-0.3-0.199-0.7-0.5-0.899c0,0-0.199,0-0.199-0.101s-0.201-0.101-0.201-0.101
		c-0.199,0-0.199-0.101-0.299-0.199c-0.201,0-0.301-0.2-0.701-0.2c-0.199-0.2-0.5-0.2-0.699-0.3c-0.301,0-0.5-0.2-0.899-0.2
		c-2.8-1-4.199-2.899-4.199-5.601c0-0.899,0.199-1.8,0.5-2.601c0.399-0.699,0.799-1.399,1.399-1.899
		c0.699-0.601,1.398-1,2.199-1.399c0.9-0.3,1.9-0.5,2.9-0.5c0.9,0,1.699,0.2,2.4,0.3c0.799,0.301,1.397,0.5,2,1
		c0.6,0.4,1,0.801,1.299,1.301c0.301,0.5,0.5,1.1,0.5,1.699c0,0.801-0.199,1.4-0.699,1.9s-1,0.699-1.801,0.699
		c-0.4,0-0.9,0-1.299-0.199c-0.301-0.2-0.9-0.5-1.4-0.9c-0.301-0.3-0.5-0.5-0.701-0.5c-0.199-0.199-0.398-0.199-0.6-0.199
		c-0.199,0-0.4,0-0.5,0.199c-0.1,0.2-0.199,0.301-0.199,0.5c0,0.301,0.199,0.5,0.299,0.7c0.301,0.2,0.9,0.5,1.602,0.7
		c0.898,0.3,1.699,0.5,2.398,0.899c0.701,0.399,1.4,0.8,1.701,1.199c0.699,0.5,1.199,1.2,1.5,1.899c0.4,0.9,0.5,1.701,0.5,2.701
		c0,0.898-0.201,1.699-0.5,2.5c-0.301,0.898-0.801,1.6-1.4,2.1c-0.699,0.699-1.399,1.199-2.301,1.601
		C121.899,178.899,120.8,179.099,119.599,179.099"/>
</g>
<g>
	<defs>
		<rect id="SVGID_56_" x="0.1" width="176.999" height="154.399"/>
	</defs>
	<clipPath id="SVGID_59_">
		<use xlink:href="#SVGID_56_"  overflow="visible"/>
	</clipPath>
	<path clip-path="url(#SVGID_59_)" fill="#231F20" d="M142.399,106.299l-1.301-1.2l-1.299,1.2l-6.1,5.5
		c1.699,0.199,3.6,0.199,5.5,0.199l1.699-1.6L142.7,112h5.8L142.399,106.299z"/>
</g>
<g>
	<defs>
		<rect id="SVGID_55_" x="0.1" width="176.999" height="154.399"/>
	</defs>
	<clipPath id="SVGID_60_">
		<use xlink:href="#SVGID_55_"  overflow="visible"/>
	</clipPath>
	<path clip-path="url(#SVGID_60_)" fill="#231F20" d="M142.399,97.399l-1.301-1.199l-1.299,1.199l-14.301,12.9
		c1.6,0.3,3.1,0.699,4.801,1l10.799-9.801l11.602,10.5h5.898L142.399,97.399z"/>
</g>
<g>
	<defs>
		<rect id="SVGID_54_" x="0.1" width="176.999" height="154.399"/>
	</defs>
	<clipPath id="SVGID_61_">
		<use xlink:href="#SVGID_54_"  overflow="visible"/>
	</clipPath>
	<path clip-path="url(#SVGID_61_)" fill="#231F20" d="M62.3,104.599v-5.2L48.6,111.7c1.801,0.199,3.601,0.301,5.5,0.301
		L62.3,104.599z"/>
</g>
<g>
	<defs>
		<rect id="SVGID_53_" x="0.1" width="176.999" height="154.399"/>
	</defs>
	<clipPath id="SVGID_62_">
		<use xlink:href="#SVGID_53_"  overflow="visible"/>
	</clipPath>
	<path clip-path="url(#SVGID_62_)" fill="#231F20" d="M142.399,88.5l-1.301-1.2l-1.299,1.2l-21.4,19.2
		c1.301,0.6,2.699,1.199,4.101,1.6L141,92.6l21.301,19.4h5.799L142.399,88.5z"/>
</g>
<g>
	<defs>
		<rect id="SVGID_52_" x="0.1" width="176.999" height="154.399"/>
	</defs>
	<clipPath id="SVGID_63_">
		<use xlink:href="#SVGID_52_"  overflow="visible"/>
	</clipPath>
	<path clip-path="url(#SVGID_63_)" fill="#231F20" d="M62.3,95.799v-5.3l-22,19.6c1.601,0.5,3.101,0.8,4.8,1.101L62.3,95.799z"/>
</g>
<g>
	<defs>
		<rect id="SVGID_51_" x="0.1" width="176.999" height="154.399"/>
	</defs>
	<clipPath id="SVGID_64_">
		<use xlink:href="#SVGID_51_"  overflow="visible"/>
	</clipPath>
	<path clip-path="url(#SVGID_64_)" fill="#231F20" d="M37.1,109.099l25.2-22.6v-5.3l-29.4,26.2
		C34.3,108.099,35.7,108.599,37.1,109.099"/>
</g>
<g>
	<defs>
		<rect id="SVGID_50_" x="0.1" width="176.999" height="154.399"/>
	</defs>
	<clipPath id="SVGID_65_">
		<use xlink:href="#SVGID_50_"  overflow="visible"/>
	</clipPath>
	<path clip-path="url(#SVGID_65_)" fill="#231F20" d="M142.399,79.199l-1.301-1.2l-1.299,1.2l-27.701,24.8
		c1.201,0.801,2.4,1.601,3.5,2.2l25.4-22.8l30.801,28.1c1-0.5,2.299-1.199,3.4-2.3L142.399,79.199z"/>
</g>
<g>
	<defs>
		<rect id="SVGID_49_" x="0.1" width="176.999" height="154.399"/>
	</defs>
	<clipPath id="SVGID_66_">
		<use xlink:href="#SVGID_49_"  overflow="visible"/>
	</clipPath>
	<path clip-path="url(#SVGID_66_)" fill="#231F20" d="M176.999,105.7v-3.9l-34.6-31.5l-1.302-1.2l-1.299,1.2l-32.899,29.6
		c1,0.899,2,1.7,3,2.601l31.1-28.1l35.6,32.6C176.8,106.599,176.999,106.2,176.999,105.7"/>
</g>
<g>
	<defs>
		<rect id="SVGID_48_" x="0.1" width="176.999" height="154.399"/>
	</defs>
	<clipPath id="SVGID_67_">
		<use xlink:href="#SVGID_48_"  overflow="visible"/>
	</clipPath>
	<path clip-path="url(#SVGID_67_)" fill="#231F20" d="M30.3,106.2L62,77.9c-0.4-1.6-1.2-2.7-2.1-3.4L28,102.899l-21.1-18.8
		c2.4,4.2,5.4,8.3,9,11.8C20.1,100.099,25,103.599,30.3,106.2"/>
</g>
<g>
	<defs>
		<rect id="SVGID_47_" x="0.1" width="176.999" height="154.399"/>
	</defs>
	<clipPath id="SVGID_68_">
		<use xlink:href="#SVGID_47_"  overflow="visible"/>
	</clipPath>
	<path clip-path="url(#SVGID_68_)" fill="#231F20" d="M26.6,98.099l1.3,1.101l1.3-1.101l28-25c-0.8-0.2-1.3-0.3-1.3-0.3
		c-1.4,0-2.7-0.1-3.9-0.3l-24,21.6l-26.5-23.8c0.6,2.6,1.4,5,2.4,7.4L26.6,98.099z"/>
</g>
<g>
	<defs>
		<rect id="SVGID_46_" x="0.1" width="176.999" height="154.399"/>
	</defs>
	<clipPath id="SVGID_69_">
		<use xlink:href="#SVGID_46_"  overflow="visible"/>
	</clipPath>
	<path clip-path="url(#SVGID_69_)" fill="#231F20" d="M136.899,69.199c-1.801-0.2-3.5-0.5-4.899-0.9l-28.5,25.8l-9.8-8.8l6.1,7.3
		l-0.1-0.101c1.699,2,3.5,4,5.199,5.7L136.899,69.199z"/>
</g>
<g>
	<defs>
		<rect id="SVGID_45_" x="0.1" width="176.999" height="154.399"/>
	</defs>
	<clipPath id="SVGID_70_">
		<use xlink:href="#SVGID_45_"  overflow="visible"/>
	</clipPath>
	<polygon clip-path="url(#SVGID_70_)" fill="#231F20" points="142.399,61.399 141.099,60.099 139.8,61.399 139.399,61.699 
		139.399,67 140.999,65.5 176.7,98.099 176.999,97.899 176.999,93 	"/>
</g>
<g>
	<defs>
		<rect id="SVGID_44_" x="0.1" width="176.999" height="154.399"/>
	</defs>
	<clipPath id="SVGID_71_">
		<use xlink:href="#SVGID_44_"  overflow="visible"/>
	</clipPath>
	<path clip-path="url(#SVGID_71_)" fill="#231F20" d="M126.3,64.599l-22.801,20.5L67.2,52.5l-1.3-1.2l-0.4,0.3
		c0.9,1,1.6,1.8,2.4,2.7l0.6,0.7l13.1,15.6l20.8,18.601l1.199,1.198l1.4-1.199l24.4-22c-0.9-0.5-1.601-1-2.199-1.6L126.3,64.599z"/>
</g>
<g>
	<defs>
		<rect id="SVGID_43_" x="0.1" width="176.999" height="154.399"/>
	</defs>
	<clipPath id="SVGID_72_">
		<use xlink:href="#SVGID_43_"  overflow="visible"/>
	</clipPath>
	<polygon clip-path="url(#SVGID_72_)" fill="#231F20" points="142.399,52.5 141.099,51.199 139.8,52.399 139.399,52.799 
		139.399,58.099 140.999,56.599 176.7,89.2 176.999,88.899 176.999,84 	"/>
</g>
<g>
	<defs>
		<rect id="SVGID_42_" x="0.1" width="176.999" height="154.399"/>
	</defs>
	<clipPath id="SVGID_73_">
		<use xlink:href="#SVGID_42_"  overflow="visible"/>
	</clipPath>
	<path clip-path="url(#SVGID_73_)" fill="#231F20" d="M26.6,89.2l1.3,1.199l1.3-1.199l19.6-17.5c-1.399-0.5-2.7-1.1-3.899-1.9
		L28,85.099l-27.9-25c0.1,2,0.3,3.9,0.6,5.8L26.6,89.2z"/>
</g>
<g>
	<defs>
		<rect id="SVGID_41_" x="0.1" width="176.999" height="154.399"/>
	</defs>
	<clipPath id="SVGID_74_">
		<use xlink:href="#SVGID_41_"  overflow="visible"/>
	</clipPath>
	<polygon clip-path="url(#SVGID_74_)" fill="#231F20" points="142.399,43.5 141.099,42.299 139.8,43.5 139.399,43.799 
		139.399,49.199 140.999,47.599 176.7,80.199 176.999,80 176.999,75.099 	"/>
</g>
<g>
	<defs>
		<rect id="SVGID_40_" x="0.1" width="176.999" height="154.399"/>
	</defs>
	<clipPath id="SVGID_75_">
		<use xlink:href="#SVGID_40_"  overflow="visible"/>
	</clipPath>
	<path clip-path="url(#SVGID_75_)" fill="#231F20" d="M26.6,80.299l1.3,1.1l1.3-1.1l13.5-12.1c-1-0.9-2-1.8-2.7-2.9l-12,10.8
		l-27.7-24.8c-0.2,1.6-0.2,3.4-0.3,5.1L26.6,80.299z"/>
</g>
<g>
	<defs>
		<rect id="SVGID_39_" x="0.1" width="176.999" height="154.399"/>
	</defs>
	<clipPath id="SVGID_76_">
		<use xlink:href="#SVGID_39_"  overflow="visible"/>
	</clipPath>
	<path clip-path="url(#SVGID_76_)" fill="#231F20" d="M103.499,76.099L67.2,43.399l-1.3-1.2l-1.301,1.2l-4,3.5
		c1,0.8,2.101,1.7,3,2.6l2.301-2l36.4,32.7l1.199,1.1l1.4-1.2l19.698-17.8l-2.601-3L103.499,76.099z"/>
</g>
<g>
	<defs>
		<rect id="SVGID_38_" x="0.1" width="176.999" height="154.399"/>
	</defs>
	<clipPath id="SVGID_77_">
		<use xlink:href="#SVGID_38_"  overflow="visible"/>
	</clipPath>
	<path clip-path="url(#SVGID_77_)" fill="#231F20" d="M26.6,71.299l1.3,1.2l1.3-1.2l9.3-8.3c-0.7-1.4-1.2-2.8-1.3-4.1l-9.2,8.3
		l-26.5-23.7c-0.3,1.5-0.6,3-0.8,4.6L26.6,71.299z"/>
</g>
<g>
	<defs>
		<rect id="SVGID_37_" x="0.1" width="176.999" height="154.399"/>
	</defs>
	<clipPath id="SVGID_78_">
		<use xlink:href="#SVGID_37_"  overflow="visible"/>
	</clipPath>
	<polygon clip-path="url(#SVGID_78_)" fill="#231F20" points="142.399,34.599 141.099,33.399 139.8,34.599 139.399,34.899 
		139.399,40.199 140.999,38.699 176.7,71.299 176.999,71.099 176.999,66.099 	"/>
</g>
<g>
	<defs>
		<rect id="SVGID_36_" x="0.1" width="176.999" height="154.399"/>
	</defs>
	<clipPath id="SVGID_79_">
		<use xlink:href="#SVGID_36_"  overflow="visible"/>
	</clipPath>
	<path clip-path="url(#SVGID_79_)" fill="#231F20" d="M103.499,67.199L67.2,34.599l-1.3-1.2l-1.301,1.2l-10.1,9
		c1.4,0.4,2.7,1,3.9,1.8l7.5-6.7l36.401,32.6l1.199,1.2l1.4-1.2l15.4-13.9l-2.5-3.1L103.499,67.199z"/>
</g>
<g>
	<defs>
		<rect id="SVGID_35_" x="0.1" width="176.999" height="154.399"/>
	</defs>
	<clipPath id="SVGID_80_">
		<use xlink:href="#SVGID_35_"  overflow="visible"/>
	</clipPath>
	<path clip-path="url(#SVGID_80_)" fill="#231F20" d="M103.499,58.199L67.2,25.5l-1.3-1.101l-1.301,1.1l-21.5,19.2
		c1.801-1.2,4.2-1.9,7.101-1.9c0.3,0,0.6,0,0.899,0l14.801-13.1l36.4,32.7l1.199,1.2l1.4-1.2l11.198-10.1l-2.601-3.1L103.499,58.199
		z"/>
</g>
<g>
	<defs>
		<rect id="SVGID_34_" x="0.1" width="176.999" height="154.399"/>
	</defs>
	<clipPath id="SVGID_81_">
		<use xlink:href="#SVGID_34_"  overflow="visible"/>
	</clipPath>
	<polygon clip-path="url(#SVGID_81_)" fill="#231F20" points="142.399,25.599 141.099,24.399 139.8,25.599 139.399,25.899 
		139.399,31.299 140.999,29.699 176.7,62.399 176.999,62.099 176.999,57.199 	"/>
</g>
<g>
	<defs>
		<rect id="SVGID_33_" x="0.1" width="176.999" height="154.399"/>
	</defs>
	<clipPath id="SVGID_82_">
		<use xlink:href="#SVGID_33_"  overflow="visible"/>
	</clipPath>
	<path clip-path="url(#SVGID_82_)" fill="#231F20" d="M26.6,62.399l1.3,1.1l1.3-1.1l8-7.2c0.3-2.9,1.3-5.8,3.1-8l-12.3,11l-24.5-22
		c-0.5,1.3-0.9,2.8-1.3,4.2L26.6,62.399z"/>
</g>
<g>
	<defs>
		<rect id="SVGID_32_" x="0.1" width="176.999" height="154.399"/>
	</defs>
	<clipPath id="SVGID_83_">
		<use xlink:href="#SVGID_32_"  overflow="visible"/>
	</clipPath>
	<polygon clip-path="url(#SVGID_83_)" fill="#231F20" points="142.399,16.699 141.099,15.5 139.8,16.699 139.399,17 139.399,22.299 
		140.999,20.799 176.7,53.399 176.999,53.199 176.999,48.199 	"/>
</g>
<g>
	<defs>
		<rect id="SVGID_31_" x="0.1" width="176.999" height="154.399"/>
	</defs>
	<clipPath id="SVGID_84_">
		<use xlink:href="#SVGID_31_"  overflow="visible"/>
	</clipPath>
	<path clip-path="url(#SVGID_84_)" fill="#231F20" d="M26.6,53.399l1.3,1.2l1.3-1.2l36.7-32.6l36.4,32.6l1.199,1.2l1.4-1.2l7-6.3
		l-2.5-3l-5.9,5.2L67.2,16.699l-1.3-1.2l-1.301,1.2L28,49.299l-21.9-19.6c-0.6,1.2-1.2,2.5-1.7,3.8L26.6,53.399z"/>
</g>
<g>
	<defs>
		<rect id="SVGID_30_" x="0.1" width="176.999" height="154.399"/>
	</defs>
	<clipPath id="SVGID_85_">
		<use xlink:href="#SVGID_30_"  overflow="visible"/>
	</clipPath>
	<polygon clip-path="url(#SVGID_85_)" fill="#231F20" points="142.399,7.699 141.099,6.5 139.8,7.699 139.399,8 139.399,13.399 
		140.999,11.799 176.7,44.5 176.999,44.199 176.999,39.299 	"/>
</g>
<g>
	<defs>
		<rect id="SVGID_29_" x="0.1" width="176.999" height="154.399"/>
	</defs>
	<clipPath id="SVGID_86_">
		<use xlink:href="#SVGID_29_"  overflow="visible"/>
	</clipPath>
	<path clip-path="url(#SVGID_86_)" fill="#231F20" d="M26.6,44.5l1.3,1.2l1.3-1.2l36.7-32.7l36.4,32.7l1.199,1.2l1.4-1.2L107.7,42
		l-2.5-3.1l-1.603,1.4L67.3,7.599l-1.3-1.1l-1.3,1.1L28,40.399l-18.6-16.6c-0.7,1.1-1.4,2.2-2,3.5L26.6,44.5z"/>
</g>
<g>
	<defs>
		<rect id="SVGID_28_" x="0.1" width="176.999" height="154.399"/>
	</defs>
	<clipPath id="SVGID_87_">
		<use xlink:href="#SVGID_28_"  overflow="visible"/>
	</clipPath>
	<path clip-path="url(#SVGID_87_)" fill="#231F20" d="M26.6,35.5l1.3,1.2l1.3-1.2l36-32.101c-1.5-0.5-3-1-4.5-1.3L28,31.399
		l-14.6-13.1c-0.9,1-1.6,2.1-2.4,3.2L26.6,35.5z"/>
</g>
<g>
	<defs>
		<rect id="SVGID_27_" x="0.1" width="176.999" height="154.399"/>
	</defs>
	<clipPath id="SVGID_88_">
		<use xlink:href="#SVGID_27_"  overflow="visible"/>
	</clipPath>
	<path clip-path="url(#SVGID_88_)" fill="#231F20" d="M102.599,35.899l-7.199-8.8c-8.7-11.2-18.1-18.9-28.1-22.9l34.9,31.3
		L102.599,35.899z"/>
</g>
<g>
	<defs>
		<rect id="SVGID_26_" x="0.1" width="176.999" height="154.399"/>
	</defs>
	<clipPath id="SVGID_89_">
		<use xlink:href="#SVGID_26_"  overflow="visible"/>
	</clipPath>
	<path clip-path="url(#SVGID_89_)" fill="#231F20" d="M144.099,0.399c-1.398,0.5-3.5,1.5-4.299,3.7l1.199-1.1l35.701,32.6l0.199-0.2
		v-5L144.099,0.399z"/>
</g>
<g>
	<defs>
		<rect id="SVGID_25_" x="0.1" width="176.999" height="154.399"/>
	</defs>
	<clipPath id="SVGID_90_">
		<use xlink:href="#SVGID_25_"  overflow="visible"/>
	</clipPath>
	<path clip-path="url(#SVGID_90_)" fill="#231F20" d="M28,27.799l1.4-1.2l28.1-25.1c-1.8-0.3-3.5-0.5-5.3-0.5L28,22.499l-10-9
		c-1,0.9-1.9,1.8-2.8,2.8l11.5,10.3L28,27.799z"/>
</g>
<g>
	<defs>
		<rect id="SVGID_24_" x="0.1" width="176.999" height="154.399"/>
	</defs>
	<clipPath id="SVGID_91_">
		<use xlink:href="#SVGID_24_"  overflow="visible"/>
	</clipPath>
	<polygon clip-path="url(#SVGID_91_)" fill="#231F20" points="153.499,0 147.7,0 176.7,26.599 176.999,26.399 176.999,21.399 	"/>
</g>
<g>
	<defs>
		<rect id="SVGID_23_" x="0.1" width="176.999" height="154.399"/>
	</defs>
	<clipPath id="SVGID_92_">
		<use xlink:href="#SVGID_23_"  overflow="visible"/>
	</clipPath>
	<polygon clip-path="url(#SVGID_92_)" fill="#231F20" points="163.3,0 157.399,0 176.7,17.599 176.999,17.399 176.999,12.5 	"/>
</g>
<g>
	<defs>
		<rect id="SVGID_22_" x="0.1" width="176.999" height="154.399"/>
	</defs>
	<clipPath id="SVGID_93_">
		<use xlink:href="#SVGID_22_"  overflow="visible"/>
	</clipPath>
	<path clip-path="url(#SVGID_93_)" fill="#231F20" d="M26.6,17.599l1.4,1.2l1.3-1.2L48,0.899c-2.3,0.1-4.6,0.3-6.8,0.8L28,13.599
		l-4.8-4.3c-1.1,0.7-2.2,1.5-3.2,2.4L26.6,17.599z"/>
</g>
<g>
	<defs>
		<rect id="SVGID_21_" x="0.1" width="176.999" height="154.399"/>
	</defs>
	<clipPath id="SVGID_94_">
		<use xlink:href="#SVGID_21_"  overflow="visible"/>
	</clipPath>
	<path clip-path="url(#SVGID_94_)" fill="#231F20" d="M28,9.899l1.4-1.2l6.2-5.5c-3.5,1.1-6.8,2.7-9.9,4.6l1,1L28,9.899z"/>
</g>
<g>
	<defs>
		<rect id="SVGID_20_" x="0.1" width="176.999" height="154.399"/>
	</defs>
	<clipPath id="SVGID_95_">
		<use xlink:href="#SVGID_20_"  overflow="visible"/>
	</clipPath>
	<path clip-path="url(#SVGID_95_)" fill="#231F20" d="M170.599,0H167.3l9.4,8.7l0.199-0.301v-2.1C176.999,1,170.599,0,170.599,0"/>
</g>
<g>
	<defs>
		<rect id="SVGID_19_" x="0.1" width="176.999" height="154.399"/>
	</defs>
	<clipPath id="SVGID_96_">
		<use xlink:href="#SVGID_19_"  overflow="visible"/>
	</clipPath>
	<path clip-path="url(#SVGID_96_)" fill="#231F20" stroke="#000000" stroke-miterlimit="10" d="M75.7,160.099
		c-0.601-0.7-1.601-1.2-2.5-1.2c-1.8,0-3.3,1.602-3.3,3.301v13.6c0,1.701,1.5,3.301,3.3,3.301c1.8,0,3.3-1.5,3.3-3.301V171.6v-0.7
		l0.4,0.5l1,1.2l4.5,5.199C83,178.5,83.9,179,84.799,179c1.8,0,3.3-1.5,3.3-3.301c0-0.199,0-0.301,0-0.4l0,0l0,0V162.1
		c0-1.7-1.5-3.301-3.3-3.301c-1.8,0-3.3,1.601-3.3,3.301v4.102v0.698l-0.4-0.5L75.7,160.099z"/>
</g>
<g>
	<defs>
		<rect id="SVGID_18_" x="0.1" width="176.999" height="154.399"/>
	</defs>
	<clipPath id="SVGID_97_">
		<use xlink:href="#SVGID_18_"  overflow="visible"/>
	</clipPath>
	<path clip-path="url(#SVGID_97_)" fill="#231F20" stroke="#000000" stroke-miterlimit="10" d="M52.599,160.099
		c-0.6-0.7-1.5-1.2-2.5-1.2c-1.8,0-3.3,1.602-3.3,3.301v13.6c0,1.701,1.5,3.301,3.3,3.301c1.801,0,3.301-1.5,3.301-3.301V171.6v-0.7
		l0.4,0.499l1,1.2l4.4,5.2c0.6,0.699,1.5,1.199,2.5,1.199c1.8,0,3.3-1.5,3.3-3.3c0-0.2,0-0.301,0-0.399l0,0l0,0v-13.2
		c0-1.7-1.5-3.3-3.3-3.3c-1.8,0-3.3,1.6-3.3,3.3v4.101v0.699l-0.4-0.5L52.599,160.099z"/>
</g>
<g>
	<defs>
		<rect id="SVGID_17_" x="0.1" width="176.999" height="154.399"/>
	</defs>
	<clipPath id="SVGID_98_">
		<use xlink:href="#SVGID_17_"  overflow="visible"/>
	</clipPath>
	<path clip-path="url(#SVGID_98_)" fill="#231F20" stroke="#000000" stroke-miterlimit="10" d="M105.099,165.099
		c1.701,0,3.102-1.399,3.102-3.101c0-1.601-1.399-3.101-3.102-3.101h-8.6c-1.799,0-3.199,1.601-3.199,3.301v13.601l0,0v0.199l0,0
		c0,1.7,1.5,3.101,3.199,3.101h8.6c1.701,0,3.102-1.399,3.102-3.101s-1.399-3.101-3.102-3.101h-5H99.8v-0.3v-1v-0.199h0.299h2.5
		c1.301,0,2.301-1,2.301-2.3s-1-2.399-2.301-2.399h-2.6H99.7V166.5v-1.102v-0.3h0.299H105.099L105.099,165.099z"/>
</g>
<g>
	<defs>
		<rect id="SVGID_16_" x="0.1" width="176.999" height="154.399"/>
	</defs>
	<clipPath id="SVGID_99_">
		<use xlink:href="#SVGID_16_"  overflow="visible"/>
	</clipPath>
	<path clip-path="url(#SVGID_99_)" fill="#231F20" stroke="#000000" stroke-miterlimit="10" d="M39,165.099
		c1.7,0,3.1-1.399,3.1-3.101c0-1.601-1.399-3.101-3.1-3.101h-8.6c-1.8,0-3.3,1.601-3.3,3.301v13.601l0,0c0,0.1,0,0.1,0,0.199l0,0
		l0,0c0.2,1.7,1.5,3.101,3.3,3.101H39c1.7,0,3.1-1.399,3.1-3.101s-1.4-3.1-3.1-3.1h-5h-0.3v-0.3v-1v-0.2H34h2.5c1.3,0,2.3-1,2.3-2.3
		s-1-2.399-2.3-2.399h-2.6h-0.2V166.5v-1.102v-0.3h0.2H39L39,165.099z"/>
</g>
<g>
	<defs>
		<rect id="SVGID_15_" x="0.1" width="176.999" height="154.399"/>
	</defs>
	<clipPath id="SVGID_100_">
		<use xlink:href="#SVGID_15_"  overflow="visible"/>
	</clipPath>
	<path clip-path="url(#SVGID_100_)" fill="#231F20" d="M52.8,148.7c1.7,0,3.101-1.4,3.101-3.101v-13c0-1.7-1.4-3.101-3.101-3.101
		s-3.1,1.399-3.1,3.101v13C49.7,147.299,51.099,148.7,52.8,148.7"/>
</g>
<g>
	<defs>
		<rect id="SVGID_14_" x="0.1" width="176.999" height="154.399"/>
	</defs>
	<clipPath id="SVGID_101_">
		<use xlink:href="#SVGID_14_"  overflow="visible"/>
	</clipPath>
	<path clip-path="url(#SVGID_101_)" fill="#231F20" d="M87,142.799v-0.2v-1v-0.2h0.3h2.5c1.2,0,2.2-1,2.2-2.199s-1-2.301-2.2-2.301
		h-2.5H87V136.7v-1v-0.301h0.3h4.9c1.6,0,3-1.199,3-2.898c0-1.602-1.4-3-3-3H84c-1.7,0-3.1,1.398-3.1,3.1v13c0,0,0,0.102,0,0.199
		l0,0l0,0c0.1,1.701,1.399,2.9,3.1,2.9h8.2c1.6,0,3-1.301,3-2.9c0-1.598-1.4-2.899-3-2.899h-4.9H87V142.799z"/>
</g>
<g>
	<defs>
		<rect id="SVGID_13_" x="0.1" width="176.999" height="154.399"/>
	</defs>
	<clipPath id="SVGID_102_">
		<use xlink:href="#SVGID_13_"  overflow="visible"/>
	</clipPath>
	<path clip-path="url(#SVGID_102_)" fill="#231F20" d="M136.599,129.5c-1.699,0-3.1,1.398-3.1,3.1v12.9c0,1.699,1.4,3.1,3.1,3.1
		c1.701,0,3.102-1.398,3.102-3.1v-12.9C139.8,130.899,138.3,129.5,136.599,129.5"/>
</g>
<g>
	<defs>
		<rect id="SVGID_12_" x="0.1" width="176.999" height="154.399"/>
	</defs>
	<clipPath id="SVGID_103_">
		<use xlink:href="#SVGID_12_"  overflow="visible"/>
	</clipPath>
	<path clip-path="url(#SVGID_103_)" fill="#231F20" d="M146.399,129.5H146h-0.2c-1.6,0-2.9,1.398-2.9,3c0,1.699,1.4,3,2.9,3h0.199
		h0.301h1.699h0.301v0.299v9.801c0,1.699,1.4,3.102,3.1,3.102c1.701,0,3.101-1.4,3.101-3.102v-9.801V135.5h0.2h1.199l0,0h0.301
		h0.699c1.601,0,2.9-1.301,2.9-3c0-1.602-1.301-3-2.9-3H156.2h-0.301H146.399L146.399,129.5z"/>
</g>
<g>
	<defs>
		<rect id="SVGID_11_" x="0.1" width="176.999" height="154.399"/>
	</defs>
	<clipPath id="SVGID_104_">
		<use xlink:href="#SVGID_11_"  overflow="visible"/>
	</clipPath>
	<path clip-path="url(#SVGID_104_)" fill="#231F20" d="M24.9,139.2v-6.5c0-1.699-1.4-3.101-3.1-3.101s-3.1,1.399-3.1,3.101v6.6
		c0,1.801-1.4,3.301-3.3,3.4c-1.8-0.101-3.2-1.601-3.2-3.4v-6.6c0-1.699-1.4-3.101-3.1-3.101c-1.7,0-3.1,1.399-3.1,3.101v6.5
		c0,5.199,4.2,9.5,9.4,9.5l0,0l0,0C20.7,148.7,24.9,144.399,24.9,139.2"/>
</g>
<g>
	<defs>
		<rect id="SVGID_10_" x="0.1" width="176.999" height="154.399"/>
	</defs>
	<clipPath id="SVGID_105_">
		<use xlink:href="#SVGID_10_"  overflow="visible"/>
	</clipPath>
	<path clip-path="url(#SVGID_105_)" fill="#231F20" d="M34,130.599c-0.6-0.7-1.5-1.101-2.4-1.101c-1.7,0-3.1,1.5-3.1,3.101v12.899
		c0,1.7,1.4,3.101,3.1,3.101c1.7,0,3.1-1.399,3.1-3.101v-4v-0.699l0.4,0.5l1,1.199l4.2,5c0.601,0.7,1.5,1,2.4,1
		c1.7,0,3.1-1.399,3.1-3.101c0,0,0-0.199,0-0.3l0,0l0,0v-12.6c0-1.701-1.399-3.102-3.1-3.102c-1.701,0-3.101,1.4-3.101,3.102v4
		v0.699l-0.399-0.5L34,130.599z"/>
</g>
<g>
	<defs>
		<rect id="SVGID_9_" x="0.1" width="176.999" height="154.399"/>
	</defs>
	<clipPath id="SVGID_106_">
		<use xlink:href="#SVGID_9_"  overflow="visible"/>
	</clipPath>
	<path clip-path="url(#SVGID_106_)" fill="#231F20" d="M174.099,142.799H169.3h-0.301v-0.2v-1v-0.2h0.301h2.4
		c1.199,0,2.1-1,2.1-2.199s-0.9-2.301-2.1-2.301h-2.5h-0.201V136.7v-1v-0.301h0.201h4.799c1.701,0,3-1.199,3-2.898
		c0-1.602-1.299-3-3-3H169.2h-0.103l3.302-1.602c0.6-0.199,1-0.898,1-1.398c0-1-0.802-1.701-1.699-1.701c-0.201,0-0.5,0-0.701,0.201
		l-3.5,1.5c-0.6,0.299-1,0.898-1,1.6c0,0.602,0.301,1.102,0.9,1.4h-0.1h-1.4c-1.699,0-3.1,1.398-3.1,3.1v13
		c0,1.699,1.4,3.102,3.1,3.102h8.199c1.701,0,3-1.302,3-2.9C177.099,144.202,175.7,142.799,174.099,142.799"/>
</g>
<g>
	<defs>
		<rect id="SVGID_8_" x="0.1" width="176.999" height="154.399"/>
	</defs>
	<clipPath id="SVGID_107_">
		<use xlink:href="#SVGID_8_"  overflow="visible"/>
	</clipPath>
	<path clip-path="url(#SVGID_107_)" fill="#231F20" d="M68.099,137.899l-3.199-6.3c-0.601-1.2-1.801-2-3-2c-1.801,0-3,1.601-3,3.101
		c0,0.5,0.1,1,0.399,1.5l6.3,13c0.101,0.199,0.9,1.6,2.7,1.6c0.8,0,2.2-0.199,2.8-1.6l6.101-12.9c0.2-0.399,0.3-0.899,0.3-1.399
		c0-1.5-1.1-3.198-3-3.198c-1.3,0-2.4,0.799-3,2L68.6,138l-0.3,0.398L68.099,137.899z"/>
</g>
<g>
	<defs>
		<rect id="SVGID_7_" x="0.1" width="176.999" height="154.399"/>
	</defs>
	<clipPath id="SVGID_108_">
		<use xlink:href="#SVGID_7_"  overflow="visible"/>
	</clipPath>
	<path clip-path="url(#SVGID_108_)" fill="#231F20" d="M112.7,143.5l-1.201-1.201l-0.199-0.1l0.199-0.199
		c1.201-1.4,1.9-3.201,1.9-4.9c0-4.1-3.302-7.6-7.4-7.6h-4.4c-1.699,0-3.1,1.398-3.1,3.1v13.102c0,1.698,1.4,2.898,3.1,2.898
		c1.602,0,3-1.2,3.102-2.898V145.5h0.199h1.199l0,0h0.201l1.699,2.101c0.5,0.7,1.4,1,2.301,1c1.699,0,3.1-1.399,3.1-3.101
		C113.399,144.899,113.2,144.2,112.7,143.5"/>
</g>
<g>
	<defs>
		<rect id="SVGID_6_" x="0.1" width="176.999" height="154.399"/>
	</defs>
	<clipPath id="SVGID_109_">
		<use xlink:href="#SVGID_6_"  overflow="visible"/>
	</clipPath>
	<path clip-path="url(#SVGID_109_)" fill="#231F20" stroke="#000000" stroke-miterlimit="10" d="M20.3,172.399l-0.2-0.199L20.3,172
		c1.3-1.4,2-3.301,2-5.201c0-4.299-3.5-8-7.9-8H9.8c-1.8,0-3.2,1.601-3.2,3.301v12.8v1C6.7,177.6,8.1,179,9.8,179
		c1.8,0,3.2-1.399,3.3-3.101v-0.3h0.3h1.2h0.1l0.1,0.102l1.8,2.1C17.2,178.5,18.1,179,19.1,179c1.8,0,3.3-1.5,3.3-3.299
		c0-0.9-0.3-1.602-0.8-2.201L20.3,172.399z"/>
</g>
<g>
	<defs>
		<rect id="SVGID_5_" x="0.1" width="176.999" height="154.399"/>
	</defs>
	<clipPath id="SVGID_110_">
		<use xlink:href="#SVGID_5_"  overflow="visible"/>
	</clipPath>
	<path clip-path="url(#SVGID_110_)" fill="#231F20" d="M123.399,148.7c-0.899,0-1.801-0.101-2.6-0.301c-0.9-0.199-1.6-0.5-2.201-1
		c-0.5-0.398-1-0.898-1.398-1.398c-0.301-0.5-0.5-1.201-0.5-1.801c0-0.4,0-0.801,0.199-1.101s0.301-0.601,0.5-0.8
		c0.301-0.2,0.601-0.4,0.9-0.601c0.299-0.2,0.699-0.2,1.1-0.2c0.401,0,0.699,0,1.101,0.2c0.301,0.199,0.7,0.3,1,0.699
		c0.301,0.2,0.5,0.399,0.801,0.5c0.199,0.2,0.399,0.301,0.399,0.301c0.199,0.2,0.299,0.2,0.299,0.2c0.201,0,0.201,0,0.301,0
		c0.199,0,0.4,0,0.5-0.199c0.199-0.199,0.199-0.301,0.199-0.5c0-0.301-0.1-0.601-0.4-0.9c-0.1,0-0.199,0-0.199,0s-0.199,0-0.199-0.1
		c-0.102,0-0.2,0-0.301-0.101c-0.199-0.101-0.301-0.101-0.5-0.3c-0.301,0-0.5-0.2-0.801-0.2c-0.199-0.2-0.398-0.2-0.799-0.3
		c-2.6-0.9-4-2.601-4-5.2c0-0.899,0.199-1.7,0.5-2.399c0.299-0.699,0.799-1.301,1.4-1.9c0.5-0.5,1.199-0.899,2.1-1.199
		c0.9-0.2,1.699-0.301,2.799-0.301c0.801,0,1.602,0,2.201,0.301c0.699,0.199,1.4,0.4,1.9,0.8s0.897,0.802,1.199,1.302
		c0.301,0.398,0.399,1,0.399,1.6c0,0.699-0.302,1.3-0.601,1.699c-0.5,0.5-1,0.701-1.701,0.701c-0.399,0-0.899,0-1.198-0.201
		c-0.302-0.199-0.802-0.5-1.302-0.899c-0.299-0.2-0.6-0.399-0.799-0.5c-0.201,0-0.399-0.2-0.5-0.2c-0.201,0-0.399,0.2-0.5,0.301
		c-0.102,0.1-0.201,0.199-0.201,0.5s0.201,0.5,0.4,0.6c0.301,0.201,0.801,0.301,1.5,0.701c0.699,0.199,1.5,0.5,2.199,0.799
		c0.701,0.301,1.301,0.701,1.602,1c0.601,0.4,1,1,1.398,1.801c0.301,0.8,0.5,1.602,0.5,2.5c0,0.8-0.199,1.699-0.5,2.3
		c-0.299,0.802-0.699,1.399-1.199,2c-0.699,0.601-1.4,1.101-2.199,1.399C125.599,148.5,124.599,148.7,123.399,148.7"/>
</g>
<g>
	<defs>
		<rect id="SVGID_4_" x="0.1" width="176.999" height="154.399"/>
	</defs>
	<clipPath id="SVGID_111_">
		<use xlink:href="#SVGID_4_"  overflow="visible"/>
	</clipPath>
	<path clip-path="url(#SVGID_111_)" fill="#231F20" stroke="#000000" stroke-miterlimit="10" d="M147.899,174.099
		c-1,0-1.399-0.899-1.199-2.101v-0.3c-0.899,1.601-2.2,2.601-3.602,2.601c-2.1,0-2.6-2.101-2.199-4.7l0.801-4.101
		c0.101-0.8,0-1.399-0.301-1.399s-1,0.5-1.199,0.7v-0.7c0.5-0.601,1.398-1,1.898-1c1.201,0,1.5,0.899,1.301,2.101L142.7,169.5
		c-0.399,2.1-0.102,3.299,1.199,3.299c1,0,2.801-1.5,3.5-4.699l0.699-4.7h1.701l-1.4,8.302c-0.199,0.697-0.1,1.397,0.301,1.397
		c0.299,0,1-0.5,1.199-0.7v0.7C149.399,173.599,148.599,174.099,147.899,174.099"/>
</g>
<g>
	<defs>
		<rect id="SVGID_3_" x="0.1" width="176.999" height="154.399"/>
	</defs>
	<clipPath id="SVGID_112_">
		<use xlink:href="#SVGID_3_"  overflow="visible"/>
	</clipPath>
	<path clip-path="url(#SVGID_112_)" fill="#231F20" stroke="#000000" stroke-miterlimit="10" d="M164.7,172.7
		c-1.5,1.899-3.301,2.6-5.701,2.6c-4,0-6.4-2.899-6.4-6.6c0-4,2.801-6.699,6.5-6.699c3.5,0,5.9,2.398,5.9,6.699v0.6H154.8
		c0.199,2.201,1.9,4.101,4.1,4.101c1.9,0,3.101-0.698,4-1.899L164.7,172.7z M162.8,167.5c0-2.102-1.4-3.5-3.801-3.5
		c-2.199,0-3.799,1.398-4.1,3.5H162.8z"/>
</g>
<g>
	<defs>
		<rect id="SVGID_2_" x="0.1" width="176.999" height="154.399"/>
	</defs>
	<clipPath id="SVGID_113_">
		<use xlink:href="#SVGID_2_"  overflow="visible"/>
	</clipPath>
	<path clip-path="url(#SVGID_113_)" fill="#231F20" stroke="#000000" stroke-miterlimit="10" d="M168.899,174.799v-12.301h2.5v4
		h5.101v8.301H168.899z M173.999,169.099h-2.6v3.101h2.6V169.099z"/>
</g>
<g>
	<defs>
		<rect id="SVGID_1_" x="0.1" width="176.999" height="154.399"/>
	</defs>
	<clipPath id="SVGID_114_">
		<use xlink:href="#SVGID_1_"  overflow="visible"/>
	</clipPath>
	<path clip-path="url(#SVGID_114_)" fill="#231F20" stroke="#000000" stroke-miterlimit="10" d="M158.8,156.099
		c4.299,0,8.1,2.101,10.4,5.399l0.699-0.399c-2.4-3.5-6.5-5.8-11.101-5.8c-4.5,0-8.5,2.3-10.899,5.899l0.6,0.399
		C150.8,158.2,154.499,156.099,158.8,156.099 M169.2,175.799c-2.301,3.3-6.103,5.5-10.4,5.5c-4.301,0-8.1-2.2-10.4-5.5l-0.699,0.5
		c2.398,3.5,6.5,5.8,11,5.8c4.601,0,8.601-2.3,11.101-5.7L169.2,175.799z"/>
</g>
<path fill="#231F20" d="M16.1,158.5c1.1,0,2.3,0.199,3.3,0.699c1,0.399,1.9,1,2.7,1.801c0.8,0.799,1.4,1.699,1.8,2.699
	s0.6,2.1,0.6,3.301c0,1-0.2,2.1-0.5,3c-0.3,0.898-0.9,1.799-1.5,2.5l1.2,1.398c0.6,0.801,0.9,1.602,0.9,2.4c0,0.5-0.1,1-0.3,1.399
	c-0.2,0.5-0.5,0.899-0.8,1.199c-0.3,0.301-0.8,0.601-1.2,0.801c-0.4,0.199-1,0.199-1.4,0.199c-0.5,0-1,0-1.5-0.3
	c-0.5-0.2-0.9-0.6-1.3-0.899l-2-2.399H15c0,0.5-0.1,1-0.3,1.5c-0.2,0.5-0.5,0.8-0.8,1.1c-0.3,0.301-0.8,0.7-1.2,0.9
	c-0.4,0.199-1,0.199-1.4,0.199c-0.5,0-1,0-1.4-0.199c-0.4-0.2-0.8-0.5-1.1-0.9c-0.3-0.3-0.6-0.699-0.8-1.1
	c-0.2-0.401-0.3-0.9-0.3-1.5v-14.2c0-0.5,0.1-0.899,0.3-1.399c0.2-0.5,0.5-0.9,0.8-1.199c0.3-0.301,0.7-0.5,1.1-0.701
	c0.4-0.199,0.9-0.299,1.4-0.299H16.1z"/>
<path fill="#231F20" d="M42.8,158.5c0.5,0,1,0.1,1.4,0.299c0.399,0.201,0.8,0.4,1.1,0.701c0.3,0.299,0.5,0.699,0.7,1
	c0.2,0.5,0.3,0.898,0.3,1.398s-0.1,1-0.3,1.4c-0.2,0.399-0.5,0.8-0.7,1.1C45,164.7,44.6,165,44.2,165.2s-0.9,0.199-1.4,0.199h-5.4
	v1.2h2.8c0.7,0,1.399,0.2,1.899,0.7s0.801,1.199,0.801,1.899c0,0.8-0.301,1.399-0.801,1.899s-1.199,0.9-1.899,0.9h-2.8v1h5.4
	c0.5,0,1,0.1,1.4,0.299c0.399,0.201,0.8,0.4,1.1,0.701c0.3,0.299,0.5,0.699,0.7,1.1c0.2,0.5,0.3,0.9,0.3,1.4s-0.1,1-0.3,1.398
	c-0.2,0.5-0.5,0.9-0.7,1.102c-0.3,0.299-0.7,0.6-1.1,0.799c-0.4,0.201-0.9,0.201-1.4,0.201h-8.9c-0.5,0-1,0-1.4-0.201
	c-0.4-0.199-0.9-0.5-1.2-0.899c-0.3-0.3-0.6-0.699-0.8-1.199c-0.2-0.399-0.3-0.899-0.3-1.399v-14.2c0-0.5,0.1-0.899,0.3-1.399
	c0.2-0.5,0.4-0.9,0.8-1.199c0.3-0.301,0.7-0.5,1.2-0.701c0.4-0.199,0.9-0.299,1.4-0.299H42.8z"/>
<path fill="#231F20" d="M71.5,176.299c0,0.5-0.1,1-0.3,1.5c-0.2,0.399-0.4,0.8-0.8,1.1c-0.301,0.301-0.7,0.7-1.101,0.9
	c-0.5,0.199-0.899,0.199-1.5,0.199c-0.6,0-1.1-0.101-1.6-0.399c-0.5-0.2-0.9-0.601-1.3-1l-5.5-6.601v4.301c0,0.5-0.101,1-0.301,1.5
	c-0.199,0.5-0.5,0.8-0.8,1.1c-0.3,0.301-0.7,0.7-1.1,0.9c-0.5,0.199-1,0.199-1.5,0.199s-1,0-1.4-0.199c-0.399-0.2-0.899-0.5-1.2-0.9
	c-0.3-0.3-0.6-0.699-0.8-1.1c-0.2-0.401-0.3-0.9-0.3-1.5v-14.2c0-0.5,0.1-0.899,0.3-1.399c0.2-0.5,0.5-0.9,0.8-1.199
	c0.301-0.301,0.801-0.5,1.2-0.701c0.4-0.199,0.9-0.299,1.4-0.299c0.6,0,1.1,0.1,1.6,0.299c0.5,0.201,0.9,0.5,1.2,0.9l5.802,6.699
	v-4.3c0-0.5,0.101-0.899,0.3-1.399c0.2-0.5,0.5-0.9,0.801-1.199c0.3-0.301,0.8-0.5,1.199-0.701C67,158.6,67.5,158.5,68,158.5
	s1,0.1,1.5,0.299c0.4,0.201,0.8,0.4,1.1,0.701c0.301,0.299,0.601,0.699,0.801,1.199c0.199,0.5,0.3,0.899,0.3,1.399v14.2H71.5z"/>
<path fill="#231F20" d="M96.899,176.299c0,0.5-0.199,1-0.301,1.5c-0.199,0.399-0.398,0.8-0.699,1.1
	c-0.301,0.301-0.801,0.7-1.199,0.9c-0.5,0.199-0.899,0.199-1.399,0.199c-0.701,0-1.201-0.101-1.701-0.399
	c-0.5-0.2-0.897-0.601-1.198-1l-5.601-6.601v4.301c0,0.5-0.1,1-0.3,1.5c-0.2,0.5-0.4,0.8-0.8,1.1c-0.4,0.301-0.7,0.7-1.2,0.9
	c-0.4,0.199-0.9,0.199-1.4,0.199s-1,0-1.399-0.199c-0.5-0.2-0.8-0.5-1.101-0.9c-0.3-0.398-0.6-0.699-0.8-1.1
	c-0.2-0.401-0.3-0.9-0.3-1.5v-14.2c0-0.5,0.1-0.899,0.3-1.399c0.2-0.5,0.4-0.9,0.8-1.199c0.4-0.301,0.7-0.5,1.101-0.701
	c0.5-0.199,0.899-0.299,1.399-0.299s1,0.1,1.601,0.299c0.399,0.201,0.899,0.5,1.2,0.9l5.798,6.699v-4.3c0-0.5,0.1-0.899,0.2-1.399
	c0.199-0.5,0.5-0.9,0.9-1.199c0.299-0.301,0.699-0.5,1.1-0.701c0.5-0.199,1-0.299,1.5-0.299s0.9,0.1,1.4,0.299
	c0.5,0.201,0.9,0.4,1.199,0.701c0.301,0.299,0.5,0.699,0.701,1.199c0.199,0.5,0.299,0.899,0.299,1.399v14.2H96.899z"/>
<path fill="#231F20" d="M115.399,158.5c0.5,0,1,0.1,1.4,0.299c0.5,0.201,0.9,0.4,1.1,0.701c0.301,0.299,0.601,0.699,0.801,1
	c0.199,0.5,0.3,0.898,0.3,1.398s-0.101,1-0.3,1.4c-0.2,0.399-0.5,0.8-0.801,1.1c-0.301,0.301-0.699,0.602-1.1,0.801
	c-0.301,0.199-0.9,0.199-1.4,0.199H110v1.2h2.801c0.699,0,1.399,0.2,1.899,0.7s0.8,1.199,0.8,1.899c0,0.8-0.3,1.399-0.8,1.899
	s-1.2,0.9-1.899,0.9H110v1h5.399c0.5,0,1,0.1,1.4,0.299c0.5,0.201,0.9,0.4,1.1,0.701c0.301,0.299,0.601,0.699,0.801,1.1
	c0.199,0.5,0.3,0.9,0.3,1.4s-0.101,1-0.3,1.398c-0.2,0.5-0.5,0.9-0.801,1.102c-0.301,0.299-0.699,0.6-1.1,0.799
	c-0.301,0.201-0.9,0.201-1.4,0.201H106.5c-0.5,0-1,0-1.4-0.201c-0.397-0.199-0.897-0.5-1.198-0.899
	c-0.302-0.3-0.601-0.699-0.699-1.199c-0.201-0.399-0.301-0.899-0.301-1.399v-14.2c0-0.5,0.198-0.899,0.301-1.399
	c0.199-0.5,0.5-0.9,0.699-1.199c0.301-0.301,0.698-0.5,1.198-0.701c0.5-0.199,0.9-0.299,1.4-0.299H115.399z"/>
<path fill="#231F20" d="M127.7,169.899c-0.5-0.199-1-0.5-1.4-0.898c-0.301-0.301-0.701-0.701-0.9-1.201
	c-0.301-0.399-0.5-0.899-0.5-1.399c-0.199-0.5-0.199-1.101-0.199-1.601c0-1,0.199-1.899,0.5-2.6c0.3-0.801,0.898-1.5,1.5-2
	c0.601-0.5,1.3-1,2.101-1.301c0.899-0.3,1.699-0.5,2.601-0.5h1.1c0.701,0,1.301,0.2,2,0.301c0.701,0.199,1.4,0.301,2.1,0.699
	c0.602,0.4,1.102,0.801,1.602,1.4c0.3,0.6,0.5,1.199,0.5,2c0,0.699-0.2,1.199-0.602,1.8c-0.5,0.5-1,0.7-1.799,0.7
	c-0.1,0-0.301,0-0.4,0c-0.199,0-0.301-0.101-0.5-0.2l-2.399-0.899c-0.199-0.101-0.3-0.199-0.5-0.199
	c-0.101-0.201-0.199-0.201-0.3-0.201c-0.2-0.1-0.301-0.1-0.5,0c-0.102,0-0.2,0-0.399,0.201c-0.2,0.299-0.301,0.699-0.101,0.898
	c0.199,0.301,0.398,0.5,0.8,0.7l0.601,0.2c1,0.3,2,0.699,2.899,1c0.899,0.3,1.601,0.899,2.2,1.399
	c0.601,0.5,1.101,1.101,1.398,1.899c0.4,0.699,0.602,1.601,0.602,2.8c0,1-0.2,1.899-0.602,2.801
	c-0.398,0.899-0.898,1.601-1.398,2.199c-0.7,0.5-1.399,1-2.2,1.399c-0.899,0.301-1.899,0.5-2.899,0.5h-1.101
	c-0.699,0-1.601-0.1-2.399-0.399c-0.898-0.3-1.601-0.699-2.199-1.101c-0.699-0.5-1.4-1.1-1.801-1.699
	c-0.398-0.7-0.699-1.5-0.699-2.301c0-0.299,0.1-0.699,0.199-1c0.102-0.299,0.301-0.6,0.5-0.899c0.301-0.3,0.5-0.5,0.899-0.699
	c0.301-0.2,0.7-0.2,1-0.2c0.2,0,0.301,0,0.399,0c0.101,0.101,0.301,0.2,0.5,0.2l3.801,1.601c0.199,0.199,0.3,0.199,0.5,0.199
	c0.101,0,0.199-0.101,0.398-0.199c0.201-0.101,0.301-0.301,0.301-0.5c0-0.301-0.1-0.5-0.199-0.7c-0.102-0.101-0.102-0.2-0.301-0.2
	c0-0.199-0.199-0.199-0.199-0.199c-0.102-0.101-0.301-0.101-0.5-0.199L127.7,169.899z"/>
<path fill="#231F20" d="M164.2,180c-0.5,0-0.9,0-1.4-0.201c-0.4-0.199-0.801-0.5-1-0.899c-0.301-0.3-0.5-0.698-0.701-1.198
	c-0.199-0.4-0.299-0.9-0.299-1.4c0-0.4,0.1-0.9,0.299-1.4c0.201-0.398,0.4-0.898,0.801-1.199l6.101-5.9v-2.5l-1.4,1.4
	c-0.897,0.699-1.698,1.1-2.6,1.1c-0.5,0-0.9,0-1.4-0.199c-0.299-0.2-0.698-0.301-1-0.7c-0.299-0.198-0.5-0.601-0.698-1
	c-0.199-0.399-0.199-0.698-0.199-1.198c0-0.701,0.1-1.302,0.397-1.9c0.701-1.4,1.603-2.4,2.802-3.1c1.198-0.9,2.6-1.201,4.1-1.201h1
	c1.1,0.201,2.1,0.5,2.9,0.899c0.899,0.5,1.6,1,2.1,1.7c0.6,0.699,1,1.5,1.4,2.3c0.198,0.899,0.301,1.7,0.301,2.601
	c0,1.201-0.201,2.399-0.701,3.602c-0.5,1.199-1.4,2.199-2.4,3.1c0.5,0,1,0,1.602,0.199c0.5,0.201,0.898,0.4,1.199,0.701
	c0.4,0.299,0.699,0.699,0.9,1.199c0.299,0.5,0.299,1,0.299,1.6c0,0.5-0.1,1-0.299,1.4c-0.201,0.5-0.5,0.801-0.9,1.199
	c-0.399,0.399-0.801,0.701-1.199,0.899c-0.5,0.2-1,0.2-1.602,0.2h-8.4V180z"/>
</svg>
