<?xml version="1.0" encoding="utf-8"?>
<!-- Generator: Adobe Illustrator 15.0.0, SVG Export Plug-In  -->
<!DOCTYPE svg PUBLIC "-//W3C//DTD SVG 1.1//EN" "http://www.w3.org/Graphics/SVG/1.1/DTD/svg11.dtd" [
	<!ENTITY ns_flows "http://ns.adobe.com/Flows/1.0/">
]>
<svg version="1.1"
	 xmlns="http://www.w3.org/2000/svg" xmlns:xlink="http://www.w3.org/1999/xlink" xmlns:a="http://ns.adobe.com/AdobeSVGViewerExtensions/3.0/"
	 x="0px" y="0px" width="72px" height="73px" viewBox="0 0 72 73" overflow="visible" enable-background="new 0 0 72 73"
	 xml:space="preserve">
<defs>
</defs>
<path d="M36.996,35.876c0,0.383-0.311,0.694-0.693,0.694c-0.384,0-0.694-0.312-0.694-0.694s0.311-0.693,0.694-0.693
	C36.686,35.183,36.996,35.493,36.996,35.876"/>
<path d="M35.461,37.284c0,0.383-0.312,0.694-0.694,0.694s-0.694-0.312-0.694-0.694s0.312-0.694,0.694-0.694
	S35.461,36.901,35.461,37.284"/>
<path d="M37.255,32.941c0,0.383-0.312,0.693-0.694,0.693s-0.694-0.311-0.694-0.693s0.312-0.694,0.694-0.694
	S37.255,32.559,37.255,32.941"/>
<path d="M39.19,38.739c0,0.383-0.312,0.694-0.694,0.694s-0.694-0.312-0.694-0.694s0.312-0.694,0.694-0.694
	S39.19,38.356,39.19,38.739"/>
<path d="M33.728,35.151c0,0.841-0.683,1.527-1.526,1.527c-0.845,0-1.528-0.687-1.528-1.527c0-0.844,0.684-1.526,1.528-1.526
	C33.045,33.625,33.728,34.308,33.728,35.151"/>
<path d="M41.759,33.377c0,0.844-0.684,1.527-1.527,1.527s-1.528-0.684-1.528-1.527s0.685-1.526,1.528-1.526
	S41.759,32.533,41.759,33.377"/>
<path d="M35.672,40.803c0,0.383-0.312,0.693-0.694,0.693s-0.694-0.311-0.694-0.693c0-0.384,0.312-0.694,0.694-0.694
	S35.672,40.419,35.672,40.803"/>
<path d="M34.455,30.986c0,0.383-0.311,0.694-0.693,0.694s-0.694-0.312-0.694-0.694s0.312-0.694,0.694-0.694
	S34.455,30.604,34.455,30.986"/>
<path d="M43.363,37.897c0,0.842-0.686,1.527-1.526,1.527c-0.845,0-1.528-0.686-1.528-1.527c0-0.844,0.684-1.526,1.528-1.526
	C42.678,36.371,43.363,37.054,43.363,37.897"/>
<path d="M32.054,38.259c0,0.844-0.684,1.527-1.527,1.527s-1.528-0.684-1.528-1.527c0-0.841,0.685-1.527,1.528-1.527
	S32.054,37.418,32.054,38.259"/>
<path d="M40.62,29.911c0,0.845-0.683,1.527-1.527,1.527c-0.844,0-1.527-0.683-1.527-1.527c0-0.844,0.684-1.526,1.527-1.526
	C39.938,28.385,40.62,29.067,40.62,29.911"/>
<path d="M39.896,42.466c0,0.844-0.684,1.527-1.527,1.527c-0.842,0-1.528-0.684-1.528-1.527c0-0.841,0.687-1.527,1.528-1.527
	C39.212,40.938,39.896,41.625,39.896,42.466"/>
<path d="M30.754,32.258c0,0.383-0.311,0.694-0.694,0.694c-0.383,0-0.693-0.312-0.693-0.694s0.311-0.693,0.693-0.693
	C30.443,31.564,30.754,31.875,30.754,32.258"/>
<path d="M44.33,34.263c0,0.383-0.312,0.694-0.694,0.694s-0.694-0.312-0.694-0.694s0.312-0.693,0.694-0.693S44.33,33.88,44.33,34.263
	"/>
<path d="M32.515,42.252c0,0.383-0.312,0.694-0.694,0.694s-0.694-0.312-0.694-0.694s0.312-0.694,0.694-0.694
	S32.515,41.869,32.515,42.252"/>
<path d="M35.961,27.876c0,0.383-0.312,0.694-0.694,0.694s-0.694-0.312-0.694-0.694s0.312-0.693,0.694-0.693
	S35.961,27.493,35.961,27.876"/>
<path d="M44.199,41.244c0,0.844-0.683,1.526-1.527,1.526c-0.844,0-1.527-0.683-1.527-1.526c0-0.841,0.684-1.527,1.527-1.527
	C43.517,39.717,44.199,40.403,44.199,41.244"/>
<path d="M29.249,36.231c0,0.845-0.684,1.527-1.527,1.527c-0.842,0-1.528-0.683-1.528-1.527c0-0.844,0.687-1.526,1.528-1.526
	C28.565,34.705,29.249,35.388,29.249,36.231"/>
<path d="M43.258,29.645c0,0.384-0.308,0.694-0.693,0.694c-0.384,0-0.694-0.311-0.694-0.694c0-0.386,0.311-0.693,0.694-0.693
	C42.95,28.951,43.258,29.259,43.258,29.645"/>
<path d="M36.577,44.945c0,0.383-0.312,0.694-0.694,0.694s-0.693-0.312-0.693-0.694s0.311-0.694,0.693-0.694
	S36.577,44.562,36.577,44.945"/>
<path d="M31.862,28.726c0,0.845-0.684,1.527-1.527,1.527s-1.528-0.683-1.528-1.527c0-0.844,0.685-1.526,1.528-1.526
	S31.862,27.882,31.862,28.726"/>
<path d="M47.287,37.148c0,0.844-0.683,1.526-1.526,1.526c-0.845,0-1.528-0.683-1.528-1.526c0-0.842,0.684-1.527,1.528-1.527
	C46.604,35.621,47.287,36.307,47.287,37.148"/>
<path d="M29.81,41.455c0,0.844-0.683,1.527-1.526,1.527c-0.843,0-1.528-0.684-1.528-1.527s0.686-1.527,1.528-1.527
	C29.127,39.928,29.81,40.611,29.81,41.455"/>
<path d="M40.021,26.132c0,0.845-0.684,1.527-1.527,1.527c-0.842,0-1.528-0.683-1.528-1.527c0-0.844,0.687-1.526,1.528-1.526
	C39.337,24.605,40.021,25.288,40.021,26.132"/>
<path d="M42.069,44.729c0,0.384-0.311,0.694-0.693,0.694c-0.384,0-0.694-0.311-0.694-0.694c0-0.383,0.311-0.693,0.694-0.693
	C41.759,44.035,42.069,44.346,42.069,44.729"/>
<path d="M27.074,32.711c0,0.383-0.311,0.693-0.693,0.693s-0.694-0.311-0.694-0.693c0-0.384,0.312-0.694,0.694-0.694
	S27.074,32.327,27.074,32.711"/>
<path d="M46.638,31.422c0,0.384-0.312,0.694-0.694,0.694s-0.694-0.311-0.694-0.694c0-0.383,0.312-0.693,0.694-0.693
	S46.638,31.039,46.638,31.422"/>
<path d="M32.817,45.859c0,0.383-0.309,0.693-0.694,0.693c-0.383,0-0.694-0.311-0.694-0.693c0-0.384,0.312-0.694,0.694-0.694
	C32.509,45.165,32.817,45.476,32.817,45.859"/>
<path d="M34.1,25.508c0,0.841-0.683,1.526-1.526,1.526c-0.845,0-1.528-0.686-1.528-1.526c0-0.845,0.684-1.527,1.528-1.527
	C33.417,23.98,34.1,24.663,34.1,25.508"/>
<path d="M47.757,41.094c0,0.844-0.684,1.527-1.527,1.527s-1.528-0.684-1.528-1.527s0.685-1.526,1.528-1.526
	S47.757,40.25,47.757,41.094"/>
<path d="M25.967,38.783c0,0.384-0.312,0.694-0.694,0.694s-0.694-0.311-0.694-0.694c0-0.383,0.312-0.693,0.694-0.693
	S25.967,38.4,25.967,38.783"/>
<path d="M43.267,26.124c0,0.383-0.309,0.694-0.694,0.694c-0.383,0-0.694-0.312-0.694-0.694s0.312-0.694,0.694-0.694
	C42.958,25.43,43.267,25.741,43.267,26.124"/>
<path d="M39.826,47.486c0,0.844-0.687,1.527-1.527,1.527c-0.844,0-1.528-0.684-1.528-1.527c0-0.841,0.685-1.527,1.528-1.527
	C39.14,45.959,39.826,46.646,39.826,47.486"/>
<path d="M28.371,28.551c0,0.844-0.686,1.527-1.526,1.527c-0.845,0-1.528-0.684-1.528-1.527s0.684-1.526,1.528-1.526
	C27.686,27.024,28.371,27.707,28.371,28.551"/>
<path d="M49.931,34.874c0,0.844-0.683,1.526-1.527,1.526c-0.842,0-1.527-0.683-1.527-1.526s0.686-1.527,1.527-1.527
	C49.248,33.347,49.931,34.03,49.931,34.874"/>
<path d="M29.463,44.921c0,0.844-0.684,1.526-1.527,1.526s-1.528-0.683-1.528-1.526c0-0.845,0.685-1.527,1.528-1.527
	S29.463,44.076,29.463,44.921"/>
<path d="M37.058,23.381c0,0.383-0.312,0.693-0.694,0.693s-0.694-0.311-0.694-0.693c0-0.384,0.312-0.694,0.694-0.694
	S37.058,22.997,37.058,23.381"/>
<path d="M45.507,45.259c0,0.384-0.311,0.694-0.693,0.694s-0.694-0.311-0.694-0.694c0-0.383,0.312-0.693,0.694-0.693
	S45.507,44.876,45.507,45.259"/>
<path d="M24.212,34.69c0,0.383-0.312,0.694-0.694,0.694s-0.694-0.312-0.694-0.694s0.312-0.693,0.694-0.693
	S24.212,34.308,24.212,34.69"/>
<path d="M47.356,28.013c0,0.383-0.311,0.693-0.693,0.693c-0.384,0-0.694-0.311-0.694-0.693c0-0.384,0.311-0.694,0.694-0.694
	C47.046,27.318,47.356,27.629,47.356,28.013"/>
<path d="M35.472,48.836c0,0.844-0.683,1.527-1.527,1.527c-0.844,0-1.527-0.684-1.527-1.527s0.684-1.527,1.527-1.527
	C34.789,47.309,35.472,47.992,35.472,48.836"/>
<path d="M30.727,24.589c0,0.844-0.684,1.526-1.527,1.526c-0.842,0-1.528-0.683-1.528-1.526c0-0.842,0.687-1.527,1.528-1.527
	C30.043,23.062,30.727,23.747,30.727,24.589"/>
<path d="M50.014,39.444c0,0.383-0.311,0.694-0.693,0.694s-0.694-0.312-0.694-0.694s0.312-0.693,0.694-0.693
	S50.014,39.062,50.014,39.444"/>
<path d="M24.845,42.11c0,0.386-0.308,0.694-0.694,0.694c-0.383,0-0.693-0.309-0.693-0.694c0-0.383,0.311-0.694,0.693-0.694
	C24.537,41.416,24.845,41.728,24.845,42.11"/>
<path d="M42.631,22.922c0,0.845-0.684,1.527-1.527,1.527c-0.842,0-1.528-0.683-1.528-1.527c0-0.841,0.687-1.526,1.528-1.526
	C41.947,21.396,42.631,22.081,42.631,22.922"/>
<path d="M43.097,48.816c0,0.844-0.683,1.527-1.526,1.527c-0.845,0-1.528-0.684-1.528-1.527s0.684-1.527,1.528-1.527
	C42.414,47.289,43.097,47.973,43.097,48.816"/>
<path d="M25.064,29.828c0,0.841-0.684,1.527-1.527,1.527c-0.842,0-1.528-0.687-1.528-1.527c0-0.844,0.687-1.526,1.528-1.526
	C24.381,28.302,25.064,28.984,25.064,29.828"/>
<path d="M51.475,31.669c0,0.845-0.686,1.527-1.526,1.527c-0.845,0-1.528-0.683-1.528-1.527c0-0.844,0.684-1.526,1.528-1.526
	C50.789,30.143,51.475,30.825,51.475,31.669"/>
<path d="M29.701,48.325c0,0.383-0.311,0.693-0.693,0.693c-0.384,0-0.694-0.311-0.694-0.693s0.311-0.694,0.694-0.694
	C29.391,47.631,29.701,47.942,29.701,48.325"/>
<path d="M33.937,21.623c0,0.383-0.312,0.693-0.694,0.693s-0.694-0.311-0.694-0.693c0-0.384,0.312-0.694,0.694-0.694
	S33.937,21.239,33.937,21.623"/>
<path d="M49.001,44.404c0,0.383-0.309,0.693-0.694,0.693c-0.383,0-0.694-0.311-0.694-0.693c0-0.384,0.312-0.694,0.694-0.694
	C48.692,43.71,49.001,44.021,49.001,44.404"/>
<path d="M22.237,37.715c0,0.383-0.312,0.693-0.694,0.693s-0.693-0.311-0.693-0.693s0.311-0.694,0.693-0.694
	S22.237,37.332,22.237,37.715"/>
<path d="M47.565,24.441c0,0.841-0.687,1.526-1.527,1.526c-0.844,0-1.528-0.686-1.528-1.526c0-0.844,0.685-1.527,1.528-1.527
	C46.879,22.914,47.565,23.598,47.565,24.441"/>
<path d="M38.382,51.026c0,0.845-0.683,1.527-1.527,1.527c-0.844,0-1.527-0.683-1.527-1.527c0-0.841,0.684-1.526,1.527-1.526
	C37.699,49.5,38.382,50.186,38.382,51.026"/>
<path d="M26.256,24.975c0,0.386-0.312,0.693-0.694,0.693c-0.386,0-0.694-0.308-0.694-0.693c0-0.383,0.309-0.694,0.694-0.694
	C25.944,24.28,26.256,24.592,26.256,24.975"/>
<path d="M52.422,36.665c0,0.383-0.312,0.694-0.694,0.694s-0.694-0.312-0.694-0.694s0.312-0.694,0.694-0.694
	S52.422,36.282,52.422,36.665"/>
<path d="M25.813,45.804c0,0.844-0.683,1.526-1.526,1.526c-0.842,0-1.528-0.683-1.528-1.526s0.687-1.527,1.528-1.527
	C25.131,44.276,25.813,44.96,25.813,45.804"/>
<path d="M40.001,20.304c0,0.844-0.684,1.527-1.527,1.527c-0.842,0-1.528-0.684-1.528-1.527s0.687-1.527,1.528-1.527
	C39.317,18.776,40.001,19.46,40.001,20.304"/>
<path d="M46.823,48.938c0,0.844-0.683,1.527-1.526,1.527c-0.845,0-1.528-0.684-1.528-1.527c0-0.841,0.684-1.526,1.528-1.526
	C46.141,47.412,46.823,48.098,46.823,48.938"/>
<path d="M22.24,32.289c0,0.844-0.684,1.526-1.527,1.526s-1.527-0.683-1.527-1.526c0-0.845,0.684-1.527,1.527-1.527
	S22.24,31.444,22.24,32.289"/>
<path d="M51.033,27.924c0,0.383-0.311,0.693-0.694,0.693c-0.383,0-0.693-0.311-0.693-0.693c0-0.384,0.311-0.694,0.693-0.694
	C50.723,27.229,51.033,27.54,51.033,27.924"/>
<path d="M31.976,51.349c0,0.384-0.311,0.694-0.694,0.694c-0.383,0-0.693-0.311-0.693-0.694c0-0.383,0.311-0.693,0.693-0.693
	C31.665,50.655,31.976,50.966,31.976,51.349"/>
<path d="M30.19,20.956c0,0.384-0.312,0.694-0.694,0.694s-0.694-0.311-0.694-0.694c0-0.383,0.312-0.693,0.694-0.693
	S30.19,20.573,30.19,20.956"/>
<path d="M52.213,42.332c0,0.384-0.311,0.694-0.693,0.694s-0.694-0.311-0.694-0.694c0-0.383,0.312-0.693,0.694-0.693
	S52.213,41.949,52.213,42.332"/>
<path d="M22.123,41.438c0,0.844-0.683,1.527-1.526,1.527s-1.528-0.684-1.528-1.527s0.685-1.527,1.528-1.527
	S22.123,40.595,22.123,41.438"/>
<path d="M45.713,21.051c0,0.844-0.684,1.527-1.527,1.527s-1.527-0.684-1.527-1.527c0-0.841,0.684-1.527,1.527-1.527
	S45.713,20.21,45.713,21.051"/>
<path d="M41.229,52.257c0,0.383-0.312,0.694-0.694,0.694s-0.694-0.312-0.694-0.694s0.312-0.694,0.694-0.694
	S41.229,51.874,41.229,52.257"/>
<path d="M22.704,26.588c0,0.383-0.312,0.694-0.694,0.694s-0.694-0.312-0.694-0.694s0.312-0.694,0.694-0.694
	S22.704,26.205,22.704,26.588"/>
<path d="M54.768,33.05c0,0.844-0.683,1.526-1.526,1.526c-0.842,0-1.528-0.683-1.528-1.526c0-0.841,0.687-1.527,1.528-1.527
	C54.085,31.522,54.768,32.209,54.768,33.05"/>
<path d="M27.169,49.502c0,0.845-0.683,1.527-1.527,1.527c-0.842,0-1.527-0.683-1.527-1.527c0-0.844,0.686-1.526,1.527-1.526
	C26.486,47.976,27.169,48.658,27.169,49.502"/>
<path d="M36.475,18.504c0,0.845-0.684,1.527-1.527,1.527c-0.842,0-1.528-0.683-1.528-1.527c0-0.844,0.687-1.526,1.528-1.526
	C35.791,16.978,36.475,17.66,36.475,18.504"/>
<path d="M50.652,47.855c0,0.844-0.683,1.527-1.526,1.527s-1.528-0.684-1.528-1.527s0.685-1.526,1.528-1.526
	S50.652,47.012,50.652,47.855"/>
<path d="M19.324,35.704c0,0.383-0.311,0.694-0.693,0.694c-0.384,0-0.694-0.312-0.694-0.694s0.311-0.694,0.694-0.694
	C19.014,35.01,19.324,35.321,19.324,35.704"/>
<path d="M50.233,23.985c0,0.384-0.311,0.694-0.694,0.694c-0.383,0-0.693-0.311-0.693-0.694c0-0.383,0.311-0.693,0.693-0.693
	C49.923,23.292,50.233,23.603,50.233,23.985"/>
<path d="M35.255,53.706c0,0.384-0.311,0.694-0.693,0.694c-0.384,0-0.694-0.311-0.694-0.694c0-0.383,0.311-0.693,0.694-0.693
	C34.944,53.013,35.255,53.323,35.255,53.706"/>
<path d="M26.164,21.456c0,0.383-0.312,0.694-0.694,0.694s-0.694-0.312-0.694-0.694s0.312-0.694,0.694-0.694
	S26.164,21.073,26.164,21.456"/>
<path d="M55.676,39.214c0,0.841-0.683,1.527-1.526,1.527c-0.845,0-1.528-0.687-1.528-1.527c0-0.844,0.684-1.526,1.528-1.526
	C54.993,37.688,55.676,38.37,55.676,39.214"/>
<path d="M22.315,45.534c0,0.844-0.684,1.527-1.527,1.527s-1.528-0.684-1.528-1.527s0.685-1.527,1.528-1.527
	S22.315,44.69,22.315,45.534"/>
<path d="M41.944,18.16c0,0.383-0.311,0.693-0.693,0.693c-0.384,0-0.694-0.311-0.694-0.693s0.311-0.694,0.694-0.694
	C41.634,17.466,41.944,17.777,41.944,18.16"/>
<path d="M45.368,52.388c0,0.383-0.311,0.693-0.693,0.693c-0.387,0-0.694-0.311-0.694-0.693s0.308-0.694,0.694-0.694
	C45.058,51.693,45.368,52.005,45.368,52.388"/>
<path d="M20.396,29.314c0,0.844-0.687,1.527-1.527,1.527c-0.844,0-1.528-0.684-1.528-1.527c0-0.841,0.685-1.527,1.528-1.527
	C19.71,27.787,20.396,28.474,20.396,29.314"/>
<path d="M55.224,28.896c0,0.841-0.684,1.526-1.527,1.526s-1.528-0.686-1.528-1.526c0-0.844,0.685-1.527,1.528-1.527
	S55.224,28.052,55.224,28.896"/>
<path d="M29.668,52.879c0,0.844-0.683,1.527-1.526,1.527c-0.843,0-1.528-0.684-1.528-1.527s0.686-1.527,1.528-1.527
	C28.985,51.352,29.668,52.035,29.668,52.879"/>
<path d="M32.328,17.719c0,0.841-0.683,1.526-1.526,1.526c-0.845,0-1.528-0.686-1.528-1.526c0-0.844,0.684-1.527,1.528-1.527
	C31.646,16.191,32.328,16.875,32.328,17.719"/>
<path d="M53.416,45.609c0,0.383-0.312,0.693-0.694,0.693s-0.694-0.311-0.694-0.693c0-0.387,0.312-0.694,0.694-0.694
	S53.416,45.223,53.416,45.609"/>
<path d="M18.202,39.816c0,0.383-0.308,0.694-0.693,0.694c-0.383,0-0.694-0.312-0.694-0.694s0.312-0.693,0.694-0.693
	C17.895,39.123,18.202,39.434,18.202,39.816"/>
<path d="M48.259,20.188c0,0.383-0.311,0.693-0.693,0.693c-0.387,0-0.694-0.311-0.694-0.693c0-0.387,0.308-0.694,0.694-0.694
	C47.948,19.493,48.259,19.801,48.259,20.188"/>
<path d="M39.304,55.164c0,0.384-0.311,0.694-0.694,0.694c-0.383,0-0.693-0.311-0.693-0.694c0-0.383,0.311-0.693,0.693-0.693
	C38.993,54.471,39.304,54.781,39.304,55.164"/>
<path d="M23.015,23.142c0,0.841-0.683,1.527-1.527,1.527c-0.844,0-1.527-0.687-1.527-1.527c0-0.844,0.684-1.527,1.527-1.527
	C22.332,21.614,23.015,22.298,23.015,23.142"/>
<path d="M57.467,35.257c0,0.841-0.683,1.527-1.526,1.527c-0.845,0-1.528-0.687-1.528-1.527c0-0.844,0.684-1.526,1.528-1.526
	C56.784,33.73,57.467,34.413,57.467,35.257"/>
<path d="M22.856,49.675c0,0.383-0.311,0.693-0.694,0.693c-0.383,0-0.693-0.311-0.693-0.693s0.311-0.694,0.693-0.694
	C22.546,48.98,22.856,49.292,22.856,49.675"/>
<path d="M38.107,16.041c0,0.383-0.312,0.694-0.694,0.694s-0.694-0.312-0.694-0.694s0.312-0.693,0.694-0.693
	S38.107,15.658,38.107,16.041"/>
<path d="M50.478,51.338c0,0.844-0.683,1.527-1.526,1.527c-0.845,0-1.528-0.684-1.528-1.527s0.684-1.527,1.528-1.527
	C49.795,49.811,50.478,50.494,50.478,51.338"/>
<path d="M17.952,33.005c0,0.841-0.686,1.527-1.526,1.527c-0.844,0-1.528-0.687-1.528-1.527c0-0.844,0.685-1.526,1.528-1.526
	C17.267,31.479,17.952,32.161,17.952,33.005"/>
<path d="M54.516,24.508c0,0.841-0.684,1.527-1.527,1.527s-1.528-0.687-1.528-1.527c0-0.844,0.685-1.527,1.528-1.527
	S54.516,23.664,54.516,24.508"/>
<path d="M33.181,55.637c0,0.844-0.683,1.526-1.526,1.526c-0.845,0-1.528-0.683-1.528-1.526c0-0.845,0.684-1.527,1.528-1.527
	C32.498,54.109,33.181,54.792,33.181,55.637"/>
<path d="M27.024,18.074c0,0.383-0.311,0.693-0.694,0.693c-0.383,0-0.693-0.311-0.693-0.693s0.311-0.694,0.693-0.694
	C26.714,17.38,27.024,17.691,27.024,18.074"/>
<path d="M56.476,42.302c0,0.383-0.311,0.694-0.693,0.694c-0.384,0-0.694-0.312-0.694-0.694s0.311-0.693,0.694-0.693
	C56.165,41.608,56.476,41.919,56.476,42.302"/>
<path d="M18.197,44.34c0,0.384-0.312,0.694-0.694,0.694s-0.694-0.311-0.694-0.694c0-0.383,0.312-0.693,0.694-0.693
	S18.197,43.957,18.197,44.34"/>
<path d="M45.183,16.841c0,0.383-0.312,0.694-0.694,0.694s-0.694-0.312-0.694-0.694s0.312-0.693,0.694-0.693
	S45.183,16.458,45.183,16.841"/>
<path d="M44.686,55.542c0,0.844-0.684,1.527-1.527,1.527c-0.842,0-1.527-0.684-1.527-1.527s0.686-1.527,1.527-1.527
	C44.002,54.015,44.686,54.698,44.686,55.542"/>
<path d="M19.399,25.957c0,0.845-0.687,1.527-1.527,1.527c-0.844,0-1.527-0.683-1.527-1.527c0-0.841,0.684-1.526,1.527-1.526
	C18.713,24.431,19.399,25.116,19.399,25.957"/>
<path d="M57.387,30.714c0,0.384-0.311,0.694-0.694,0.694c-0.383,0-0.693-0.311-0.693-0.694c0-0.383,0.311-0.693,0.693-0.693
	C57.076,30.021,57.387,30.331,57.387,30.714"/>
<path d="M25.392,53.543c0,0.383-0.311,0.693-0.693,0.693c-0.384,0-0.694-0.311-0.694-0.693c0-0.384,0.311-0.694,0.694-0.694
	C25.081,52.849,25.392,53.159,25.392,53.543"/>
<path d="M34.436,14.911c0,0.841-0.683,1.527-1.526,1.527s-1.528-0.687-1.528-1.527c0-0.844,0.685-1.527,1.528-1.527
	S34.436,14.067,34.436,14.911"/>
<path d="M54.573,49.108c0,0.844-0.683,1.526-1.526,1.526s-1.528-0.683-1.528-1.526c0-0.845,0.685-1.527,1.528-1.527
	S54.573,48.264,54.573,49.108"/>
<path d="M16.444,37.437c0,0.845-0.683,1.527-1.526,1.527s-1.528-0.683-1.528-1.527c0-0.841,0.685-1.526,1.528-1.526
	S16.444,36.596,16.444,37.437"/>
<path d="M52.613,20.206c0,0.845-0.686,1.527-1.527,1.527c-0.844,0-1.527-0.683-1.527-1.527c0-0.844,0.684-1.526,1.527-1.526
	C51.928,18.68,52.613,19.362,52.613,20.206"/>
<path d="M36.68,57.517c0,0.383-0.311,0.693-0.694,0.693c-0.383,0-0.693-0.311-0.693-0.693c0-0.384,0.311-0.694,0.693-0.694
	C36.369,56.822,36.68,57.133,36.68,57.517"/>
<path d="M22.546,19.629c0,0.383-0.312,0.694-0.694,0.694s-0.694-0.312-0.694-0.694s0.312-0.694,0.694-0.694
	S22.546,19.246,22.546,19.629"/>
<path d="M58.725,38.104c0,0.383-0.311,0.693-0.693,0.693s-0.694-0.311-0.694-0.693s0.312-0.694,0.694-0.694
	S58.725,37.721,58.725,38.104"/>
<path d="M19.389,48.969c0,0.384-0.312,0.694-0.694,0.694S18,49.353,18,48.969c0-0.383,0.312-0.693,0.694-0.693
	S19.389,48.586,19.389,48.969"/>
<path d="M41.986,14.23c0,0.845-0.683,1.527-1.527,1.527c-0.844,0-1.527-0.683-1.527-1.527c0-0.844,0.684-1.526,1.527-1.526
	C41.304,12.704,41.986,13.387,41.986,14.23"/>
<path d="M49.437,54.729c0,0.844-0.683,1.526-1.527,1.526c-0.844,0-1.527-0.683-1.527-1.526s0.684-1.527,1.527-1.527
	C48.754,53.201,49.437,53.885,49.437,54.729"/>
<path d="M15.609,29.789c0,0.384-0.312,0.694-0.694,0.694s-0.694-0.311-0.694-0.694c0-0.383,0.312-0.693,0.694-0.693
	S15.609,29.406,15.609,29.789"/>
<path d="M56.965,25.874c0,0.383-0.312,0.694-0.694,0.694s-0.694-0.312-0.694-0.694s0.312-0.694,0.694-0.694
	S56.965,25.491,56.965,25.874"/>
<path d="M29.826,56.83c0,0.845-0.683,1.527-1.526,1.527c-0.845,0-1.528-0.683-1.528-1.527c0-0.844,0.684-1.526,1.528-1.526
	C29.144,55.304,29.826,55.986,29.826,56.83"/>
<path d="M29.54,14.931c0,0.841-0.683,1.527-1.526,1.527c-0.845,0-1.528-0.687-1.528-1.527c0-0.844,0.684-1.527,1.528-1.527
	C28.857,13.403,29.54,14.087,29.54,14.931"/>
<path d="M58.178,45.765c0,0.844-0.686,1.527-1.526,1.527c-0.845,0-1.528-0.684-1.528-1.527s0.684-1.527,1.528-1.527
	C57.492,44.237,58.178,44.921,58.178,45.765"/>
<path d="M16.054,42.357c0,0.844-0.684,1.527-1.527,1.527c-0.842,0-1.528-0.684-1.528-1.527s0.687-1.527,1.528-1.527
	C15.37,40.83,16.054,41.514,16.054,42.357"/>
<path d="M48.723,16.308c0,0.383-0.311,0.694-0.693,0.694c-0.384,0-0.694-0.312-0.694-0.694s0.311-0.693,0.694-0.693
	C48.412,15.614,48.723,15.925,48.723,16.308"/>
<path d="M41.586,58.321c0,0.383-0.311,0.694-0.693,0.694s-0.694-0.312-0.694-0.694s0.312-0.693,0.694-0.693
	S41.586,57.938,41.586,58.321"/>
<path d="M18.375,22.372c0,0.384-0.312,0.694-0.694,0.694s-0.694-0.311-0.694-0.694c0-0.383,0.312-0.693,0.694-0.693
	S18.375,21.989,18.375,22.372"/>
<path d="M59.944,33.244c0,0.383-0.312,0.693-0.694,0.693s-0.693-0.311-0.693-0.693c0-0.384,0.311-0.694,0.693-0.694
	S59.944,32.86,59.944,33.244"/>
<path d="M22.626,53.39c0,0.841-0.683,1.527-1.527,1.527c-0.844,0-1.527-0.687-1.527-1.527c0-0.844,0.684-1.526,1.527-1.526
	C21.943,51.863,22.626,52.546,22.626,53.39"/>
<path d="M37.207,12.601c0,0.841-0.683,1.527-1.526,1.527c-0.843,0-1.528-0.687-1.528-1.527c0-0.844,0.686-1.526,1.528-1.526
	C36.524,11.074,37.207,11.757,37.207,12.601"/>
<path d="M53.241,52.688c0,0.383-0.312,0.693-0.694,0.693s-0.694-0.311-0.694-0.693s0.312-0.694,0.694-0.694
	S53.241,52.305,53.241,52.688"/>
<path d="M13.57,34.449c0,0.383-0.311,0.693-0.693,0.693s-0.694-0.311-0.694-0.693s0.312-0.694,0.694-0.694
	S13.57,34.066,13.57,34.449"/>
<path d="M56.14,21.045c0,0.845-0.683,1.527-1.526,1.527c-0.845,0-1.528-0.683-1.528-1.527c0-0.841,0.684-1.526,1.528-1.526
	C55.457,19.519,56.14,20.204,56.14,21.045"/>
<path d="M34.333,59.271c0,0.841-0.686,1.526-1.526,1.526c-0.845,0-1.528-0.686-1.528-1.526c0-0.845,0.684-1.527,1.528-1.527
	C33.647,57.744,34.333,58.427,34.333,59.271"/>
<path d="M24.553,16.188c0,0.844-0.683,1.527-1.526,1.527c-0.842,0-1.528-0.684-1.528-1.527s0.687-1.527,1.528-1.527
	C23.87,14.661,24.553,15.345,24.553,16.188"/>
<path d="M61.005,41.449c0,0.841-0.683,1.527-1.527,1.527c-0.842,0-1.527-0.687-1.527-1.527c0-0.844,0.686-1.526,1.527-1.526
	C60.322,39.923,61.005,40.605,61.005,41.449"/>
<path d="M16.064,47.467c0,0.383-0.312,0.694-0.694,0.694s-0.693-0.312-0.693-0.694s0.311-0.694,0.693-0.694
	S16.064,47.084,16.064,47.467"/>
<path d="M44.63,13.104c0,0.383-0.312,0.693-0.694,0.693s-0.693-0.311-0.693-0.693s0.311-0.694,0.693-0.694
	S44.63,12.721,44.63,13.104"/>
<path d="M46.785,57.908c0,0.383-0.309,0.693-0.694,0.693c-0.383,0-0.694-0.311-0.694-0.693c0-0.384,0.312-0.694,0.694-0.694
	C46.477,57.214,46.785,57.524,46.785,57.908"/>
<path d="M14.814,26.207c0,0.384-0.311,0.694-0.693,0.694c-0.387,0-0.694-0.311-0.694-0.694c0-0.383,0.308-0.693,0.694-0.693
	C14.504,25.514,14.814,25.824,14.814,26.207"/>
<path d="M60.802,27.993c0,0.841-0.686,1.526-1.526,1.526c-0.844,0-1.528-0.686-1.528-1.526c0-0.845,0.685-1.527,1.528-1.527
	C60.116,26.466,60.802,27.148,60.802,27.993"/>
<path d="M26.175,57.286c0,0.844-0.686,1.526-1.527,1.526c-0.844,0-1.527-0.683-1.527-1.526c0-0.845,0.684-1.527,1.527-1.527
	C25.489,55.759,26.175,56.441,26.175,57.286"/>
<path d="M31.106,12.132c0,0.383-0.311,0.693-0.694,0.693c-0.383,0-0.693-0.311-0.693-0.693c0-0.387,0.311-0.694,0.693-0.694
	C30.796,11.438,31.106,11.745,31.106,12.132"/>
<path d="M57.453,49.458c0,0.383-0.311,0.693-0.693,0.693c-0.384,0-0.694-0.311-0.694-0.693s0.311-0.694,0.694-0.694
	C57.143,48.764,57.453,49.075,57.453,49.458"/>
<path d="M13.484,39.694c0,0.841-0.683,1.527-1.526,1.527c-0.845,0-1.528-0.687-1.528-1.527c0-0.844,0.684-1.527,1.528-1.527
	C12.802,38.167,13.484,38.851,13.484,39.694"/>
<path d="M53.258,16.55c0,0.841-0.687,1.526-1.527,1.526c-0.844,0-1.528-0.686-1.528-1.526c0-0.845,0.685-1.527,1.528-1.527
	C52.571,15.022,53.258,15.705,53.258,16.55"/>
<path d="M39.515,60.638c0,0.841-0.683,1.526-1.526,1.526c-0.843,0-1.528-0.686-1.528-1.526c0-0.845,0.686-1.527,1.528-1.527
	C38.832,59.11,39.515,59.793,39.515,60.638"/>
<path d="M19.797,18.698c0,0.842-0.684,1.527-1.527,1.527c-0.842,0-1.528-0.686-1.528-1.527c0-0.844,0.687-1.526,1.528-1.526
	C19.113,17.172,19.797,17.854,19.797,18.698"/>
<path d="M61.982,36.365c0,0.383-0.311,0.693-0.694,0.693c-0.383,0-0.693-0.311-0.693-0.693s0.311-0.694,0.693-0.694
	C61.672,35.671,61.982,35.982,61.982,36.365"/>
<path d="M18.178,52.451c0,0.383-0.312,0.694-0.694,0.694s-0.693-0.312-0.693-0.694s0.311-0.694,0.693-0.694
	S18.178,52.068,18.178,52.451"/>
<path d="M39.685,10.856c0,0.384-0.309,0.694-0.694,0.694c-0.383,0-0.694-0.311-0.694-0.694c0-0.383,0.312-0.693,0.694-0.693
	C39.376,10.163,39.685,10.474,39.685,10.856"/>
<path d="M51.966,56.211c0,0.383-0.311,0.694-0.693,0.694s-0.694-0.312-0.694-0.694s0.312-0.693,0.694-0.693
	S51.966,55.828,51.966,56.211"/>
<path d="M12.971,30.978c0,0.842-0.683,1.527-1.526,1.527c-0.845,0-1.528-0.686-1.528-1.527c0-0.844,0.684-1.526,1.528-1.526
	C12.288,29.451,12.971,30.134,12.971,30.978"/>
<path d="M59.541,22.653c0,0.844-0.683,1.526-1.526,1.526s-1.528-0.683-1.528-1.526c0-0.845,0.685-1.527,1.528-1.527
	S59.541,21.809,59.541,22.653"/>
<path d="M29.896,60.374c0,0.383-0.311,0.693-0.693,0.693c-0.387,0-0.694-0.311-0.694-0.693c0-0.384,0.308-0.694,0.694-0.694
	C29.585,59.68,29.896,59.99,29.896,60.374"/>
<path d="M25.647,12.939c0,0.383-0.312,0.694-0.694,0.694s-0.693-0.312-0.693-0.694s0.311-0.694,0.693-0.694
	S25.647,12.557,25.647,12.939"/>
<path d="M61.771,45.153c0,0.845-0.684,1.527-1.527,1.527s-1.528-0.683-1.528-1.527c0-0.844,0.685-1.526,1.528-1.526
	S61.771,44.31,61.771,45.153"/>
<path d="M13.829,45.24c0,0.841-0.684,1.526-1.527,1.526c-0.842,0-1.527-0.686-1.527-1.526c0-0.845,0.686-1.527,1.527-1.527
	C13.146,43.713,13.829,44.396,13.829,45.24"/>
<path d="M49.239,12.687c0,0.845-0.683,1.527-1.527,1.527c-0.844,0-1.527-0.683-1.527-1.527c0-0.844,0.684-1.526,1.527-1.526
	C48.557,11.16,49.239,11.843,49.239,12.687"/>
<path d="M45.104,60.763c0,0.844-0.683,1.526-1.526,1.526c-0.845,0-1.528-0.683-1.528-1.526c0-0.841,0.684-1.527,1.528-1.527
	C44.422,59.235,45.104,59.922,45.104,60.763"/>
<path d="M14.748,22.397c0,0.383-0.308,0.694-0.694,0.694c-0.383,0-0.693-0.312-0.693-0.694s0.311-0.694,0.693-0.694
	C14.44,21.703,14.748,22.015,14.748,22.397"/>
<path d="M62.588,30.772c0,0.383-0.312,0.694-0.694,0.694s-0.694-0.312-0.694-0.694s0.312-0.694,0.694-0.694
	S62.588,30.39,62.588,30.772"/>
<path d="M21.523,56.994c0,0.383-0.311,0.694-0.693,0.694c-0.384,0-0.694-0.312-0.694-0.694S20.446,56.3,20.83,56.3
	C21.213,56.3,21.523,56.611,21.523,56.994"/>
<path d="M34.131,9.771c0,0.383-0.312,0.693-0.694,0.693s-0.694-0.311-0.694-0.693c0-0.384,0.312-0.694,0.694-0.694
	S34.131,9.388,34.131,9.771"/>
<path d="M57.637,53.243c0,0.844-0.684,1.526-1.527,1.526c-0.842,0-1.527-0.683-1.527-1.526c0-0.842,0.686-1.527,1.527-1.527
	C56.953,51.716,57.637,52.401,57.637,53.243"/>
<path d="M11.41,36.451c0,0.844-0.683,1.527-1.526,1.527c-0.845,0-1.528-0.684-1.528-1.527c0-0.841,0.684-1.527,1.528-1.527
	C10.728,34.924,11.41,35.61,11.41,36.451"/>
<path d="M56.148,17.549c0,0.383-0.312,0.694-0.694,0.694s-0.694-0.312-0.694-0.694s0.312-0.693,0.694-0.693
	S56.148,17.166,56.148,17.549"/>
<path d="M35.25,62.409c0,0.383-0.312,0.694-0.694,0.694s-0.694-0.312-0.694-0.694s0.312-0.694,0.694-0.694
	S35.25,62.026,35.25,62.409"/>
<path d="M21.144,15.069c0,0.844-0.684,1.527-1.527,1.527c-0.842,0-1.528-0.684-1.528-1.527s0.687-1.527,1.528-1.527
	C20.46,13.542,21.144,14.226,21.144,15.069"/>
<path d="M64.268,39.961c0,0.844-0.683,1.527-1.527,1.527c-0.844,0-1.527-0.684-1.527-1.527s0.684-1.527,1.527-1.527
	C63.585,38.434,64.268,39.117,64.268,39.961"/>
<path d="M15.509,50.769c0,0.844-0.686,1.527-1.526,1.527c-0.845,0-1.528-0.684-1.528-1.527s0.684-1.527,1.528-1.527
	C14.823,49.241,15.509,49.925,15.509,50.769"/>
<path d="M44.249,9.74c0,0.842-0.686,1.527-1.526,1.527c-0.845,0-1.528-0.686-1.528-1.527c0-0.844,0.684-1.526,1.528-1.526
	C43.563,8.214,44.249,8.896,44.249,9.74"/>
<path d="M49.956,59.555c0,0.383-0.309,0.694-0.694,0.694c-0.383,0-0.694-0.312-0.694-0.694s0.312-0.694,0.694-0.694
	C49.647,58.86,49.956,59.172,49.956,59.555"/>
<path d="M11.369,27.146c0,0.384-0.312,0.694-0.694,0.694S9.98,27.529,9.98,27.146c0-0.383,0.312-0.693,0.694-0.693
	S11.369,26.763,11.369,27.146"/>
<path d="M61.865,24.972c0,0.383-0.311,0.694-0.693,0.694c-0.386,0-0.694-0.312-0.694-0.694s0.309-0.694,0.694-0.694
	C61.555,24.277,61.865,24.589,61.865,24.972"/>
<path d="M25.994,60.787c0,0.387-0.311,0.694-0.693,0.694c-0.384,0-0.694-0.308-0.694-0.694c0-0.383,0.311-0.693,0.694-0.693
	C25.684,60.094,25.994,60.404,25.994,60.787"/>
<path d="M29.088,9.999c0,0.844-0.684,1.526-1.527,1.526c-0.842,0-1.527-0.683-1.527-1.526s0.686-1.527,1.527-1.527
	C28.404,8.472,29.088,9.155,29.088,9.999"/>
<path d="M61.824,49.092c0,0.844-0.684,1.526-1.527,1.526s-1.527-0.683-1.527-1.526c0-0.845,0.684-1.527,1.527-1.527
	S61.824,48.247,61.824,49.092"/>
<path d="M10.3,42.357c0,0.383-0.312,0.694-0.694,0.694s-0.694-0.312-0.694-0.694s0.312-0.694,0.694-0.694S10.3,41.975,10.3,42.357"
	/>
<path d="M52.347,12.998c0,0.383-0.311,0.693-0.694,0.693c-0.383,0-0.693-0.311-0.693-0.693s0.311-0.694,0.693-0.694
	C52.036,12.304,52.347,12.615,52.347,12.998"/>
<path d="M41.976,63.192c0,0.844-0.684,1.527-1.527,1.527c-0.842,0-1.528-0.684-1.528-1.527s0.687-1.527,1.528-1.527
	C41.292,61.665,41.976,62.349,41.976,63.192"/>
<path d="M16.259,18.484c0,0.845-0.684,1.527-1.527,1.527s-1.527-0.683-1.527-1.527c0-0.841,0.684-1.526,1.527-1.526
	S16.259,17.644,16.259,18.484"/>
<path d="M65.559,34.124c0,0.844-0.683,1.527-1.526,1.527c-0.843,0-1.528-0.684-1.528-1.527s0.686-1.527,1.528-1.527
	C64.876,32.597,65.559,33.28,65.559,34.124"/>
<path d="M18.511,55.956c0,0.844-0.683,1.526-1.527,1.526c-0.842,0-1.527-0.683-1.527-1.526c0-0.842,0.686-1.527,1.527-1.527
	C17.828,54.429,18.511,55.114,18.511,55.956"/>
<path d="M37.68,7.944c0,0.383-0.312,0.693-0.694,0.693s-0.694-0.311-0.694-0.693c0-0.384,0.312-0.694,0.694-0.694
	S37.68,7.561,37.68,7.944"/>
<path d="M55.412,56.991c0,0.383-0.311,0.694-0.693,0.694c-0.384,0-0.694-0.312-0.694-0.694s0.311-0.693,0.694-0.693
	C55.102,56.298,55.412,56.608,55.412,56.991"/>
<path d="M9.075,32.738c0,0.383-0.312,0.694-0.694,0.694s-0.694-0.312-0.694-0.694s0.312-0.693,0.694-0.693
	S9.075,32.355,9.075,32.738"/>
<path d="M59.767,19.284c0,0.384-0.312,0.694-0.694,0.694s-0.694-0.311-0.694-0.694c0-0.383,0.312-0.693,0.694-0.693
	S59.767,18.901,59.767,19.284"/>
<path d="M32.231,63.567c0,0.841-0.684,1.526-1.527,1.526s-1.528-0.686-1.528-1.526c0-0.845,0.685-1.527,1.528-1.527
	S32.231,62.723,32.231,63.567"/>
<path d="M23.215,11.612c0,0.841-0.687,1.526-1.527,1.526c-0.844,0-1.527-0.686-1.527-1.526c0-0.844,0.684-1.527,1.527-1.527
	C22.528,10.085,23.215,10.769,23.215,11.612"/>
<path d="M64.237,43.918c0,0.383-0.312,0.694-0.694,0.694s-0.693-0.312-0.693-0.694s0.311-0.694,0.693-0.694
	S64.237,43.535,64.237,43.918"/>
<path d="M11.41,48.381c0,0.386-0.311,0.693-0.693,0.693c-0.387,0-0.694-0.308-0.694-0.693c0-0.384,0.308-0.694,0.694-0.694
	C11.1,47.687,11.41,47.997,11.41,48.381"/>
<path d="M48.275,9.302c0,0.841-0.683,1.527-1.526,1.527c-0.842,0-1.528-0.687-1.528-1.527c0-0.844,0.687-1.527,1.528-1.527
	C47.593,7.774,48.275,8.458,48.275,9.302"/>
<path d="M48.104,62.601c0,0.844-0.683,1.527-1.527,1.527c-0.842,0-1.527-0.684-1.527-1.527s0.686-1.526,1.527-1.526
	C47.421,61.074,48.104,61.757,48.104,62.601"/>
<path d="M12.132,23.078c0,0.844-0.683,1.526-1.526,1.526c-0.842,0-1.528-0.683-1.528-1.526c0-0.845,0.687-1.527,1.528-1.527
	C11.449,21.551,12.132,22.233,12.132,23.078"/>
<path d="M65.495,27.935c0,0.844-0.683,1.527-1.527,1.527c-0.844,0-1.527-0.684-1.527-1.527c0-0.841,0.684-1.527,1.527-1.527
	C64.812,26.407,65.495,27.094,65.495,27.935"/>
<path d="M21.921,60.484c0,0.384-0.312,0.694-0.694,0.694s-0.693-0.311-0.693-0.694c0-0.383,0.311-0.693,0.693-0.693
	S21.921,60.102,21.921,60.484"/>
<path d="M31.476,7.475c0,0.383-0.311,0.694-0.693,0.694c-0.384,0-0.694-0.312-0.694-0.694s0.311-0.694,0.694-0.694
	C31.165,6.78,31.476,7.092,31.476,7.475"/>
<path d="M60.311,53.135c0,0.383-0.308,0.693-0.694,0.693c-0.383,0-0.693-0.311-0.693-0.693c0-0.384,0.311-0.694,0.693-0.694
	C60.003,52.44,60.311,52.751,60.311,53.135"/>
<path d="M8.072,38.908c0,0.384-0.311,0.694-0.693,0.694c-0.384,0-0.694-0.311-0.694-0.694c0-0.383,0.311-0.693,0.694-0.693
	C7.762,38.215,8.072,38.525,8.072,38.908"/>
<path d="M57.159,14.048c0,0.844-0.687,1.526-1.527,1.526c-0.844,0-1.528-0.683-1.528-1.526c0-0.845,0.685-1.527,1.528-1.527
	C56.473,12.521,57.159,13.203,57.159,14.048"/>
<path d="M38.323,65.103c0,0.844-0.683,1.527-1.526,1.527c-0.845,0-1.528-0.684-1.528-1.527s0.684-1.527,1.528-1.527
	C37.641,63.575,38.323,64.259,38.323,65.103"/>
<path d="M16.839,14.605c0,0.383-0.311,0.694-0.693,0.694c-0.384,0-0.694-0.312-0.694-0.694s0.311-0.693,0.694-0.693
	C16.528,13.912,16.839,14.223,16.839,14.605"/>
<path d="M66.303,37.95c0,0.384-0.311,0.694-0.693,0.694c-0.384,0-0.694-0.311-0.694-0.694c0-0.383,0.311-0.693,0.694-0.693
	C65.992,37.257,66.303,37.567,66.303,37.95"/>
<path d="M14.762,54.189c0,0.844-0.683,1.527-1.526,1.527c-0.845,0-1.528-0.684-1.528-1.527s0.684-1.526,1.528-1.526
	C14.079,52.663,14.762,53.346,14.762,54.189"/>
<path d="M42.48,6.72c0,0.841-0.683,1.526-1.527,1.526c-0.844,0-1.527-0.686-1.527-1.526c0-0.845,0.684-1.527,1.527-1.527
	C41.798,5.192,42.48,5.875,42.48,6.72"/>
<path d="M54.135,60.579c0,0.844-0.683,1.527-1.526,1.527c-0.843,0-1.528-0.684-1.528-1.527s0.686-1.527,1.528-1.527
	C53.452,59.052,54.135,59.735,54.135,60.579"/>
<path d="M9.047,28.659c0,0.844-0.683,1.527-1.526,1.527c-0.845,0-1.528-0.684-1.528-1.527s0.684-1.526,1.528-1.526
	C8.364,27.133,9.047,27.815,9.047,28.659"/>
<path d="M63.16,21.723c0,0.383-0.312,0.694-0.694,0.694s-0.694-0.312-0.694-0.694s0.312-0.694,0.694-0.694S63.16,21.34,63.16,21.723
	"/>
<path d="M27.241,64.056c0,0.383-0.312,0.694-0.694,0.694s-0.693-0.312-0.693-0.694s0.311-0.694,0.693-0.694
	S27.241,63.673,27.241,64.056"/>
<path d="M25.125,8.443c0,0.384-0.311,0.694-0.693,0.694c-0.384,0-0.694-0.311-0.694-0.694c0-0.383,0.311-0.693,0.694-0.693
	C24.814,7.75,25.125,8.061,25.125,8.443"/>
<path d="M64.346,48.116c0,0.384-0.312,0.694-0.694,0.694s-0.694-0.311-0.694-0.694c0-0.383,0.312-0.693,0.694-0.693
	S64.346,47.733,64.346,48.116"/>
<path d="M9.325,45.348c0,0.845-0.684,1.527-1.527,1.527c-0.842,0-1.528-0.683-1.528-1.527c0-0.841,0.687-1.526,1.528-1.526
	C8.642,43.821,9.325,44.507,9.325,45.348"/>
<path d="M52.482,9.574c0,0.844-0.683,1.526-1.526,1.526c-0.845,0-1.528-0.683-1.528-1.526c0-0.841,0.684-1.527,1.528-1.527
	C51.8,8.047,52.482,8.733,52.482,9.574"/>
<path d="M43.975,65.238c0,0.384-0.312,0.694-0.694,0.694s-0.693-0.311-0.693-0.694c0-0.383,0.311-0.693,0.693-0.693
	S43.975,64.855,43.975,65.238"/>
<path d="M11.957,18.898c0,0.383-0.311,0.694-0.693,0.694c-0.384,0-0.694-0.312-0.694-0.694s0.311-0.693,0.694-0.693
	C11.646,18.205,11.957,18.516,11.957,18.898"/>
<path d="M67.83,31.473c0,0.844-0.683,1.526-1.526,1.526c-0.843,0-1.528-0.683-1.528-1.526c0-0.845,0.686-1.527,1.528-1.527
	C67.147,29.945,67.83,30.628,67.83,31.473"/>
<path d="M18.636,59.446c0,0.844-0.683,1.527-1.527,1.527c-0.842,0-1.527-0.684-1.527-1.527s0.686-1.527,1.527-1.527
	C17.953,57.919,18.636,58.603,18.636,59.446"/>
<path d="M36.055,5.461c0,0.845-0.683,1.527-1.526,1.527C33.686,6.988,33,6.306,33,5.461c0-0.844,0.686-1.526,1.528-1.526
	C35.372,3.935,36.055,4.617,36.055,5.461"/>
<path d="M59.733,57.155c0,0.844-0.684,1.527-1.527,1.527s-1.528-0.684-1.528-1.527s0.685-1.527,1.528-1.527
	S59.733,56.312,59.733,57.155"/>
<path d="M6.4,34.979c0,0.383-0.311,0.694-0.693,0.694s-0.694-0.312-0.694-0.694s0.312-0.694,0.694-0.694S6.4,34.597,6.4,34.979"/>
<path d="M60.216,15.824c0,0.384-0.311,0.694-0.693,0.694s-0.694-0.311-0.694-0.694c0-0.383,0.312-0.693,0.694-0.693
	S60.216,15.441,60.216,15.824"/>
<path d="M33.411,66.416c0,0.383-0.311,0.694-0.693,0.694c-0.384,0-0.694-0.312-0.694-0.694s0.311-0.694,0.694-0.694
	C33.101,65.722,33.411,66.033,33.411,66.416"/>
<path d="M18.969,10.879c0,0.383-0.311,0.694-0.693,0.694c-0.384,0-0.694-0.312-0.694-0.694s0.311-0.694,0.694-0.694
	C18.658,10.185,18.969,10.496,18.969,10.879"/>
<path d="M68.077,42.146c0,0.844-0.683,1.527-1.526,1.527c-0.845,0-1.528-0.684-1.528-1.527s0.684-1.527,1.528-1.527
	C67.395,40.619,68.077,41.303,68.077,42.146"/>
<path d="M11.229,51.721c0,0.845-0.683,1.527-1.526,1.527s-1.528-0.683-1.528-1.527c0-0.844,0.685-1.526,1.528-1.526
	S11.229,50.877,11.229,51.721"/>
<path d="M45.927,6.158c0,0.383-0.312,0.694-0.694,0.694s-0.693-0.312-0.693-0.694s0.311-0.693,0.693-0.693
	S45.927,5.775,45.927,6.158"/>
<path d="M50.517,63.884c0,0.383-0.311,0.694-0.694,0.694c-0.383,0-0.693-0.312-0.693-0.694s0.311-0.694,0.693-0.694
	C50.206,63.189,50.517,63.501,50.517,63.884"/>
<path d="M8.875,24.33c0,0.844-0.683,1.527-1.527,1.527c-0.842,0-1.527-0.684-1.527-1.527s0.686-1.527,1.527-1.527
	C8.192,22.803,8.875,23.486,8.875,24.33"/>
<path d="M67.042,24.808c0,0.845-0.684,1.527-1.527,1.527s-1.528-0.683-1.528-1.527c0-0.844,0.685-1.526,1.528-1.526
	S67.042,23.964,67.042,24.808"/>
<path d="M23.734,63.834c0,0.841-0.684,1.526-1.527,1.526s-1.528-0.686-1.528-1.526c0-0.845,0.685-1.527,1.528-1.527
	S23.734,62.989,23.734,63.834"/>
<path d="M29.318,5.675c0,0.842-0.684,1.527-1.527,1.527c-0.842,0-1.527-0.686-1.527-1.527c0-0.844,0.686-1.526,1.527-1.526
	C28.635,4.148,29.318,4.831,29.318,5.675"/>
<path d="M63.731,52.435c0,0.383-0.311,0.694-0.693,0.694c-0.384,0-0.694-0.312-0.694-0.694s0.311-0.694,0.694-0.694
	C63.421,51.74,63.731,52.052,63.731,52.435"/>
<path d="M6.031,41.738c0,0.383-0.311,0.694-0.693,0.694c-0.387,0-0.694-0.312-0.694-0.694s0.308-0.694,0.694-0.694
	C5.721,41.044,6.031,41.355,6.031,41.738"/>
<path d="M55.912,10.582c0,0.383-0.311,0.694-0.694,0.694c-0.386,0-0.693-0.312-0.693-0.694s0.308-0.694,0.693-0.694
	C55.602,9.888,55.912,10.199,55.912,10.582"/>
<path d="M40.143,67.374c0,0.383-0.312,0.694-0.694,0.694s-0.694-0.312-0.694-0.694c0-0.386,0.312-0.694,0.694-0.694
	S40.143,66.988,40.143,67.374"/>
<path d="M14.182,14.73c0,0.844-0.683,1.527-1.527,1.527c-0.842,0-1.527-0.684-1.527-1.527c0-0.841,0.686-1.527,1.527-1.527
	C13.499,13.203,14.182,13.89,14.182,14.73"/>
<path d="M69.616,35.493c0,0.844-0.684,1.527-1.527,1.527c-0.842,0-1.528-0.684-1.528-1.527c0-0.841,0.687-1.527,1.528-1.527
	C68.933,33.966,69.616,34.652,69.616,35.493"/>
<path d="M13.766,57.678c0,0.383-0.312,0.693-0.694,0.693s-0.694-0.311-0.694-0.693c0-0.384,0.312-0.694,0.694-0.694
	S13.766,57.294,13.766,57.678"/>
<path d="M39.403,4.04c0,0.386-0.311,0.693-0.693,0.693s-0.694-0.308-0.694-0.693c0-0.384,0.312-0.694,0.694-0.694
	S39.403,3.656,39.403,4.04"/>
<path d="M57.601,61.032c0,0.841-0.687,1.526-1.527,1.526c-0.844,0-1.527-0.686-1.527-1.526c0-0.845,0.684-1.527,1.527-1.527
	C56.914,59.505,57.601,60.188,57.601,61.032"/>
<path d="M6.192,30.673c0,0.841-0.683,1.526-1.526,1.526c-0.845,0-1.528-0.686-1.528-1.526c0-0.845,0.684-1.527,1.528-1.527
	C5.51,29.146,6.192,29.828,6.192,30.673"/>
<path d="M64.729,18.307c0,0.845-0.683,1.527-1.527,1.527c-0.844,0-1.527-0.683-1.527-1.527c0-0.844,0.684-1.526,1.527-1.526
	C64.046,16.78,64.729,17.463,64.729,18.307"/>
<path d="M29.846,67.068c0,0.841-0.683,1.527-1.526,1.527c-0.845,0-1.528-0.687-1.528-1.527c0-0.844,0.684-1.526,1.528-1.526
	C29.163,65.542,29.846,66.225,29.846,67.068"/>
<path d="M21.782,7.425c0,0.383-0.312,0.693-0.694,0.693s-0.694-0.311-0.694-0.693s0.312-0.694,0.694-0.694
	S21.782,7.042,21.782,7.425"/>
<path d="M67.497,46.601c0,0.383-0.311,0.694-0.694,0.694c-0.383,0-0.693-0.312-0.693-0.694s0.311-0.694,0.693-0.694
	C67.187,45.906,67.497,46.218,67.497,46.601"/>
<path d="M7.201,48.597c0,0.384-0.312,0.694-0.694,0.694s-0.694-0.311-0.694-0.694c0-0.383,0.312-0.693,0.694-0.693
	S7.201,48.214,7.201,48.597"/>
<path d="M50.403,6.309c0,0.383-0.312,0.694-0.694,0.694s-0.694-0.312-0.694-0.694s0.312-0.694,0.694-0.694
	S50.403,5.926,50.403,6.309"/>
<path d="M47.938,66.797c0,0.844-0.684,1.526-1.527,1.526c-0.842,0-1.528-0.683-1.528-1.526c0-0.841,0.687-1.527,1.528-1.527
	C47.254,65.27,47.938,65.956,47.938,66.797"/>
<path d="M9.431,19.87c0,0.845-0.684,1.527-1.527,1.527s-1.528-0.683-1.528-1.527c0-0.841,0.685-1.526,1.528-1.526
	S9.431,19.029,9.431,19.87"/>
<path d="M68.813,28.479c0,0.383-0.312,0.694-0.694,0.694s-0.693-0.312-0.693-0.694s0.311-0.693,0.693-0.693
	S68.813,28.096,68.813,28.479"/>
<path d="M18.494,62.876c0,0.386-0.312,0.693-0.694,0.693s-0.693-0.308-0.693-0.693c0-0.384,0.311-0.694,0.693-0.694
	S18.494,62.492,18.494,62.876"/>
<path d="M33.223,3.404c0,0.844-0.684,1.526-1.527,1.526c-0.842,0-1.528-0.683-1.528-1.526c0-0.845,0.687-1.527,1.528-1.527
	C32.539,1.877,33.223,2.56,33.223,3.404"/>
<path d="M63.213,56.753c0,0.841-0.687,1.526-1.527,1.526c-0.844,0-1.528-0.686-1.528-1.526c0-0.845,0.685-1.527,1.528-1.527
	C62.526,55.226,63.213,55.908,63.213,56.753"/>
<path d="M4.946,37.631c0,0.845-0.684,1.527-1.527,1.527c-0.842,0-1.528-0.683-1.528-1.527c0-0.841,0.687-1.526,1.528-1.526
	C4.263,36.104,4.946,36.79,4.946,37.631"/>
<path d="M60.936,12.323c0,0.844-0.683,1.526-1.527,1.526c-0.844,0-1.527-0.683-1.527-1.526s0.684-1.527,1.527-1.527
	C60.253,10.796,60.936,11.479,60.936,12.323"/>
<path d="M35.866,68.918c0,0.383-0.312,0.694-0.694,0.694s-0.693-0.312-0.693-0.694s0.311-0.694,0.693-0.694
	S35.866,68.535,35.866,68.918"/>
<path d="M15.468,10.698c0,0.384-0.312,0.694-0.694,0.694s-0.694-0.311-0.694-0.694c0-0.383,0.312-0.693,0.694-0.693
	S15.468,10.315,15.468,10.698"/>
<path d="M69.943,39.905c0,0.383-0.311,0.694-0.693,0.694c-0.384,0-0.694-0.312-0.694-0.694s0.311-0.693,0.694-0.693
	C69.633,39.212,69.943,39.522,69.943,39.905"/>
<path d="M9.928,55.197c0,0.384-0.312,0.694-0.694,0.694s-0.694-0.311-0.694-0.694c0-0.383,0.312-0.693,0.694-0.693
	S9.928,54.814,9.928,55.197"/>
<path d="M44.752,3.281c0,0.845-0.683,1.527-1.527,1.527c-0.844,0-1.527-0.683-1.527-1.527c0-0.844,0.684-1.526,1.527-1.526
	C44.069,1.755,44.752,2.438,44.752,3.281"/>
<path d="M54.776,64.642c0,0.844-0.683,1.527-1.527,1.527c-0.844,0-1.527-0.684-1.527-1.527c0-0.841,0.684-1.527,1.527-1.527
	C54.094,63.114,54.776,63.801,54.776,64.642"/>
<path d="M5.007,26.094c0,0.383-0.311,0.693-0.694,0.693c-0.383,0-0.693-0.311-0.693-0.693c0-0.384,0.311-0.694,0.693-0.694
	C4.696,25.399,5.007,25.71,5.007,26.094"/>
<path d="M67.25,21.453c0,0.383-0.308,0.694-0.694,0.694c-0.383,0-0.693-0.312-0.693-0.694s0.311-0.693,0.693-0.693
	C66.942,20.76,67.25,21.07,67.25,21.453"/>
<path d="M25.239,67.008c0,0.844-0.687,1.526-1.527,1.526c-0.844,0-1.528-0.683-1.528-1.526c0-0.845,0.685-1.527,1.528-1.527
	C24.553,65.48,25.239,66.163,25.239,67.008"/>
<path d="M26.061,4.356c0,0.841-0.683,1.526-1.526,1.526c-0.842,0-1.528-0.686-1.528-1.526c0-0.844,0.687-1.527,1.528-1.527
	C25.378,2.829,26.061,3.513,26.061,4.356"/>
<path d="M67.855,51.199c0,0.844-0.684,1.526-1.527,1.526s-1.527-0.683-1.527-1.526c0-0.845,0.684-1.527,1.527-1.527
	S67.855,50.354,67.855,51.199"/>
<path d="M5.276,44.876c0,0.844-0.683,1.527-1.527,1.527c-0.844,0-1.527-0.684-1.527-1.527c0-0.841,0.684-1.526,1.527-1.526
	C4.594,43.35,5.276,44.035,5.276,44.876"/>
<path d="M54.954,7.194c0,0.386-0.311,0.694-0.694,0.694c-0.383,0-0.693-0.309-0.693-0.694c0-0.383,0.311-0.694,0.693-0.694
	C54.644,6.5,54.954,6.812,54.954,7.194"/>
<path d="M43.139,69.218c0,0.383-0.311,0.694-0.694,0.694c-0.383,0-0.693-0.312-0.693-0.694s0.311-0.693,0.693-0.693
	C42.828,68.524,43.139,68.835,43.139,69.218"/>
<path d="M9.895,15.402c0,0.383-0.312,0.694-0.694,0.694s-0.694-0.312-0.694-0.694s0.312-0.693,0.694-0.693S9.895,15.02,9.895,15.402
	"/>
<path d="M70.874,32.658c0,0.386-0.312,0.693-0.694,0.693s-0.694-0.308-0.694-0.693c0-0.383,0.312-0.694,0.694-0.694
	S70.874,32.275,70.874,32.658"/>
<path d="M14.979,61.179c0,0.845-0.683,1.527-1.527,1.527c-0.844,0-1.527-0.683-1.527-1.527c0-0.841,0.684-1.526,1.527-1.526
	C14.296,59.652,14.979,60.338,14.979,61.179"/>
<path d="M37.585,1.718c0,0.845-0.683,1.527-1.527,1.527c-0.844,0-1.527-0.683-1.527-1.527c0-0.841,0.684-1.526,1.527-1.526
	C36.902,0.191,37.585,0.877,37.585,1.718"/>
<path d="M60.291,60.943c0,0.386-0.311,0.693-0.693,0.693c-0.384,0-0.694-0.308-0.694-0.693c0-0.384,0.311-0.694,0.694-0.694
	C59.98,60.249,60.291,60.56,60.291,60.943"/>
<path d="M2.821,33.122c0,0.386-0.311,0.693-0.693,0.693c-0.384,0-0.694-0.308-0.694-0.693c0-0.384,0.311-0.694,0.694-0.694
	C2.511,32.428,2.821,32.738,2.821,33.122"/>
<path d="M64.937,14.783c0,0.844-0.683,1.527-1.526,1.527c-0.842,0-1.528-0.684-1.528-1.527s0.687-1.527,1.528-1.527
	C64.254,13.256,64.937,13.939,64.937,14.783"/>
<path d="M32.078,69.804c0,0.841-0.686,1.527-1.526,1.527c-0.845,0-1.528-0.687-1.528-1.527c0-0.844,0.684-1.527,1.528-1.527
	C31.393,68.276,32.078,68.96,32.078,69.804"/>
<path d="M19.119,6.922c0,0.845-0.684,1.527-1.527,1.527s-1.528-0.683-1.528-1.527c0-0.844,0.685-1.526,1.528-1.526
	S19.119,6.078,19.119,6.922"/>
<path d="M71.246,44.604c0,0.845-0.687,1.527-1.527,1.527c-0.844,0-1.528-0.683-1.528-1.527c0-0.844,0.685-1.526,1.528-1.526
	C70.56,43.077,71.246,43.76,71.246,44.604"/>
<path d="M6.406,52.043c0,0.383-0.311,0.694-0.693,0.694c-0.384,0-0.694-0.312-0.694-0.694s0.311-0.693,0.694-0.693
	C6.096,51.35,6.406,51.66,6.406,52.043"/>
<path d="M48.653,3.234c0,0.383-0.311,0.694-0.694,0.694c-0.383,0-0.693-0.312-0.693-0.694s0.311-0.694,0.693-0.694
	C48.343,2.54,48.653,2.852,48.653,3.234"/>
<path d="M50.475,67.88c0,0.383-0.311,0.693-0.693,0.693s-0.694-0.311-0.694-0.693c0-0.384,0.312-0.694,0.694-0.694
	S50.475,67.496,50.475,67.88"/>
<path d="M5.385,21.356c0,0.386-0.312,0.693-0.694,0.693s-0.694-0.308-0.694-0.693c0-0.384,0.312-0.694,0.694-0.694
	S5.385,20.973,5.385,21.356"/>
<path d="M71.007,25.21c0,0.842-0.686,1.527-1.526,1.527c-0.845,0-1.528-0.686-1.528-1.527c0-0.844,0.684-1.526,1.528-1.526
	C70.321,23.684,71.007,24.366,71.007,25.21"/>
<path d="M20.541,66.205c0,0.844-0.684,1.527-1.527,1.527s-1.528-0.684-1.528-1.527c0-0.841,0.685-1.527,1.528-1.527
	S20.541,65.364,20.541,66.205"/>
<path d="M29.243,1.773c0,0.384-0.311,0.694-0.694,0.694c-0.383,0-0.693-0.311-0.693-0.694c0-0.383,0.311-0.693,0.693-0.693
	C28.933,1.08,29.243,1.391,29.243,1.773"/>
<path d="M65.801,55.822c0,0.383-0.312,0.694-0.694,0.694s-0.694-0.312-0.694-0.694c0-0.386,0.312-0.694,0.694-0.694
	S65.801,55.437,65.801,55.822"/>
<path d="M3.055,40.636c0,0.841-0.683,1.527-1.527,1.527C0.686,42.163,0,41.477,0,40.636c0-0.844,0.686-1.527,1.527-1.527
	C2.372,39.108,3.055,39.792,3.055,40.636"/>
<path d="M60.294,8.83c0,0.844-0.683,1.526-1.527,1.526c-0.842,0-1.527-0.683-1.527-1.526c0-0.841,0.686-1.527,1.527-1.527
	C59.611,7.303,60.294,7.989,60.294,8.83"/>
<path d="M39.537,71.057c0,0.844-0.686,1.526-1.527,1.526c-0.844,0-1.527-0.683-1.527-1.526c0-0.845,0.684-1.527,1.527-1.527
	C38.852,69.529,39.537,70.212,39.537,71.057"/>
<path d="M12.766,11.046c0,0.844-0.687,1.527-1.527,1.527c-0.844,0-1.527-0.684-1.527-1.527s0.684-1.527,1.527-1.527
	C12.079,9.519,12.766,10.202,12.766,11.046"/>
<path d="M72.312,37.257c0,0.383-0.312,0.693-0.694,0.693s-0.694-0.311-0.694-0.693c0-0.384,0.312-0.694,0.694-0.694
	S72.312,36.873,72.312,37.257"/>
<path d="M9.975,58.755c0,0.383-0.311,0.694-0.693,0.694c-0.384,0-0.694-0.312-0.694-0.694s0.311-0.694,0.694-0.694
	C9.664,58.061,9.975,58.372,9.975,58.755"/>
<path d="M41.476,0.693c0,0.384-0.312,0.694-0.694,0.694s-0.694-0.311-0.694-0.694C40.087,0.311,40.398,0,40.781,0
	S41.476,0.311,41.476,0.693"/>
<path d="M57.495,64.895c0,0.383-0.312,0.694-0.694,0.694s-0.693-0.312-0.693-0.694s0.311-0.694,0.693-0.694
	S57.495,64.512,57.495,64.895"/>
<path d="M3.055,28.312c0,0.844-0.686,1.526-1.527,1.526C0.684,29.839,0,29.156,0,28.312c0-0.842,0.684-1.527,1.527-1.527
	C2.369,26.785,3.055,27.471,3.055,28.312"/>
<path d="M68.633,17.933c0,0.844-0.683,1.526-1.527,1.526c-0.844,0-1.527-0.683-1.527-1.526c0-0.845,0.684-1.527,1.527-1.527
	C67.95,16.405,68.633,17.088,68.633,17.933"/>
<path d="M26.386,69.974c0,0.383-0.311,0.693-0.694,0.693c-0.383,0-0.693-0.311-0.693-0.693c0-0.384,0.311-0.694,0.693-0.694
	C26.075,69.279,26.386,69.59,26.386,69.974"/>
<path d="M21.763,3.512c0,0.384-0.312,0.694-0.694,0.694s-0.694-0.311-0.694-0.694c0-0.383,0.312-0.693,0.694-0.693
	S21.763,3.129,21.763,3.512"/>
<path d="M70.979,49.472c0,0.844-0.684,1.527-1.527,1.527c-0.842,0-1.527-0.684-1.527-1.527c0-0.841,0.686-1.527,1.527-1.527
	C70.296,47.944,70.979,48.631,70.979,49.472"/>
<path d="M4.144,48.264c0,0.844-0.684,1.527-1.527,1.527s-1.528-0.684-1.528-1.527c0-0.841,0.685-1.526,1.528-1.526
	S4.144,47.423,4.144,48.264"/>
<path d="M54.326,3.935c0,0.844-0.683,1.526-1.526,1.526c-0.842,0-1.528-0.683-1.528-1.526c0-0.845,0.687-1.527,1.528-1.527
	C53.644,2.407,54.326,3.09,54.326,3.935"/>
<path d="M47.257,70.631c0,0.845-0.684,1.527-1.527,1.527s-1.528-0.683-1.528-1.527c0-0.841,0.685-1.526,1.528-1.526
	S47.257,69.79,47.257,70.631"/>
</svg>
