<?xml version="1.0" encoding="utf-8"?>
<!-- Generator: Adobe Illustrator 15.0.0, SVG Export Plug-In  -->
<!DOCTYPE svg PUBLIC "-//W3C//DTD SVG 1.1//EN" "http://www.w3.org/Graphics/SVG/1.1/DTD/svg11.dtd" [
	<!ENTITY ns_flows "http://ns.adobe.com/Flows/1.0/">
]>
<svg version="1.1"
	 xmlns="http://www.w3.org/2000/svg" xmlns:xlink="http://www.w3.org/1999/xlink" xmlns:a="http://ns.adobe.com/AdobeSVGViewerExtensions/3.0/"
	 x="0px" y="0px" width="19px" height="16px" viewBox="0 0 19 16" overflow="visible" enable-background="new 0 0 19 16"
	 xml:space="preserve">
<defs>
</defs>
<path fill="#231F20" d="M17.294,3.896c0.008,0.171,0.012,0.342,0.012,0.512c0,5.225-3.976,11.248-11.247,11.248
	c-2.232,0-4.309-0.654-6.059-1.777c0.31,0.037,0.623,0.056,0.941,0.056c1.854,0,3.557-0.633,4.909-1.69
	c-1.729-0.033-3.188-1.174-3.692-2.745C2.4,9.544,2.648,9.568,2.902,9.568c0.361,0,0.711-0.048,1.041-0.138
	c-1.808-0.363-3.17-1.961-3.17-3.877v-0.05C1.307,5.801,1.916,5.979,2.563,6C1.503,5.29,0.805,4.081,0.805,2.709
	c0-0.724,0.195-1.404,0.536-1.988c1.948,2.394,4.862,3.966,8.147,4.131C9.422,4.562,9.387,4.261,9.387,3.95
	c0-2.183,1.77-3.95,3.952-3.95c1.137,0,2.164,0.478,2.886,1.247c0.898-0.178,1.745-0.507,2.51-0.959
	c-0.295,0.922-0.923,1.697-1.738,2.186c0.801-0.096,1.561-0.307,2.271-0.622C18.736,2.646,18.066,3.341,17.294,3.896"/>
</svg>
