<?xml version="1.0" encoding="utf-8"?>
<!-- Generator: Adobe Illustrator 15.0.0, SVG Export Plug-In  -->
<!DOCTYPE svg PUBLIC "-//W3C//DTD SVG 1.1//EN" "http://www.w3.org/Graphics/SVG/1.1/DTD/svg11.dtd" [
	<!ENTITY ns_flows "http://ns.adobe.com/Flows/1.0/">
]>
<svg version="1.1"
	 xmlns="http://www.w3.org/2000/svg" xmlns:xlink="http://www.w3.org/1999/xlink" xmlns:a="http://ns.adobe.com/AdobeSVGViewerExtensions/3.0/"
	 x="0px" y="0px" width="24px" height="24px" viewBox="0 0 24 24" overflow="visible" enable-background="new 0 0 24 24"
	 xml:space="preserve">
<defs>
</defs>
<path fill="#231F20" d="M12.089,0C8.807,0,8.395,0.014,7.105,0.073C5.818,0.131,4.939,0.336,4.17,0.634
	c-0.795,0.31-1.469,0.724-2.141,1.396S0.943,3.375,0.635,4.17c-0.299,0.77-0.504,1.648-0.562,2.936C0.014,8.395,0,8.806,0,12.089
	s0.014,3.695,0.073,4.984c0.058,1.287,0.263,2.166,0.562,2.935c0.309,0.795,0.723,1.47,1.395,2.142s1.346,1.085,2.141,1.394
	c0.77,0.299,1.648,0.503,2.936,0.562c1.289,0.059,1.701,0.072,4.983,0.072c3.283,0,3.695-0.014,4.984-0.072
	c1.286-0.06,2.165-0.264,2.935-0.562c0.795-0.309,1.469-0.722,2.141-1.394s1.086-1.347,1.395-2.142
	c0.299-0.769,0.504-1.647,0.562-2.935c0.059-1.289,0.072-1.701,0.072-4.984s-0.014-3.694-0.072-4.983
	c-0.059-1.287-0.264-2.166-0.562-2.936c-0.309-0.795-0.723-1.469-1.395-2.141s-1.346-1.086-2.141-1.396
	c-0.77-0.298-1.648-0.503-2.935-0.561C15.784,0.014,15.372,0,12.089,0 M12.089,2.178c3.228,0,3.61,0.013,4.886,0.07
	c1.178,0.054,1.818,0.251,2.244,0.417c0.564,0.219,0.967,0.481,1.391,0.904c0.423,0.423,0.685,0.826,0.904,1.39
	c0.166,0.426,0.362,1.066,0.416,2.245C21.988,8.479,22,8.861,22,12.089c0,3.229-0.012,3.61-0.07,4.885
	c-0.054,1.18-0.25,1.819-0.416,2.245c-0.22,0.564-0.481,0.968-0.904,1.391c-0.424,0.423-0.826,0.685-1.391,0.903
	c-0.426,0.165-1.066,0.362-2.244,0.416C15.699,21.987,15.316,22,12.089,22s-3.61-0.013-4.885-0.071
	c-1.179-0.054-1.819-0.251-2.245-0.416c-0.564-0.219-0.967-0.48-1.391-0.903c-0.422-0.423-0.685-0.826-0.903-1.391
	c-0.166-0.426-0.363-1.065-0.416-2.245c-0.06-1.274-0.071-1.656-0.071-4.885c0-3.228,0.012-3.609,0.071-4.885
	c0.053-1.179,0.25-1.819,0.416-2.245c0.219-0.563,0.481-0.967,0.903-1.39c0.424-0.423,0.826-0.686,1.391-0.904
	c0.426-0.166,1.066-0.363,2.245-0.417C8.479,2.19,8.861,2.178,12.089,2.178"/>
<path fill="#231F20" d="M12.089,16.119c-2.226,0-4.03-1.805-4.03-4.03s1.805-4.03,4.03-4.03s4.03,1.805,4.03,4.03
	S14.314,16.119,12.089,16.119 M12.089,5.881c-3.429,0-6.208,2.779-6.208,6.208c0,3.428,2.779,6.208,6.208,6.208
	s6.208-2.78,6.208-6.208C18.297,8.66,15.518,5.881,12.089,5.881"/>
<path fill="#231F20" d="M19.992,5.636c0,0.801-0.648,1.451-1.45,1.451s-1.45-0.65-1.45-1.451s0.648-1.451,1.45-1.451
	S19.992,4.835,19.992,5.636"/>
</svg>
