<?xml version="1.0" encoding="utf-8"?>
<!-- Generator: Adobe Illustrator 15.0.0, SVG Export Plug-In  -->
<!DOCTYPE svg PUBLIC "-//W3C//DTD SVG 1.1//EN" "http://www.w3.org/Graphics/SVG/1.1/DTD/svg11.dtd" [
	<!ENTITY ns_flows "http://ns.adobe.com/Flows/1.0/">
]>
<svg version="1.1"
	 xmlns="http://www.w3.org/2000/svg" xmlns:xlink="http://www.w3.org/1999/xlink" xmlns:a="http://ns.adobe.com/AdobeSVGViewerExtensions/3.0/"
	 x="0px" y="0px" width="22px" height="22px" viewBox="0 0 22 22" overflow="visible" enable-background="new 0 0 22 22"
	 xml:space="preserve">
<defs>
</defs>
<path fill="#231F20" d="M0,5.987h4.79v15.568H0V5.987z M4.79,2.395c0,1.272-0.851,2.366-2.396,2.366C0.939,4.761,0,3.729,0,2.457
	C0,1.151,0.91,0,2.395,0C3.881,0,4.762,1.09,4.79,2.395"/>
<path fill="#231F20" d="M7.186,11.31c0-1.851-0.061-3.396-0.122-4.732h4.304l0.213,2.064h0.092c0.605-0.972,2.09-2.396,4.576-2.396
	c3.032,0,5.309,2.03,5.309,6.397v8.912h-4.79v-8.217c0-1.908-0.728-3.364-2.396-3.364c-1.271,0-1.909,1.029-2.243,1.879
	c-0.121,0.304-0.151,0.728-0.151,1.152v8.55h-4.79V11.31z"/>
</svg>
